0
SECTION
2
HEADER
9
$ACADVER
1
AC1009
0
ENDSEC
0
SECTION
2
TABLES
0
TABLE
2
VPORT
70
1
0
VPORT
2
ACTIVE
70
0
10
0.0
20
0.0
11
0.0
21
0.0
12
0.0
22
0.0
13
0.0
23
0.0
14
0.0
24
0.0
15
0.0
25
0.0
16
0.0
26
0.0
36
0.0
17
0.0
27
0.0
37
0.0
40
0.0
41
0.0
42
0.0
43
0.0
44
0.0
50
0.0
51
0.0
71
0
72
1000
73
1
74
3
75
0
76
0
77
0
78
0
0
ENDTAB
0
ENDSEC
0
SECTION
2
ENTITIES
0
LINE
8
boundary
62
5
39
2
10
1.587500
20
246.308411
11
1.587500
21
236.276382
0
LINE
8
boundary
62
5
39
2
10
1.587500
20
236.276382
11
36.380378
21
235.976382
0
LINE
8
boundary
62
5
39
2
10
36.380378
20
235.976382
11
36.380378
21
229.976382
0
LINE
8
boundary
62
5
39
2
10
36.380378
20
229.976382
11
1.887500
21
229.976382
0
LINE
8
boundary
62
5
39
2
10
1.887500
20
229.976382
11
1.587500
21
209.054161
0
LINE
8
boundary
62
5
39
2
10
1.587500
20
209.054161
11
63.391177
21
208.754161
0
LINE
8
boundary
62
5
39
2
10
63.391177
20
208.754161
11
63.391176
21
202.754161
0
LINE
8
boundary
62
5
39
2
10
63.391176
20
202.754161
11
1.887500
21
202.754161
0
LINE
8
boundary
62
5
39
2
10
1.887500
20
202.754161
11
1.587500
21
181.831939
0
LINE
8
boundary
62
5
39
2
10
1.587500
20
181.831939
11
80.003486
21
181.531939
0
LINE
8
boundary
62
5
39
2
10
80.003486
20
181.531939
11
80.003486
21
175.531940
0
LINE
8
boundary
62
5
39
2
10
80.003486
20
175.531940
11
1.887500
21
175.531940
0
LINE
8
boundary
62
5
39
2
10
1.887500
20
175.531940
11
1.587500
21
154.609718
0
LINE
8
boundary
62
5
39
2
10
1.587500
20
154.609718
11
91.843298
21
154.309718
0
LINE
8
boundary
62
5
39
2
10
91.843298
20
154.309718
11
91.843298
21
148.309718
0
LINE
8
boundary
62
5
39
2
10
91.843298
20
148.309718
11
1.887500
21
148.309718
0
LINE
8
boundary
62
5
39
2
10
1.887500
20
148.309718
11
1.587500
21
127.387497
0
LINE
8
boundary
62
5
39
2
10
1.587500
20
127.387497
11
100.621415
21
127.087497
0
LINE
8
boundary
62
5
39
2
10
100.621415
20
127.087497
11
100.621415
21
121.087497
0
LINE
8
boundary
62
5
39
2
10
100.621415
20
121.087497
11
1.887500
21
121.087497
0
LINE
8
boundary
62
5
39
2
10
1.887500
20
121.087497
11
1.587500
21
100.165275
0
LINE
8
boundary
62
5
39
2
10
1.587500
20
100.165275
11
107.050826
21
99.865276
0
LINE
8
boundary
62
5
39
2
10
107.050826
20
99.865276
11
107.050826
21
93.865275
0
LINE
8
boundary
62
5
39
2
10
107.050826
20
93.865275
11
1.887500
21
93.865276
0
LINE
8
boundary
62
5
39
2
10
1.887500
20
93.865276
11
1.587500
21
72.943054
0
LINE
8
boundary
62
5
39
2
10
1.587500
20
72.943054
11
15.176285
21
72.643054
0
LINE
8
boundary
62
5
39
2
10
15.176285
20
72.643054
11
15.176285
21
66.643054
0
LINE
8
boundary
62
5
39
2
10
15.176285
20
66.643054
11
1.887500
21
66.643054
0
LINE
8
boundary
62
5
39
2
10
1.887500
20
66.643054
11
1.587501
21
45.720833
0
LINE
8
boundary
62
5
39
2
10
1.587501
20
45.720833
11
14.421675
21
45.420833
0
LINE
8
boundary
62
5
39
2
10
14.421675
20
45.420833
11
14.421675
21
39.420833
0
LINE
8
boundary
62
5
39
2
10
14.421675
20
39.420833
11
1.887501
21
39.420833
0
LINE
8
boundary
62
5
39
2
10
1.887501
20
39.420833
11
1.587501
21
1.587501
0
LINE
8
boundary
62
5
39
2
10
1.587501
20
1.587501
11
3.893013
21
1.587502
0
LINE
8
boundary
62
5
39
2
10
3.893013
20
1.587502
11
6.716734
21
1.587502
0
LINE
8
boundary
62
5
39
2
10
6.716734
20
1.587502
11
12.809982
21
1.587501
0
LINE
8
boundary
62
5
39
2
10
12.809982
20
1.587501
11
14.484639
21
1.587501
0
LINE
8
boundary
62
5
39
2
10
14.484639
20
1.587501
11
21.197161
21
1.587500
0
LINE
8
boundary
62
5
39
2
10
21.197161
20
1.587500
11
24.254825
21
1.587501
0
LINE
8
boundary
62
5
39
2
10
24.254825
20
1.587501
11
25.758620
21
3.057762
0
LINE
8
boundary
62
5
39
2
10
25.758620
20
3.057762
11
27.255851
21
4.587511
0
LINE
8
boundary
62
5
39
2
10
27.255851
20
4.587511
11
27.255851
21
40.233493
0
LINE
8
boundary
62
5
39
2
10
27.255851
20
40.233493
11
27.255851
21
64.016025
0
LINE
8
boundary
62
5
39
2
10
27.255851
20
64.016025
11
27.620573
21
66.235983
0
LINE
8
boundary
62
5
39
2
10
27.620573
20
66.235983
11
27.721973
21
67.121861
0
LINE
8
boundary
62
5
39
2
10
27.721973
20
67.121861
11
28.673167
21
69.420924
0
LINE
8
boundary
62
5
39
2
10
28.673167
20
69.420924
11
28.919378
21
70.016021
0
LINE
8
boundary
62
5
39
2
10
28.919378
20
70.016021
11
30.427041
21
71.983157
0
LINE
8
boundary
62
5
39
2
10
30.427041
20
71.983157
11
30.824172
21
72.501316
0
LINE
8
boundary
62
5
39
2
10
30.824172
20
72.501316
11
32.784167
21
74.007031
0
LINE
8
boundary
62
5
39
2
10
32.784167
20
74.007031
11
33.306550
21
74.408338
0
LINE
8
boundary
62
5
39
2
10
33.306550
20
74.408338
11
35.586280
21
75.353741
0
LINE
8
boundary
62
5
39
2
10
35.586280
20
75.353741
11
36.197339
21
75.607147
0
LINE
8
boundary
62
5
39
2
10
36.197339
20
75.607147
11
38.584164
21
75.922506
0
LINE
8
boundary
62
5
39
2
10
38.584164
20
75.922506
11
39.287231
21
76.016040
0
LINE
8
boundary
62
5
39
2
10
39.287231
20
76.016040
11
50.190776
21
76.016040
0
LINE
8
boundary
62
5
39
2
10
50.190776
20
76.016040
11
60.986188
21
76.016040
0
LINE
8
boundary
62
5
39
2
10
60.986188
20
76.016040
11
69.245305
21
76.016040
0
LINE
8
boundary
62
5
39
2
10
69.245305
20
76.016040
11
75.408993
21
76.016040
0
LINE
8
boundary
62
5
39
2
10
75.408993
20
76.016040
11
79.819378
21
76.016040
0
LINE
8
boundary
62
5
39
2
10
79.819378
20
76.016040
11
82.739907
21
76.016039
0
LINE
8
boundary
62
5
39
2
10
82.739907
20
76.016039
11
84.371293
21
76.016041
0
LINE
8
boundary
62
5
39
2
10
84.371293
20
76.016041
11
94.989612
21
76.016040
0
LINE
8
boundary
62
5
39
2
10
94.989612
20
76.016040
11
109.016271
21
76.016040
0
LINE
8
boundary
62
5
39
2
10
109.016271
20
76.016040
11
128.611851
21
76.016040
0
LINE
8
boundary
62
5
39
2
10
128.611851
20
76.016040
11
158.247214
21
76.016040
0
LINE
8
boundary
62
5
39
2
10
158.247214
20
76.016040
11
208.921740
21
76.016040
0
LINE
8
boundary
62
5
39
2
10
208.921740
20
76.016040
11
210.925922
21
76.288645
0
LINE
8
boundary
62
5
39
2
10
210.925922
20
76.288645
11
212.466177
21
76.926813
0
LINE
8
boundary
62
5
39
2
10
212.466177
20
76.926813
11
214.177773
21
78.103286
0
LINE
8
boundary
62
5
39
2
10
214.177773
20
78.103286
11
215.526667
21
79.683045
0
LINE
8
boundary
62
5
39
2
10
215.526667
20
79.683045
11
216.420770
21
81.558362
0
LINE
8
boundary
62
5
39
2
10
216.420770
20
81.558362
11
216.799001
21
83.601391
0
LINE
8
boundary
62
5
39
2
10
216.799001
20
83.601391
11
216.635532
21
85.672761
0
LINE
8
boundary
62
5
39
2
10
216.635532
20
85.672761
11
216.451705
21
86.510264
0
LINE
8
boundary
62
5
39
2
10
216.451705
20
86.510264
11
215.701101
21
88.678201
0
LINE
8
boundary
62
5
39
2
10
215.701101
20
88.678201
11
213.854127
21
93.628839
0
LINE
8
boundary
62
5
39
2
10
213.854127
20
93.628839
11
211.081781
21
100.324869
0
LINE
8
boundary
62
5
39
2
10
211.081781
20
100.324869
11
208.377982
21
106.855346
0
LINE
8
boundary
62
5
39
2
10
208.377982
20
106.855346
11
205.199712
21
113.385817
0
LINE
8
boundary
62
5
39
2
10
205.199712
20
113.385817
11
202.113603
21
119.726926
0
LINE
8
boundary
62
5
39
2
10
202.113603
20
119.726926
11
198.538823
21
126.067993
0
LINE
8
boundary
62
5
39
2
10
198.538823
20
126.067993
11
195.083833
21
132.196576
0
LINE
8
boundary
62
5
39
2
10
195.083833
20
132.196576
11
191.123190
21
138.325138
0
LINE
8
boundary
62
5
39
2
10
191.123190
20
138.325138
11
187.314330
21
144.218837
0
LINE
8
boundary
62
5
39
2
10
187.314330
20
144.218837
11
182.979606
21
150.112530
0
LINE
8
boundary
62
5
39
2
10
182.979606
20
150.112530
11
178.833436
21
155.749857
0
LINE
8
boundary
62
5
39
2
10
178.833436
20
155.749857
11
174.137413
21
161.387206
0
LINE
8
boundary
62
5
39
2
10
174.137413
20
161.387206
11
169.672094
21
166.747611
0
LINE
8
boundary
62
5
39
2
10
169.672094
20
166.747611
11
164.628434
21
172.107946
0
LINE
8
boundary
62
5
39
2
10
164.628434
20
172.107946
11
159.863745
21
177.171780
0
LINE
8
boundary
62
5
39
2
10
159.863745
20
177.171780
11
154.486733
21
182.235635
0
LINE
8
boundary
62
5
39
2
10
154.486733
20
182.235635
11
149.444176
21
186.984512
0
LINE
8
boundary
62
5
39
2
10
149.444176
20
186.984512
11
143.748504
21
191.733406
0
LINE
8
boundary
62
5
39
2
10
143.748504
20
191.733406
11
138.451398
21
196.149984
0
LINE
8
boundary
62
5
39
2
10
138.451398
20
196.149984
11
132.451813
21
200.566544
0
LINE
8
boundary
62
5
39
2
10
132.451813
20
200.566544
11
126.925538
21
204.634683
0
LINE
8
boundary
62
5
39
2
10
126.925538
20
204.634683
11
120.636287
21
208.702828
0
LINE
8
boundary
62
5
39
2
10
120.636287
20
208.702828
11
114.908635
21
212.407712
0
LINE
8
boundary
62
5
39
2
10
114.908635
20
212.407712
11
108.342716
21
216.112541
0
LINE
8
boundary
62
5
39
2
10
108.342716
20
216.112541
11
102.444545
21
219.440592
0
LINE
8
boundary
62
5
39
2
10
102.444545
20
219.440592
11
95.612441
21
222.768619
0
LINE
8
boundary
62
5
39
2
10
95.612441
20
222.768619
11
89.578754
21
225.707723
0
LINE
8
boundary
62
5
39
2
10
89.578754
20
225.707723
11
82.486276
21
228.646868
0
LINE
8
boundary
62
5
39
2
10
82.486276
20
228.646868
11
76.358196
21
231.186361
0
LINE
8
boundary
62
5
39
2
10
76.358196
20
231.186361
11
69.002421
21
233.725830
0
LINE
8
boundary
62
5
39
2
10
69.002421
20
233.725830
11
62.831119
21
235.856377
0
LINE
8
boundary
62
5
39
2
10
62.831119
20
235.856377
11
55.191959
21
237.986898
0
LINE
8
boundary
62
5
39
2
10
55.191959
20
237.986898
11
49.046876
21
239.700728
0
LINE
8
boundary
62
5
39
2
10
49.046876
20
239.700728
11
41.066617
21
241.414530
0
LINE
8
boundary
62
5
39
2
10
41.066617
20
241.414530
11
35.055774
21
242.705390
0
LINE
8
boundary
62
5
39
2
10
35.055774
20
242.705390
11
26.578001
21
243.996253
0
LINE
8
boundary
62
5
39
2
10
26.578001
20
243.996253
11
20.908857
21
244.859461
0
LINE
8
boundary
62
5
39
2
10
20.908857
20
244.859461
11
11.413957
21
245.722727
0
LINE
8
boundary
62
5
39
2
10
11.413957
20
245.722727
11
6.657749
21
246.155155
0
LINE
8
boundary
62
5
39
2
10
6.657749
20
246.155155
11
1.587500
21
246.308411
0
LINE
8
annotation
62
1
39
211
10
26.399322
20
38.020723
11
26.399322
21
46.820942
0
LINE
8
annotation
62
1
39
211
10
26.399322
20
46.820942
11
24.442921
21
44.863989
0
LINE
8
annotation
62
1
39
211
10
26.357684
20
65.844799
11
22.983947
21
65.844799
0
LINE
8
annotation
62
1
39
211
10
22.983947
20
65.844799
11
26.101391
21
70.863483
0
LINE
8
annotation
62
1
39
211
10
26.101391
20
70.863483
11
26.101391
21
70.863483
0
LINE
8
annotation
62
1
39
211
10
26.101391
20
70.863483
11
26.105118
21
70.868095
0
LINE
8
annotation
62
1
39
211
10
26.105118
20
70.868095
11
26.108692
21
70.872745
0
LINE
8
annotation
62
1
39
211
10
26.108692
20
70.872745
11
26.112136
21
70.877475
0
LINE
8
annotation
62
1
39
211
10
26.112136
20
70.877475
11
26.115475
21
70.882321
0
LINE
8
annotation
62
1
39
211
10
26.115475
20
70.882321
11
26.118731
21
70.887325
0
LINE
8
annotation
62
1
39
211
10
26.118731
20
70.887325
11
26.121928
21
70.892525
0
LINE
8
annotation
62
1
39
211
10
26.121928
20
70.892525
11
26.125090
21
70.897960
0
LINE
8
annotation
62
1
39
211
10
26.125090
20
70.897960
11
26.128241
21
70.903669
0
LINE
8
annotation
62
1
39
211
10
26.128241
20
70.903669
11
26.131403
21
70.909692
0
LINE
8
annotation
62
1
39
211
10
26.131403
20
70.909692
11
26.131403
21
70.909692
0
LINE
8
annotation
62
1
39
211
10
26.131403
20
70.909692
11
26.260122
21
71.186062
0
LINE
8
annotation
62
1
39
211
10
26.260122
20
71.186062
11
26.335317
21
71.472543
0
LINE
8
annotation
62
1
39
211
10
26.335317
20
71.472543
11
26.358831
21
71.762663
0
LINE
8
annotation
62
1
39
211
10
26.358831
20
71.762663
11
26.332508
21
72.049948
0
LINE
8
annotation
62
1
39
211
10
26.332508
20
72.049948
11
26.258190
21
72.327925
0
LINE
8
annotation
62
1
39
211
10
26.258190
20
72.327925
11
26.137719
21
72.590121
0
LINE
8
annotation
62
1
39
211
10
26.137719
20
72.590121
11
25.972940
21
72.830062
0
LINE
8
annotation
62
1
39
211
10
25.972940
20
72.830062
11
25.765693
21
73.041275
0
LINE
8
annotation
62
1
39
211
10
25.765693
20
73.041275
11
25.517823
21
73.217286
0
LINE
8
annotation
62
1
39
211
10
25.517823
20
73.217286
11
25.517823
21
73.217286
0
LINE
8
annotation
62
1
39
211
10
25.517823
20
73.217286
11
25.240685
21
73.344176
0
LINE
8
annotation
62
1
39
211
10
25.240685
20
73.344176
11
24.953765
21
73.418212
0
LINE
8
annotation
62
1
39
211
10
24.953765
20
73.418212
11
24.663476
21
73.441062
0
LINE
8
annotation
62
1
39
211
10
24.663476
20
73.441062
11
24.376234
21
73.414392
0
LINE
8
annotation
62
1
39
211
10
24.376234
20
73.414392
11
24.098453
21
73.339868
0
LINE
8
annotation
62
1
39
211
10
24.098453
20
73.339868
11
23.836548
21
73.219157
0
LINE
8
annotation
62
1
39
211
10
23.836548
20
73.219157
11
23.596932
21
73.053924
0
LINE
8
annotation
62
1
39
211
10
23.596932
20
73.053924
11
23.386021
21
72.845837
0
LINE
8
annotation
62
1
39
211
10
23.386021
20
72.845837
11
23.210229
21
72.596561
0
LINE
8
annotation
62
1
39
211
10
23.210229
20
72.596561
11
22.988711
21
72.171628
0
LINE
8
annotation
62
1
39
211
10
116.917827
20
92.065577
11
119.049622
21
92.065577
0
LINE
8
annotation
62
1
39
211
10
119.049622
20
92.065577
11
119.049622
21
92.065577
0
LINE
8
annotation
62
1
39
211
10
119.049622
20
92.065577
11
119.433030
21
92.099971
0
LINE
8
annotation
62
1
39
211
10
119.433030
20
92.099971
11
119.793804
21
92.199097
0
LINE
8
annotation
62
1
39
211
10
119.793804
20
92.199097
11
120.125944
21
92.356871
0
LINE
8
annotation
62
1
39
211
10
120.125944
20
92.356871
11
120.423447
21
92.567207
0
LINE
8
annotation
62
1
39
211
10
120.423447
20
92.567207
11
120.680315
21
92.824021
0
LINE
8
annotation
62
1
39
211
10
120.680315
20
92.824021
11
120.890546
21
93.121228
0
LINE
8
annotation
62
1
39
211
10
120.890546
20
93.121228
11
121.048141
21
93.452744
0
LINE
8
annotation
62
1
39
211
10
121.048141
20
93.452744
11
121.147098
21
93.812483
0
LINE
8
annotation
62
1
39
211
10
121.147098
20
93.812483
11
121.181417
21
94.194361
0
LINE
8
annotation
62
1
39
211
10
121.181417
20
94.194361
11
121.181417
21
95.261764
0
LINE
8
annotation
62
1
39
211
10
121.181417
20
95.261764
11
121.181417
21
95.261764
0
LINE
8
annotation
62
1
39
211
10
121.181417
20
95.261764
11
121.147098
21
95.643483
0
LINE
8
annotation
62
1
39
211
10
121.147098
20
95.643483
11
121.048141
21
96.003138
0
LINE
8
annotation
62
1
39
211
10
121.048141
20
96.003138
11
120.890546
21
96.334629
0
LINE
8
annotation
62
1
39
211
10
120.890546
20
96.334629
11
120.680315
21
96.631856
0
LINE
8
annotation
62
1
39
211
10
120.680315
20
96.631856
11
120.423447
21
96.888720
0
LINE
8
annotation
62
1
39
211
10
120.423447
20
96.888720
11
120.125944
21
97.099120
0
LINE
8
annotation
62
1
39
211
10
120.125944
20
97.099120
11
119.793804
21
97.256958
0
LINE
8
annotation
62
1
39
211
10
119.793804
20
97.256958
11
119.433030
21
97.356134
0
LINE
8
annotation
62
1
39
211
10
119.433030
20
97.356134
11
119.049622
21
97.390548
0
LINE
8
annotation
62
1
39
211
10
119.049622
20
97.390548
11
117.982220
21
97.390548
0
LINE
8
annotation
62
1
39
211
10
117.982220
20
97.390548
11
119.049622
21
97.390548
0
LINE
8
annotation
62
1
39
211
10
119.049622
20
97.390548
11
119.049622
21
97.390548
0
LINE
8
annotation
62
1
39
211
10
119.049622
20
97.390548
11
119.433030
21
97.424971
0
LINE
8
annotation
62
1
39
211
10
119.433030
20
97.424971
11
119.793804
21
97.524204
0
LINE
8
annotation
62
1
39
211
10
119.793804
20
97.524204
11
120.125944
21
97.682199
0
LINE
8
annotation
62
1
39
211
10
120.125944
20
97.682199
11
120.423447
21
97.892905
0
LINE
8
annotation
62
1
39
211
10
120.423447
20
97.892905
11
120.680315
21
98.150273
0
LINE
8
annotation
62
1
39
211
10
120.680315
20
98.150273
11
120.890546
21
98.448251
0
LINE
8
annotation
62
1
39
211
10
120.890546
20
98.448251
11
121.048141
21
98.780791
0
LINE
8
annotation
62
1
39
211
10
121.048141
20
98.780791
11
121.147098
21
99.141842
0
LINE
8
annotation
62
1
39
211
10
121.147098
20
99.141842
11
121.181417
21
99.525353
0
LINE
8
annotation
62
1
39
211
10
121.181417
20
99.525353
11
121.181417
21
99.525353
0
LINE
8
annotation
62
1
39
211
10
121.181417
20
99.525353
11
121.147098
21
99.907073
0
LINE
8
annotation
62
1
39
211
10
121.147098
20
99.907073
11
121.048141
21
100.266728
0
LINE
8
annotation
62
1
39
211
10
121.048141
20
100.266728
11
120.890546
21
100.598219
0
LINE
8
annotation
62
1
39
211
10
120.890546
20
100.598219
11
120.680315
21
100.895446
0
LINE
8
annotation
62
1
39
211
10
120.680315
20
100.895446
11
120.423447
21
101.152309
0
LINE
8
annotation
62
1
39
211
10
120.423447
20
101.152309
11
120.125944
21
101.362710
0
LINE
8
annotation
62
1
39
211
10
120.125944
20
101.362710
11
119.793804
21
101.520548
0
LINE
8
annotation
62
1
39
211
10
119.793804
20
101.520548
11
119.433030
21
101.619724
0
LINE
8
annotation
62
1
39
211
10
119.433030
20
101.619724
11
119.049622
21
101.654138
0
LINE
8
annotation
62
1
39
211
10
119.049622
20
101.654138
11
116.917827
21
101.654138
0
LINE
8
annotation
62
1
39
211
10
115.285406
20
121.421700
11
109.955016
21
121.421700
0
LINE
8
annotation
62
1
39
211
10
109.955016
20
121.421700
11
112.083801
21
128.887497
0
LINE
8
annotation
62
1
39
211
10
113.687614
20
119.287497
11
113.687614
21
123.551086
0
LINE
8
annotation
62
1
39
211
10
101.710299
20
146.509718
11
103.842094
21
146.509718
0
LINE
8
annotation
62
1
39
211
10
103.842094
20
146.509718
11
103.842094
21
146.509718
0
LINE
8
annotation
62
1
39
211
10
103.842094
20
146.509718
11
104.224709
21
146.544120
0
LINE
8
annotation
62
1
39
211
10
104.224709
20
146.544120
11
104.585062
21
146.643298
0
LINE
8
annotation
62
1
39
211
10
104.585062
20
146.643298
11
104.917077
21
146.801213
0
LINE
8
annotation
62
1
39
211
10
104.917077
20
146.801213
11
105.214680
21
147.011824
0
LINE
8
annotation
62
1
39
211
10
105.214680
20
147.011824
11
105.471795
21
147.269092
0
LINE
8
annotation
62
1
39
211
10
105.471795
20
147.269092
11
105.682349
21
147.566975
0
LINE
8
annotation
62
1
39
211
10
105.682349
20
147.566975
11
105.840265
21
147.899435
0
LINE
8
annotation
62
1
39
211
10
105.840265
20
147.899435
11
105.939470
21
148.260430
0
LINE
8
annotation
62
1
39
211
10
105.939470
20
148.260430
11
105.973888
21
148.643921
0
LINE
8
annotation
62
1
39
211
10
105.973888
20
148.643921
11
105.973888
21
149.705905
0
LINE
8
annotation
62
1
39
211
10
105.973888
20
149.705905
11
105.973888
21
149.705905
0
LINE
8
annotation
62
1
39
211
10
105.973888
20
149.705905
11
105.939490
21
150.089211
0
LINE
8
annotation
62
1
39
211
10
105.939490
20
150.089211
11
105.840335
21
150.449708
0
LINE
8
annotation
62
1
39
211
10
105.840335
20
150.449708
11
105.682483
21
150.781446
0
LINE
8
annotation
62
1
39
211
10
105.682483
20
150.781446
11
105.471994
21
151.078475
0
LINE
8
annotation
62
1
39
211
10
105.471994
20
151.078475
11
105.214928
21
151.334843
0
LINE
8
annotation
62
1
39
211
10
105.214928
20
151.334843
11
104.917345
21
151.544600
0
LINE
8
annotation
62
1
39
211
10
104.917345
20
151.544600
11
104.585305
21
151.701794
0
LINE
8
annotation
62
1
39
211
10
104.585305
20
151.701794
11
104.224868
21
151.800474
0
LINE
8
annotation
62
1
39
211
10
104.224868
20
151.800474
11
103.842094
21
151.834690
0
LINE
8
annotation
62
1
39
211
10
103.842094
20
151.834690
11
101.710299
21
151.834690
0
LINE
8
annotation
62
1
39
211
10
101.710299
20
151.834690
11
101.710299
21
156.109718
0
LINE
8
annotation
62
1
39
211
10
101.710299
20
156.109718
11
105.973888
21
156.109718
0
LINE
8
annotation
62
1
39
211
10
93.072695
20
183.331940
11
93.072695
21
183.331940
0
LINE
8
annotation
62
1
39
211
10
93.072695
20
183.331940
11
92.461989
21
183.102962
0
LINE
8
annotation
62
1
39
211
10
92.461989
20
183.102962
11
91.901587
21
182.794442
0
LINE
8
annotation
62
1
39
211
10
91.901587
20
182.794442
11
91.397240
21
182.414109
0
LINE
8
annotation
62
1
39
211
10
91.397240
20
182.414109
11
90.954702
21
181.969693
0
LINE
8
annotation
62
1
39
211
10
90.954702
20
181.969693
11
90.579725
21
181.468923
0
LINE
8
annotation
62
1
39
211
10
90.579725
20
181.468923
11
90.278063
21
180.919531
0
LINE
8
annotation
62
1
39
211
10
90.278063
20
180.919531
11
90.055467
21
180.329245
0
LINE
8
annotation
62
1
39
211
10
90.055467
20
180.329245
11
89.917691
21
179.705795
0
LINE
8
annotation
62
1
39
211
10
89.917691
20
179.705795
11
89.870487
21
179.056911
0
LINE
8
annotation
62
1
39
211
10
89.870487
20
179.056911
11
89.870487
21
175.866142
0
LINE
8
annotation
62
1
39
211
10
89.870487
20
175.866142
11
89.870487
21
175.866142
0
LINE
8
annotation
62
1
39
211
10
89.870487
20
175.866142
11
89.904906
21
175.482652
0
LINE
8
annotation
62
1
39
211
10
89.904906
20
175.482652
11
90.004110
21
175.121656
0
LINE
8
annotation
62
1
39
211
10
90.004110
20
175.121656
11
90.162027
21
174.789197
0
LINE
8
annotation
62
1
39
211
10
90.162027
20
174.789197
11
90.372580
21
174.491313
0
LINE
8
annotation
62
1
39
211
10
90.372580
20
174.491313
11
90.629696
21
174.234046
0
LINE
8
annotation
62
1
39
211
10
90.629696
20
174.234046
11
90.927299
21
174.023434
0
LINE
8
annotation
62
1
39
211
10
90.927299
20
174.023434
11
91.259314
21
173.865520
0
LINE
8
annotation
62
1
39
211
10
91.259314
20
173.865520
11
91.619667
21
173.766341
0
LINE
8
annotation
62
1
39
211
10
91.619667
20
173.766341
11
92.002282
21
173.731940
0
LINE
8
annotation
62
1
39
211
10
92.002282
20
173.731940
11
92.002282
21
173.731940
0
LINE
8
annotation
62
1
39
211
10
92.002282
20
173.731940
11
92.385691
21
173.766341
0
LINE
8
annotation
62
1
39
211
10
92.385691
20
173.766341
11
92.746465
21
173.865520
0
LINE
8
annotation
62
1
39
211
10
92.746465
20
173.865520
11
93.078604
21
174.023434
0
LINE
8
annotation
62
1
39
211
10
93.078604
20
174.023434
11
93.376107
21
174.234046
0
LINE
8
annotation
62
1
39
211
10
93.376107
20
174.234046
11
93.632975
21
174.491313
0
LINE
8
annotation
62
1
39
211
10
93.632975
20
174.491313
11
93.843206
21
174.789197
0
LINE
8
annotation
62
1
39
211
10
93.843206
20
174.789197
11
94.000801
21
175.121656
0
LINE
8
annotation
62
1
39
211
10
94.000801
20
175.121656
11
94.099758
21
175.482652
0
LINE
8
annotation
62
1
39
211
10
94.099758
20
175.482652
11
94.134077
21
175.866142
0
LINE
8
annotation
62
1
39
211
10
94.134077
20
175.866142
11
94.134077
21
176.928127
0
LINE
8
annotation
62
1
39
211
10
94.134077
20
176.928127
11
94.134077
21
176.928127
0
LINE
8
annotation
62
1
39
211
10
94.134077
20
176.928127
11
94.099758
21
177.311432
0
LINE
8
annotation
62
1
39
211
10
94.099758
20
177.311432
11
94.000801
21
177.671929
0
LINE
8
annotation
62
1
39
211
10
94.000801
20
177.671929
11
93.843206
21
178.003668
0
LINE
8
annotation
62
1
39
211
10
93.843206
20
178.003668
11
93.632975
21
178.300697
0
LINE
8
annotation
62
1
39
211
10
93.632975
20
178.300697
11
93.376107
21
178.557065
0
LINE
8
annotation
62
1
39
211
10
93.376107
20
178.557065
11
93.078604
21
178.766821
0
LINE
8
annotation
62
1
39
211
10
93.078604
20
178.766821
11
92.746465
21
178.924015
0
LINE
8
annotation
62
1
39
211
10
92.746465
20
178.924015
11
92.385691
21
179.022695
0
LINE
8
annotation
62
1
39
211
10
92.385691
20
179.022695
11
92.002282
21
179.056911
0
LINE
8
annotation
62
1
39
211
10
92.002282
20
179.056911
11
89.870487
21
179.056911
0
LINE
8
annotation
62
1
39
211
10
89.603486
20
172.531940
11
94.403486
21
172.531940
0
LINE
8
annotation
62
1
39
211
10
75.389973
20
200.954161
11
77.524176
21
210.554161
0
LINE
8
annotation
62
1
39
211
10
77.524176
20
210.554161
11
73.255168
21
210.554161
0
LINE
8
annotation
62
1
39
211
10
77.524176
20
206.279133
11
75.389973
21
206.279133
0
LINE
8
annotation
62
1
39
211
10
45.933099
20
230.389958
11
45.933099
21
230.389958
0
LINE
8
annotation
62
1
39
211
10
45.933099
20
230.389958
11
45.966421
21
230.018862
0
LINE
8
annotation
62
1
39
211
10
45.966421
20
230.018862
11
46.062466
21
229.669847
0
LINE
8
annotation
62
1
39
211
10
46.062466
20
229.669847
11
46.215352
21
229.348675
0
LINE
8
annotation
62
1
39
211
10
46.215352
20
229.348675
11
46.419199
21
229.061107
0
LINE
8
annotation
62
1
39
211
10
46.419199
20
229.061107
11
46.668125
21
228.812905
0
LINE
8
annotation
62
1
39
211
10
46.668125
20
228.812905
11
46.956249
21
228.609829
0
LINE
8
annotation
62
1
39
211
10
46.956249
20
228.609829
11
47.277689
21
228.457642
0
LINE
8
annotation
62
1
39
211
10
47.277689
20
228.457642
11
47.626564
21
228.362105
0
LINE
8
annotation
62
1
39
211
10
47.626564
20
228.362105
11
47.996993
21
228.328979
0
LINE
8
annotation
62
1
39
211
10
47.996993
20
228.328979
11
47.996993
21
228.328979
0
LINE
8
annotation
62
1
39
211
10
47.996993
20
228.328979
11
48.367421
21
228.362105
0
LINE
8
annotation
62
1
39
211
10
48.367421
20
228.362105
11
48.716296
21
228.457642
0
LINE
8
annotation
62
1
39
211
10
48.716296
20
228.457642
11
49.037736
21
228.609829
0
LINE
8
annotation
62
1
39
211
10
49.037736
20
228.609829
11
49.325860
21
228.812905
0
LINE
8
annotation
62
1
39
211
10
49.325860
20
228.812905
11
49.574786
21
229.061107
0
LINE
8
annotation
62
1
39
211
10
49.574786
20
229.061107
11
49.778633
21
229.348675
0
LINE
8
annotation
62
1
39
211
10
49.778633
20
229.348675
11
49.931519
21
229.669847
0
LINE
8
annotation
62
1
39
211
10
49.931519
20
229.669847
11
50.027564
21
230.018862
0
LINE
8
annotation
62
1
39
211
10
50.027564
20
230.018862
11
50.060886
21
230.389958
0
LINE
8
annotation
62
1
39
211
10
50.060886
20
230.389958
11
50.060886
21
231.418116
0
LINE
8
annotation
62
1
39
211
10
50.060886
20
231.418116
11
50.060886
21
231.418116
0
LINE
8
annotation
62
1
39
211
10
50.060886
20
231.418116
11
50.027583
21
231.789393
0
LINE
8
annotation
62
1
39
211
10
50.027583
20
231.789393
11
49.931586
21
232.138890
0
LINE
8
annotation
62
1
39
211
10
49.931586
20
232.138890
11
49.778762
21
232.460760
0
LINE
8
annotation
62
1
39
211
10
49.778762
20
232.460760
11
49.574978
21
232.749155
0
LINE
8
annotation
62
1
39
211
10
49.574978
20
232.749155
11
49.326100
21
232.998228
0
LINE
8
annotation
62
1
39
211
10
49.326100
20
232.998228
11
49.037995
21
233.202131
0
LINE
8
annotation
62
1
39
211
10
49.037995
20
233.202131
11
48.716531
21
233.355016
0
LINE
8
annotation
62
1
39
211
10
48.716531
20
233.355016
11
48.367575
21
233.451035
0
LINE
8
annotation
62
1
39
211
10
48.367575
20
233.451035
11
47.996993
21
233.484341
0
LINE
8
annotation
62
1
39
211
10
47.996993
20
233.484341
11
47.996993
21
233.484341
0
LINE
8
annotation
62
1
39
211
10
47.996993
20
233.484341
11
47.626410
21
233.451016
0
LINE
8
annotation
62
1
39
211
10
47.626410
20
233.451016
11
47.277454
21
233.354949
0
LINE
8
annotation
62
1
39
211
10
47.277454
20
233.354949
11
46.955990
21
233.202002
0
LINE
8
annotation
62
1
39
211
10
46.955990
20
233.202002
11
46.667885
21
232.998036
0
LINE
8
annotation
62
1
39
211
10
46.667885
20
232.998036
11
46.419007
21
232.748915
0
LINE
8
annotation
62
1
39
211
10
46.419007
20
232.748915
11
46.215223
21
232.460501
0
LINE
8
annotation
62
1
39
211
10
46.215223
20
232.460501
11
46.062399
21
232.138654
0
LINE
8
annotation
62
1
39
211
10
46.062399
20
232.138654
11
45.966402
21
231.789239
0
LINE
8
annotation
62
1
39
211
10
45.966402
20
231.789239
11
45.933099
21
231.418116
0
LINE
8
annotation
62
1
39
211
10
45.933099
20
231.418116
11
45.933099
21
230.389958
0
LINE
8
annotation
62
1
39
211
10
50.060886
20
235.551149
11
50.060886
21
235.551149
0
LINE
8
annotation
62
1
39
211
10
50.060886
20
235.551149
11
50.027583
21
235.920710
0
LINE
8
annotation
62
1
39
211
10
50.027583
20
235.920710
11
49.931586
21
236.268910
0
LINE
8
annotation
62
1
39
211
10
49.931586
20
236.268910
11
49.778762
21
236.589842
0
LINE
8
annotation
62
1
39
211
10
49.778762
20
236.589842
11
49.574978
21
236.877602
0
LINE
8
annotation
62
1
39
211
10
49.574978
20
236.877602
11
49.326100
21
237.126284
0
LINE
8
annotation
62
1
39
211
10
49.326100
20
237.126284
11
49.037995
21
237.329983
0
LINE
8
annotation
62
1
39
211
10
49.037995
20
237.329983
11
48.716531
21
237.482794
0
LINE
8
annotation
62
1
39
211
10
48.716531
20
237.482794
11
48.367575
21
237.578811
0
LINE
8
annotation
62
1
39
211
10
48.367575
20
237.578811
11
47.996993
21
237.612129
0
LINE
8
annotation
62
1
39
211
10
47.996993
20
237.612129
11
47.996993
21
237.612129
0
LINE
8
annotation
62
1
39
211
10
47.996993
20
237.612129
11
47.626410
21
237.578811
0
LINE
8
annotation
62
1
39
211
10
47.626410
20
237.578811
11
47.277454
21
237.482794
0
LINE
8
annotation
62
1
39
211
10
47.277454
20
237.482794
11
46.955990
21
237.329983
0
LINE
8
annotation
62
1
39
211
10
46.955990
20
237.329983
11
46.667885
21
237.126284
0
LINE
8
annotation
62
1
39
211
10
46.667885
20
237.126284
11
46.419007
21
236.877602
0
LINE
8
annotation
62
1
39
211
10
46.419007
20
236.877602
11
46.215223
21
236.589842
0
LINE
8
annotation
62
1
39
211
10
46.215223
20
236.589842
11
46.062399
21
236.268910
0
LINE
8
annotation
62
1
39
211
10
46.062399
20
236.268910
11
45.966402
21
235.920710
0
LINE
8
annotation
62
1
39
211
10
45.966402
20
235.920710
11
45.933099
21
235.551149
0
LINE
8
annotation
62
1
39
211
10
45.933099
20
235.551149
11
45.933099
21
235.551149
0
LINE
8
annotation
62
1
39
211
10
45.933099
20
235.551149
11
45.966421
21
235.179853
0
LINE
8
annotation
62
1
39
211
10
45.966421
20
235.179853
11
46.062466
21
234.830303
0
LINE
8
annotation
62
1
39
211
10
46.062466
20
234.830303
11
46.215352
21
234.508355
0
LINE
8
annotation
62
1
39
211
10
46.215352
20
234.508355
11
46.419199
21
234.219867
0
LINE
8
annotation
62
1
39
211
10
46.419199
20
234.219867
11
46.668125
21
233.970698
0
LINE
8
annotation
62
1
39
211
10
46.668125
20
233.970698
11
46.956249
21
233.766703
0
LINE
8
annotation
62
1
39
211
10
46.956249
20
233.766703
11
47.277689
21
233.613740
0
LINE
8
annotation
62
1
39
211
10
47.277689
20
233.613740
11
47.626564
21
233.517667
0
LINE
8
annotation
62
1
39
211
10
47.626564
20
233.517667
11
47.996993
21
233.484341
0
LINE
8
annotation
62
1
39
211
10
47.996993
20
233.484341
11
47.996993
21
233.484341
0
LINE
8
annotation
62
1
39
211
10
47.996993
20
233.484341
11
48.367421
21
233.517667
0
LINE
8
annotation
62
1
39
211
10
48.367421
20
233.517667
11
48.716296
21
233.613740
0
LINE
8
annotation
62
1
39
211
10
48.716296
20
233.613740
11
49.037736
21
233.766703
0
LINE
8
annotation
62
1
39
211
10
49.037736
20
233.766703
11
49.325860
21
233.970698
0
LINE
8
annotation
62
1
39
211
10
49.325860
20
233.970698
11
49.574786
21
234.219867
0
LINE
8
annotation
62
1
39
211
10
49.574786
20
234.219867
11
49.778633
21
234.508355
0
LINE
8
annotation
62
1
39
211
10
49.778633
20
234.508355
11
49.931519
21
234.830303
0
LINE
8
annotation
62
1
39
211
10
49.931519
20
234.830303
11
50.027564
21
235.179853
0
LINE
8
annotation
62
1
39
211
10
50.027564
20
235.179853
11
50.060886
21
235.551149
0
LINE
8
annotation
62
1
39
211
10
160.942668
20
105.990316
11
155.065832
21
97.490010
0
LINE
8
annotation
62
1
39
211
10
155.065832
20
97.490010
11
149.187891
21
105.990316
0
LINE
8
annotation
62
1
39
211
10
155.065832
20
98.174057
11
155.065832
21
88.367543
0
LINE
8
annotation
62
1
39
211
10
177.188230
20
97.178929
11
167.553003
21
97.178929
0
LINE
8
annotation
62
1
39
211
10
183.794698
20
88.368095
11
187.707800
21
88.368095
0
LINE
8
annotation
62
1
39
211
10
187.707800
20
88.368095
11
187.707800
21
88.368095
0
LINE
8
annotation
62
1
39
211
10
187.707800
20
88.368095
11
188.410125
21
88.431243
0
LINE
8
annotation
62
1
39
211
10
188.410125
20
88.431243
11
189.071585
21
88.613294
0
LINE
8
annotation
62
1
39
211
10
189.071585
20
88.613294
11
189.681029
21
88.903161
0
LINE
8
annotation
62
1
39
211
10
189.681029
20
88.903161
11
190.227306
21
89.289757
0
LINE
8
annotation
62
1
39
211
10
190.227306
20
89.289757
11
190.699265
21
89.761994
0
LINE
8
annotation
62
1
39
211
10
190.699265
20
89.761994
11
191.085755
21
90.308786
0
LINE
8
annotation
62
1
39
211
10
191.085755
20
90.308786
11
191.375625
21
90.919046
0
LINE
8
annotation
62
1
39
211
10
191.375625
20
90.919046
11
191.557724
21
91.581685
0
LINE
8
annotation
62
1
39
211
10
191.557724
20
91.581685
11
191.620902
21
92.285618
0
LINE
8
annotation
62
1
39
211
10
191.620902
20
92.285618
11
191.620902
21
94.234986
0
LINE
8
annotation
62
1
39
211
10
191.620902
20
94.234986
11
191.620902
21
94.234986
0
LINE
8
annotation
62
1
39
211
10
191.620902
20
94.234986
11
191.557760
21
94.938577
0
LINE
8
annotation
62
1
39
211
10
191.557760
20
94.938577
11
191.375752
21
95.600302
0
LINE
8
annotation
62
1
39
211
10
191.375752
20
95.600302
11
191.086000
21
96.209239
0
LINE
8
annotation
62
1
39
211
10
191.086000
20
96.209239
11
190.699629
21
96.754462
0
LINE
8
annotation
62
1
39
211
10
190.699629
20
96.754462
11
190.227761
21
97.225049
0
LINE
8
annotation
62
1
39
211
10
190.227761
20
97.225049
11
189.681520
21
97.610076
0
LINE
8
annotation
62
1
39
211
10
189.681520
20
97.610076
11
189.072031
21
97.898619
0
LINE
8
annotation
62
1
39
211
10
189.072031
20
97.898619
11
188.410416
21
98.079756
0
LINE
8
annotation
62
1
39
211
10
188.410416
20
98.079756
11
187.707800
21
98.142562
0
LINE
8
annotation
62
1
39
211
10
187.707800
20
98.142562
11
183.794698
21
98.142562
0
LINE
8
annotation
62
1
39
211
10
183.794698
20
98.142562
11
183.794698
21
105.989763
0
LINE
8
annotation
62
1
39
211
10
183.794698
20
105.989763
11
191.620902
21
105.989763
0
LINE
8
boundary
62
5
39
2
10
431.295861
20
77.087825
11
432.952211
21
78.359155
0
LINE
8
boundary
62
5
39
2
10
432.952211
20
78.359155
11
434.223174
21
80.016038
0
LINE
8
boundary
62
5
39
2
10
434.223174
20
80.016038
11
435.022140
21
81.945468
0
LINE
8
boundary
62
5
39
2
10
435.022140
20
81.945468
11
435.294648
21
84.016033
0
LINE
8
boundary
62
5
39
2
10
435.294648
20
84.016033
11
435.022141
21
86.086598
0
LINE
8
boundary
62
5
39
2
10
435.022141
20
86.086598
11
434.860451
21
86.616143
0
LINE
8
boundary
62
5
39
2
10
434.860451
20
86.616143
11
434.142178
21
88.678194
0
LINE
8
boundary
62
5
39
2
10
434.142178
20
88.678194
11
432.295201
21
93.628839
0
LINE
8
boundary
62
5
39
2
10
432.295201
20
93.628839
11
429.522861
21
100.324862
0
LINE
8
boundary
62
5
39
2
10
429.522861
20
100.324862
11
426.819056
21
106.855345
0
LINE
8
boundary
62
5
39
2
10
426.819056
20
106.855345
11
423.640784
21
113.385823
0
LINE
8
boundary
62
5
39
2
10
423.640784
20
113.385823
11
420.554677
21
119.726926
0
LINE
8
boundary
62
5
39
2
10
420.554677
20
119.726926
11
416.979892
21
126.068008
0
LINE
8
boundary
62
5
39
2
10
416.979892
20
126.068008
11
413.524906
21
132.196576
0
LINE
8
boundary
62
5
39
2
10
413.524906
20
132.196576
11
409.564262
21
138.325142
0
LINE
8
boundary
62
5
39
2
10
409.564262
20
138.325142
11
405.755404
21
144.218837
0
LINE
8
boundary
62
5
39
2
10
405.755404
20
144.218837
11
401.420677
21
150.112533
0
LINE
8
boundary
62
5
39
2
10
401.420677
20
150.112533
11
397.274510
21
155.749856
0
LINE
8
boundary
62
5
39
2
10
397.274510
20
155.749856
11
392.578491
21
161.387208
0
LINE
8
boundary
62
5
39
2
10
392.578491
20
161.387208
11
388.113168
21
166.747610
0
LINE
8
boundary
62
5
39
2
10
388.113168
20
166.747610
11
383.069499
21
172.107944
0
LINE
8
boundary
62
5
39
2
10
383.069499
20
172.107944
11
378.304819
21
177.171781
0
LINE
8
boundary
62
5
39
2
10
378.304819
20
177.171781
11
372.927809
21
182.235633
0
LINE
8
boundary
62
5
39
2
10
372.927809
20
182.235633
11
367.885249
21
186.984511
0
LINE
8
boundary
62
5
39
2
10
367.885249
20
186.984511
11
362.189581
21
191.733400
0
LINE
8
boundary
62
5
39
2
10
362.189581
20
191.733400
11
356.892471
21
196.149983
0
LINE
8
boundary
62
5
39
2
10
356.892471
20
196.149983
11
350.892890
21
200.566542
0
LINE
8
boundary
62
5
39
2
10
350.892890
20
200.566542
11
345.366611
21
204.634682
0
LINE
8
boundary
62
5
39
2
10
345.366611
20
204.634682
11
339.077361
21
208.702829
0
LINE
8
boundary
62
5
39
2
10
339.077361
20
208.702829
11
333.349708
21
212.407712
0
LINE
8
boundary
62
5
39
2
10
333.349708
20
212.407712
11
326.783783
21
216.112544
0
LINE
8
boundary
62
5
39
2
10
326.783783
20
216.112544
11
320.885619
21
219.440591
0
LINE
8
boundary
62
5
39
2
10
320.885619
20
219.440591
11
314.053504
21
222.768624
0
LINE
8
boundary
62
5
39
2
10
314.053504
20
222.768624
11
308.019828
21
225.707723
0
LINE
8
boundary
62
5
39
2
10
308.019828
20
225.707723
11
300.927342
21
228.646870
0
LINE
8
boundary
62
5
39
2
10
300.927342
20
228.646870
11
294.799269
21
231.186361
0
LINE
8
boundary
62
5
39
2
10
294.799269
20
231.186361
11
287.443492
21
233.725831
0
LINE
8
boundary
62
5
39
2
10
287.443492
20
233.725831
11
281.272193
21
235.856376
0
LINE
8
boundary
62
5
39
2
10
281.272193
20
235.856376
11
273.633027
21
237.986898
0
LINE
8
boundary
62
5
39
2
10
273.633027
20
237.986898
11
267.487950
21
239.700728
0
LINE
8
boundary
62
5
39
2
10
267.487950
20
239.700728
11
259.507694
21
241.414529
0
LINE
8
boundary
62
5
39
2
10
259.507694
20
241.414529
11
253.496846
21
242.705390
0
LINE
8
boundary
62
5
39
2
10
253.496846
20
242.705390
11
245.019074
21
243.996253
0
LINE
8
boundary
62
5
39
2
10
245.019074
20
243.996253
11
239.349931
21
244.859462
0
LINE
8
boundary
62
5
39
2
10
239.349931
20
244.859462
11
229.855021
21
245.722727
0
LINE
8
boundary
62
5
39
2
10
229.855021
20
245.722727
11
225.098823
21
246.155155
0
LINE
8
boundary
62
5
39
2
10
225.098823
20
246.155155
11
220.028574
21
246.308410
0
LINE
8
boundary
62
5
39
2
10
220.028574
20
246.308410
11
220.028574
21
236.276382
0
LINE
8
boundary
62
5
39
2
10
220.028574
20
236.276382
11
254.821452
21
235.976382
0
LINE
8
boundary
62
5
39
2
10
254.821452
20
235.976382
11
254.821452
21
229.976382
0
LINE
8
boundary
62
5
39
2
10
254.821452
20
229.976382
11
220.328574
21
229.976382
0
LINE
8
boundary
62
5
39
2
10
220.328574
20
229.976382
11
220.028574
21
209.054161
0
LINE
8
boundary
62
5
39
2
10
220.028574
20
209.054161
11
281.832250
21
208.754161
0
LINE
8
boundary
62
5
39
2
10
281.832250
20
208.754161
11
281.832250
21
202.754160
0
LINE
8
boundary
62
5
39
2
10
281.832250
20
202.754160
11
220.328574
21
202.754160
0
LINE
8
boundary
62
5
39
2
10
220.328574
20
202.754160
11
220.028574
21
181.831939
0
LINE
8
boundary
62
5
39
2
10
220.028574
20
181.831939
11
298.444560
21
181.531939
0
LINE
8
boundary
62
5
39
2
10
298.444560
20
181.531939
11
298.444560
21
175.531939
0
LINE
8
boundary
62
5
39
2
10
298.444560
20
175.531939
11
220.328574
21
175.531940
0
LINE
8
boundary
62
5
39
2
10
220.328574
20
175.531940
11
220.028574
21
154.609718
0
LINE
8
boundary
62
5
39
2
10
220.028574
20
154.609718
11
310.284371
21
154.309718
0
LINE
8
boundary
62
5
39
2
10
310.284371
20
154.309718
11
310.284371
21
148.309718
0
LINE
8
boundary
62
5
39
2
10
310.284371
20
148.309718
11
220.328574
21
148.309718
0
LINE
8
boundary
62
5
39
2
10
220.328574
20
148.309718
11
220.028574
21
127.387497
0
LINE
8
boundary
62
5
39
2
10
220.028574
20
127.387497
11
319.062490
21
127.087497
0
LINE
8
boundary
62
5
39
2
10
319.062490
20
127.087497
11
319.062490
21
121.087497
0
LINE
8
boundary
62
5
39
2
10
319.062490
20
121.087497
11
220.328574
21
121.087497
0
LINE
8
boundary
62
5
39
2
10
220.328574
20
121.087497
11
220.028574
21
100.165275
0
LINE
8
boundary
62
5
39
2
10
220.028574
20
100.165275
11
325.491900
21
99.865275
0
LINE
8
boundary
62
5
39
2
10
325.491900
20
99.865275
11
325.491900
21
93.865275
0
LINE
8
boundary
62
5
39
2
10
325.491900
20
93.865275
11
220.328574
21
93.865275
0
LINE
8
boundary
62
5
39
2
10
220.328574
20
93.865275
11
220.028574
21
72.943054
0
LINE
8
boundary
62
5
39
2
10
220.028574
20
72.943054
11
233.617358
21
72.643054
0
LINE
8
boundary
62
5
39
2
10
233.617358
20
72.643054
11
233.617358
21
66.643054
0
LINE
8
boundary
62
5
39
2
10
233.617358
20
66.643054
11
220.328574
21
66.643054
0
LINE
8
boundary
62
5
39
2
10
220.328574
20
66.643054
11
220.028574
21
45.720833
0
LINE
8
boundary
62
5
39
2
10
220.028574
20
45.720833
11
232.862749
21
45.420833
0
LINE
8
boundary
62
5
39
2
10
232.862749
20
45.420833
11
232.862749
21
39.420832
0
LINE
8
boundary
62
5
39
2
10
232.862749
20
39.420832
11
220.328574
21
39.420833
0
LINE
8
boundary
62
5
39
2
10
220.328574
20
39.420833
11
220.028574
21
1.587501
0
LINE
8
boundary
62
5
39
2
10
220.028574
20
1.587501
11
222.334100
21
1.587501
0
LINE
8
boundary
62
5
39
2
10
222.334100
20
1.587501
11
225.157819
21
1.587500
0
LINE
8
boundary
62
5
39
2
10
225.157819
20
1.587500
11
231.251069
21
1.587501
0
LINE
8
boundary
62
5
39
2
10
231.251069
20
1.587501
11
232.925724
21
1.587501
0
LINE
8
boundary
62
5
39
2
10
232.925724
20
1.587501
11
239.638248
21
1.587501
0
LINE
8
boundary
62
5
39
2
10
239.638248
20
1.587501
11
242.695898
21
1.587500
0
LINE
8
boundary
62
5
39
2
10
242.695898
20
1.587500
11
244.199688
21
3.057757
0
LINE
8
boundary
62
5
39
2
10
244.199688
20
3.057757
11
245.696925
21
4.587511
0
LINE
8
boundary
62
5
39
2
10
245.696925
20
4.587511
11
245.696924
21
28.370143
0
LINE
8
boundary
62
5
39
2
10
245.696924
20
28.370143
11
245.696924
21
64.016024
0
LINE
8
boundary
62
5
39
2
10
245.696924
20
64.016024
11
246.061649
21
66.235992
0
LINE
8
boundary
62
5
39
2
10
246.061649
20
66.235992
11
246.163047
21
67.121860
0
LINE
8
boundary
62
5
39
2
10
246.163047
20
67.121860
11
246.396487
21
67.686090
0
LINE
8
boundary
62
5
39
2
10
246.396487
20
67.686090
11
247.360451
21
70.016021
0
LINE
8
boundary
62
5
39
2
10
247.360451
20
70.016021
11
247.726598
21
70.493754
0
LINE
8
boundary
62
5
39
2
10
247.726598
20
70.493754
11
249.265246
21
72.501317
0
LINE
8
boundary
62
5
39
2
10
249.265246
20
72.501317
11
249.737906
21
72.864425
0
LINE
8
boundary
62
5
39
2
10
249.737906
20
72.864425
11
251.747625
21
74.408337
0
LINE
8
boundary
62
5
39
2
10
251.747625
20
74.408337
11
252.295523
21
74.635551
0
LINE
8
boundary
62
5
39
2
10
252.295523
20
74.635551
11
254.638413
21
75.607146
0
LINE
8
boundary
62
5
39
2
10
254.638413
20
75.607146
11
257.025243
21
75.922507
0
LINE
8
boundary
62
5
39
2
10
257.025243
20
75.922507
11
257.728305
21
76.016040
0
LINE
8
boundary
62
5
39
2
10
257.728305
20
76.016040
11
272.086668
21
76.016040
0
LINE
8
boundary
62
5
39
2
10
272.086668
20
76.016040
11
427.361340
21
76.016039
0
LINE
8
boundary
62
5
39
2
10
427.361340
20
76.016039
11
429.366995
21
76.288645
0
LINE
8
boundary
62
5
39
2
10
429.366995
20
76.288645
11
431.295861
21
77.087825
0
LINE
8
annotation
62
1
39
211
10
244.840395
20
38.020723
11
244.840395
21
46.820942
0
LINE
8
annotation
62
1
39
211
10
244.840395
20
46.820942
11
242.883994
21
44.863989
0
LINE
8
annotation
62
1
39
211
10
244.798758
20
65.844799
11
241.425021
21
65.844799
0
LINE
8
annotation
62
1
39
211
10
241.425021
20
65.844799
11
244.542464
21
70.863483
0
LINE
8
annotation
62
1
39
211
10
244.542464
20
70.863483
11
244.542464
21
70.863483
0
LINE
8
annotation
62
1
39
211
10
244.542464
20
70.863483
11
244.546191
21
70.868094
0
LINE
8
annotation
62
1
39
211
10
244.546191
20
70.868094
11
244.549765
21
70.872745
0
LINE
8
annotation
62
1
39
211
10
244.549765
20
70.872745
11
244.553209
21
70.877474
0
LINE
8
annotation
62
1
39
211
10
244.553209
20
70.877474
11
244.556548
21
70.882321
0
LINE
8
annotation
62
1
39
211
10
244.556548
20
70.882321
11
244.559804
21
70.887325
0
LINE
8
annotation
62
1
39
211
10
244.559804
20
70.887325
11
244.563001
21
70.892524
0
LINE
8
annotation
62
1
39
211
10
244.563001
20
70.892524
11
244.566164
21
70.897959
0
LINE
8
annotation
62
1
39
211
10
244.566164
20
70.897959
11
244.569314
21
70.903669
0
LINE
8
annotation
62
1
39
211
10
244.569314
20
70.903669
11
244.572476
21
70.909692
0
LINE
8
annotation
62
1
39
211
10
244.572476
20
70.909692
11
244.572476
21
70.909692
0
LINE
8
annotation
62
1
39
211
10
244.572476
20
70.909692
11
244.701195
21
71.186061
0
LINE
8
annotation
62
1
39
211
10
244.701195
20
71.186061
11
244.776390
21
71.472543
0
LINE
8
annotation
62
1
39
211
10
244.776390
20
71.472543
11
244.799904
21
71.762663
0
LINE
8
annotation
62
1
39
211
10
244.799904
20
71.762663
11
244.773581
21
72.049948
0
LINE
8
annotation
62
1
39
211
10
244.773581
20
72.049948
11
244.699263
21
72.327925
0
LINE
8
annotation
62
1
39
211
10
244.699263
20
72.327925
11
244.578793
21
72.590120
0
LINE
8
annotation
62
1
39
211
10
244.578793
20
72.590120
11
244.414013
21
72.830061
0
LINE
8
annotation
62
1
39
211
10
244.414013
20
72.830061
11
244.206766
21
73.041274
0
LINE
8
annotation
62
1
39
211
10
244.206766
20
73.041274
11
243.958896
21
73.217286
0
LINE
8
annotation
62
1
39
211
10
243.958896
20
73.217286
11
243.958896
21
73.217286
0
LINE
8
annotation
62
1
39
211
10
243.958896
20
73.217286
11
243.681758
21
73.344175
0
LINE
8
annotation
62
1
39
211
10
243.681758
20
73.344175
11
243.394838
21
73.418212
0
LINE
8
annotation
62
1
39
211
10
243.394838
20
73.418212
11
243.104549
21
73.441062
0
LINE
8
annotation
62
1
39
211
10
243.104549
20
73.441062
11
242.817307
21
73.414392
0
LINE
8
annotation
62
1
39
211
10
242.817307
20
73.414392
11
242.539526
21
73.339868
0
LINE
8
annotation
62
1
39
211
10
242.539526
20
73.339868
11
242.277621
21
73.219156
0
LINE
8
annotation
62
1
39
211
10
242.277621
20
73.219156
11
242.038005
21
73.053924
0
LINE
8
annotation
62
1
39
211
10
242.038005
20
73.053924
11
241.827094
21
72.845836
0
LINE
8
annotation
62
1
39
211
10
241.827094
20
72.845836
11
241.651302
21
72.596560
0
LINE
8
annotation
62
1
39
211
10
241.651302
20
72.596560
11
241.429784
21
72.171628
0
LINE
8
annotation
62
1
39
211
10
335.358901
20
92.065576
11
337.490696
21
92.065576
0
LINE
8
annotation
62
1
39
211
10
337.490696
20
92.065576
11
337.490696
21
92.065576
0
LINE
8
annotation
62
1
39
211
10
337.490696
20
92.065576
11
337.874105
21
92.099971
0
LINE
8
annotation
62
1
39
211
10
337.874105
20
92.099971
11
338.234879
21
92.199097
0
LINE
8
annotation
62
1
39
211
10
338.234879
20
92.199097
11
338.567018
21
92.356870
0
LINE
8
annotation
62
1
39
211
10
338.567018
20
92.356870
11
338.864521
21
92.567207
0
LINE
8
annotation
62
1
39
211
10
338.864521
20
92.567207
11
339.121389
21
92.824021
0
LINE
8
annotation
62
1
39
211
10
339.121389
20
92.824021
11
339.331620
21
93.121228
0
LINE
8
annotation
62
1
39
211
10
339.331620
20
93.121228
11
339.489215
21
93.452744
0
LINE
8
annotation
62
1
39
211
10
339.489215
20
93.452744
11
339.588172
21
93.812483
0
LINE
8
annotation
62
1
39
211
10
339.588172
20
93.812483
11
339.622491
21
94.194361
0
LINE
8
annotation
62
1
39
211
10
339.622491
20
94.194361
11
339.622491
21
95.261763
0
LINE
8
annotation
62
1
39
211
10
339.622491
20
95.261763
11
339.622491
21
95.261763
0
LINE
8
annotation
62
1
39
211
10
339.622491
20
95.261763
11
339.588172
21
95.643483
0
LINE
8
annotation
62
1
39
211
10
339.588172
20
95.643483
11
339.489215
21
96.003138
0
LINE
8
annotation
62
1
39
211
10
339.489215
20
96.003138
11
339.331620
21
96.334629
0
LINE
8
annotation
62
1
39
211
10
339.331620
20
96.334629
11
339.121389
21
96.631856
0
LINE
8
annotation
62
1
39
211
10
339.121389
20
96.631856
11
338.864521
21
96.888719
0
LINE
8
annotation
62
1
39
211
10
338.864521
20
96.888719
11
338.567018
21
97.099120
0
LINE
8
annotation
62
1
39
211
10
338.567018
20
97.099120
11
338.234879
21
97.256958
0
LINE
8
annotation
62
1
39
211
10
338.234879
20
97.256958
11
337.874105
21
97.356134
0
LINE
8
annotation
62
1
39
211
10
337.874105
20
97.356134
11
337.490696
21
97.390548
0
LINE
8
annotation
62
1
39
211
10
337.490696
20
97.390548
11
336.423294
21
97.390548
0
LINE
8
annotation
62
1
39
211
10
336.423294
20
97.390548
11
337.490696
21
97.390548
0
LINE
8
annotation
62
1
39
211
10
337.490696
20
97.390548
11
337.490696
21
97.390548
0
LINE
8
annotation
62
1
39
211
10
337.490696
20
97.390548
11
337.874105
21
97.424970
0
LINE
8
annotation
62
1
39
211
10
337.874105
20
97.424970
11
338.234879
21
97.524204
0
LINE
8
annotation
62
1
39
211
10
338.234879
20
97.524204
11
338.567018
21
97.682199
0
LINE
8
annotation
62
1
39
211
10
338.567018
20
97.682199
11
338.864521
21
97.892905
0
LINE
8
annotation
62
1
39
211
10
338.864521
20
97.892905
11
339.121389
21
98.150273
0
LINE
8
annotation
62
1
39
211
10
339.121389
20
98.150273
11
339.331620
21
98.448251
0
LINE
8
annotation
62
1
39
211
10
339.331620
20
98.448251
11
339.489215
21
98.780791
0
LINE
8
annotation
62
1
39
211
10
339.489215
20
98.780791
11
339.588172
21
99.141841
0
LINE
8
annotation
62
1
39
211
10
339.588172
20
99.141841
11
339.622491
21
99.525353
0
LINE
8
annotation
62
1
39
211
10
339.622491
20
99.525353
11
339.622491
21
99.525353
0
LINE
8
annotation
62
1
39
211
10
339.622491
20
99.525353
11
339.588172
21
99.907073
0
LINE
8
annotation
62
1
39
211
10
339.588172
20
99.907073
11
339.489215
21
100.266728
0
LINE
8
annotation
62
1
39
211
10
339.489215
20
100.266728
11
339.331620
21
100.598218
0
LINE
8
annotation
62
1
39
211
10
339.331620
20
100.598218
11
339.121389
21
100.895445
0
LINE
8
annotation
62
1
39
211
10
339.121389
20
100.895445
11
338.864521
21
101.152309
0
LINE
8
annotation
62
1
39
211
10
338.864521
20
101.152309
11
338.567018
21
101.362710
0
LINE
8
annotation
62
1
39
211
10
338.567018
20
101.362710
11
338.234879
21
101.520548
0
LINE
8
annotation
62
1
39
211
10
338.234879
20
101.520548
11
337.874105
21
101.619724
0
LINE
8
annotation
62
1
39
211
10
337.874105
20
101.619724
11
337.490696
21
101.654138
0
LINE
8
annotation
62
1
39
211
10
337.490696
20
101.654138
11
335.358901
21
101.654138
0
LINE
8
annotation
62
1
39
211
10
333.726481
20
121.421700
11
328.396091
21
121.421700
0
LINE
8
annotation
62
1
39
211
10
328.396091
20
121.421700
11
330.524875
21
128.887497
0
LINE
8
annotation
62
1
39
211
10
332.128688
20
119.287497
11
332.128688
21
123.551086
0
LINE
8
annotation
62
1
39
211
10
320.151372
20
146.509718
11
322.283167
21
146.509718
0
LINE
8
annotation
62
1
39
211
10
322.283167
20
146.509718
11
322.283167
21
146.509718
0
LINE
8
annotation
62
1
39
211
10
322.283167
20
146.509718
11
322.665782
21
146.544120
0
LINE
8
annotation
62
1
39
211
10
322.665782
20
146.544120
11
323.026135
21
146.643298
0
LINE
8
annotation
62
1
39
211
10
323.026135
20
146.643298
11
323.358150
21
146.801213
0
LINE
8
annotation
62
1
39
211
10
323.358150
20
146.801213
11
323.655753
21
147.011824
0
LINE
8
annotation
62
1
39
211
10
323.655753
20
147.011824
11
323.912869
21
147.269092
0
LINE
8
annotation
62
1
39
211
10
323.912869
20
147.269092
11
324.123422
21
147.566975
0
LINE
8
annotation
62
1
39
211
10
324.123422
20
147.566975
11
324.281339
21
147.899435
0
LINE
8
annotation
62
1
39
211
10
324.281339
20
147.899435
11
324.380543
21
148.260430
0
LINE
8
annotation
62
1
39
211
10
324.380543
20
148.260430
11
324.414962
21
148.643921
0
LINE
8
annotation
62
1
39
211
10
324.414962
20
148.643921
11
324.414962
21
149.705905
0
LINE
8
annotation
62
1
39
211
10
324.414962
20
149.705905
11
324.414962
21
149.705905
0
LINE
8
annotation
62
1
39
211
10
324.414962
20
149.705905
11
324.380563
21
150.089210
0
LINE
8
annotation
62
1
39
211
10
324.380563
20
150.089210
11
324.281408
21
150.449708
0
LINE
8
annotation
62
1
39
211
10
324.281408
20
150.449708
11
324.123556
21
150.781446
0
LINE
8
annotation
62
1
39
211
10
324.123556
20
150.781446
11
323.913067
21
151.078475
0
LINE
8
annotation
62
1
39
211
10
323.913067
20
151.078475
11
323.656001
21
151.334843
0
LINE
8
annotation
62
1
39
211
10
323.656001
20
151.334843
11
323.358418
21
151.544600
0
LINE
8
annotation
62
1
39
211
10
323.358418
20
151.544600
11
323.026378
21
151.701793
0
LINE
8
annotation
62
1
39
211
10
323.026378
20
151.701793
11
322.665941
21
151.800474
0
LINE
8
annotation
62
1
39
211
10
322.665941
20
151.800474
11
322.283167
21
151.834690
0
LINE
8
annotation
62
1
39
211
10
322.283167
20
151.834690
11
320.151372
21
151.834690
0
LINE
8
annotation
62
1
39
211
10
320.151372
20
151.834690
11
320.151372
21
156.109718
0
LINE
8
annotation
62
1
39
211
10
320.151372
20
156.109718
11
324.414962
21
156.109718
0
LINE
8
annotation
62
1
39
211
10
311.513769
20
183.331939
11
311.513769
21
183.331939
0
LINE
8
annotation
62
1
39
211
10
311.513769
20
183.331939
11
310.903063
21
183.102962
0
LINE
8
annotation
62
1
39
211
10
310.903063
20
183.102962
11
310.342661
21
182.794441
0
LINE
8
annotation
62
1
39
211
10
310.342661
20
182.794441
11
309.838314
21
182.414108
0
LINE
8
annotation
62
1
39
211
10
309.838314
20
182.414108
11
309.395776
21
181.969692
0
LINE
8
annotation
62
1
39
211
10
309.395776
20
181.969692
11
309.020799
21
181.468923
0
LINE
8
annotation
62
1
39
211
10
309.020799
20
181.468923
11
308.719137
21
180.919531
0
LINE
8
annotation
62
1
39
211
10
308.719137
20
180.919531
11
308.496541
21
180.329245
0
LINE
8
annotation
62
1
39
211
10
308.496541
20
180.329245
11
308.358765
21
179.705795
0
LINE
8
annotation
62
1
39
211
10
308.358765
20
179.705795
11
308.311561
21
179.056911
0
LINE
8
annotation
62
1
39
211
10
308.311561
20
179.056911
11
308.311561
21
175.866142
0
LINE
8
annotation
62
1
39
211
10
308.311561
20
175.866142
11
308.311561
21
175.866142
0
LINE
8
annotation
62
1
39
211
10
308.311561
20
175.866142
11
308.345979
21
175.482651
0
LINE
8
annotation
62
1
39
211
10
308.345979
20
175.482651
11
308.445184
21
175.121656
0
LINE
8
annotation
62
1
39
211
10
308.445184
20
175.121656
11
308.603101
21
174.789196
0
LINE
8
annotation
62
1
39
211
10
308.603101
20
174.789196
11
308.813654
21
174.491313
0
LINE
8
annotation
62
1
39
211
10
308.813654
20
174.491313
11
309.070770
21
174.234045
0
LINE
8
annotation
62
1
39
211
10
309.070770
20
174.234045
11
309.368372
21
174.023434
0
LINE
8
annotation
62
1
39
211
10
309.368372
20
174.023434
11
309.700387
21
173.865519
0
LINE
8
annotation
62
1
39
211
10
309.700387
20
173.865519
11
310.060740
21
173.766341
0
LINE
8
annotation
62
1
39
211
10
310.060740
20
173.766341
11
310.443356
21
173.731939
0
LINE
8
annotation
62
1
39
211
10
310.443356
20
173.731939
11
310.443356
21
173.731939
0
LINE
8
annotation
62
1
39
211
10
310.443356
20
173.731939
11
310.826764
21
173.766341
0
LINE
8
annotation
62
1
39
211
10
310.826764
20
173.766341
11
311.187538
21
173.865519
0
LINE
8
annotation
62
1
39
211
10
311.187538
20
173.865519
11
311.519677
21
174.023434
0
LINE
8
annotation
62
1
39
211
10
311.519677
20
174.023434
11
311.817181
21
174.234045
0
LINE
8
annotation
62
1
39
211
10
311.817181
20
174.234045
11
312.074049
21
174.491313
0
LINE
8
annotation
62
1
39
211
10
312.074049
20
174.491313
11
312.284280
21
174.789196
0
LINE
8
annotation
62
1
39
211
10
312.284280
20
174.789196
11
312.441875
21
175.121656
0
LINE
8
annotation
62
1
39
211
10
312.441875
20
175.121656
11
312.540832
21
175.482651
0
LINE
8
annotation
62
1
39
211
10
312.540832
20
175.482651
11
312.575151
21
175.866142
0
LINE
8
annotation
62
1
39
211
10
312.575151
20
175.866142
11
312.575151
21
176.928126
0
LINE
8
annotation
62
1
39
211
10
312.575151
20
176.928126
11
312.575151
21
176.928126
0
LINE
8
annotation
62
1
39
211
10
312.575151
20
176.928126
11
312.540832
21
177.311432
0
LINE
8
annotation
62
1
39
211
10
312.540832
20
177.311432
11
312.441875
21
177.671929
0
LINE
8
annotation
62
1
39
211
10
312.441875
20
177.671929
11
312.284280
21
178.003668
0
LINE
8
annotation
62
1
39
211
10
312.284280
20
178.003668
11
312.074049
21
178.300696
0
LINE
8
annotation
62
1
39
211
10
312.074049
20
178.300696
11
311.817181
21
178.557064
0
LINE
8
annotation
62
1
39
211
10
311.817181
20
178.557064
11
311.519677
21
178.766821
0
LINE
8
annotation
62
1
39
211
10
311.519677
20
178.766821
11
311.187538
21
178.924015
0
LINE
8
annotation
62
1
39
211
10
311.187538
20
178.924015
11
310.826764
21
179.022695
0
LINE
8
annotation
62
1
39
211
10
310.826764
20
179.022695
11
310.443356
21
179.056911
0
LINE
8
annotation
62
1
39
211
10
310.443356
20
179.056911
11
308.311561
21
179.056911
0
LINE
8
annotation
62
1
39
211
10
308.044560
20
172.531939
11
312.844560
21
172.531939
0
LINE
8
annotation
62
1
39
211
10
293.831046
20
200.954161
11
295.965249
21
210.554161
0
LINE
8
annotation
62
1
39
211
10
295.965249
20
210.554161
11
291.696241
21
210.554161
0
LINE
8
annotation
62
1
39
211
10
295.965249
20
206.279132
11
293.831046
21
206.279132
0
LINE
8
annotation
62
1
39
211
10
264.374173
20
230.389958
11
264.374173
21
230.389958
0
LINE
8
annotation
62
1
39
211
10
264.374173
20
230.389958
11
264.407495
21
230.018862
0
LINE
8
annotation
62
1
39
211
10
264.407495
20
230.018862
11
264.503540
21
229.669847
0
LINE
8
annotation
62
1
39
211
10
264.503540
20
229.669847
11
264.656426
21
229.348675
0
LINE
8
annotation
62
1
39
211
10
264.656426
20
229.348675
11
264.860273
21
229.061107
0
LINE
8
annotation
62
1
39
211
10
264.860273
20
229.061107
11
265.109199
21
228.812904
0
LINE
8
annotation
62
1
39
211
10
265.109199
20
228.812904
11
265.397323
21
228.609829
0
LINE
8
annotation
62
1
39
211
10
265.397323
20
228.609829
11
265.718763
21
228.457642
0
LINE
8
annotation
62
1
39
211
10
265.718763
20
228.457642
11
266.067638
21
228.362105
0
LINE
8
annotation
62
1
39
211
10
266.067638
20
228.362105
11
266.438066
21
228.328979
0
LINE
8
annotation
62
1
39
211
10
266.438066
20
228.328979
11
266.438066
21
228.328979
0
LINE
8
annotation
62
1
39
211
10
266.438066
20
228.328979
11
266.808495
21
228.362105
0
LINE
8
annotation
62
1
39
211
10
266.808495
20
228.362105
11
267.157370
21
228.457642
0
LINE
8
annotation
62
1
39
211
10
267.157370
20
228.457642
11
267.478810
21
228.609829
0
LINE
8
annotation
62
1
39
211
10
267.478810
20
228.609829
11
267.766934
21
228.812904
0
LINE
8
annotation
62
1
39
211
10
267.766934
20
228.812904
11
268.015860
21
229.061107
0
LINE
8
annotation
62
1
39
211
10
268.015860
20
229.061107
11
268.219706
21
229.348675
0
LINE
8
annotation
62
1
39
211
10
268.219706
20
229.348675
11
268.372593
21
229.669847
0
LINE
8
annotation
62
1
39
211
10
268.372593
20
229.669847
11
268.468638
21
230.018862
0
LINE
8
annotation
62
1
39
211
10
268.468638
20
230.018862
11
268.501960
21
230.389958
0
LINE
8
annotation
62
1
39
211
10
268.501960
20
230.389958
11
268.501960
21
231.418116
0
LINE
8
annotation
62
1
39
211
10
268.501960
20
231.418116
11
268.501960
21
231.418116
0
LINE
8
annotation
62
1
39
211
10
268.501960
20
231.418116
11
268.468657
21
231.789392
0
LINE
8
annotation
62
1
39
211
10
268.468657
20
231.789392
11
268.372660
21
232.138889
0
LINE
8
annotation
62
1
39
211
10
268.372660
20
232.138889
11
268.219836
21
232.460759
0
LINE
8
annotation
62
1
39
211
10
268.219836
20
232.460759
11
268.016051
21
232.749155
0
LINE
8
annotation
62
1
39
211
10
268.016051
20
232.749155
11
267.767173
21
232.998228
0
LINE
8
annotation
62
1
39
211
10
267.767173
20
232.998228
11
267.479069
21
233.202131
0
LINE
8
annotation
62
1
39
211
10
267.479069
20
233.202131
11
267.157605
21
233.355016
0
LINE
8
annotation
62
1
39
211
10
267.157605
20
233.355016
11
266.808649
21
233.451035
0
LINE
8
annotation
62
1
39
211
10
266.808649
20
233.451035
11
266.438066
21
233.484341
0
LINE
8
annotation
62
1
39
211
10
266.438066
20
233.484341
11
266.438066
21
233.484341
0
LINE
8
annotation
62
1
39
211
10
266.438066
20
233.484341
11
266.067484
21
233.451016
0
LINE
8
annotation
62
1
39
211
10
266.067484
20
233.451016
11
265.718528
21
233.354949
0
LINE
8
annotation
62
1
39
211
10
265.718528
20
233.354949
11
265.397064
21
233.202001
0
LINE
8
annotation
62
1
39
211
10
265.397064
20
233.202001
11
265.108959
21
232.998036
0
LINE
8
annotation
62
1
39
211
10
265.108959
20
232.998036
11
264.860081
21
232.748915
0
LINE
8
annotation
62
1
39
211
10
264.860081
20
232.748915
11
264.656297
21
232.460500
0
LINE
8
annotation
62
1
39
211
10
264.656297
20
232.460500
11
264.503473
21
232.138654
0
LINE
8
annotation
62
1
39
211
10
264.503473
20
232.138654
11
264.407476
21
231.789239
0
LINE
8
annotation
62
1
39
211
10
264.407476
20
231.789239
11
264.374173
21
231.418116
0
LINE
8
annotation
62
1
39
211
10
264.374173
20
231.418116
11
264.374173
21
230.389958
0
LINE
8
annotation
62
1
39
211
10
268.501960
20
235.551149
11
268.501960
21
235.551149
0
LINE
8
annotation
62
1
39
211
10
268.501960
20
235.551149
11
268.468657
21
235.920710
0
LINE
8
annotation
62
1
39
211
10
268.468657
20
235.920710
11
268.372660
21
236.268909
0
LINE
8
annotation
62
1
39
211
10
268.372660
20
236.268909
11
268.219836
21
236.589842
0
LINE
8
annotation
62
1
39
211
10
268.219836
20
236.589842
11
268.016051
21
236.877602
0
LINE
8
annotation
62
1
39
211
10
268.016051
20
236.877602
11
267.767173
21
237.126284
0
LINE
8
annotation
62
1
39
211
10
267.767173
20
237.126284
11
267.479069
21
237.329983
0
LINE
8
annotation
62
1
39
211
10
267.479069
20
237.329983
11
267.157605
21
237.482793
0
LINE
8
annotation
62
1
39
211
10
267.157605
20
237.482793
11
266.808649
21
237.578810
0
LINE
8
annotation
62
1
39
211
10
266.808649
20
237.578810
11
266.438066
21
237.612128
0
LINE
8
annotation
62
1
39
211
10
266.438066
20
237.612128
11
266.438066
21
237.612128
0
LINE
8
annotation
62
1
39
211
10
266.438066
20
237.612128
11
266.067484
21
237.578810
0
LINE
8
annotation
62
1
39
211
10
266.067484
20
237.578810
11
265.718528
21
237.482793
0
LINE
8
annotation
62
1
39
211
10
265.718528
20
237.482793
11
265.397064
21
237.329983
0
LINE
8
annotation
62
1
39
211
10
265.397064
20
237.329983
11
265.108959
21
237.126284
0
LINE
8
annotation
62
1
39
211
10
265.108959
20
237.126284
11
264.860081
21
236.877602
0
LINE
8
annotation
62
1
39
211
10
264.860081
20
236.877602
11
264.656297
21
236.589842
0
LINE
8
annotation
62
1
39
211
10
264.656297
20
236.589842
11
264.503473
21
236.268909
0
LINE
8
annotation
62
1
39
211
10
264.503473
20
236.268909
11
264.407476
21
235.920710
0
LINE
8
annotation
62
1
39
211
10
264.407476
20
235.920710
11
264.374173
21
235.551149
0
LINE
8
annotation
62
1
39
211
10
264.374173
20
235.551149
11
264.374173
21
235.551149
0
LINE
8
annotation
62
1
39
211
10
264.374173
20
235.551149
11
264.407495
21
235.179853
0
LINE
8
annotation
62
1
39
211
10
264.407495
20
235.179853
11
264.503540
21
234.830302
0
LINE
8
annotation
62
1
39
211
10
264.503540
20
234.830302
11
264.656426
21
234.508355
0
LINE
8
annotation
62
1
39
211
10
264.656426
20
234.508355
11
264.860273
21
234.219867
0
LINE
8
annotation
62
1
39
211
10
264.860273
20
234.219867
11
265.109199
21
233.970697
0
LINE
8
annotation
62
1
39
211
10
265.109199
20
233.970697
11
265.397323
21
233.766703
0
LINE
8
annotation
62
1
39
211
10
265.397323
20
233.766703
11
265.718763
21
233.613740
0
LINE
8
annotation
62
1
39
211
10
265.718763
20
233.613740
11
266.067638
21
233.517667
0
LINE
8
annotation
62
1
39
211
10
266.067638
20
233.517667
11
266.438066
21
233.484341
0
LINE
8
annotation
62
1
39
211
10
266.438066
20
233.484341
11
266.438066
21
233.484341
0
LINE
8
annotation
62
1
39
211
10
266.438066
20
233.484341
11
266.808495
21
233.517667
0
LINE
8
annotation
62
1
39
211
10
266.808495
20
233.517667
11
267.157370
21
233.613740
0
LINE
8
annotation
62
1
39
211
10
267.157370
20
233.613740
11
267.478810
21
233.766703
0
LINE
8
annotation
62
1
39
211
10
267.478810
20
233.766703
11
267.766934
21
233.970697
0
LINE
8
annotation
62
1
39
211
10
267.766934
20
233.970697
11
268.015860
21
234.219867
0
LINE
8
annotation
62
1
39
211
10
268.015860
20
234.219867
11
268.219706
21
234.508355
0
LINE
8
annotation
62
1
39
211
10
268.219706
20
234.508355
11
268.372593
21
234.830302
0
LINE
8
annotation
62
1
39
211
10
268.372593
20
234.830302
11
268.468638
21
235.179853
0
LINE
8
annotation
62
1
39
211
10
268.468638
20
235.179853
11
268.501960
21
235.551149
0
LINE
8
annotation
62
1
39
211
10
379.378769
20
105.990315
11
373.501933
21
97.490010
0
LINE
8
annotation
62
1
39
211
10
373.501933
20
97.490010
11
367.623992
21
105.990315
0
LINE
8
annotation
62
1
39
211
10
373.501933
20
98.174057
11
373.501933
21
88.367543
0
LINE
8
annotation
62
1
39
211
10
395.624331
20
97.178929
11
385.989104
21
97.178929
0
LINE
8
annotation
62
1
39
211
10
406.148873
20
88.368095
11
410.066396
21
105.989763
0
LINE
8
annotation
62
1
39
211
10
410.066396
20
105.989763
11
402.230246
21
105.989763
0
LINE
8
annotation
62
1
39
211
10
410.066396
20
98.142562
11
406.148873
21
98.142562
0
LINE
8
boundary
62
5
39
2
10
212.821312
20
324.983736
11
213.480838
21
325.490024
0
LINE
8
boundary
62
5
39
2
10
213.480838
20
325.490024
11
214.477422
21
326.255066
0
LINE
8
boundary
62
5
39
2
10
214.477422
20
326.255066
11
214.984021
21
326.915603
0
LINE
8
boundary
62
5
39
2
10
214.984021
20
326.915603
11
215.748183
21
327.911949
0
LINE
8
boundary
62
5
39
2
10
215.748183
20
327.911949
11
216.067062
21
328.682126
0
LINE
8
boundary
62
5
39
2
10
216.067062
20
328.682126
11
216.547031
21
329.841378
0
LINE
8
boundary
62
5
39
2
10
216.547031
20
329.841378
11
216.655950
21
330.669063
0
LINE
8
boundary
62
5
39
2
10
216.655950
20
330.669063
11
216.819493
21
331.911944
0
LINE
8
boundary
62
5
39
2
10
216.819493
20
331.911944
11
216.710416
21
332.740836
0
LINE
8
boundary
62
5
39
2
10
216.710416
20
332.740836
11
216.547032
21
333.982509
0
LINE
8
boundary
62
5
39
2
10
216.547032
20
333.982509
11
216.385360
21
334.512055
0
LINE
8
boundary
62
5
39
2
10
216.385360
20
334.512055
11
213.953299
21
341.524750
0
LINE
8
boundary
62
5
39
2
10
213.953299
20
341.524750
11
213.327470
21
343.035640
0
LINE
8
boundary
62
5
39
2
10
213.327470
20
343.035640
11
208.474720
21
354.751251
0
LINE
8
boundary
62
5
39
2
10
208.474720
20
354.751251
11
202.207543
21
367.622829
0
LINE
8
boundary
62
5
39
2
10
202.207543
20
367.622829
11
195.174610
21
380.092486
0
LINE
8
boundary
62
5
39
2
10
195.174610
20
380.092486
11
187.401628
21
392.114740
0
LINE
8
boundary
62
5
39
2
10
187.401628
20
392.114740
11
178.916950
21
403.645762
0
LINE
8
boundary
62
5
39
2
10
178.916950
20
403.645762
11
171.727969
21
412.271915
0
LINE
8
boundary
62
5
39
2
10
171.727969
20
412.271915
11
169.751486
21
414.643521
0
LINE
8
boundary
62
5
39
2
10
169.751486
20
414.643521
11
167.096594
21
417.463841
0
LINE
8
boundary
62
5
39
2
10
167.096594
20
417.463841
11
159.938757
21
425.067687
0
LINE
8
boundary
62
5
39
2
10
159.938757
20
425.067687
11
149.514537
21
434.880414
0
LINE
8
boundary
62
5
39
2
10
149.514537
20
434.880414
11
138.516846
21
444.045885
0
LINE
8
boundary
62
5
39
2
10
138.516846
20
444.045885
11
126.985796
21
452.530589
0
LINE
8
boundary
62
5
39
2
10
126.985796
20
452.530589
11
114.963513
21
460.303620
0
LINE
8
boundary
62
5
39
2
10
114.963513
20
460.303620
11
102.493855
21
467.336496
0
LINE
8
boundary
62
5
39
2
10
102.493855
20
467.336496
11
89.622303
21
473.603626
0
LINE
8
boundary
62
5
39
2
10
89.622303
20
473.603626
11
76.395814
21
479.082268
0
LINE
8
boundary
62
5
39
2
10
76.395814
20
479.082268
11
62.862686
21
483.752283
0
LINE
8
boundary
62
5
39
2
10
62.862686
20
483.752283
11
49.072276
21
487.596635
0
LINE
8
boundary
62
5
39
2
10
49.072276
20
487.596635
11
35.074909
21
490.601296
0
LINE
8
boundary
62
5
39
2
10
35.074909
20
490.601296
11
20.921665
21
492.755369
0
LINE
8
boundary
62
5
39
2
10
20.921665
20
492.755369
11
6.664188
21
494.051063
0
LINE
8
boundary
62
5
39
2
10
6.664188
20
494.051063
11
1.587500
21
494.204445
0
LINE
8
boundary
62
5
39
2
10
1.587500
20
494.204445
11
1.587500
21
484.172293
0
LINE
8
boundary
62
5
39
2
10
1.587500
20
484.172293
11
36.398023
21
483.872293
0
LINE
8
boundary
62
5
39
2
10
36.398023
20
483.872293
11
36.398023
21
477.872293
0
LINE
8
boundary
62
5
39
2
10
36.398023
20
477.872293
11
1.887500
21
477.872293
0
LINE
8
boundary
62
5
39
2
10
1.887500
20
477.872293
11
1.587500
21
456.950072
0
LINE
8
boundary
62
5
39
2
10
1.587500
20
456.950072
11
63.420915
21
456.650072
0
LINE
8
boundary
62
5
39
2
10
63.420915
20
456.650072
11
63.420916
21
450.650072
0
LINE
8
boundary
62
5
39
2
10
63.420916
20
450.650072
11
1.887500
21
450.650072
0
LINE
8
boundary
62
5
39
2
10
1.887500
20
450.650072
11
1.587500
21
429.727850
0
LINE
8
boundary
62
5
39
2
10
1.587500
20
429.727850
11
80.040667
21
429.427850
0
LINE
8
boundary
62
5
39
2
10
80.040667
20
429.427850
11
80.040667
21
423.427850
0
LINE
8
boundary
62
5
39
2
10
80.040667
20
423.427850
11
1.887500
21
423.427850
0
LINE
8
boundary
62
5
39
2
10
1.887500
20
423.427850
11
1.587500
21
402.505629
0
LINE
8
boundary
62
5
39
2
10
1.587500
20
402.505629
11
91.885780
21
402.205629
0
LINE
8
boundary
62
5
39
2
10
91.885780
20
402.205629
11
91.885780
21
396.205629
0
LINE
8
boundary
62
5
39
2
10
91.885780
20
396.205629
11
1.887500
21
396.205629
0
LINE
8
boundary
62
5
39
2
10
1.887500
20
396.205629
11
1.587500
21
375.283407
0
LINE
8
boundary
62
5
39
2
10
1.587500
20
375.283407
11
100.667831
21
374.983408
0
LINE
8
boundary
62
5
39
2
10
100.667831
20
374.983408
11
100.667831
21
368.983408
0
LINE
8
boundary
62
5
39
2
10
100.667831
20
368.983408
11
1.887500
21
368.983407
0
LINE
8
boundary
62
5
39
2
10
1.887500
20
368.983407
11
1.587500
21
348.061186
0
LINE
8
boundary
62
5
39
2
10
1.587500
20
348.061186
11
107.100114
21
347.761186
0
LINE
8
boundary
62
5
39
2
10
107.100114
20
347.761186
11
107.100113
21
341.761186
0
LINE
8
boundary
62
5
39
2
10
107.100113
20
341.761186
11
1.887500
21
341.761186
0
LINE
8
boundary
62
5
39
2
10
1.887500
20
341.761186
11
1.587500
21
320.838965
0
LINE
8
boundary
62
5
39
2
10
1.587500
20
320.838965
11
15.165652
21
320.538965
0
LINE
8
boundary
62
5
39
2
10
15.165652
20
320.538965
11
15.165652
21
314.538965
0
LINE
8
boundary
62
5
39
2
10
15.165652
20
314.538965
11
1.887500
21
314.538965
0
LINE
8
boundary
62
5
39
2
10
1.887500
20
314.538965
11
1.587500
21
293.616743
0
LINE
8
boundary
62
5
39
2
10
1.587500
20
293.616743
11
14.427824
21
293.316744
0
LINE
8
boundary
62
5
39
2
10
14.427824
20
293.316744
11
14.427824
21
287.316744
0
LINE
8
boundary
62
5
39
2
10
14.427824
20
287.316744
11
1.887500
21
287.316743
0
LINE
8
boundary
62
5
39
2
10
1.887500
20
287.316743
11
1.587500
21
249.483411
0
LINE
8
boundary
62
5
39
2
10
1.587500
20
249.483411
11
4.453881
21
249.483412
0
LINE
8
boundary
62
5
39
2
10
4.453881
20
249.483412
11
6.603710
21
249.483412
0
LINE
8
boundary
62
5
39
2
10
6.603710
20
249.483412
11
9.414888
21
249.483411
0
LINE
8
boundary
62
5
39
2
10
9.414888
20
249.483411
11
11.236285
21
249.483412
0
LINE
8
boundary
62
5
39
2
10
11.236285
20
249.483412
11
13.934039
21
249.483411
0
LINE
8
boundary
62
5
39
2
10
13.934039
20
249.483411
11
15.379830
21
249.483412
0
LINE
8
boundary
62
5
39
2
10
15.379830
20
249.483412
11
17.894291
21
249.483411
0
LINE
8
boundary
62
5
39
2
10
17.894291
20
249.483411
11
18.927031
21
249.483411
0
LINE
8
boundary
62
5
39
2
10
18.927031
20
249.483411
11
21.193075
21
249.483412
0
LINE
8
boundary
62
5
39
2
10
21.193075
20
249.483412
11
21.786015
21
249.483411
0
LINE
8
boundary
62
5
39
2
10
21.786015
20
249.483411
11
23.744955
21
249.483412
0
LINE
8
boundary
62
5
39
2
10
23.744955
20
249.483412
11
24.267249
21
249.483412
0
LINE
8
boundary
62
5
39
2
10
24.267249
20
249.483412
11
25.787541
21
250.953687
0
LINE
8
boundary
62
5
39
2
10
25.787541
20
250.953687
11
27.268148
21
252.483422
0
LINE
8
boundary
62
5
39
2
10
27.268148
20
252.483422
11
27.268148
21
270.331570
0
LINE
8
boundary
62
5
39
2
10
27.268148
20
270.331570
11
27.268148
21
311.911935
0
LINE
8
boundary
62
5
39
2
10
27.268148
20
311.911935
11
27.513502
21
313.417051
0
LINE
8
boundary
62
5
39
2
10
27.513502
20
313.417051
11
27.701319
21
315.017772
0
LINE
8
boundary
62
5
39
2
10
27.701319
20
315.017772
11
28.170607
21
316.152720
0
LINE
8
boundary
62
5
39
2
10
28.170607
20
316.152720
11
28.898021
21
317.911932
0
LINE
8
boundary
62
5
39
2
10
28.898021
20
317.911932
11
29.636635
21
318.876204
0
LINE
8
boundary
62
5
39
2
10
29.636635
20
318.876204
11
30.801705
21
320.397228
0
LINE
8
boundary
62
5
39
2
10
30.801705
20
320.397228
11
31.757371
21
321.131821
0
LINE
8
boundary
62
5
39
2
10
31.757371
20
321.131821
11
33.282635
21
322.304249
0
LINE
8
boundary
62
5
39
2
10
33.282635
20
322.304249
11
34.391649
21
322.764425
0
LINE
8
boundary
62
5
39
2
10
34.391649
20
322.764425
11
36.171738
21
323.503058
0
LINE
8
boundary
62
5
39
2
10
36.171738
20
323.503058
11
38.629629
21
323.818494
0
LINE
8
boundary
62
5
39
2
10
38.629629
20
323.818494
11
39.316620
21
323.911951
0
LINE
8
boundary
62
5
39
2
10
39.316620
20
323.911951
11
46.820298
21
323.911951
0
LINE
8
boundary
62
5
39
2
10
46.820298
20
323.911951
11
208.921741
21
323.911950
0
LINE
8
boundary
62
5
39
2
10
208.921741
20
323.911950
11
210.892749
21
324.184556
0
LINE
8
boundary
62
5
39
2
10
210.892749
20
324.184556
11
211.660173
21
324.502568
0
LINE
8
boundary
62
5
39
2
10
211.660173
20
324.502568
11
212.821312
21
324.983736
0
LINE
8
annotation
62
1
39
211
10
26.411209
20
285.914526
11
26.411209
21
294.718961
0
LINE
8
annotation
62
1
39
211
10
26.411209
20
294.718961
11
24.453870
21
292.761070
0
LINE
8
annotation
62
1
39
211
10
26.366071
20
313.734249
11
22.986595
21
313.734249
0
LINE
8
annotation
62
1
39
211
10
22.986595
20
313.734249
11
26.109342
21
318.761470
0
LINE
8
annotation
62
1
39
211
10
26.109342
20
318.761470
11
26.109342
21
318.761470
0
LINE
8
annotation
62
1
39
211
10
26.109342
20
318.761470
11
26.113075
21
318.766089
0
LINE
8
annotation
62
1
39
211
10
26.113075
20
318.766089
11
26.116655
21
318.770748
0
LINE
8
annotation
62
1
39
211
10
26.116655
20
318.770748
11
26.120105
21
318.775485
0
LINE
8
annotation
62
1
39
211
10
26.120105
20
318.775485
11
26.123449
21
318.780340
0
LINE
8
annotation
62
1
39
211
10
26.123449
20
318.780340
11
26.126711
21
318.785352
0
LINE
8
annotation
62
1
39
211
10
26.126711
20
318.785352
11
26.129914
21
318.790561
0
LINE
8
annotation
62
1
39
211
10
26.129914
20
318.790561
11
26.133081
21
318.796005
0
LINE
8
annotation
62
1
39
211
10
26.133081
20
318.796005
11
26.136237
21
318.801724
0
LINE
8
annotation
62
1
39
211
10
26.136237
20
318.801724
11
26.139405
21
318.807757
0
LINE
8
annotation
62
1
39
211
10
26.139405
20
318.807757
11
26.139405
21
318.807757
0
LINE
8
annotation
62
1
39
211
10
26.139405
20
318.807757
11
26.268342
21
319.084597
0
LINE
8
annotation
62
1
39
211
10
26.268342
20
319.084597
11
26.343665
21
319.371566
0
LINE
8
annotation
62
1
39
211
10
26.343665
20
319.371566
11
26.367220
21
319.662179
0
LINE
8
annotation
62
1
39
211
10
26.367220
20
319.662179
11
26.340852
21
319.949953
0
LINE
8
annotation
62
1
39
211
10
26.340852
20
319.949953
11
26.266407
21
320.228403
0
LINE
8
annotation
62
1
39
211
10
26.266407
20
320.228403
11
26.145732
21
320.491044
0
LINE
8
annotation
62
1
39
211
10
26.145732
20
320.491044
11
25.980672
21
320.731393
0
LINE
8
annotation
62
1
39
211
10
25.980672
20
320.731393
11
25.773073
21
320.942966
0
LINE
8
annotation
62
1
39
211
10
25.773073
20
320.942966
11
25.524781
21
321.119277
0
LINE
8
annotation
62
1
39
211
10
25.524781
20
321.119277
11
25.524781
21
321.119277
0
LINE
8
annotation
62
1
39
211
10
25.524781
20
321.119277
11
25.247172
21
321.246382
0
LINE
8
annotation
62
1
39
211
10
25.247172
20
321.246382
11
24.959763
21
321.320545
0
LINE
8
annotation
62
1
39
211
10
24.959763
20
321.320545
11
24.668981
21
321.343433
0
LINE
8
annotation
62
1
39
211
10
24.668981
20
321.343433
11
24.381250
21
321.316718
0
LINE
8
annotation
62
1
39
211
10
24.381250
20
321.316718
11
24.102997
21
321.242067
0
LINE
8
annotation
62
1
39
211
10
24.102997
20
321.242067
11
23.840646
21
321.121150
0
LINE
8
annotation
62
1
39
211
10
23.840646
20
321.121150
11
23.600623
21
320.955637
0
LINE
8
annotation
62
1
39
211
10
23.600623
20
320.955637
11
23.389353
21
320.747195
0
LINE
8
annotation
62
1
39
211
10
23.389353
20
320.747195
11
23.213262
21
320.497495
0
LINE
8
annotation
62
1
39
211
10
23.213262
20
320.497495
11
22.991367
21
320.071840
0
LINE
8
annotation
62
1
39
211
10
116.967114
20
339.961487
11
119.098909
21
339.961487
0
LINE
8
annotation
62
1
39
211
10
119.098909
20
339.961487
11
119.098909
21
339.961487
0
LINE
8
annotation
62
1
39
211
10
119.098909
20
339.961487
11
119.482318
21
339.995881
0
LINE
8
annotation
62
1
39
211
10
119.482318
20
339.995881
11
119.843092
21
340.095008
0
LINE
8
annotation
62
1
39
211
10
119.843092
20
340.095008
11
120.175231
21
340.252781
0
LINE
8
annotation
62
1
39
211
10
120.175231
20
340.252781
11
120.472734
21
340.463118
0
LINE
8
annotation
62
1
39
211
10
120.472734
20
340.463118
11
120.729602
21
340.719932
0
LINE
8
annotation
62
1
39
211
10
120.729602
20
340.719932
11
120.939834
21
341.017139
0
LINE
8
annotation
62
1
39
211
10
120.939834
20
341.017139
11
121.097428
21
341.348654
0
LINE
8
annotation
62
1
39
211
10
121.097428
20
341.348654
11
121.196385
21
341.708394
0
LINE
8
annotation
62
1
39
211
10
121.196385
20
341.708394
11
121.230704
21
342.090272
0
LINE
8
annotation
62
1
39
211
10
121.230704
20
342.090272
11
121.230704
21
343.157674
0
LINE
8
annotation
62
1
39
211
10
121.230704
20
343.157674
11
121.230704
21
343.157674
0
LINE
8
annotation
62
1
39
211
10
121.230704
20
343.157674
11
121.196385
21
343.539394
0
LINE
8
annotation
62
1
39
211
10
121.196385
20
343.539394
11
121.097428
21
343.899049
0
LINE
8
annotation
62
1
39
211
10
121.097428
20
343.899049
11
120.939834
21
344.230540
0
LINE
8
annotation
62
1
39
211
10
120.939834
20
344.230540
11
120.729602
21
344.527767
0
LINE
8
annotation
62
1
39
211
10
120.729602
20
344.527767
11
120.472734
21
344.784630
0
LINE
8
annotation
62
1
39
211
10
120.472734
20
344.784630
11
120.175231
21
344.995031
0
LINE
8
annotation
62
1
39
211
10
120.175231
20
344.995031
11
119.843092
21
345.152869
0
LINE
8
annotation
62
1
39
211
10
119.843092
20
345.152869
11
119.482318
21
345.252045
0
LINE
8
annotation
62
1
39
211
10
119.482318
20
345.252045
11
119.098909
21
345.286459
0
LINE
8
annotation
62
1
39
211
10
119.098909
20
345.286459
11
118.031507
21
345.286459
0
LINE
8
annotation
62
1
39
211
10
118.031507
20
345.286459
11
119.098909
21
345.286459
0
LINE
8
annotation
62
1
39
211
10
119.098909
20
345.286459
11
119.098909
21
345.286459
0
LINE
8
annotation
62
1
39
211
10
119.098909
20
345.286459
11
119.482318
21
345.320881
0
LINE
8
annotation
62
1
39
211
10
119.482318
20
345.320881
11
119.843092
21
345.420115
0
LINE
8
annotation
62
1
39
211
10
119.843092
20
345.420115
11
120.175231
21
345.578110
0
LINE
8
annotation
62
1
39
211
10
120.175231
20
345.578110
11
120.472734
21
345.788816
0
LINE
8
annotation
62
1
39
211
10
120.472734
20
345.788816
11
120.729602
21
346.046184
0
LINE
8
annotation
62
1
39
211
10
120.729602
20
346.046184
11
120.939834
21
346.344162
0
LINE
8
annotation
62
1
39
211
10
120.939834
20
346.344162
11
121.097428
21
346.676702
0
LINE
8
annotation
62
1
39
211
10
121.097428
20
346.676702
11
121.196385
21
347.037752
0
LINE
8
annotation
62
1
39
211
10
121.196385
20
347.037752
11
121.230704
21
347.421264
0
LINE
8
annotation
62
1
39
211
10
121.230704
20
347.421264
11
121.230704
21
347.421264
0
LINE
8
annotation
62
1
39
211
10
121.230704
20
347.421264
11
121.196385
21
347.802984
0
LINE
8
annotation
62
1
39
211
10
121.196385
20
347.802984
11
121.097428
21
348.162639
0
LINE
8
annotation
62
1
39
211
10
121.097428
20
348.162639
11
120.939834
21
348.494129
0
LINE
8
annotation
62
1
39
211
10
120.939834
20
348.494129
11
120.729602
21
348.791356
0
LINE
8
annotation
62
1
39
211
10
120.729602
20
348.791356
11
120.472734
21
349.048220
0
LINE
8
annotation
62
1
39
211
10
120.472734
20
349.048220
11
120.175231
21
349.258621
0
LINE
8
annotation
62
1
39
211
10
120.175231
20
349.258621
11
119.843092
21
349.416459
0
LINE
8
annotation
62
1
39
211
10
119.843092
20
349.416459
11
119.482318
21
349.515635
0
LINE
8
annotation
62
1
39
211
10
119.482318
20
349.515635
11
119.098909
21
349.550049
0
LINE
8
annotation
62
1
39
211
10
119.098909
20
349.550049
11
116.967114
21
349.550049
0
LINE
8
annotation
62
1
39
211
10
115.331822
20
369.317610
11
110.001432
21
369.317610
0
LINE
8
annotation
62
1
39
211
10
110.001432
20
369.317610
11
112.130216
21
376.783408
0
LINE
8
annotation
62
1
39
211
10
113.734029
20
367.183408
11
113.734029
21
371.446997
0
LINE
8
annotation
62
1
39
211
10
101.752781
20
394.405629
11
103.884576
21
394.405629
0
LINE
8
annotation
62
1
39
211
10
103.884576
20
394.405629
11
103.884576
21
394.405629
0
LINE
8
annotation
62
1
39
211
10
103.884576
20
394.405629
11
104.267191
21
394.440031
0
LINE
8
annotation
62
1
39
211
10
104.267191
20
394.440031
11
104.627544
21
394.539209
0
LINE
8
annotation
62
1
39
211
10
104.627544
20
394.539209
11
104.959559
21
394.697124
0
LINE
8
annotation
62
1
39
211
10
104.959559
20
394.697124
11
105.257162
21
394.907735
0
LINE
8
annotation
62
1
39
211
10
105.257162
20
394.907735
11
105.514278
21
395.165002
0
LINE
8
annotation
62
1
39
211
10
105.514278
20
395.165002
11
105.724831
21
395.462886
0
LINE
8
annotation
62
1
39
211
10
105.724831
20
395.462886
11
105.882748
21
395.795346
0
LINE
8
annotation
62
1
39
211
10
105.882748
20
395.795346
11
105.981952
21
396.156341
0
LINE
8
annotation
62
1
39
211
10
105.981952
20
396.156341
11
106.016371
21
396.539832
0
LINE
8
annotation
62
1
39
211
10
106.016371
20
396.539832
11
106.016371
21
397.601816
0
LINE
8
annotation
62
1
39
211
10
106.016371
20
397.601816
11
106.016371
21
397.601816
0
LINE
8
annotation
62
1
39
211
10
106.016371
20
397.601816
11
105.981972
21
397.985121
0
LINE
8
annotation
62
1
39
211
10
105.981972
20
397.985121
11
105.882817
21
398.345619
0
LINE
8
annotation
62
1
39
211
10
105.882817
20
398.345619
11
105.724965
21
398.677357
0
LINE
8
annotation
62
1
39
211
10
105.724965
20
398.677357
11
105.514476
21
398.974386
0
LINE
8
annotation
62
1
39
211
10
105.514476
20
398.974386
11
105.257410
21
399.230754
0
LINE
8
annotation
62
1
39
211
10
105.257410
20
399.230754
11
104.959827
21
399.440511
0
LINE
8
annotation
62
1
39
211
10
104.959827
20
399.440511
11
104.627787
21
399.597704
0
LINE
8
annotation
62
1
39
211
10
104.627787
20
399.597704
11
104.267350
21
399.696385
0
LINE
8
annotation
62
1
39
211
10
104.267350
20
399.696385
11
103.884576
21
399.730601
0
LINE
8
annotation
62
1
39
211
10
103.884576
20
399.730601
11
101.752781
21
399.730601
0
LINE
8
annotation
62
1
39
211
10
101.752781
20
399.730601
11
101.752781
21
404.005629
0
LINE
8
annotation
62
1
39
211
10
101.752781
20
404.005629
11
106.016371
21
404.005629
0
LINE
8
annotation
62
1
39
211
10
93.109876
20
431.227850
11
93.109876
21
431.227850
0
LINE
8
annotation
62
1
39
211
10
93.109876
20
431.227850
11
92.499170
21
430.998873
0
LINE
8
annotation
62
1
39
211
10
92.499170
20
430.998873
11
91.938768
21
430.690352
0
LINE
8
annotation
62
1
39
211
10
91.938768
20
430.690352
11
91.434421
21
430.310019
0
LINE
8
annotation
62
1
39
211
10
91.434421
20
430.310019
11
90.991883
21
429.865603
0
LINE
8
annotation
62
1
39
211
10
90.991883
20
429.865603
11
90.616907
21
429.364834
0
LINE
8
annotation
62
1
39
211
10
90.616907
20
429.364834
11
90.315244
21
428.815442
0
LINE
8
annotation
62
1
39
211
10
90.315244
20
428.815442
11
90.092648
21
428.225156
0
LINE
8
annotation
62
1
39
211
10
90.092648
20
428.225156
11
89.954872
21
427.601706
0
LINE
8
annotation
62
1
39
211
10
89.954872
20
427.601706
11
89.907668
21
426.952822
0
LINE
8
annotation
62
1
39
211
10
89.907668
20
426.952822
11
89.907668
21
423.762053
0
LINE
8
annotation
62
1
39
211
10
89.907668
20
423.762053
11
89.907668
21
423.762053
0
LINE
8
annotation
62
1
39
211
10
89.907668
20
423.762053
11
89.942087
21
423.378562
0
LINE
8
annotation
62
1
39
211
10
89.942087
20
423.378562
11
90.041291
21
423.017567
0
LINE
8
annotation
62
1
39
211
10
90.041291
20
423.017567
11
90.199208
21
422.685107
0
LINE
8
annotation
62
1
39
211
10
90.199208
20
422.685107
11
90.409761
21
422.387224
0
LINE
8
annotation
62
1
39
211
10
90.409761
20
422.387224
11
90.666877
21
422.129956
0
LINE
8
annotation
62
1
39
211
10
90.666877
20
422.129956
11
90.964480
21
421.919345
0
LINE
8
annotation
62
1
39
211
10
90.964480
20
421.919345
11
91.296495
21
421.761430
0
LINE
8
annotation
62
1
39
211
10
91.296495
20
421.761430
11
91.656848
21
421.662252
0
LINE
8
annotation
62
1
39
211
10
91.656848
20
421.662252
11
92.039463
21
421.627850
0
LINE
8
annotation
62
1
39
211
10
92.039463
20
421.627850
11
92.039463
21
421.627850
0
LINE
8
annotation
62
1
39
211
10
92.039463
20
421.627850
11
92.422872
21
421.662252
0
LINE
8
annotation
62
1
39
211
10
92.422872
20
421.662252
11
92.783646
21
421.761430
0
LINE
8
annotation
62
1
39
211
10
92.783646
20
421.761430
11
93.115785
21
421.919345
0
LINE
8
annotation
62
1
39
211
10
93.115785
20
421.919345
11
93.413288
21
422.129956
0
LINE
8
annotation
62
1
39
211
10
93.413288
20
422.129956
11
93.670156
21
422.387224
0
LINE
8
annotation
62
1
39
211
10
93.670156
20
422.387224
11
93.880387
21
422.685107
0
LINE
8
annotation
62
1
39
211
10
93.880387
20
422.685107
11
94.037982
21
423.017567
0
LINE
8
annotation
62
1
39
211
10
94.037982
20
423.017567
11
94.136939
21
423.378562
0
LINE
8
annotation
62
1
39
211
10
94.136939
20
423.378562
11
94.171258
21
423.762053
0
LINE
8
annotation
62
1
39
211
10
94.171258
20
423.762053
11
94.171258
21
424.824037
0
LINE
8
annotation
62
1
39
211
10
94.171258
20
424.824037
11
94.171258
21
424.824037
0
LINE
8
annotation
62
1
39
211
10
94.171258
20
424.824037
11
94.136939
21
425.207343
0
LINE
8
annotation
62
1
39
211
10
94.136939
20
425.207343
11
94.037982
21
425.567840
0
LINE
8
annotation
62
1
39
211
10
94.037982
20
425.567840
11
93.880387
21
425.899578
0
LINE
8
annotation
62
1
39
211
10
93.880387
20
425.899578
11
93.670156
21
426.196607
0
LINE
8
annotation
62
1
39
211
10
93.670156
20
426.196607
11
93.413288
21
426.452975
0
LINE
8
annotation
62
1
39
211
10
93.413288
20
426.452975
11
93.115785
21
426.662732
0
LINE
8
annotation
62
1
39
211
10
93.115785
20
426.662732
11
92.783646
21
426.819926
0
LINE
8
annotation
62
1
39
211
10
92.783646
20
426.819926
11
92.422872
21
426.918606
0
LINE
8
annotation
62
1
39
211
10
92.422872
20
426.918606
11
92.039463
21
426.952822
0
LINE
8
annotation
62
1
39
211
10
92.039463
20
426.952822
11
89.907668
21
426.952822
0
LINE
8
annotation
62
1
39
211
10
89.640667
20
420.427850
11
94.440667
21
420.427850
0
LINE
8
annotation
62
1
39
211
10
75.419712
20
448.850072
11
77.553915
21
458.450072
0
LINE
8
annotation
62
1
39
211
10
77.553915
20
458.450072
11
73.284907
21
458.450072
0
LINE
8
annotation
62
1
39
211
10
77.553915
20
454.175043
11
75.419712
21
454.175043
0
LINE
8
annotation
62
1
39
211
10
45.953014
20
478.285254
11
45.953014
21
478.285254
0
LINE
8
annotation
62
1
39
211
10
45.953014
20
478.285254
11
45.986344
21
477.914070
0
LINE
8
annotation
62
1
39
211
10
45.986344
20
477.914070
11
46.082412
21
477.564972
0
LINE
8
annotation
62
1
39
211
10
46.082412
20
477.564972
11
46.235335
21
477.243723
0
LINE
8
annotation
62
1
39
211
10
46.235335
20
477.243723
11
46.439230
21
476.956087
0
LINE
8
annotation
62
1
39
211
10
46.439230
20
476.956087
11
46.688215
21
476.707826
0
LINE
8
annotation
62
1
39
211
10
46.688215
20
476.707826
11
46.976407
21
476.504702
0
LINE
8
annotation
62
1
39
211
10
46.976407
20
476.504702
11
47.297924
21
476.352479
0
LINE
8
annotation
62
1
39
211
10
47.297924
20
476.352479
11
47.646881
21
476.256919
0
LINE
8
annotation
62
1
39
211
10
47.646881
20
476.256919
11
48.017398
21
476.223785
0
LINE
8
annotation
62
1
39
211
10
48.017398
20
476.223785
11
48.017398
21
476.223785
0
LINE
8
annotation
62
1
39
211
10
48.017398
20
476.223785
11
48.387915
21
476.256919
0
LINE
8
annotation
62
1
39
211
10
48.387915
20
476.256919
11
48.736873
21
476.352479
0
LINE
8
annotation
62
1
39
211
10
48.736873
20
476.352479
11
49.058389
21
476.504702
0
LINE
8
annotation
62
1
39
211
10
49.058389
20
476.504702
11
49.346581
21
476.707826
0
LINE
8
annotation
62
1
39
211
10
49.346581
20
476.707826
11
49.595566
21
476.956087
0
LINE
8
annotation
62
1
39
211
10
49.595566
20
476.956087
11
49.799462
21
477.243723
0
LINE
8
annotation
62
1
39
211
10
49.799462
20
477.243723
11
49.952385
21
477.564972
0
LINE
8
annotation
62
1
39
211
10
49.952385
20
477.564972
11
50.048452
21
477.914070
0
LINE
8
annotation
62
1
39
211
10
50.048452
20
477.914070
11
50.081782
21
478.285254
0
LINE
8
annotation
62
1
39
211
10
50.081782
20
478.285254
11
50.081782
21
479.313657
0
LINE
8
annotation
62
1
39
211
10
50.081782
20
479.313657
11
50.081782
21
479.313657
0
LINE
8
annotation
62
1
39
211
10
50.081782
20
479.313657
11
50.048472
21
479.685021
0
LINE
8
annotation
62
1
39
211
10
50.048472
20
479.685021
11
49.952452
21
480.034601
0
LINE
8
annotation
62
1
39
211
10
49.952452
20
480.034601
11
49.799591
21
480.356548
0
LINE
8
annotation
62
1
39
211
10
49.799591
20
480.356548
11
49.595758
21
480.645012
0
LINE
8
annotation
62
1
39
211
10
49.595758
20
480.645012
11
49.346821
21
480.894144
0
LINE
8
annotation
62
1
39
211
10
49.346821
20
480.894144
11
49.058648
21
481.098095
0
LINE
8
annotation
62
1
39
211
10
49.058648
20
481.098095
11
48.737108
21
481.251017
0
LINE
8
annotation
62
1
39
211
10
48.737108
20
481.251017
11
48.388068
21
481.347059
0
LINE
8
annotation
62
1
39
211
10
48.388068
20
481.347059
11
48.017398
21
481.380373
0
LINE
8
annotation
62
1
39
211
10
48.017398
20
481.380373
11
48.017398
21
481.380373
0
LINE
8
annotation
62
1
39
211
10
48.017398
20
481.380373
11
47.646728
21
481.347040
0
LINE
8
annotation
62
1
39
211
10
47.646728
20
481.347040
11
47.297688
21
481.250950
0
LINE
8
annotation
62
1
39
211
10
47.297688
20
481.250950
11
46.976148
21
481.097966
0
LINE
8
annotation
62
1
39
211
10
46.976148
20
481.097966
11
46.687975
21
480.893952
0
LINE
8
annotation
62
1
39
211
10
46.687975
20
480.893952
11
46.439038
21
480.644772
0
LINE
8
annotation
62
1
39
211
10
46.439038
20
480.644772
11
46.235205
21
480.356289
0
LINE
8
annotation
62
1
39
211
10
46.235205
20
480.356289
11
46.082344
21
480.034366
0
LINE
8
annotation
62
1
39
211
10
46.082344
20
480.034366
11
45.986325
21
479.684868
0
LINE
8
annotation
62
1
39
211
10
45.986325
20
479.684868
11
45.953014
21
479.313657
0
LINE
8
annotation
62
1
39
211
10
45.953014
20
479.313657
11
45.953014
21
478.285254
0
LINE
8
annotation
62
1
39
211
10
50.081782
20
483.447672
11
50.081782
21
483.447672
0
LINE
8
annotation
62
1
39
211
10
50.081782
20
483.447672
11
50.048472
21
483.817321
0
LINE
8
annotation
62
1
39
211
10
50.048472
20
483.817321
11
49.952452
21
484.165603
0
LINE
8
annotation
62
1
39
211
10
49.952452
20
484.165603
11
49.799591
21
484.486612
0
LINE
8
annotation
62
1
39
211
10
49.799591
20
484.486612
11
49.595758
21
484.774440
0
LINE
8
annotation
62
1
39
211
10
49.595758
20
484.774440
11
49.346821
21
485.023181
0
LINE
8
annotation
62
1
39
211
10
49.346821
20
485.023181
11
49.058648
21
485.226929
0
LINE
8
annotation
62
1
39
211
10
49.058648
20
485.226929
11
48.737108
21
485.379775
0
LINE
8
annotation
62
1
39
211
10
48.737108
20
485.379775
11
48.388068
21
485.475815
0
LINE
8
annotation
62
1
39
211
10
48.388068
20
485.475815
11
48.017398
21
485.509141
0
LINE
8
annotation
62
1
39
211
10
48.017398
20
485.509141
11
48.017398
21
485.509141
0
LINE
8
annotation
62
1
39
211
10
48.017398
20
485.509141
11
47.646728
21
485.475815
0
LINE
8
annotation
62
1
39
211
10
47.646728
20
485.475815
11
47.297688
21
485.379775
0
LINE
8
annotation
62
1
39
211
10
47.297688
20
485.379775
11
46.976148
21
485.226929
0
LINE
8
annotation
62
1
39
211
10
46.976148
20
485.226929
11
46.687975
21
485.023181
0
LINE
8
annotation
62
1
39
211
10
46.687975
20
485.023181
11
46.439038
21
484.774440
0
LINE
8
annotation
62
1
39
211
10
46.439038
20
484.774440
11
46.235205
21
484.486612
0
LINE
8
annotation
62
1
39
211
10
46.235205
20
484.486612
11
46.082344
21
484.165603
0
LINE
8
annotation
62
1
39
211
10
46.082344
20
484.165603
11
45.986325
21
483.817321
0
LINE
8
annotation
62
1
39
211
10
45.986325
20
483.817321
11
45.953014
21
483.447672
0
LINE
8
annotation
62
1
39
211
10
45.953014
20
483.447672
11
45.953014
21
483.447672
0
LINE
8
annotation
62
1
39
211
10
45.953014
20
483.447672
11
45.986344
21
483.076288
0
LINE
8
annotation
62
1
39
211
10
45.986344
20
483.076288
11
46.082412
21
482.726654
0
LINE
8
annotation
62
1
39
211
10
46.082412
20
482.726654
11
46.235335
21
482.404630
0
LINE
8
annotation
62
1
39
211
10
46.235335
20
482.404630
11
46.439230
21
482.116074
0
LINE
8
annotation
62
1
39
211
10
46.439230
20
482.116074
11
46.688215
21
481.866845
0
LINE
8
annotation
62
1
39
211
10
46.688215
20
481.866845
11
46.976407
21
481.662801
0
LINE
8
annotation
62
1
39
211
10
46.976407
20
481.662801
11
47.297924
21
481.509802
0
LINE
8
annotation
62
1
39
211
10
47.297924
20
481.509802
11
47.646881
21
481.413707
0
LINE
8
annotation
62
1
39
211
10
47.646881
20
481.413707
11
48.017398
21
481.380373
0
LINE
8
annotation
62
1
39
211
10
48.017398
20
481.380373
11
48.017398
21
481.380373
0
LINE
8
annotation
62
1
39
211
10
48.017398
20
481.380373
11
48.387915
21
481.413707
0
LINE
8
annotation
62
1
39
211
10
48.387915
20
481.413707
11
48.736873
21
481.509802
0
LINE
8
annotation
62
1
39
211
10
48.736873
20
481.509802
11
49.058389
21
481.662801
0
LINE
8
annotation
62
1
39
211
10
49.058389
20
481.662801
11
49.346581
21
481.866845
0
LINE
8
annotation
62
1
39
211
10
49.346581
20
481.866845
11
49.595566
21
482.116074
0
LINE
8
annotation
62
1
39
211
10
49.595566
20
482.116074
11
49.799462
21
482.404630
0
LINE
8
annotation
62
1
39
211
10
49.799462
20
482.404630
11
49.952385
21
482.726654
0
LINE
8
annotation
62
1
39
211
10
49.952385
20
482.726654
11
50.048452
21
483.076288
0
LINE
8
annotation
62
1
39
211
10
50.048452
20
483.076288
11
50.081782
21
483.447672
0
LINE
8
annotation
62
1
39
211
10
160.925654
20
353.886279
11
155.048814
21
345.385969
0
LINE
8
annotation
62
1
39
211
10
155.048814
20
345.385969
11
149.170870
21
353.886279
0
LINE
8
annotation
62
1
39
211
10
155.048814
20
346.070017
11
155.048814
21
336.263497
0
LINE
8
annotation
62
1
39
211
10
177.171224
20
345.074888
11
167.535992
21
345.074888
0
LINE
8
annotation
62
1
39
211
10
183.777695
20
340.171076
11
183.777695
21
340.171076
0
LINE
8
annotation
62
1
39
211
10
183.777695
20
340.171076
11
183.840872
21
339.467484
0
LINE
8
annotation
62
1
39
211
10
183.840872
20
339.467484
11
184.022972
21
338.805758
0
LINE
8
annotation
62
1
39
211
10
184.022972
20
338.805758
11
184.312842
21
338.196822
0
LINE
8
annotation
62
1
39
211
10
184.312842
20
338.196822
11
184.699332
21
337.651599
0
LINE
8
annotation
62
1
39
211
10
184.699332
20
337.651599
11
185.171291
21
337.181012
0
LINE
8
annotation
62
1
39
211
10
185.171291
20
337.181012
11
185.717568
21
336.795984
0
LINE
8
annotation
62
1
39
211
10
185.717568
20
336.795984
11
186.327012
21
336.507441
0
LINE
8
annotation
62
1
39
211
10
186.327012
20
336.507441
11
186.988473
21
336.326304
0
LINE
8
annotation
62
1
39
211
10
186.988473
20
336.326304
11
187.690799
21
336.263497
0
LINE
8
annotation
62
1
39
211
10
187.690799
20
336.263497
11
187.690799
21
336.263497
0
LINE
8
annotation
62
1
39
211
10
187.690799
20
336.263497
11
188.393124
21
336.326304
0
LINE
8
annotation
62
1
39
211
10
188.393124
20
336.326304
11
189.054585
21
336.507441
0
LINE
8
annotation
62
1
39
211
10
189.054585
20
336.507441
11
189.664029
21
336.795984
0
LINE
8
annotation
62
1
39
211
10
189.664029
20
336.795984
11
190.210306
21
337.181012
0
LINE
8
annotation
62
1
39
211
10
190.210306
20
337.181012
11
190.682265
21
337.651599
0
LINE
8
annotation
62
1
39
211
10
190.682265
20
337.651599
11
191.068755
21
338.196822
0
LINE
8
annotation
62
1
39
211
10
191.068755
20
338.196822
11
191.358625
21
338.805758
0
LINE
8
annotation
62
1
39
211
10
191.358625
20
338.805758
11
191.540725
21
339.467484
0
LINE
8
annotation
62
1
39
211
10
191.540725
20
339.467484
11
191.603903
21
340.171076
0
LINE
8
annotation
62
1
39
211
10
191.603903
20
340.171076
11
191.603903
21
342.120445
0
LINE
8
annotation
62
1
39
211
10
191.603903
20
342.120445
11
191.603903
21
342.120445
0
LINE
8
annotation
62
1
39
211
10
191.603903
20
342.120445
11
191.540761
21
342.824378
0
LINE
8
annotation
62
1
39
211
10
191.540761
20
342.824378
11
191.358753
21
343.487017
0
LINE
8
annotation
62
1
39
211
10
191.358753
20
343.487017
11
191.069001
21
344.097277
0
LINE
8
annotation
62
1
39
211
10
191.069001
20
344.097277
11
190.682629
21
344.644070
0
LINE
8
annotation
62
1
39
211
10
190.682629
20
344.644070
11
190.210761
21
345.116308
0
LINE
8
annotation
62
1
39
211
10
190.210761
20
345.116308
11
189.664520
21
345.502904
0
LINE
8
annotation
62
1
39
211
10
189.664520
20
345.502904
11
189.055031
21
345.792771
0
LINE
8
annotation
62
1
39
211
10
189.055031
20
345.792771
11
188.393415
21
345.974822
0
LINE
8
annotation
62
1
39
211
10
188.393415
20
345.974822
11
187.690799
21
346.037969
0
LINE
8
annotation
62
1
39
211
10
187.690799
20
346.037969
11
187.690799
21
346.037969
0
LINE
8
annotation
62
1
39
211
10
187.690799
20
346.037969
11
186.988182
21
345.974785
0
LINE
8
annotation
62
1
39
211
10
186.988182
20
345.974785
11
186.326567
21
345.792643
0
LINE
8
annotation
62
1
39
211
10
186.326567
20
345.792643
11
185.717077
21
345.502658
0
LINE
8
annotation
62
1
39
211
10
185.717077
20
345.502658
11
185.170836
21
345.115944
0
LINE
8
annotation
62
1
39
211
10
185.170836
20
345.115944
11
184.698968
21
344.643615
0
LINE
8
annotation
62
1
39
211
10
184.698968
20
344.643615
11
184.312596
21
344.096786
0
LINE
8
annotation
62
1
39
211
10
184.312596
20
344.096786
11
184.022844
21
343.486572
0
LINE
8
annotation
62
1
39
211
10
184.022844
20
343.486572
11
183.840836
21
342.824087
0
LINE
8
annotation
62
1
39
211
10
183.840836
20
342.824087
11
183.777695
21
342.120445
0
LINE
8
annotation
62
1
39
211
10
183.777695
20
342.120445
11
183.777695
21
340.171076
0
LINE
8
annotation
62
1
39
211
10
191.603903
20
349.956599
11
191.603903
21
349.956599
0
LINE
8
annotation
62
1
39
211
10
191.603903
20
349.956599
11
191.540761
21
350.657280
0
LINE
8
annotation
62
1
39
211
10
191.540761
20
350.657280
11
191.358753
21
351.317459
0
LINE
8
annotation
62
1
39
211
10
191.358753
20
351.317459
11
191.069001
21
351.925941
0
LINE
8
annotation
62
1
39
211
10
191.069001
20
351.925941
11
190.682629
21
352.471528
0
LINE
8
annotation
62
1
39
211
10
190.682629
20
352.471528
11
190.210761
21
352.943025
0
LINE
8
annotation
62
1
39
211
10
190.210761
20
352.943025
11
189.664520
21
353.329234
0
LINE
8
annotation
62
1
39
211
10
189.664520
20
353.329234
11
189.055031
21
353.618961
0
LINE
8
annotation
62
1
39
211
10
189.055031
20
353.618961
11
188.393415
21
353.801007
0
LINE
8
annotation
62
1
39
211
10
188.393415
20
353.801007
11
187.690799
21
353.864177
0
LINE
8
annotation
62
1
39
211
10
187.690799
20
353.864177
11
187.690799
21
353.864177
0
LINE
8
annotation
62
1
39
211
10
187.690799
20
353.864177
11
186.988182
21
353.801007
0
LINE
8
annotation
62
1
39
211
10
186.988182
20
353.801007
11
186.326567
21
353.618961
0
LINE
8
annotation
62
1
39
211
10
186.326567
20
353.618961
11
185.717077
21
353.329234
0
LINE
8
annotation
62
1
39
211
10
185.717077
20
353.329234
11
185.170836
21
352.943025
0
LINE
8
annotation
62
1
39
211
10
185.170836
20
352.943025
11
184.698968
21
352.471528
0
LINE
8
annotation
62
1
39
211
10
184.698968
20
352.471528
11
184.312596
21
351.925941
0
LINE
8
annotation
62
1
39
211
10
184.312596
20
351.925941
11
184.022844
21
351.317459
0
LINE
8
annotation
62
1
39
211
10
184.022844
20
351.317459
11
183.840836
21
350.657280
0
LINE
8
annotation
62
1
39
211
10
183.840836
20
350.657280
11
183.777695
21
349.956599
0
LINE
8
annotation
62
1
39
211
10
183.777695
20
349.956599
11
183.777695
21
349.956599
0
LINE
8
annotation
62
1
39
211
10
183.777695
20
349.956599
11
183.840872
21
349.252628
0
LINE
8
annotation
62
1
39
211
10
183.840872
20
349.252628
11
184.022972
21
348.589887
0
LINE
8
annotation
62
1
39
211
10
184.022972
20
348.589887
11
184.312842
21
347.979480
0
LINE
8
annotation
62
1
39
211
10
184.312842
20
347.979480
11
184.699332
21
347.432513
0
LINE
8
annotation
62
1
39
211
10
184.699332
20
347.432513
11
185.171291
21
346.960092
0
LINE
8
annotation
62
1
39
211
10
185.171291
20
346.960092
11
185.717568
21
346.573321
0
LINE
8
annotation
62
1
39
211
10
185.717568
20
346.573321
11
186.327012
21
346.283307
0
LINE
8
annotation
62
1
39
211
10
186.327012
20
346.283307
11
186.988473
21
346.101155
0
LINE
8
annotation
62
1
39
211
10
186.988473
20
346.101155
11
187.690799
21
346.037969
0
LINE
8
annotation
62
1
39
211
10
187.690799
20
346.037969
11
187.690799
21
346.037969
0
LINE
8
annotation
62
1
39
211
10
187.690799
20
346.037969
11
188.393124
21
346.101155
0
LINE
8
annotation
62
1
39
211
10
188.393124
20
346.101155
11
189.054585
21
346.283307
0
LINE
8
annotation
62
1
39
211
10
189.054585
20
346.283307
11
189.664029
21
346.573321
0
LINE
8
annotation
62
1
39
211
10
189.664029
20
346.573321
11
190.210306
21
346.960092
0
LINE
8
annotation
62
1
39
211
10
190.210306
20
346.960092
11
190.682265
21
347.432513
0
LINE
8
annotation
62
1
39
211
10
190.682265
20
347.432513
11
191.068755
21
347.979480
0
LINE
8
annotation
62
1
39
211
10
191.068755
20
347.979480
11
191.358625
21
348.589887
0
LINE
8
annotation
62
1
39
211
10
191.358625
20
348.589887
11
191.540725
21
349.252628
0
LINE
8
annotation
62
1
39
211
10
191.540725
20
349.252628
11
191.603903
21
349.956599
0
LINE
8
boundary
62
5
39
2
10
219.994493
20
494.204319
11
219.994493
21
484.172292
0
LINE
8
boundary
62
5
39
2
10
219.994493
20
484.172292
11
254.787370
21
483.872293
0
LINE
8
boundary
62
5
39
2
10
254.787370
20
483.872293
11
254.787370
21
477.872293
0
LINE
8
boundary
62
5
39
2
10
254.787370
20
477.872293
11
220.294493
21
477.872293
0
LINE
8
boundary
62
5
39
2
10
220.294493
20
477.872293
11
219.994493
21
456.950071
0
LINE
8
boundary
62
5
39
2
10
219.994493
20
456.950071
11
281.798172
21
456.650071
0
LINE
8
boundary
62
5
39
2
10
281.798172
20
456.650071
11
281.798172
21
450.650071
0
LINE
8
boundary
62
5
39
2
10
281.798172
20
450.650071
11
220.294493
21
450.650071
0
LINE
8
boundary
62
5
39
2
10
220.294493
20
450.650071
11
219.994493
21
429.727850
0
LINE
8
boundary
62
5
39
2
10
219.994493
20
429.727850
11
298.410484
21
429.427850
0
LINE
8
boundary
62
5
39
2
10
298.410484
20
429.427850
11
298.410484
21
423.427850
0
LINE
8
boundary
62
5
39
2
10
298.410484
20
423.427850
11
220.294493
21
423.427850
0
LINE
8
boundary
62
5
39
2
10
220.294493
20
423.427850
11
219.994493
21
402.505629
0
LINE
8
boundary
62
5
39
2
10
219.994493
20
402.505629
11
310.250293
21
402.205629
0
LINE
8
boundary
62
5
39
2
10
310.250293
20
402.205629
11
310.250292
21
396.205629
0
LINE
8
boundary
62
5
39
2
10
310.250292
20
396.205629
11
220.294493
21
396.205629
0
LINE
8
boundary
62
5
39
2
10
220.294493
20
396.205629
11
219.994493
21
375.283407
0
LINE
8
boundary
62
5
39
2
10
219.994493
20
375.283407
11
319.028410
21
374.983407
0
LINE
8
boundary
62
5
39
2
10
319.028410
20
374.983407
11
319.028409
21
368.983407
0
LINE
8
boundary
62
5
39
2
10
319.028409
20
368.983407
11
220.294493
21
368.983407
0
LINE
8
boundary
62
5
39
2
10
220.294493
20
368.983407
11
219.994493
21
348.061186
0
LINE
8
boundary
62
5
39
2
10
219.994493
20
348.061186
11
325.457815
21
347.761186
0
LINE
8
boundary
62
5
39
2
10
325.457815
20
347.761186
11
325.457815
21
341.761186
0
LINE
8
boundary
62
5
39
2
10
325.457815
20
341.761186
11
220.294493
21
341.761186
0
LINE
8
boundary
62
5
39
2
10
220.294493
20
341.761186
11
219.994493
21
320.838964
0
LINE
8
boundary
62
5
39
2
10
219.994493
20
320.838964
11
233.572645
21
320.538965
0
LINE
8
boundary
62
5
39
2
10
233.572645
20
320.538965
11
233.572645
21
314.538965
0
LINE
8
boundary
62
5
39
2
10
233.572645
20
314.538965
11
220.294493
21
314.538964
0
LINE
8
boundary
62
5
39
2
10
220.294493
20
314.538964
11
219.994493
21
293.616743
0
LINE
8
boundary
62
5
39
2
10
219.994493
20
293.616743
11
232.845076
21
293.316743
0
LINE
8
boundary
62
5
39
2
10
232.845076
20
293.316743
11
232.845076
21
287.316743
0
LINE
8
boundary
62
5
39
2
10
232.845076
20
287.316743
11
220.294493
21
287.316743
0
LINE
8
boundary
62
5
39
2
10
220.294493
20
287.316743
11
219.994493
21
249.483411
0
LINE
8
boundary
62
5
39
2
10
219.994493
20
249.483411
11
222.548113
21
249.483411
0
LINE
8
boundary
62
5
39
2
10
222.548113
20
249.483411
11
225.388809
21
249.483411
0
LINE
8
boundary
62
5
39
2
10
225.388809
20
249.483411
11
227.380883
21
249.483412
0
LINE
8
boundary
62
5
39
2
10
227.380883
20
249.483412
11
230.144310
21
249.483412
0
LINE
8
boundary
62
5
39
2
10
230.144310
20
249.483412
11
231.783218
21
249.483411
0
LINE
8
boundary
62
5
39
2
10
231.783218
20
249.483411
11
234.397803
21
249.483411
0
LINE
8
boundary
62
5
39
2
10
234.397803
20
249.483411
11
235.641100
21
249.483411
0
LINE
8
boundary
62
5
39
2
10
235.641100
20
249.483411
11
238.039130
21
249.483412
0
LINE
8
boundary
62
5
39
2
10
238.039130
20
249.483412
11
238.854613
21
249.483411
0
LINE
8
boundary
62
5
39
2
10
238.854613
20
249.483411
11
240.973975
21
249.483412
0
LINE
8
boundary
62
5
39
2
10
240.973975
20
249.483412
11
242.694966
21
249.483412
0
LINE
8
boundary
62
5
39
2
10
242.694966
20
249.483412
11
244.215211
21
250.953712
0
LINE
8
boundary
62
5
39
2
10
244.215211
20
250.953712
11
245.695658
21
252.483421
0
LINE
8
boundary
62
5
39
2
10
245.695658
20
252.483421
11
245.695659
21
300.003917
0
LINE
8
boundary
62
5
39
2
10
245.695659
20
300.003917
11
245.695659
21
311.911935
0
LINE
8
boundary
62
5
39
2
10
245.695659
20
311.911935
11
245.842994
21
312.827758
0
LINE
8
boundary
62
5
39
2
10
245.842994
20
312.827758
11
246.108312
21
315.017771
0
LINE
8
boundary
62
5
39
2
10
246.108312
20
315.017771
11
246.577600
21
316.152720
0
LINE
8
boundary
62
5
39
2
10
246.577600
20
316.152720
11
247.305015
21
317.911932
0
LINE
8
boundary
62
5
39
2
10
247.305015
20
317.911932
11
248.043628
21
318.876204
0
LINE
8
boundary
62
5
39
2
10
248.043628
20
318.876204
11
249.208698
21
320.397227
0
LINE
8
boundary
62
5
39
2
10
249.208698
20
320.397227
11
250.164364
21
321.131821
0
LINE
8
boundary
62
5
39
2
10
250.164364
20
321.131821
11
251.689627
21
322.304248
0
LINE
8
boundary
62
5
39
2
10
251.689627
20
322.304248
11
252.798642
21
322.764425
0
LINE
8
boundary
62
5
39
2
10
252.798642
20
322.764425
11
254.578730
21
323.503058
0
LINE
8
boundary
62
5
39
2
10
254.578730
20
323.503058
11
256.302205
21
323.731477
0
LINE
8
boundary
62
5
39
2
10
256.302205
20
323.731477
11
257.660677
21
323.911949
0
LINE
8
boundary
62
5
39
2
10
257.660677
20
323.911949
11
427.328735
21
323.911950
0
LINE
8
boundary
62
5
39
2
10
427.328735
20
323.911950
11
429.299742
21
324.184556
0
LINE
8
boundary
62
5
39
2
10
429.299742
20
324.184556
11
430.067165
21
324.502569
0
LINE
8
boundary
62
5
39
2
10
430.067165
20
324.502569
11
431.228304
21
324.983736
0
LINE
8
boundary
62
5
39
2
10
431.228304
20
324.983736
11
431.887831
21
325.490025
0
LINE
8
boundary
62
5
39
2
10
431.887831
20
325.490025
11
432.884415
21
326.255067
0
LINE
8
boundary
62
5
39
2
10
432.884415
20
326.255067
11
433.391014
21
326.915602
0
LINE
8
boundary
62
5
39
2
10
433.391014
20
326.915602
11
434.155176
21
327.911948
0
LINE
8
boundary
62
5
39
2
10
434.155176
20
327.911948
11
434.474055
21
328.682126
0
LINE
8
boundary
62
5
39
2
10
434.474055
20
328.682126
11
434.954024
21
329.841379
0
LINE
8
boundary
62
5
39
2
10
434.954024
20
329.841379
11
435.062943
21
330.669063
0
LINE
8
boundary
62
5
39
2
10
435.062943
20
330.669063
11
435.226486
21
331.911944
0
LINE
8
boundary
62
5
39
2
10
435.226486
20
331.911944
11
435.117409
21
332.740835
0
LINE
8
boundary
62
5
39
2
10
435.117409
20
332.740835
11
434.954025
21
333.982508
0
LINE
8
boundary
62
5
39
2
10
434.954025
20
333.982508
11
434.792352
21
334.512054
0
LINE
8
boundary
62
5
39
2
10
434.792352
20
334.512054
11
433.660602
21
337.698919
0
LINE
8
boundary
62
5
39
2
10
433.660602
20
337.698919
11
432.261110
21
341.524750
0
LINE
8
boundary
62
5
39
2
10
432.261110
20
341.524750
11
429.488772
21
348.220774
0
LINE
8
boundary
62
5
39
2
10
429.488772
20
348.220774
11
426.784977
21
354.751256
0
LINE
8
boundary
62
5
39
2
10
426.784977
20
354.751256
11
423.606711
21
361.281730
0
LINE
8
boundary
62
5
39
2
10
423.606711
20
361.281730
11
420.520595
21
367.622837
0
LINE
8
boundary
62
5
39
2
10
420.520595
20
367.622837
11
416.945814
21
373.963912
0
LINE
8
boundary
62
5
39
2
10
416.945814
20
373.963912
11
413.490838
21
380.092486
0
LINE
8
boundary
62
5
39
2
10
413.490838
20
380.092486
11
409.530200
21
386.221045
0
LINE
8
boundary
62
5
39
2
10
409.530200
20
386.221045
11
405.721336
21
392.114747
0
LINE
8
boundary
62
5
39
2
10
405.721336
20
392.114747
11
401.386607
21
398.008440
0
LINE
8
boundary
62
5
39
2
10
401.386607
20
398.008440
11
397.240429
21
403.645768
0
LINE
8
boundary
62
5
39
2
10
397.240429
20
403.645768
11
392.544418
21
409.283114
0
LINE
8
boundary
62
5
39
2
10
392.544418
20
409.283114
11
388.079093
21
414.643522
0
LINE
8
boundary
62
5
39
2
10
388.079093
20
414.643522
11
383.035424
21
420.003858
0
LINE
8
boundary
62
5
39
2
10
383.035424
20
420.003858
11
378.270744
21
425.067691
0
LINE
8
boundary
62
5
39
2
10
378.270744
20
425.067691
11
372.893732
21
430.131543
0
LINE
8
boundary
62
5
39
2
10
372.893732
20
430.131543
11
367.851179
21
434.880422
0
LINE
8
boundary
62
5
39
2
10
367.851179
20
434.880422
11
362.155507
21
439.629312
0
LINE
8
boundary
62
5
39
2
10
362.155507
20
439.629312
11
356.858392
21
444.045894
0
LINE
8
boundary
62
5
39
2
10
356.858392
20
444.045894
11
350.858798
21
448.462458
0
LINE
8
boundary
62
5
39
2
10
350.858798
20
448.462458
11
345.332529
21
452.530593
0
LINE
8
boundary
62
5
39
2
10
345.332529
20
452.530593
11
339.043279
21
456.598741
0
LINE
8
boundary
62
5
39
2
10
339.043279
20
456.598741
11
333.315627
21
460.303622
0
LINE
8
boundary
62
5
39
2
10
333.315627
20
460.303622
11
326.749701
21
464.008455
0
LINE
8
boundary
62
5
39
2
10
326.749701
20
464.008455
11
320.851536
21
467.336502
0
LINE
8
boundary
62
5
39
2
10
320.851536
20
467.336502
11
314.019432
21
470.664530
0
LINE
8
boundary
62
5
39
2
10
314.019432
20
470.664530
11
307.985749
21
473.603634
0
LINE
8
boundary
62
5
39
2
10
307.985749
20
473.603634
11
300.893259
21
476.542782
0
LINE
8
boundary
62
5
39
2
10
300.893259
20
476.542782
11
294.765186
21
479.082273
0
LINE
8
boundary
62
5
39
2
10
294.765186
20
479.082273
11
287.409406
21
481.621742
0
LINE
8
boundary
62
5
39
2
10
287.409406
20
481.621742
11
281.238111
21
483.752288
0
LINE
8
boundary
62
5
39
2
10
281.238111
20
483.752288
11
273.598955
21
485.882808
0
LINE
8
boundary
62
5
39
2
10
273.598955
20
485.882808
11
267.453870
21
487.596639
0
LINE
8
boundary
62
5
39
2
10
267.453870
20
487.596639
11
259.473618
21
489.310439
0
LINE
8
boundary
62
5
39
2
10
259.473618
20
489.310439
11
253.462767
21
490.601300
0
LINE
8
boundary
62
5
39
2
10
253.462767
20
490.601300
11
244.984988
21
491.892164
0
LINE
8
boundary
62
5
39
2
10
244.984988
20
491.892164
11
239.315850
21
492.755372
0
LINE
8
boundary
62
5
39
2
10
239.315850
20
492.755372
11
229.820947
21
493.618637
0
LINE
8
boundary
62
5
39
2
10
229.820947
20
493.618637
11
225.064742
21
494.051065
0
LINE
8
boundary
62
5
39
2
10
225.064742
20
494.051065
11
219.994493
21
494.204319
0
LINE
8
annotation
62
1
39
211
10
244.838034
20
285.911009
11
244.838034
21
294.722478
0
LINE
8
annotation
62
1
39
211
10
244.838034
20
294.722478
11
242.879132
21
292.763023
0
LINE
8
annotation
62
1
39
211
10
244.789564
20
313.728643
11
241.405110
21
313.728643
0
LINE
8
annotation
62
1
39
211
10
241.405110
20
313.728643
11
244.532457
21
318.763270
0
LINE
8
annotation
62
1
39
211
10
244.532457
20
318.763270
11
244.532457
21
318.763270
0
LINE
8
annotation
62
1
39
211
10
244.532457
20
318.763270
11
244.536195
21
318.767897
0
LINE
8
annotation
62
1
39
211
10
244.536195
20
318.767897
11
244.539780
21
318.772562
0
LINE
8
annotation
62
1
39
211
10
244.539780
20
318.772562
11
244.543236
21
318.777306
0
LINE
8
annotation
62
1
39
211
10
244.543236
20
318.777306
11
244.546585
21
318.782169
0
LINE
8
annotation
62
1
39
211
10
244.546585
20
318.782169
11
244.549852
21
318.787188
0
LINE
8
annotation
62
1
39
211
10
244.549852
20
318.787188
11
244.553059
21
318.792404
0
LINE
8
annotation
62
1
39
211
10
244.553059
20
318.792404
11
244.556231
21
318.797856
0
LINE
8
annotation
62
1
39
211
10
244.556231
20
318.797856
11
244.559392
21
318.803584
0
LINE
8
annotation
62
1
39
211
10
244.559392
20
318.803584
11
244.562564
21
318.809626
0
LINE
8
annotation
62
1
39
211
10
244.562564
20
318.809626
11
244.562564
21
318.809626
0
LINE
8
annotation
62
1
39
211
10
244.562564
20
318.809626
11
244.691691
21
319.086874
0
LINE
8
annotation
62
1
39
211
10
244.691691
20
319.086874
11
244.767125
21
319.374265
0
LINE
8
annotation
62
1
39
211
10
244.767125
20
319.374265
11
244.790715
21
319.665307
0
LINE
8
annotation
62
1
39
211
10
244.790715
20
319.665307
11
244.764308
21
319.953504
0
LINE
8
annotation
62
1
39
211
10
244.764308
20
319.953504
11
244.689754
21
320.232364
0
LINE
8
annotation
62
1
39
211
10
244.689754
20
320.232364
11
244.568900
21
320.495393
0
LINE
8
annotation
62
1
39
211
10
244.568900
20
320.495393
11
244.403597
21
320.736096
0
LINE
8
annotation
62
1
39
211
10
244.403597
20
320.736096
11
244.195692
21
320.947980
0
LINE
8
annotation
62
1
39
211
10
244.195692
20
320.947980
11
243.947035
21
321.124551
0
LINE
8
annotation
62
1
39
211
10
243.947035
20
321.124551
11
243.947035
21
321.124551
0
LINE
8
annotation
62
1
39
211
10
243.947035
20
321.124551
11
243.669016
21
321.251844
0
LINE
8
annotation
62
1
39
211
10
243.669016
20
321.251844
11
243.381185
21
321.326115
0
LINE
8
annotation
62
1
39
211
10
243.381185
20
321.326115
11
243.089974
21
321.349038
0
LINE
8
annotation
62
1
39
211
10
243.089974
20
321.349038
11
242.801819
21
321.322283
0
LINE
8
annotation
62
1
39
211
10
242.801819
20
321.322283
11
242.523156
21
321.247522
0
LINE
8
annotation
62
1
39
211
10
242.523156
20
321.247522
11
242.260418
21
321.126427
0
LINE
8
annotation
62
1
39
211
10
242.260418
20
321.126427
11
242.020042
21
320.960670
0
LINE
8
annotation
62
1
39
211
10
242.020042
20
320.960670
11
241.808461
21
320.751921
0
LINE
8
annotation
62
1
39
211
10
241.808461
20
320.751921
11
241.632110
21
320.501853
0
LINE
8
annotation
62
1
39
211
10
241.632110
20
320.501853
11
241.409889
21
320.075571
0
LINE
8
annotation
62
1
39
211
10
335.324816
20
339.961487
11
337.456611
21
339.961487
0
LINE
8
annotation
62
1
39
211
10
337.456611
20
339.961487
11
337.456611
21
339.961487
0
LINE
8
annotation
62
1
39
211
10
337.456611
20
339.961487
11
337.840020
21
339.995881
0
LINE
8
annotation
62
1
39
211
10
337.840020
20
339.995881
11
338.200794
21
340.095008
0
LINE
8
annotation
62
1
39
211
10
338.200794
20
340.095008
11
338.532933
21
340.252781
0
LINE
8
annotation
62
1
39
211
10
338.532933
20
340.252781
11
338.830436
21
340.463117
0
LINE
8
annotation
62
1
39
211
10
338.830436
20
340.463117
11
339.087304
21
340.719931
0
LINE
8
annotation
62
1
39
211
10
339.087304
20
340.719931
11
339.297536
21
341.017139
0
LINE
8
annotation
62
1
39
211
10
339.297536
20
341.017139
11
339.455130
21
341.348654
0
LINE
8
annotation
62
1
39
211
10
339.455130
20
341.348654
11
339.554087
21
341.708393
0
LINE
8
annotation
62
1
39
211
10
339.554087
20
341.708393
11
339.588406
21
342.090272
0
LINE
8
annotation
62
1
39
211
10
339.588406
20
342.090272
11
339.588406
21
343.157674
0
LINE
8
annotation
62
1
39
211
10
339.588406
20
343.157674
11
339.588406
21
343.157674
0
LINE
8
annotation
62
1
39
211
10
339.588406
20
343.157674
11
339.554087
21
343.539394
0
LINE
8
annotation
62
1
39
211
10
339.554087
20
343.539394
11
339.455130
21
343.899049
0
LINE
8
annotation
62
1
39
211
10
339.455130
20
343.899049
11
339.297536
21
344.230539
0
LINE
8
annotation
62
1
39
211
10
339.297536
20
344.230539
11
339.087304
21
344.527766
0
LINE
8
annotation
62
1
39
211
10
339.087304
20
344.527766
11
338.830436
21
344.784630
0
LINE
8
annotation
62
1
39
211
10
338.830436
20
344.784630
11
338.532933
21
344.995031
0
LINE
8
annotation
62
1
39
211
10
338.532933
20
344.995031
11
338.200794
21
345.152869
0
LINE
8
annotation
62
1
39
211
10
338.200794
20
345.152869
11
337.840020
21
345.252045
0
LINE
8
annotation
62
1
39
211
10
337.840020
20
345.252045
11
337.456611
21
345.286459
0
LINE
8
annotation
62
1
39
211
10
337.456611
20
345.286459
11
336.389209
21
345.286459
0
LINE
8
annotation
62
1
39
211
10
336.389209
20
345.286459
11
337.456611
21
345.286459
0
LINE
8
annotation
62
1
39
211
10
337.456611
20
345.286459
11
337.456611
21
345.286459
0
LINE
8
annotation
62
1
39
211
10
337.456611
20
345.286459
11
337.840020
21
345.320881
0
LINE
8
annotation
62
1
39
211
10
337.840020
20
345.320881
11
338.200794
21
345.420115
0
LINE
8
annotation
62
1
39
211
10
338.200794
20
345.420115
11
338.532933
21
345.578110
0
LINE
8
annotation
62
1
39
211
10
338.532933
20
345.578110
11
338.830436
21
345.788816
0
LINE
8
annotation
62
1
39
211
10
338.830436
20
345.788816
11
339.087304
21
346.046183
0
LINE
8
annotation
62
1
39
211
10
339.087304
20
346.046183
11
339.297536
21
346.344162
0
LINE
8
annotation
62
1
39
211
10
339.297536
20
346.344162
11
339.455130
21
346.676701
0
LINE
8
annotation
62
1
39
211
10
339.455130
20
346.676701
11
339.554087
21
347.037752
0
LINE
8
annotation
62
1
39
211
10
339.554087
20
347.037752
11
339.588406
21
347.421264
0
LINE
8
annotation
62
1
39
211
10
339.588406
20
347.421264
11
339.588406
21
347.421264
0
LINE
8
annotation
62
1
39
211
10
339.588406
20
347.421264
11
339.554087
21
347.802983
0
LINE
8
annotation
62
1
39
211
10
339.554087
20
347.802983
11
339.455130
21
348.162638
0
LINE
8
annotation
62
1
39
211
10
339.455130
20
348.162638
11
339.297536
21
348.494129
0
LINE
8
annotation
62
1
39
211
10
339.297536
20
348.494129
11
339.087304
21
348.791356
0
LINE
8
annotation
62
1
39
211
10
339.087304
20
348.791356
11
338.830436
21
349.048220
0
LINE
8
annotation
62
1
39
211
10
338.830436
20
349.048220
11
338.532933
21
349.258620
0
LINE
8
annotation
62
1
39
211
10
338.532933
20
349.258620
11
338.200794
21
349.416458
0
LINE
8
annotation
62
1
39
211
10
338.200794
20
349.416458
11
337.840020
21
349.515634
0
LINE
8
annotation
62
1
39
211
10
337.840020
20
349.515634
11
337.456611
21
349.550048
0
LINE
8
annotation
62
1
39
211
10
337.456611
20
349.550048
11
335.324816
21
349.550048
0
LINE
8
annotation
62
1
39
211
10
333.692400
20
369.317610
11
328.362010
21
369.317610
0
LINE
8
annotation
62
1
39
211
10
328.362010
20
369.317610
11
330.490795
21
376.783407
0
LINE
8
annotation
62
1
39
211
10
332.094608
20
367.183407
11
332.094608
21
371.446997
0
LINE
8
annotation
62
1
39
211
10
320.117294
20
394.405629
11
322.249088
21
394.405629
0
LINE
8
annotation
62
1
39
211
10
322.249088
20
394.405629
11
322.249088
21
394.405629
0
LINE
8
annotation
62
1
39
211
10
322.249088
20
394.405629
11
322.631704
21
394.440030
0
LINE
8
annotation
62
1
39
211
10
322.631704
20
394.440030
11
322.992057
21
394.539209
0
LINE
8
annotation
62
1
39
211
10
322.992057
20
394.539209
11
323.324072
21
394.697124
0
LINE
8
annotation
62
1
39
211
10
323.324072
20
394.697124
11
323.621675
21
394.907735
0
LINE
8
annotation
62
1
39
211
10
323.621675
20
394.907735
11
323.878790
21
395.165002
0
LINE
8
annotation
62
1
39
211
10
323.878790
20
395.165002
11
324.089344
21
395.462886
0
LINE
8
annotation
62
1
39
211
10
324.089344
20
395.462886
11
324.247260
21
395.795345
0
LINE
8
annotation
62
1
39
211
10
324.247260
20
395.795345
11
324.346465
21
396.156341
0
LINE
8
annotation
62
1
39
211
10
324.346465
20
396.156341
11
324.380883
21
396.539832
0
LINE
8
annotation
62
1
39
211
10
324.380883
20
396.539832
11
324.380883
21
397.601816
0
LINE
8
annotation
62
1
39
211
10
324.380883
20
397.601816
11
324.380883
21
397.601816
0
LINE
8
annotation
62
1
39
211
10
324.380883
20
397.601816
11
324.346485
21
397.985121
0
LINE
8
annotation
62
1
39
211
10
324.346485
20
397.985121
11
324.247330
21
398.345618
0
LINE
8
annotation
62
1
39
211
10
324.247330
20
398.345618
11
324.089478
21
398.677357
0
LINE
8
annotation
62
1
39
211
10
324.089478
20
398.677357
11
323.878989
21
398.974386
0
LINE
8
annotation
62
1
39
211
10
323.878989
20
398.974386
11
323.621923
21
399.230754
0
LINE
8
annotation
62
1
39
211
10
323.621923
20
399.230754
11
323.324340
21
399.440510
0
LINE
8
annotation
62
1
39
211
10
323.324340
20
399.440510
11
322.992300
21
399.597704
0
LINE
8
annotation
62
1
39
211
10
322.992300
20
399.597704
11
322.631863
21
399.696385
0
LINE
8
annotation
62
1
39
211
10
322.631863
20
399.696385
11
322.249088
21
399.730600
0
LINE
8
annotation
62
1
39
211
10
322.249088
20
399.730600
11
320.117294
21
399.730600
0
LINE
8
annotation
62
1
39
211
10
320.117294
20
399.730600
11
320.117294
21
404.005629
0
LINE
8
annotation
62
1
39
211
10
320.117294
20
404.005629
11
324.380883
21
404.005629
0
LINE
8
annotation
62
1
39
211
10
311.479692
20
431.227850
11
311.479692
21
431.227850
0
LINE
8
annotation
62
1
39
211
10
311.479692
20
431.227850
11
310.868987
21
430.998872
0
LINE
8
annotation
62
1
39
211
10
310.868987
20
430.998872
11
310.308584
21
430.690352
0
LINE
8
annotation
62
1
39
211
10
310.308584
20
430.690352
11
309.804238
21
430.310019
0
LINE
8
annotation
62
1
39
211
10
309.804238
20
430.310019
11
309.361700
21
429.865603
0
LINE
8
annotation
62
1
39
211
10
309.361700
20
429.865603
11
308.986723
21
429.364834
0
LINE
8
annotation
62
1
39
211
10
308.986723
20
429.364834
11
308.685060
21
428.815441
0
LINE
8
annotation
62
1
39
211
10
308.685060
20
428.815441
11
308.462465
21
428.225155
0
LINE
8
annotation
62
1
39
211
10
308.462465
20
428.225155
11
308.324689
21
427.601706
0
LINE
8
annotation
62
1
39
211
10
308.324689
20
427.601706
11
308.277485
21
426.952822
0
LINE
8
annotation
62
1
39
211
10
308.277485
20
426.952822
11
308.277485
21
423.762053
0
LINE
8
annotation
62
1
39
211
10
308.277485
20
423.762053
11
308.277485
21
423.762053
0
LINE
8
annotation
62
1
39
211
10
308.277485
20
423.762053
11
308.311903
21
423.378562
0
LINE
8
annotation
62
1
39
211
10
308.311903
20
423.378562
11
308.411108
21
423.017567
0
LINE
8
annotation
62
1
39
211
10
308.411108
20
423.017567
11
308.569024
21
422.685107
0
LINE
8
annotation
62
1
39
211
10
308.569024
20
422.685107
11
308.779578
21
422.387224
0
LINE
8
annotation
62
1
39
211
10
308.779578
20
422.387224
11
309.036693
21
422.129956
0
LINE
8
annotation
62
1
39
211
10
309.036693
20
422.129956
11
309.334296
21
421.919345
0
LINE
8
annotation
62
1
39
211
10
309.334296
20
421.919345
11
309.666311
21
421.761430
0
LINE
8
annotation
62
1
39
211
10
309.666311
20
421.761430
11
310.026664
21
421.662252
0
LINE
8
annotation
62
1
39
211
10
310.026664
20
421.662252
11
310.409280
21
421.627850
0
LINE
8
annotation
62
1
39
211
10
310.409280
20
421.627850
11
310.409280
21
421.627850
0
LINE
8
annotation
62
1
39
211
10
310.409280
20
421.627850
11
310.792688
21
421.662252
0
LINE
8
annotation
62
1
39
211
10
310.792688
20
421.662252
11
311.153462
21
421.761430
0
LINE
8
annotation
62
1
39
211
10
311.153462
20
421.761430
11
311.485601
21
421.919345
0
LINE
8
annotation
62
1
39
211
10
311.485601
20
421.919345
11
311.783105
21
422.129956
0
LINE
8
annotation
62
1
39
211
10
311.783105
20
422.129956
11
312.039973
21
422.387224
0
LINE
8
annotation
62
1
39
211
10
312.039973
20
422.387224
11
312.250204
21
422.685107
0
LINE
8
annotation
62
1
39
211
10
312.250204
20
422.685107
11
312.407798
21
423.017567
0
LINE
8
annotation
62
1
39
211
10
312.407798
20
423.017567
11
312.506755
21
423.378562
0
LINE
8
annotation
62
1
39
211
10
312.506755
20
423.378562
11
312.541075
21
423.762053
0
LINE
8
annotation
62
1
39
211
10
312.541075
20
423.762053
11
312.541075
21
424.824037
0
LINE
8
annotation
62
1
39
211
10
312.541075
20
424.824037
11
312.541075
21
424.824037
0
LINE
8
annotation
62
1
39
211
10
312.541075
20
424.824037
11
312.506755
21
425.207342
0
LINE
8
annotation
62
1
39
211
10
312.506755
20
425.207342
11
312.407798
21
425.567840
0
LINE
8
annotation
62
1
39
211
10
312.407798
20
425.567840
11
312.250204
21
425.899578
0
LINE
8
annotation
62
1
39
211
10
312.250204
20
425.899578
11
312.039973
21
426.196607
0
LINE
8
annotation
62
1
39
211
10
312.039973
20
426.196607
11
311.783105
21
426.452975
0
LINE
8
annotation
62
1
39
211
10
311.783105
20
426.452975
11
311.485601
21
426.662732
0
LINE
8
annotation
62
1
39
211
10
311.485601
20
426.662732
11
311.153462
21
426.819925
0
LINE
8
annotation
62
1
39
211
10
311.153462
20
426.819925
11
310.792688
21
426.918606
0
LINE
8
annotation
62
1
39
211
10
310.792688
20
426.918606
11
310.409280
21
426.952822
0
LINE
8
annotation
62
1
39
211
10
310.409280
20
426.952822
11
308.277485
21
426.952822
0
LINE
8
annotation
62
1
39
211
10
308.010484
20
420.427850
11
312.810484
21
420.427850
0
LINE
8
annotation
62
1
39
211
10
293.796968
20
448.850071
11
295.931170
21
458.450071
0
LINE
8
annotation
62
1
39
211
10
295.931170
20
458.450071
11
291.662163
21
458.450071
0
LINE
8
annotation
62
1
39
211
10
295.931170
20
454.175043
11
293.796968
21
454.175043
0
LINE
8
annotation
62
1
39
211
10
264.340091
20
478.285868
11
264.340091
21
478.285868
0
LINE
8
annotation
62
1
39
211
10
264.340091
20
478.285868
11
264.373413
21
477.914772
0
LINE
8
annotation
62
1
39
211
10
264.373413
20
477.914772
11
264.469458
21
477.565757
0
LINE
8
annotation
62
1
39
211
10
264.469458
20
477.565757
11
264.622344
21
477.244585
0
LINE
8
annotation
62
1
39
211
10
264.622344
20
477.244585
11
264.826191
21
476.957017
0
LINE
8
annotation
62
1
39
211
10
264.826191
20
476.957017
11
265.075117
21
476.708815
0
LINE
8
annotation
62
1
39
211
10
265.075117
20
476.708815
11
265.363241
21
476.505739
0
LINE
8
annotation
62
1
39
211
10
265.363241
20
476.505739
11
265.684681
21
476.353552
0
LINE
8
annotation
62
1
39
211
10
265.684681
20
476.353552
11
266.033556
21
476.258015
0
LINE
8
annotation
62
1
39
211
10
266.033556
20
476.258015
11
266.403985
21
476.224889
0
LINE
8
annotation
62
1
39
211
10
266.403985
20
476.224889
11
266.403985
21
476.224889
0
LINE
8
annotation
62
1
39
211
10
266.403985
20
476.224889
11
266.774413
21
476.258015
0
LINE
8
annotation
62
1
39
211
10
266.774413
20
476.258015
11
267.123288
21
476.353552
0
LINE
8
annotation
62
1
39
211
10
267.123288
20
476.353552
11
267.444728
21
476.505739
0
LINE
8
annotation
62
1
39
211
10
267.444728
20
476.505739
11
267.732852
21
476.708815
0
LINE
8
annotation
62
1
39
211
10
267.732852
20
476.708815
11
267.981778
21
476.957017
0
LINE
8
annotation
62
1
39
211
10
267.981778
20
476.957017
11
268.185625
21
477.244585
0
LINE
8
annotation
62
1
39
211
10
268.185625
20
477.244585
11
268.338512
21
477.565757
0
LINE
8
annotation
62
1
39
211
10
268.338512
20
477.565757
11
268.434556
21
477.914772
0
LINE
8
annotation
62
1
39
211
10
268.434556
20
477.914772
11
268.467878
21
478.285868
0
LINE
8
annotation
62
1
39
211
10
268.467878
20
478.285868
11
268.467878
21
479.314027
0
LINE
8
annotation
62
1
39
211
10
268.467878
20
479.314027
11
268.467878
21
479.314027
0
LINE
8
annotation
62
1
39
211
10
268.467878
20
479.314027
11
268.434576
21
479.685303
0
LINE
8
annotation
62
1
39
211
10
268.434576
20
479.685303
11
268.338579
21
480.034800
0
LINE
8
annotation
62
1
39
211
10
268.338579
20
480.034800
11
268.185754
21
480.356670
0
LINE
8
annotation
62
1
39
211
10
268.185754
20
480.356670
11
267.981970
21
480.645066
0
LINE
8
annotation
62
1
39
211
10
267.981970
20
480.645066
11
267.733092
21
480.894139
0
LINE
8
annotation
62
1
39
211
10
267.733092
20
480.894139
11
267.444987
21
481.098042
0
LINE
8
annotation
62
1
39
211
10
267.444987
20
481.098042
11
267.123523
21
481.250927
0
LINE
8
annotation
62
1
39
211
10
267.123523
20
481.250927
11
266.774567
21
481.346946
0
LINE
8
annotation
62
1
39
211
10
266.774567
20
481.346946
11
266.403985
21
481.380252
0
LINE
8
annotation
62
1
39
211
10
266.403985
20
481.380252
11
266.403985
21
481.380252
0
LINE
8
annotation
62
1
39
211
10
266.403985
20
481.380252
11
266.033402
21
481.346927
0
LINE
8
annotation
62
1
39
211
10
266.033402
20
481.346927
11
265.684446
21
481.250859
0
LINE
8
annotation
62
1
39
211
10
265.684446
20
481.250859
11
265.362982
21
481.097912
0
LINE
8
annotation
62
1
39
211
10
265.362982
20
481.097912
11
265.074878
21
480.893947
0
LINE
8
annotation
62
1
39
211
10
265.074878
20
480.893947
11
264.826000
21
480.644826
0
LINE
8
annotation
62
1
39
211
10
264.826000
20
480.644826
11
264.622215
21
480.356411
0
LINE
8
annotation
62
1
39
211
10
264.622215
20
480.356411
11
264.469391
21
480.034565
0
LINE
8
annotation
62
1
39
211
10
264.469391
20
480.034565
11
264.373394
21
479.685149
0
LINE
8
annotation
62
1
39
211
10
264.373394
20
479.685149
11
264.340091
21
479.314027
0
LINE
8
annotation
62
1
39
211
10
264.340091
20
479.314027
11
264.340091
21
478.285868
0
LINE
8
annotation
62
1
39
211
10
268.467878
20
483.447060
11
268.467878
21
483.447060
0
LINE
8
annotation
62
1
39
211
10
268.467878
20
483.447060
11
268.434576
21
483.816621
0
LINE
8
annotation
62
1
39
211
10
268.434576
20
483.816621
11
268.338579
21
484.164820
0
LINE
8
annotation
62
1
39
211
10
268.338579
20
484.164820
11
268.185754
21
484.485753
0
LINE
8
annotation
62
1
39
211
10
268.185754
20
484.485753
11
267.981970
21
484.773513
0
LINE
8
annotation
62
1
39
211
10
267.981970
20
484.773513
11
267.733092
21
485.022195
0
LINE
8
annotation
62
1
39
211
10
267.733092
20
485.022195
11
267.444987
21
485.225894
0
LINE
8
annotation
62
1
39
211
10
267.444987
20
485.225894
11
267.123523
21
485.378704
0
LINE
8
annotation
62
1
39
211
10
267.123523
20
485.378704
11
266.774567
21
485.474721
0
LINE
8
annotation
62
1
39
211
10
266.774567
20
485.474721
11
266.403985
21
485.508039
0
LINE
8
annotation
62
1
39
211
10
266.403985
20
485.508039
11
266.403985
21
485.508039
0
LINE
8
annotation
62
1
39
211
10
266.403985
20
485.508039
11
266.033402
21
485.474721
0
LINE
8
annotation
62
1
39
211
10
266.033402
20
485.474721
11
265.684446
21
485.378704
0
LINE
8
annotation
62
1
39
211
10
265.684446
20
485.378704
11
265.362982
21
485.225894
0
LINE
8
annotation
62
1
39
211
10
265.362982
20
485.225894
11
265.074878
21
485.022195
0
LINE
8
annotation
62
1
39
211
10
265.074878
20
485.022195
11
264.826000
21
484.773513
0
LINE
8
annotation
62
1
39
211
10
264.826000
20
484.773513
11
264.622215
21
484.485753
0
LINE
8
annotation
62
1
39
211
10
264.622215
20
484.485753
11
264.469391
21
484.164820
0
LINE
8
annotation
62
1
39
211
10
264.469391
20
484.164820
11
264.373394
21
483.816621
0
LINE
8
annotation
62
1
39
211
10
264.373394
20
483.816621
11
264.340091
21
483.447060
0
LINE
8
annotation
62
1
39
211
10
264.340091
20
483.447060
11
264.340091
21
483.447060
0
LINE
8
annotation
62
1
39
211
10
264.340091
20
483.447060
11
264.373413
21
483.075764
0
LINE
8
annotation
62
1
39
211
10
264.373413
20
483.075764
11
264.469458
21
482.726213
0
LINE
8
annotation
62
1
39
211
10
264.469458
20
482.726213
11
264.622344
21
482.404265
0
LINE
8
annotation
62
1
39
211
10
264.622344
20
482.404265
11
264.826191
21
482.115778
0
LINE
8
annotation
62
1
39
211
10
264.826191
20
482.115778
11
265.075117
21
481.866608
0
LINE
8
annotation
62
1
39
211
10
265.075117
20
481.866608
11
265.363241
21
481.662613
0
LINE
8
annotation
62
1
39
211
10
265.363241
20
481.662613
11
265.684681
21
481.509651
0
LINE
8
annotation
62
1
39
211
10
265.684681
20
481.509651
11
266.033556
21
481.413578
0
LINE
8
annotation
62
1
39
211
10
266.033556
20
481.413578
11
266.403985
21
481.380252
0
LINE
8
annotation
62
1
39
211
10
266.403985
20
481.380252
11
266.403985
21
481.380252
0
LINE
8
annotation
62
1
39
211
10
266.403985
20
481.380252
11
266.774413
21
481.413578
0
LINE
8
annotation
62
1
39
211
10
266.774413
20
481.413578
11
267.123288
21
481.509651
0
LINE
8
annotation
62
1
39
211
10
267.123288
20
481.509651
11
267.444728
21
481.662613
0
LINE
8
annotation
62
1
39
211
10
267.444728
20
481.662613
11
267.732852
21
481.866608
0
LINE
8
annotation
62
1
39
211
10
267.732852
20
481.866608
11
267.981778
21
482.115778
0
LINE
8
annotation
62
1
39
211
10
267.981778
20
482.115778
11
268.185625
21
482.404265
0
LINE
8
annotation
62
1
39
211
10
268.185625
20
482.404265
11
268.338512
21
482.726213
0
LINE
8
annotation
62
1
39
211
10
268.338512
20
482.726213
11
268.434556
21
483.075764
0
LINE
8
annotation
62
1
39
211
10
268.434556
20
483.075764
11
268.467878
21
483.447060
0
LINE
8
annotation
62
1
39
211
10
379.332620
20
353.886225
11
373.455784
21
345.385920
0
LINE
8
annotation
62
1
39
211
10
373.455784
20
345.385920
11
367.577843
21
353.886225
0
LINE
8
annotation
62
1
39
211
10
373.455784
20
346.069967
11
373.455784
21
336.263453
0
LINE
8
annotation
62
1
39
211
10
395.578182
20
345.074839
11
385.942956
21
345.074839
0
LINE
8
annotation
62
1
39
211
10
402.184650
20
336.264558
11
406.097752
21
336.264558
0
LINE
8
annotation
62
1
39
211
10
406.097752
20
336.264558
11
406.097752
21
336.264558
0
LINE
8
annotation
62
1
39
211
10
406.097752
20
336.264558
11
406.801532
21
336.327692
0
LINE
8
annotation
62
1
39
211
10
406.801532
20
336.327692
11
407.463766
21
336.509647
0
LINE
8
annotation
62
1
39
211
10
407.463766
20
336.509647
11
408.073437
21
336.799255
0
LINE
8
annotation
62
1
39
211
10
408.073437
20
336.799255
11
408.619532
21
337.185346
0
LINE
8
annotation
62
1
39
211
10
408.619532
20
337.185346
11
409.091036
21
337.656751
0
LINE
8
annotation
62
1
39
211
10
409.091036
20
337.656751
11
409.476934
21
338.202302
0
LINE
8
annotation
62
1
39
211
10
409.476934
20
338.202302
11
409.766213
21
338.810829
0
LINE
8
annotation
62
1
39
211
10
409.766213
20
338.810829
11
409.947858
21
339.471163
0
LINE
8
annotation
62
1
39
211
10
409.947858
20
339.471163
11
410.010853
21
340.172135
0
LINE
8
annotation
62
1
39
211
10
410.010853
20
340.172135
11
410.010853
21
342.131448
0
LINE
8
annotation
62
1
39
211
10
410.010853
20
342.131448
11
410.010853
21
342.131448
0
LINE
8
annotation
62
1
39
211
10
410.010853
20
342.131448
11
409.947858
21
342.832129
0
LINE
8
annotation
62
1
39
211
10
409.947858
20
342.832129
11
409.766213
21
343.492308
0
LINE
8
annotation
62
1
39
211
10
409.766213
20
343.492308
11
409.476934
21
344.100790
0
LINE
8
annotation
62
1
39
211
10
409.476934
20
344.100790
11
409.091036
21
344.646377
0
LINE
8
annotation
62
1
39
211
10
409.091036
20
344.646377
11
408.619532
21
345.117873
0
LINE
8
annotation
62
1
39
211
10
408.619532
20
345.117873
11
408.073437
21
345.504082
0
LINE
8
annotation
62
1
39
211
10
408.073437
20
345.504082
11
407.463766
21
345.793808
0
LINE
8
annotation
62
1
39
211
10
407.463766
20
345.793808
11
406.801532
21
345.975855
0
LINE
8
annotation
62
1
39
211
10
406.801532
20
345.975855
11
406.097752
21
346.039025
0
LINE
8
annotation
62
1
39
211
10
406.097752
20
346.039025
11
404.138438
21
346.039025
0
LINE
8
annotation
62
1
39
211
10
404.138438
20
346.039025
11
406.097752
21
346.039025
0
LINE
8
annotation
62
1
39
211
10
406.097752
20
346.039025
11
406.097752
21
346.039025
0
LINE
8
annotation
62
1
39
211
10
406.097752
20
346.039025
11
406.801532
21
346.102210
0
LINE
8
annotation
62
1
39
211
10
406.801532
20
346.102210
11
407.463766
21
346.284363
0
LINE
8
annotation
62
1
39
211
10
407.463766
20
346.284363
11
408.073437
21
346.574377
0
LINE
8
annotation
62
1
39
211
10
408.073437
20
346.574377
11
408.619532
21
346.961147
0
LINE
8
annotation
62
1
39
211
10
408.619532
20
346.961147
11
409.091036
21
347.433568
0
LINE
8
annotation
62
1
39
211
10
409.091036
20
347.433568
11
409.476934
21
347.980534
0
LINE
8
annotation
62
1
39
211
10
409.476934
20
347.980534
11
409.766213
21
348.590941
0
LINE
8
annotation
62
1
39
211
10
409.766213
20
348.590941
11
409.947858
21
349.253682
0
LINE
8
annotation
62
1
39
211
10
409.947858
20
349.253682
11
410.010853
21
349.957652
0
LINE
8
annotation
62
1
39
211
10
410.010853
20
349.957652
11
410.010853
21
349.957652
0
LINE
8
annotation
62
1
39
211
10
410.010853
20
349.957652
11
409.947858
21
350.658333
0
LINE
8
annotation
62
1
39
211
10
409.947858
20
350.658333
11
409.766213
21
351.318512
0
LINE
8
annotation
62
1
39
211
10
409.766213
20
351.318512
11
409.476934
21
351.926994
0
LINE
8
annotation
62
1
39
211
10
409.476934
20
351.926994
11
409.091036
21
352.472581
0
LINE
8
annotation
62
1
39
211
10
409.091036
20
352.472581
11
408.619532
21
352.944077
0
LINE
8
annotation
62
1
39
211
10
408.619532
20
352.944077
11
408.073437
21
353.330286
0
LINE
8
annotation
62
1
39
211
10
408.073437
20
353.330286
11
407.463766
21
353.620012
0
LINE
8
annotation
62
1
39
211
10
407.463766
20
353.620012
11
406.801532
21
353.802059
0
LINE
8
annotation
62
1
39
211
10
406.801532
20
353.802059
11
406.097752
21
353.865229
0
LINE
8
annotation
62
1
39
211
10
406.097752
20
353.865229
11
402.184650
21
353.865229
0
LINE
8
boundary
62
5
39
2
10
1.587500
20
742.100479
11
1.587500
21
732.068326
0
LINE
8
boundary
62
5
39
2
10
1.587500
20
732.068326
11
36.398022
21
731.768327
0
LINE
8
boundary
62
5
39
2
10
36.398022
20
731.768327
11
36.398022
21
725.768327
0
LINE
8
boundary
62
5
39
2
10
36.398022
20
725.768327
11
1.887500
21
725.768327
0
LINE
8
boundary
62
5
39
2
10
1.887500
20
725.768327
11
1.587500
21
704.846105
0
LINE
8
boundary
62
5
39
2
10
1.587500
20
704.846105
11
63.420916
21
704.546105
0
LINE
8
boundary
62
5
39
2
10
63.420916
20
704.546105
11
63.420916
21
698.546105
0
LINE
8
boundary
62
5
39
2
10
63.420916
20
698.546105
11
1.887500
21
698.546105
0
LINE
8
boundary
62
5
39
2
10
1.887500
20
698.546105
11
1.587500
21
677.623884
0
LINE
8
boundary
62
5
39
2
10
1.587500
20
677.623884
11
80.040667
21
677.323884
0
LINE
8
boundary
62
5
39
2
10
80.040667
20
677.323884
11
80.040667
21
671.323884
0
LINE
8
boundary
62
5
39
2
10
80.040667
20
671.323884
11
1.887500
21
671.323884
0
LINE
8
boundary
62
5
39
2
10
1.887500
20
671.323884
11
1.587500
21
650.401663
0
LINE
8
boundary
62
5
39
2
10
1.587500
20
650.401663
11
91.885780
21
650.101663
0
LINE
8
boundary
62
5
39
2
10
91.885780
20
650.101663
11
91.885779
21
644.101663
0
LINE
8
boundary
62
5
39
2
10
91.885779
20
644.101663
11
1.887500
21
644.101663
0
LINE
8
boundary
62
5
39
2
10
1.887500
20
644.101663
11
1.587500
21
623.179441
0
LINE
8
boundary
62
5
39
2
10
1.587500
20
623.179441
11
100.667831
21
622.879441
0
LINE
8
boundary
62
5
39
2
10
100.667831
20
622.879441
11
100.667830
21
616.879441
0
LINE
8
boundary
62
5
39
2
10
100.667830
20
616.879441
11
1.887500
21
616.879441
0
LINE
8
boundary
62
5
39
2
10
1.887500
20
616.879441
11
1.587500
21
595.957220
0
LINE
8
boundary
62
5
39
2
10
1.587500
20
595.957220
11
107.100113
21
595.657220
0
LINE
8
boundary
62
5
39
2
10
107.100113
20
595.657220
11
107.100113
21
589.657220
0
LINE
8
boundary
62
5
39
2
10
107.100113
20
589.657220
11
1.887500
21
589.657220
0
LINE
8
boundary
62
5
39
2
10
1.887500
20
589.657220
11
1.587500
21
568.734998
0
LINE
8
boundary
62
5
39
2
10
1.587500
20
568.734998
11
15.165652
21
568.434999
0
LINE
8
boundary
62
5
39
2
10
15.165652
20
568.434999
11
15.165652
21
562.434999
0
LINE
8
boundary
62
5
39
2
10
15.165652
20
562.434999
11
1.887500
21
562.434998
0
LINE
8
boundary
62
5
39
2
10
1.887500
20
562.434998
11
1.587500
21
541.512777
0
LINE
8
boundary
62
5
39
2
10
1.587500
20
541.512777
11
14.427824
21
541.212777
0
LINE
8
boundary
62
5
39
2
10
14.427824
20
541.212777
11
14.427824
21
535.212777
0
LINE
8
boundary
62
5
39
2
10
14.427824
20
535.212777
11
1.887500
21
535.212777
0
LINE
8
boundary
62
5
39
2
10
1.887500
20
535.212777
11
1.587500
21
497.379445
0
LINE
8
boundary
62
5
39
2
10
1.587500
20
497.379445
11
4.453877
21
497.379445
0
LINE
8
boundary
62
5
39
2
10
4.453877
20
497.379445
11
6.603708
21
497.379445
0
LINE
8
boundary
62
5
39
2
10
6.603708
20
497.379445
11
9.414885
21
497.379445
0
LINE
8
boundary
62
5
39
2
10
9.414885
20
497.379445
11
11.236282
21
497.379445
0
LINE
8
boundary
62
5
39
2
10
11.236282
20
497.379445
11
13.934036
21
497.379445
0
LINE
8
boundary
62
5
39
2
10
13.934036
20
497.379445
11
15.379827
21
497.379445
0
LINE
8
boundary
62
5
39
2
10
15.379827
20
497.379445
11
17.894289
21
497.379445
0
LINE
8
boundary
62
5
39
2
10
17.894289
20
497.379445
11
18.927029
21
497.379445
0
LINE
8
boundary
62
5
39
2
10
18.927029
20
497.379445
11
21.193071
21
497.379446
0
LINE
8
boundary
62
5
39
2
10
21.193071
20
497.379446
11
21.786012
21
497.379446
0
LINE
8
boundary
62
5
39
2
10
21.786012
20
497.379446
11
23.744951
21
497.379445
0
LINE
8
boundary
62
5
39
2
10
23.744951
20
497.379445
11
24.267249
21
497.379445
0
LINE
8
boundary
62
5
39
2
10
24.267249
20
497.379445
11
25.787548
21
498.849729
0
LINE
8
boundary
62
5
39
2
10
25.787548
20
498.849729
11
27.268148
21
500.379456
0
LINE
8
boundary
62
5
39
2
10
27.268148
20
500.379456
11
27.268148
21
541.959920
0
LINE
8
boundary
62
5
39
2
10
27.268148
20
541.959920
11
27.268148
21
559.807969
0
LINE
8
boundary
62
5
39
2
10
27.268148
20
559.807969
11
27.513500
21
561.313076
0
LINE
8
boundary
62
5
39
2
10
27.513500
20
561.313076
11
27.701318
21
562.913805
0
LINE
8
boundary
62
5
39
2
10
27.701318
20
562.913805
11
28.409605
21
564.626756
0
LINE
8
boundary
62
5
39
2
10
28.409605
20
564.626756
11
28.898022
21
565.807966
0
LINE
8
boundary
62
5
39
2
10
28.898022
20
565.807966
11
30.016689
21
567.268409
0
LINE
8
boundary
62
5
39
2
10
30.016689
20
567.268409
11
30.801705
21
568.293261
0
LINE
8
boundary
62
5
39
2
10
30.801705
20
568.293261
11
32.252513
21
569.408455
0
LINE
8
boundary
62
5
39
2
10
32.252513
20
569.408455
11
33.282634
21
570.200282
0
LINE
8
boundary
62
5
39
2
10
33.282634
20
570.200282
11
34.968149
21
570.899672
0
LINE
8
boundary
62
5
39
2
10
34.968149
20
570.899672
11
36.171736
21
571.399091
0
LINE
8
boundary
62
5
39
2
10
36.171736
20
571.399091
11
38.629637
21
571.714530
0
LINE
8
boundary
62
5
39
2
10
38.629637
20
571.714530
11
39.316620
21
571.807984
0
LINE
8
boundary
62
5
39
2
10
39.316620
20
571.807984
11
41.903064
21
571.807985
0
LINE
8
boundary
62
5
39
2
10
41.903064
20
571.807985
11
43.196730
21
571.807984
0
LINE
8
boundary
62
5
39
2
10
43.196730
20
571.807984
11
44.238317
21
571.807985
0
LINE
8
boundary
62
5
39
2
10
44.238317
20
571.807985
11
45.369963
21
571.807984
0
LINE
8
boundary
62
5
39
2
10
45.369963
20
571.807984
11
46.615354
21
571.807984
0
LINE
8
boundary
62
5
39
2
10
46.615354
20
571.807984
11
48.005725
21
571.807984
0
LINE
8
boundary
62
5
39
2
10
48.005725
20
571.807984
11
49.583358
21
571.807985
0
LINE
8
boundary
62
5
39
2
10
49.583358
20
571.807985
11
51.407153
21
571.807984
0
LINE
8
boundary
62
5
39
2
10
51.407153
20
571.807984
11
53.561955
21
571.807984
0
LINE
8
boundary
62
5
39
2
10
53.561955
20
571.807984
11
56.174876
21
571.807984
0
LINE
8
boundary
62
5
39
2
10
56.174876
20
571.807984
11
59.445725
21
571.807984
0
LINE
8
boundary
62
5
39
2
10
59.445725
20
571.807984
11
63.708026
21
571.807984
0
LINE
8
boundary
62
5
39
2
10
63.708026
20
571.807984
11
69.563932
21
571.807984
0
LINE
8
boundary
62
5
39
2
10
69.563932
20
571.807984
11
78.223610
21
571.807984
0
LINE
8
boundary
62
5
39
2
10
78.223610
20
571.807984
11
92.533220
21
571.807985
0
LINE
8
boundary
62
5
39
2
10
92.533220
20
571.807985
11
121.153569
21
571.807984
0
LINE
8
boundary
62
5
39
2
10
121.153569
20
571.807984
11
208.921671
21
571.807984
0
LINE
8
boundary
62
5
39
2
10
208.921671
20
571.807984
11
210.892749
21
572.080591
0
LINE
8
boundary
62
5
39
2
10
210.892749
20
572.080591
11
212.045752
21
572.558386
0
LINE
8
boundary
62
5
39
2
10
212.045752
20
572.558386
11
212.821311
21
572.879770
0
LINE
8
boundary
62
5
39
2
10
212.821311
20
572.879770
11
213.811944
21
573.640244
0
LINE
8
boundary
62
5
39
2
10
213.811944
20
573.640244
11
214.477421
21
574.151101
0
LINE
8
boundary
62
5
39
2
10
214.477421
20
574.151101
11
215.238103
21
575.142910
0
LINE
8
boundary
62
5
39
2
10
215.238103
20
575.142910
11
215.748182
21
575.807982
0
LINE
8
boundary
62
5
39
2
10
215.748182
20
575.807982
11
216.226783
21
576.963928
0
LINE
8
boundary
62
5
39
2
10
216.226783
20
576.963928
11
216.547030
21
577.737412
0
LINE
8
boundary
62
5
39
2
10
216.547030
20
577.737412
11
216.710416
21
578.979084
0
LINE
8
boundary
62
5
39
2
10
216.710416
20
578.979084
11
216.819492
21
579.807978
0
LINE
8
boundary
62
5
39
2
10
216.819492
20
579.807978
11
216.655950
21
581.050857
0
LINE
8
boundary
62
5
39
2
10
216.655950
20
581.050857
11
216.547030
21
581.878543
0
LINE
8
boundary
62
5
39
2
10
216.547030
20
581.878543
11
216.385359
21
582.408089
0
LINE
8
boundary
62
5
39
2
10
216.385359
20
582.408089
11
213.953301
21
589.420775
0
LINE
8
boundary
62
5
39
2
10
213.953301
20
589.420775
11
208.474719
21
602.647287
0
LINE
8
boundary
62
5
39
2
10
208.474719
20
602.647287
11
202.207539
21
615.518870
0
LINE
8
boundary
62
5
39
2
10
202.207539
20
615.518870
11
195.174615
21
627.988512
0
LINE
8
boundary
62
5
39
2
10
195.174615
20
627.988512
11
187.401625
21
640.010779
0
LINE
8
boundary
62
5
39
2
10
187.401625
20
640.010779
11
178.916948
21
651.541798
0
LINE
8
boundary
62
5
39
2
10
178.916948
20
651.541798
11
169.751494
21
662.539545
0
LINE
8
boundary
62
5
39
2
10
169.751494
20
662.539545
11
159.938757
21
672.963720
0
LINE
8
boundary
62
5
39
2
10
159.938757
20
672.963720
11
149.514529
21
682.776455
0
LINE
8
boundary
62
5
39
2
10
149.514529
20
682.776455
11
142.334631
21
688.760177
0
LINE
8
boundary
62
5
39
2
10
142.334631
20
688.760177
11
138.516835
21
691.941927
0
LINE
8
boundary
62
5
39
2
10
138.516835
20
691.941927
11
137.672649
21
692.563091
0
LINE
8
boundary
62
5
39
2
10
137.672649
20
692.563091
11
126.985800
21
700.426621
0
LINE
8
boundary
62
5
39
2
10
126.985800
20
700.426621
11
114.963519
21
708.199650
0
LINE
8
boundary
62
5
39
2
10
114.963519
20
708.199650
11
102.493852
21
715.232533
0
LINE
8
boundary
62
5
39
2
10
102.493852
20
715.232533
11
89.622285
21
721.499668
0
LINE
8
boundary
62
5
39
2
10
89.622285
20
721.499668
11
76.395818
21
726.978301
0
LINE
8
boundary
62
5
39
2
10
76.395818
20
726.978301
11
62.862682
21
731.648318
0
LINE
8
boundary
62
5
39
2
10
62.862682
20
731.648318
11
49.072275
21
735.492669
0
LINE
8
boundary
62
5
39
2
10
49.072275
20
735.492669
11
35.074910
21
738.497330
0
LINE
8
boundary
62
5
39
2
10
35.074910
20
738.497330
11
20.921668
21
740.651403
0
LINE
8
boundary
62
5
39
2
10
20.921668
20
740.651403
11
6.664191
21
741.947096
0
LINE
8
boundary
62
5
39
2
10
6.664191
20
741.947096
11
1.587500
21
742.100479
0
LINE
8
annotation
62
1
39
211
10
26.411208
20
533.810560
11
26.411208
21
542.614994
0
LINE
8
annotation
62
1
39
211
10
26.411208
20
542.614994
11
24.453870
21
540.657104
0
LINE
8
annotation
62
1
39
211
10
26.366071
20
561.630283
11
22.986595
21
561.630283
0
LINE
8
annotation
62
1
39
211
10
22.986595
20
561.630283
11
26.109341
21
566.657503
0
LINE
8
annotation
62
1
39
211
10
26.109341
20
566.657503
11
26.109341
21
566.657503
0
LINE
8
annotation
62
1
39
211
10
26.109341
20
566.657503
11
26.113074
21
566.662123
0
LINE
8
annotation
62
1
39
211
10
26.113074
20
566.662123
11
26.116654
21
566.666781
0
LINE
8
annotation
62
1
39
211
10
26.116654
20
566.666781
11
26.120105
21
566.671519
0
LINE
8
annotation
62
1
39
211
10
26.120105
20
566.671519
11
26.123449
21
566.676374
0
LINE
8
annotation
62
1
39
211
10
26.123449
20
566.676374
11
26.126711
21
566.681386
0
LINE
8
annotation
62
1
39
211
10
26.126711
20
566.681386
11
26.129913
21
566.686594
0
LINE
8
annotation
62
1
39
211
10
26.129913
20
566.686594
11
26.133081
21
566.692039
0
LINE
8
annotation
62
1
39
211
10
26.133081
20
566.692039
11
26.136237
21
566.697758
0
LINE
8
annotation
62
1
39
211
10
26.136237
20
566.697758
11
26.139404
21
566.703791
0
LINE
8
annotation
62
1
39
211
10
26.139404
20
566.703791
11
26.139404
21
566.703791
0
LINE
8
annotation
62
1
39
211
10
26.139404
20
566.703791
11
26.268342
21
566.980631
0
LINE
8
annotation
62
1
39
211
10
26.268342
20
566.980631
11
26.343665
21
567.267599
0
LINE
8
annotation
62
1
39
211
10
26.343665
20
567.267599
11
26.367219
21
567.558213
0
LINE
8
annotation
62
1
39
211
10
26.367219
20
567.558213
11
26.340851
21
567.845986
0
LINE
8
annotation
62
1
39
211
10
26.340851
20
567.845986
11
26.266407
21
568.124436
0
LINE
8
annotation
62
1
39
211
10
26.266407
20
568.124436
11
26.145732
21
568.387078
0
LINE
8
annotation
62
1
39
211
10
26.145732
20
568.387078
11
25.980671
21
568.627427
0
LINE
8
annotation
62
1
39
211
10
25.980671
20
568.627427
11
25.773073
21
568.838999
0
LINE
8
annotation
62
1
39
211
10
25.773073
20
568.838999
11
25.524781
21
569.015310
0
LINE
8
annotation
62
1
39
211
10
25.524781
20
569.015310
11
25.524781
21
569.015310
0
LINE
8
annotation
62
1
39
211
10
25.524781
20
569.015310
11
25.247171
21
569.142416
0
LINE
8
annotation
62
1
39
211
10
25.247171
20
569.142416
11
24.959763
21
569.216578
0
LINE
8
annotation
62
1
39
211
10
24.959763
20
569.216578
11
24.668980
21
569.239467
0
LINE
8
annotation
62
1
39
211
10
24.668980
20
569.239467
11
24.381250
21
569.212751
0
LINE
8
annotation
62
1
39
211
10
24.381250
20
569.212751
11
24.102996
21
569.138101
0
LINE
8
annotation
62
1
39
211
10
24.102996
20
569.138101
11
23.840645
21
569.017184
0
LINE
8
annotation
62
1
39
211
10
23.840645
20
569.017184
11
23.600622
21
568.851670
0
LINE
8
annotation
62
1
39
211
10
23.600622
20
568.851670
11
23.389352
21
568.643229
0
LINE
8
annotation
62
1
39
211
10
23.389352
20
568.643229
11
23.213261
21
568.393529
0
LINE
8
annotation
62
1
39
211
10
23.213261
20
568.393529
11
22.991367
21
567.967873
0
LINE
8
annotation
62
1
39
211
10
116.967114
20
587.857521
11
119.098909
21
587.857521
0
LINE
8
annotation
62
1
39
211
10
119.098909
20
587.857521
11
119.098909
21
587.857521
0
LINE
8
annotation
62
1
39
211
10
119.098909
20
587.857521
11
119.482317
21
587.891915
0
LINE
8
annotation
62
1
39
211
10
119.482317
20
587.891915
11
119.843091
21
587.991042
0
LINE
8
annotation
62
1
39
211
10
119.843091
20
587.991042
11
120.175231
21
588.148815
0
LINE
8
annotation
62
1
39
211
10
120.175231
20
588.148815
11
120.472734
21
588.359151
0
LINE
8
annotation
62
1
39
211
10
120.472734
20
588.359151
11
120.729602
21
588.615965
0
LINE
8
annotation
62
1
39
211
10
120.729602
20
588.615965
11
120.939833
21
588.913173
0
LINE
8
annotation
62
1
39
211
10
120.939833
20
588.913173
11
121.097428
21
589.244688
0
LINE
8
annotation
62
1
39
211
10
121.097428
20
589.244688
11
121.196385
21
589.604427
0
LINE
8
annotation
62
1
39
211
10
121.196385
20
589.604427
11
121.230704
21
589.986306
0
LINE
8
annotation
62
1
39
211
10
121.230704
20
589.986306
11
121.230704
21
591.053708
0
LINE
8
annotation
62
1
39
211
10
121.230704
20
591.053708
11
121.230704
21
591.053708
0
LINE
8
annotation
62
1
39
211
10
121.230704
20
591.053708
11
121.196385
21
591.435428
0
LINE
8
annotation
62
1
39
211
10
121.196385
20
591.435428
11
121.097428
21
591.795083
0
LINE
8
annotation
62
1
39
211
10
121.097428
20
591.795083
11
120.939833
21
592.126573
0
LINE
8
annotation
62
1
39
211
10
120.939833
20
592.126573
11
120.729602
21
592.423800
0
LINE
8
annotation
62
1
39
211
10
120.729602
20
592.423800
11
120.472734
21
592.680664
0
LINE
8
annotation
62
1
39
211
10
120.472734
20
592.680664
11
120.175231
21
592.891065
0
LINE
8
annotation
62
1
39
211
10
120.175231
20
592.891065
11
119.843091
21
593.048903
0
LINE
8
annotation
62
1
39
211
10
119.843091
20
593.048903
11
119.482317
21
593.148079
0
LINE
8
annotation
62
1
39
211
10
119.482317
20
593.148079
11
119.098909
21
593.182493
0
LINE
8
annotation
62
1
39
211
10
119.098909
20
593.182493
11
118.031507
21
593.182493
0
LINE
8
annotation
62
1
39
211
10
118.031507
20
593.182493
11
119.098909
21
593.182493
0
LINE
8
annotation
62
1
39
211
10
119.098909
20
593.182493
11
119.098909
21
593.182493
0
LINE
8
annotation
62
1
39
211
10
119.098909
20
593.182493
11
119.482317
21
593.216915
0
LINE
8
annotation
62
1
39
211
10
119.482317
20
593.216915
11
119.843091
21
593.316149
0
LINE
8
annotation
62
1
39
211
10
119.843091
20
593.316149
11
120.175231
21
593.474144
0
LINE
8
annotation
62
1
39
211
10
120.175231
20
593.474144
11
120.472734
21
593.684850
0
LINE
8
annotation
62
1
39
211
10
120.472734
20
593.684850
11
120.729602
21
593.942217
0
LINE
8
annotation
62
1
39
211
10
120.729602
20
593.942217
11
120.939833
21
594.240196
0
LINE
8
annotation
62
1
39
211
10
120.939833
20
594.240196
11
121.097428
21
594.572735
0
LINE
8
annotation
62
1
39
211
10
121.097428
20
594.572735
11
121.196385
21
594.933786
0
LINE
8
annotation
62
1
39
211
10
121.196385
20
594.933786
11
121.230704
21
595.317298
0
LINE
8
annotation
62
1
39
211
10
121.230704
20
595.317298
11
121.230704
21
595.317298
0
LINE
8
annotation
62
1
39
211
10
121.230704
20
595.317298
11
121.196385
21
595.699017
0
LINE
8
annotation
62
1
39
211
10
121.196385
20
595.699017
11
121.097428
21
596.058672
0
LINE
8
annotation
62
1
39
211
10
121.097428
20
596.058672
11
120.939833
21
596.390163
0
LINE
8
annotation
62
1
39
211
10
120.939833
20
596.390163
11
120.729602
21
596.687390
0
LINE
8
annotation
62
1
39
211
10
120.729602
20
596.687390
11
120.472734
21
596.944254
0
LINE
8
annotation
62
1
39
211
10
120.472734
20
596.944254
11
120.175231
21
597.154654
0
LINE
8
annotation
62
1
39
211
10
120.175231
20
597.154654
11
119.843091
21
597.312492
0
LINE
8
annotation
62
1
39
211
10
119.843091
20
597.312492
11
119.482317
21
597.411668
0
LINE
8
annotation
62
1
39
211
10
119.482317
20
597.411668
11
119.098909
21
597.446082
0
LINE
8
annotation
62
1
39
211
10
119.098909
20
597.446082
11
116.967114
21
597.446082
0
LINE
8
annotation
62
1
39
211
10
115.331822
20
617.213644
11
110.001432
21
617.213644
0
LINE
8
annotation
62
1
39
211
10
110.001432
20
617.213644
11
112.130216
21
624.679441
0
LINE
8
annotation
62
1
39
211
10
113.734029
20
615.079441
11
113.734029
21
619.343031
0
LINE
8
annotation
62
1
39
211
10
101.752781
20
642.301663
11
103.884575
21
642.301663
0
LINE
8
annotation
62
1
39
211
10
103.884575
20
642.301663
11
103.884575
21
642.301663
0
LINE
8
annotation
62
1
39
211
10
103.884575
20
642.301663
11
104.267191
21
642.336064
0
LINE
8
annotation
62
1
39
211
10
104.267191
20
642.336064
11
104.627544
21
642.435243
0
LINE
8
annotation
62
1
39
211
10
104.627544
20
642.435243
11
104.959559
21
642.593158
0
LINE
8
annotation
62
1
39
211
10
104.959559
20
642.593158
11
105.257162
21
642.803769
0
LINE
8
annotation
62
1
39
211
10
105.257162
20
642.803769
11
105.514277
21
643.061036
0
LINE
8
annotation
62
1
39
211
10
105.514277
20
643.061036
11
105.724831
21
643.358920
0
LINE
8
annotation
62
1
39
211
10
105.724831
20
643.358920
11
105.882747
21
643.691379
0
LINE
8
annotation
62
1
39
211
10
105.882747
20
643.691379
11
105.981952
21
644.052375
0
LINE
8
annotation
62
1
39
211
10
105.981952
20
644.052375
11
106.016370
21
644.435866
0
LINE
8
annotation
62
1
39
211
10
106.016370
20
644.435866
11
106.016370
21
645.497850
0
LINE
8
annotation
62
1
39
211
10
106.016370
20
645.497850
11
106.016370
21
645.497850
0
LINE
8
annotation
62
1
39
211
10
106.016370
20
645.497850
11
105.981972
21
645.881155
0
LINE
8
annotation
62
1
39
211
10
105.981972
20
645.881155
11
105.882817
21
646.241652
0
LINE
8
annotation
62
1
39
211
10
105.882817
20
646.241652
11
105.724964
21
646.573391
0
LINE
8
annotation
62
1
39
211
10
105.724964
20
646.573391
11
105.514475
21
646.870420
0
LINE
8
annotation
62
1
39
211
10
105.514475
20
646.870420
11
105.257410
21
647.126788
0
LINE
8
annotation
62
1
39
211
10
105.257410
20
647.126788
11
104.959827
21
647.336544
0
LINE
8
annotation
62
1
39
211
10
104.959827
20
647.336544
11
104.627787
21
647.493738
0
LINE
8
annotation
62
1
39
211
10
104.627787
20
647.493738
11
104.267350
21
647.592419
0
LINE
8
annotation
62
1
39
211
10
104.267350
20
647.592419
11
103.884575
21
647.626634
0
LINE
8
annotation
62
1
39
211
10
103.884575
20
647.626634
11
101.752781
21
647.626634
0
LINE
8
annotation
62
1
39
211
10
101.752781
20
647.626634
11
101.752781
21
651.901663
0
LINE
8
annotation
62
1
39
211
10
101.752781
20
651.901663
11
106.016370
21
651.901663
0
LINE
8
annotation
62
1
39
211
10
93.109876
20
679.123884
11
93.109876
21
679.123884
0
LINE
8
annotation
62
1
39
211
10
93.109876
20
679.123884
11
92.499170
21
678.894906
0
LINE
8
annotation
62
1
39
211
10
92.499170
20
678.894906
11
91.938768
21
678.586386
0
LINE
8
annotation
62
1
39
211
10
91.938768
20
678.586386
11
91.434421
21
678.206053
0
LINE
8
annotation
62
1
39
211
10
91.434421
20
678.206053
11
90.991883
21
677.761637
0
LINE
8
annotation
62
1
39
211
10
90.991883
20
677.761637
11
90.616906
21
677.260868
0
LINE
8
annotation
62
1
39
211
10
90.616906
20
677.260868
11
90.315244
21
676.711475
0
LINE
8
annotation
62
1
39
211
10
90.315244
20
676.711475
11
90.092648
21
676.121189
0
LINE
8
annotation
62
1
39
211
10
90.092648
20
676.121189
11
89.954872
21
675.497740
0
LINE
8
annotation
62
1
39
211
10
89.954872
20
675.497740
11
89.907668
21
674.848856
0
LINE
8
annotation
62
1
39
211
10
89.907668
20
674.848856
11
89.907668
21
671.658087
0
LINE
8
annotation
62
1
39
211
10
89.907668
20
671.658087
11
89.907668
21
671.658087
0
LINE
8
annotation
62
1
39
211
10
89.907668
20
671.658087
11
89.942086
21
671.274596
0
LINE
8
annotation
62
1
39
211
10
89.942086
20
671.274596
11
90.041291
21
670.913601
0
LINE
8
annotation
62
1
39
211
10
90.041291
20
670.913601
11
90.199208
21
670.581141
0
LINE
8
annotation
62
1
39
211
10
90.199208
20
670.581141
11
90.409761
21
670.283258
0
LINE
8
annotation
62
1
39
211
10
90.409761
20
670.283258
11
90.666877
21
670.025990
0
LINE
8
annotation
62
1
39
211
10
90.666877
20
670.025990
11
90.964479
21
669.815379
0
LINE
8
annotation
62
1
39
211
10
90.964479
20
669.815379
11
91.296495
21
669.657464
0
LINE
8
annotation
62
1
39
211
10
91.296495
20
669.657464
11
91.656847
21
669.558286
0
LINE
8
annotation
62
1
39
211
10
91.656847
20
669.558286
11
92.039463
21
669.523884
0
LINE
8
annotation
62
1
39
211
10
92.039463
20
669.523884
11
92.039463
21
669.523884
0
LINE
8
annotation
62
1
39
211
10
92.039463
20
669.523884
11
92.422871
21
669.558286
0
LINE
8
annotation
62
1
39
211
10
92.422871
20
669.558286
11
92.783645
21
669.657464
0
LINE
8
annotation
62
1
39
211
10
92.783645
20
669.657464
11
93.115784
21
669.815379
0
LINE
8
annotation
62
1
39
211
10
93.115784
20
669.815379
11
93.413288
21
670.025990
0
LINE
8
annotation
62
1
39
211
10
93.413288
20
670.025990
11
93.670156
21
670.283258
0
LINE
8
annotation
62
1
39
211
10
93.670156
20
670.283258
11
93.880387
21
670.581141
0
LINE
8
annotation
62
1
39
211
10
93.880387
20
670.581141
11
94.037982
21
670.913601
0
LINE
8
annotation
62
1
39
211
10
94.037982
20
670.913601
11
94.136939
21
671.274596
0
LINE
8
annotation
62
1
39
211
10
94.136939
20
671.274596
11
94.171258
21
671.658087
0
LINE
8
annotation
62
1
39
211
10
94.171258
20
671.658087
11
94.171258
21
672.720071
0
LINE
8
annotation
62
1
39
211
10
94.171258
20
672.720071
11
94.171258
21
672.720071
0
LINE
8
annotation
62
1
39
211
10
94.171258
20
672.720071
11
94.136939
21
673.103376
0
LINE
8
annotation
62
1
39
211
10
94.136939
20
673.103376
11
94.037982
21
673.463874
0
LINE
8
annotation
62
1
39
211
10
94.037982
20
673.463874
11
93.880387
21
673.795612
0
LINE
8
annotation
62
1
39
211
10
93.880387
20
673.795612
11
93.670156
21
674.092641
0
LINE
8
annotation
62
1
39
211
10
93.670156
20
674.092641
11
93.413288
21
674.349009
0
LINE
8
annotation
62
1
39
211
10
93.413288
20
674.349009
11
93.115784
21
674.558766
0
LINE
8
annotation
62
1
39
211
10
93.115784
20
674.558766
11
92.783645
21
674.715959
0
LINE
8
annotation
62
1
39
211
10
92.783645
20
674.715959
11
92.422871
21
674.814640
0
LINE
8
annotation
62
1
39
211
10
92.422871
20
674.814640
11
92.039463
21
674.848856
0
LINE
8
annotation
62
1
39
211
10
92.039463
20
674.848856
11
89.907668
21
674.848856
0
LINE
8
annotation
62
1
39
211
10
89.640667
20
668.323884
11
94.440667
21
668.323884
0
LINE
8
annotation
62
1
39
211
10
75.419712
20
696.746105
11
77.553915
21
706.346105
0
LINE
8
annotation
62
1
39
211
10
77.553915
20
706.346105
11
73.284907
21
706.346105
0
LINE
8
annotation
62
1
39
211
10
77.553915
20
702.071077
11
75.419712
21
702.071077
0
LINE
8
annotation
62
1
39
211
10
45.953014
20
726.181288
11
45.953014
21
726.181288
0
LINE
8
annotation
62
1
39
211
10
45.953014
20
726.181288
11
45.986344
21
725.810103
0
LINE
8
annotation
62
1
39
211
10
45.986344
20
725.810103
11
46.082411
21
725.461006
0
LINE
8
annotation
62
1
39
211
10
46.082411
20
725.461006
11
46.235334
21
725.139757
0
LINE
8
annotation
62
1
39
211
10
46.235334
20
725.139757
11
46.439230
21
724.852121
0
LINE
8
annotation
62
1
39
211
10
46.439230
20
724.852121
11
46.688215
21
724.603859
0
LINE
8
annotation
62
1
39
211
10
46.688215
20
724.603859
11
46.976407
21
724.400736
0
LINE
8
annotation
62
1
39
211
10
46.976407
20
724.400736
11
47.297923
21
724.248513
0
LINE
8
annotation
62
1
39
211
10
47.297923
20
724.248513
11
47.646881
21
724.152953
0
LINE
8
annotation
62
1
39
211
10
47.646881
20
724.152953
11
48.017398
21
724.119819
0
LINE
8
annotation
62
1
39
211
10
48.017398
20
724.119819
11
48.017398
21
724.119819
0
LINE
8
annotation
62
1
39
211
10
48.017398
20
724.119819
11
48.387915
21
724.152953
0
LINE
8
annotation
62
1
39
211
10
48.387915
20
724.152953
11
48.736872
21
724.248513
0
LINE
8
annotation
62
1
39
211
10
48.736872
20
724.248513
11
49.058389
21
724.400736
0
LINE
8
annotation
62
1
39
211
10
49.058389
20
724.400736
11
49.346581
21
724.603859
0
LINE
8
annotation
62
1
39
211
10
49.346581
20
724.603859
11
49.595566
21
724.852121
0
LINE
8
annotation
62
1
39
211
10
49.595566
20
724.852121
11
49.799461
21
725.139757
0
LINE
8
annotation
62
1
39
211
10
49.799461
20
725.139757
11
49.952384
21
725.461006
0
LINE
8
annotation
62
1
39
211
10
49.952384
20
725.461006
11
50.048452
21
725.810103
0
LINE
8
annotation
62
1
39
211
10
50.048452
20
725.810103
11
50.081782
21
726.181288
0
LINE
8
annotation
62
1
39
211
10
50.081782
20
726.181288
11
50.081782
21
727.209690
0
LINE
8
annotation
62
1
39
211
10
50.081782
20
727.209690
11
50.081782
21
727.209690
0
LINE
8
annotation
62
1
39
211
10
50.081782
20
727.209690
11
50.048471
21
727.581055
0
LINE
8
annotation
62
1
39
211
10
50.048471
20
727.581055
11
49.952452
21
727.930635
0
LINE
8
annotation
62
1
39
211
10
49.952452
20
727.930635
11
49.799591
21
728.252582
0
LINE
8
annotation
62
1
39
211
10
49.799591
20
728.252582
11
49.595758
21
728.541046
0
LINE
8
annotation
62
1
39
211
10
49.595758
20
728.541046
11
49.346821
21
728.790178
0
LINE
8
annotation
62
1
39
211
10
49.346821
20
728.790178
11
49.058648
21
728.994129
0
LINE
8
annotation
62
1
39
211
10
49.058648
20
728.994129
11
48.737108
21
729.147051
0
LINE
8
annotation
62
1
39
211
10
48.737108
20
729.147051
11
48.388068
21
729.243093
0
LINE
8
annotation
62
1
39
211
10
48.388068
20
729.243093
11
48.017398
21
729.276407
0
LINE
8
annotation
62
1
39
211
10
48.017398
20
729.276407
11
48.017398
21
729.276407
0
LINE
8
annotation
62
1
39
211
10
48.017398
20
729.276407
11
47.646728
21
729.243073
0
LINE
8
annotation
62
1
39
211
10
47.646728
20
729.243073
11
47.297688
21
729.146983
0
LINE
8
annotation
62
1
39
211
10
47.297688
20
729.146983
11
46.976148
21
728.994000
0
LINE
8
annotation
62
1
39
211
10
46.976148
20
728.994000
11
46.687975
21
728.789986
0
LINE
8
annotation
62
1
39
211
10
46.687975
20
728.789986
11
46.439038
21
728.540806
0
LINE
8
annotation
62
1
39
211
10
46.439038
20
728.540806
11
46.235205
21
728.252322
0
LINE
8
annotation
62
1
39
211
10
46.235205
20
728.252322
11
46.082344
21
727.930400
0
LINE
8
annotation
62
1
39
211
10
46.082344
20
727.930400
11
45.986324
21
727.580901
0
LINE
8
annotation
62
1
39
211
10
45.986324
20
727.580901
11
45.953014
21
727.209690
0
LINE
8
annotation
62
1
39
211
10
45.953014
20
727.209690
11
45.953014
21
726.181288
0
LINE
8
annotation
62
1
39
211
10
50.081782
20
731.343706
11
50.081782
21
731.343706
0
LINE
8
annotation
62
1
39
211
10
50.081782
20
731.343706
11
50.048471
21
731.713355
0
LINE
8
annotation
62
1
39
211
10
50.048471
20
731.713355
11
49.952452
21
732.061637
0
LINE
8
annotation
62
1
39
211
10
49.952452
20
732.061637
11
49.799591
21
732.382645
0
LINE
8
annotation
62
1
39
211
10
49.799591
20
732.382645
11
49.595758
21
732.670474
0
LINE
8
annotation
62
1
39
211
10
49.595758
20
732.670474
11
49.346821
21
732.919215
0
LINE
8
annotation
62
1
39
211
10
49.346821
20
732.919215
11
49.058648
21
733.122962
0
LINE
8
annotation
62
1
39
211
10
49.058648
20
733.122962
11
48.737108
21
733.275809
0
LINE
8
annotation
62
1
39
211
10
48.737108
20
733.275809
11
48.388068
21
733.371849
0
LINE
8
annotation
62
1
39
211
10
48.388068
20
733.371849
11
48.017398
21
733.405175
0
LINE
8
annotation
62
1
39
211
10
48.017398
20
733.405175
11
48.017398
21
733.405175
0
LINE
8
annotation
62
1
39
211
10
48.017398
20
733.405175
11
47.646728
21
733.371849
0
LINE
8
annotation
62
1
39
211
10
47.646728
20
733.371849
11
47.297688
21
733.275809
0
LINE
8
annotation
62
1
39
211
10
47.297688
20
733.275809
11
46.976148
21
733.122962
0
LINE
8
annotation
62
1
39
211
10
46.976148
20
733.122962
11
46.687975
21
732.919215
0
LINE
8
annotation
62
1
39
211
10
46.687975
20
732.919215
11
46.439038
21
732.670474
0
LINE
8
annotation
62
1
39
211
10
46.439038
20
732.670474
11
46.235205
21
732.382645
0
LINE
8
annotation
62
1
39
211
10
46.235205
20
732.382645
11
46.082344
21
732.061637
0
LINE
8
annotation
62
1
39
211
10
46.082344
20
732.061637
11
45.986324
21
731.713355
0
LINE
8
annotation
62
1
39
211
10
45.986324
20
731.713355
11
45.953014
21
731.343706
0
LINE
8
annotation
62
1
39
211
10
45.953014
20
731.343706
11
45.953014
21
731.343706
0
LINE
8
annotation
62
1
39
211
10
45.953014
20
731.343706
11
45.986344
21
730.972321
0
LINE
8
annotation
62
1
39
211
10
45.986344
20
730.972321
11
46.082411
21
730.622688
0
LINE
8
annotation
62
1
39
211
10
46.082411
20
730.622688
11
46.235334
21
730.300663
0
LINE
8
annotation
62
1
39
211
10
46.235334
20
730.300663
11
46.439230
21
730.012107
0
LINE
8
annotation
62
1
39
211
10
46.439230
20
730.012107
11
46.688215
21
729.762878
0
LINE
8
annotation
62
1
39
211
10
46.688215
20
729.762878
11
46.976407
21
729.558835
0
LINE
8
annotation
62
1
39
211
10
46.976407
20
729.558835
11
47.297923
21
729.405836
0
LINE
8
annotation
62
1
39
211
10
47.297923
20
729.405836
11
47.646881
21
729.309740
0
LINE
8
annotation
62
1
39
211
10
47.646881
20
729.309740
11
48.017398
21
729.276407
0
LINE
8
annotation
62
1
39
211
10
48.017398
20
729.276407
11
48.017398
21
729.276407
0
LINE
8
annotation
62
1
39
211
10
48.017398
20
729.276407
11
48.387915
21
729.309740
0
LINE
8
annotation
62
1
39
211
10
48.387915
20
729.309740
11
48.736872
21
729.405836
0
LINE
8
annotation
62
1
39
211
10
48.736872
20
729.405836
11
49.058389
21
729.558835
0
LINE
8
annotation
62
1
39
211
10
49.058389
20
729.558835
11
49.346581
21
729.762878
0
LINE
8
annotation
62
1
39
211
10
49.346581
20
729.762878
11
49.595566
21
730.012107
0
LINE
8
annotation
62
1
39
211
10
49.595566
20
730.012107
11
49.799461
21
730.300663
0
LINE
8
annotation
62
1
39
211
10
49.799461
20
730.300663
11
49.952384
21
730.622688
0
LINE
8
annotation
62
1
39
211
10
49.952384
20
730.622688
11
50.048452
21
730.972321
0
LINE
8
annotation
62
1
39
211
10
50.048452
20
730.972321
11
50.081782
21
731.343706
0
LINE
8
annotation
62
1
39
211
10
159.946549
20
601.782313
11
154.069710
21
593.282003
0
LINE
8
annotation
62
1
39
211
10
154.069710
20
593.282003
11
148.191765
21
601.782313
0
LINE
8
annotation
62
1
39
211
10
154.069710
20
593.966051
11
154.069710
21
584.159531
0
LINE
8
annotation
62
1
39
211
10
176.192119
20
592.970922
11
166.556887
21
592.970922
0
LINE
8
annotation
62
1
39
211
10
192.583007
20
588.077608
11
182.798590
21
588.077608
0
LINE
8
annotation
62
1
39
211
10
182.798590
20
588.077608
11
186.706168
21
601.781760
0
LINE
8
annotation
62
1
39
211
10
189.650113
20
584.160084
11
189.650113
21
591.986292
0
LINE
8
boundary
62
5
39
2
10
235.641097
20
497.379445
11
238.039126
21
497.379445
0
LINE
8
boundary
62
5
39
2
10
238.039126
20
497.379445
11
238.854611
21
497.379445
0
LINE
8
boundary
62
5
39
2
10
238.854611
20
497.379445
11
240.973971
21
497.379446
0
LINE
8
boundary
62
5
39
2
10
240.973971
20
497.379446
11
242.694965
21
497.379445
0
LINE
8
boundary
62
5
39
2
10
242.694965
20
497.379445
11
244.215198
21
498.849733
0
LINE
8
boundary
62
5
39
2
10
244.215198
20
498.849733
11
245.695657
21
500.379456
0
LINE
8
boundary
62
5
39
2
10
245.695657
20
500.379456
11
245.695657
21
512.287573
0
LINE
8
boundary
62
5
39
2
10
245.695657
20
512.287573
11
245.695658
21
559.807969
0
LINE
8
boundary
62
5
39
2
10
245.695658
20
559.807969
11
245.842995
21
560.723800
0
LINE
8
boundary
62
5
39
2
10
245.842995
20
560.723800
11
246.108311
21
562.913806
0
LINE
8
boundary
62
5
39
2
10
246.108311
20
562.913806
11
246.816598
21
564.626757
0
LINE
8
boundary
62
5
39
2
10
246.816598
20
564.626757
11
247.305014
21
565.807966
0
LINE
8
boundary
62
5
39
2
10
247.305014
20
565.807966
11
248.423683
21
567.268410
0
LINE
8
boundary
62
5
39
2
10
248.423683
20
567.268410
11
249.208698
21
568.293261
0
LINE
8
boundary
62
5
39
2
10
249.208698
20
568.293261
11
250.659505
21
569.408456
0
LINE
8
boundary
62
5
39
2
10
250.659505
20
569.408456
11
251.689627
21
570.200281
0
LINE
8
boundary
62
5
39
2
10
251.689627
20
570.200281
11
253.375142
21
570.899672
0
LINE
8
boundary
62
5
39
2
10
253.375142
20
570.899672
11
254.578729
21
571.399091
0
LINE
8
boundary
62
5
39
2
10
254.578729
20
571.399091
11
256.302200
21
571.627511
0
LINE
8
boundary
62
5
39
2
10
256.302200
20
571.627511
11
257.660677
21
571.807985
0
LINE
8
boundary
62
5
39
2
10
257.660677
20
571.807985
11
427.328735
21
571.807985
0
LINE
8
boundary
62
5
39
2
10
427.328735
20
571.807985
11
429.299741
21
572.080591
0
LINE
8
boundary
62
5
39
2
10
429.299741
20
572.080591
11
430.452745
21
572.558386
0
LINE
8
boundary
62
5
39
2
10
430.452745
20
572.558386
11
431.228305
21
572.879770
0
LINE
8
boundary
62
5
39
2
10
431.228305
20
572.879770
11
432.218938
21
573.640244
0
LINE
8
boundary
62
5
39
2
10
432.218938
20
573.640244
11
432.884414
21
574.151101
0
LINE
8
boundary
62
5
39
2
10
432.884414
20
574.151101
11
433.645096
21
575.142910
0
LINE
8
boundary
62
5
39
2
10
433.645096
20
575.142910
11
434.155175
21
575.807982
0
LINE
8
boundary
62
5
39
2
10
434.155175
20
575.807982
11
434.633775
21
576.963927
0
LINE
8
boundary
62
5
39
2
10
434.633775
20
576.963927
11
434.954023
21
577.737413
0
LINE
8
boundary
62
5
39
2
10
434.954023
20
577.737413
11
435.117408
21
578.979084
0
LINE
8
boundary
62
5
39
2
10
435.117408
20
578.979084
11
435.226485
21
579.807978
0
LINE
8
boundary
62
5
39
2
10
435.226485
20
579.807978
11
435.062941
21
581.050857
0
LINE
8
boundary
62
5
39
2
10
435.062941
20
581.050857
11
434.954023
21
581.878542
0
LINE
8
boundary
62
5
39
2
10
434.954023
20
581.878542
11
434.792352
21
582.408089
0
LINE
8
boundary
62
5
39
2
10
434.792352
20
582.408089
11
433.660600
21
585.594958
0
LINE
8
boundary
62
5
39
2
10
433.660600
20
585.594958
11
432.261110
21
589.420784
0
LINE
8
boundary
62
5
39
2
10
432.261110
20
589.420784
11
429.488776
21
596.116806
0
LINE
8
boundary
62
5
39
2
10
429.488776
20
596.116806
11
426.784976
21
602.647290
0
LINE
8
boundary
62
5
39
2
10
426.784976
20
602.647290
11
423.606699
21
609.177761
0
LINE
8
boundary
62
5
39
2
10
423.606699
20
609.177761
11
420.520594
21
615.518870
0
LINE
8
boundary
62
5
39
2
10
420.520594
20
615.518870
11
416.945820
21
621.859948
0
LINE
8
boundary
62
5
39
2
10
416.945820
20
621.859948
11
413.490838
21
627.988520
0
LINE
8
boundary
62
5
39
2
10
413.490838
20
627.988520
11
409.530190
21
634.117087
0
LINE
8
boundary
62
5
39
2
10
409.530190
20
634.117087
11
405.721336
21
640.010781
0
LINE
8
boundary
62
5
39
2
10
405.721336
20
640.010781
11
401.386601
21
645.904480
0
LINE
8
boundary
62
5
39
2
10
401.386601
20
645.904480
11
397.240429
21
651.541802
0
LINE
8
boundary
62
5
39
2
10
397.240429
20
651.541802
11
392.544408
21
657.179150
0
LINE
8
boundary
62
5
39
2
10
392.544408
20
657.179150
11
388.079093
21
662.539556
0
LINE
8
boundary
62
5
39
2
10
388.079093
20
662.539556
11
383.035426
21
667.899892
0
LINE
8
boundary
62
5
39
2
10
383.035426
20
667.899892
11
378.270743
21
672.963725
0
LINE
8
boundary
62
5
39
2
10
378.270743
20
672.963725
11
372.893737
21
678.027580
0
LINE
8
boundary
62
5
39
2
10
372.893737
20
678.027580
11
367.851178
21
682.776456
0
LINE
8
boundary
62
5
39
2
10
367.851178
20
682.776456
11
362.155502
21
687.525347
0
LINE
8
boundary
62
5
39
2
10
362.155502
20
687.525347
11
356.858391
21
691.941928
0
LINE
8
boundary
62
5
39
2
10
356.858391
20
691.941928
11
350.858811
21
696.358489
0
LINE
8
boundary
62
5
39
2
10
350.858811
20
696.358489
11
345.332529
21
700.426627
0
LINE
8
boundary
62
5
39
2
10
345.332529
20
700.426627
11
339.043277
21
704.494772
0
LINE
8
boundary
62
5
39
2
10
339.043277
20
704.494772
11
333.315626
21
708.199656
0
LINE
8
boundary
62
5
39
2
10
333.315626
20
708.199656
11
326.749703
21
711.904486
0
LINE
8
boundary
62
5
39
2
10
326.749703
20
711.904486
11
320.851535
21
715.232537
0
LINE
8
boundary
62
5
39
2
10
320.851535
20
715.232537
11
314.019432
21
718.560564
0
LINE
8
boundary
62
5
39
2
10
314.019432
20
718.560564
11
307.985749
21
721.499668
0
LINE
8
boundary
62
5
39
2
10
307.985749
20
721.499668
11
300.893261
21
724.438815
0
LINE
8
boundary
62
5
39
2
10
300.893261
20
724.438815
11
294.765186
21
726.978306
0
LINE
8
boundary
62
5
39
2
10
294.765186
20
726.978306
11
287.409411
21
729.517776
0
LINE
8
boundary
62
5
39
2
10
287.409411
20
729.517776
11
281.238110
21
731.648322
0
LINE
8
boundary
62
5
39
2
10
281.238110
20
731.648322
11
273.598950
21
733.778842
0
LINE
8
boundary
62
5
39
2
10
273.598950
20
733.778842
11
267.453869
21
735.492673
0
LINE
8
boundary
62
5
39
2
10
267.453869
20
735.492673
11
259.473616
21
737.206474
0
LINE
8
boundary
62
5
39
2
10
259.473616
20
737.206474
11
253.462765
21
738.497335
0
LINE
8
boundary
62
5
39
2
10
253.462765
20
738.497335
11
244.984988
21
739.788198
0
LINE
8
boundary
62
5
39
2
10
244.984988
20
739.788198
11
239.315850
21
740.651405
0
LINE
8
boundary
62
5
39
2
10
239.315850
20
740.651405
11
229.820943
21
741.514671
0
LINE
8
boundary
62
5
39
2
10
229.820943
20
741.514671
11
225.064742
21
741.947100
0
LINE
8
boundary
62
5
39
2
10
225.064742
20
741.947100
11
219.994492
21
742.100354
0
LINE
8
boundary
62
5
39
2
10
219.994492
20
742.100354
11
219.994492
21
732.068327
0
LINE
8
boundary
62
5
39
2
10
219.994492
20
732.068327
11
254.787370
21
731.768327
0
LINE
8
boundary
62
5
39
2
10
254.787370
20
731.768327
11
254.787371
21
725.768327
0
LINE
8
boundary
62
5
39
2
10
254.787371
20
725.768327
11
220.294493
21
725.768327
0
LINE
8
boundary
62
5
39
2
10
220.294493
20
725.768327
11
219.994492
21
704.846106
0
LINE
8
boundary
62
5
39
2
10
219.994492
20
704.846106
11
281.798170
21
704.546105
0
LINE
8
boundary
62
5
39
2
10
281.798170
20
704.546105
11
281.798170
21
698.546105
0
LINE
8
boundary
62
5
39
2
10
281.798170
20
698.546105
11
220.294492
21
698.546106
0
LINE
8
boundary
62
5
39
2
10
220.294492
20
698.546106
11
219.994493
21
677.623884
0
LINE
8
boundary
62
5
39
2
10
219.994493
20
677.623884
11
298.410484
21
677.323884
0
LINE
8
boundary
62
5
39
2
10
298.410484
20
677.323884
11
298.410484
21
671.323884
0
LINE
8
boundary
62
5
39
2
10
298.410484
20
671.323884
11
220.294493
21
671.323884
0
LINE
8
boundary
62
5
39
2
10
220.294493
20
671.323884
11
219.994493
21
650.401663
0
LINE
8
boundary
62
5
39
2
10
219.994493
20
650.401663
11
310.250292
21
650.101663
0
LINE
8
boundary
62
5
39
2
10
310.250292
20
650.101663
11
310.250292
21
644.101663
0
LINE
8
boundary
62
5
39
2
10
310.250292
20
644.101663
11
220.294493
21
644.101663
0
LINE
8
boundary
62
5
39
2
10
220.294493
20
644.101663
11
219.994493
21
623.179441
0
LINE
8
boundary
62
5
39
2
10
219.994493
20
623.179441
11
319.028411
21
622.879441
0
LINE
8
boundary
62
5
39
2
10
319.028411
20
622.879441
11
319.028410
21
616.879442
0
LINE
8
boundary
62
5
39
2
10
319.028410
20
616.879442
11
220.294492
21
616.879442
0
LINE
8
boundary
62
5
39
2
10
220.294492
20
616.879442
11
219.994493
21
595.957220
0
LINE
8
boundary
62
5
39
2
10
219.994493
20
595.957220
11
325.457816
21
595.657220
0
LINE
8
boundary
62
5
39
2
10
325.457816
20
595.657220
11
325.457816
21
589.657220
0
LINE
8
boundary
62
5
39
2
10
325.457816
20
589.657220
11
220.294493
21
589.657220
0
LINE
8
boundary
62
5
39
2
10
220.294493
20
589.657220
11
219.994493
21
568.734999
0
LINE
8
boundary
62
5
39
2
10
219.994493
20
568.734999
11
233.572645
21
568.434999
0
LINE
8
boundary
62
5
39
2
10
233.572645
20
568.434999
11
233.572644
21
562.434999
0
LINE
8
boundary
62
5
39
2
10
233.572644
20
562.434999
11
220.294492
21
562.434999
0
LINE
8
boundary
62
5
39
2
10
220.294492
20
562.434999
11
219.994493
21
541.512777
0
LINE
8
boundary
62
5
39
2
10
219.994493
20
541.512777
11
232.845075
21
541.212777
0
LINE
8
boundary
62
5
39
2
10
232.845075
20
541.212777
11
232.845075
21
535.212778
0
LINE
8
boundary
62
5
39
2
10
232.845075
20
535.212778
11
220.294493
21
535.212777
0
LINE
8
boundary
62
5
39
2
10
220.294493
20
535.212777
11
219.994493
21
497.379446
0
LINE
8
boundary
62
5
39
2
10
219.994493
20
497.379446
11
222.548109
21
497.379445
0
LINE
8
boundary
62
5
39
2
10
222.548109
20
497.379445
11
225.388805
21
497.379445
0
LINE
8
boundary
62
5
39
2
10
225.388805
20
497.379445
11
227.380879
21
497.379445
0
LINE
8
boundary
62
5
39
2
10
227.380879
20
497.379445
11
230.144305
21
497.379445
0
LINE
8
boundary
62
5
39
2
10
230.144305
20
497.379445
11
231.783214
21
497.379446
0
LINE
8
boundary
62
5
39
2
10
231.783214
20
497.379446
11
234.397798
21
497.379446
0
LINE
8
boundary
62
5
39
2
10
234.397798
20
497.379446
11
235.641097
21
497.379445
0
LINE
8
annotation
62
1
39
211
10
244.838033
20
533.807043
11
244.838033
21
542.618512
0
LINE
8
annotation
62
1
39
211
10
244.838033
20
542.618512
11
242.879131
21
540.659057
0
LINE
8
annotation
62
1
39
211
10
244.789564
20
561.624678
11
241.405109
21
561.624678
0
LINE
8
annotation
62
1
39
211
10
241.405109
20
561.624678
11
244.532456
21
566.659304
0
LINE
8
annotation
62
1
39
211
10
244.532456
20
566.659304
11
244.532456
21
566.659304
0
LINE
8
annotation
62
1
39
211
10
244.532456
20
566.659304
11
244.536195
21
566.663931
0
LINE
8
annotation
62
1
39
211
10
244.536195
20
566.663931
11
244.539780
21
566.668596
0
LINE
8
annotation
62
1
39
211
10
244.539780
20
566.668596
11
244.543235
21
566.673340
0
LINE
8
annotation
62
1
39
211
10
244.543235
20
566.673340
11
244.546584
21
566.678203
0
LINE
8
annotation
62
1
39
211
10
244.546584
20
566.678203
11
244.549851
21
566.683222
0
LINE
8
annotation
62
1
39
211
10
244.549851
20
566.683222
11
244.553059
21
566.688438
0
LINE
8
annotation
62
1
39
211
10
244.553059
20
566.688438
11
244.556231
21
566.693891
0
LINE
8
annotation
62
1
39
211
10
244.556231
20
566.693891
11
244.559391
21
566.699618
0
LINE
8
annotation
62
1
39
211
10
244.559391
20
566.699618
11
244.562563
21
566.705660
0
LINE
8
annotation
62
1
39
211
10
244.562563
20
566.705660
11
244.562563
21
566.705660
0
LINE
8
annotation
62
1
39
211
10
244.562563
20
566.705660
11
244.691691
21
566.982908
0
LINE
8
annotation
62
1
39
211
10
244.691691
20
566.982908
11
244.767125
21
567.270299
0
LINE
8
annotation
62
1
39
211
10
244.767125
20
567.270299
11
244.790714
21
567.561341
0
LINE
8
annotation
62
1
39
211
10
244.790714
20
567.561341
11
244.764307
21
567.849538
0
LINE
8
annotation
62
1
39
211
10
244.764307
20
567.849538
11
244.689753
21
568.128399
0
LINE
8
annotation
62
1
39
211
10
244.689753
20
568.128399
11
244.568900
21
568.391427
0
LINE
8
annotation
62
1
39
211
10
244.568900
20
568.391427
11
244.403597
21
568.632130
0
LINE
8
annotation
62
1
39
211
10
244.403597
20
568.632130
11
244.195692
21
568.844014
0
LINE
8
annotation
62
1
39
211
10
244.195692
20
568.844014
11
243.947034
21
569.020585
0
LINE
8
annotation
62
1
39
211
10
243.947034
20
569.020585
11
243.947034
21
569.020585
0
LINE
8
annotation
62
1
39
211
10
243.947034
20
569.020585
11
243.669016
21
569.147878
0
LINE
8
annotation
62
1
39
211
10
243.669016
20
569.147878
11
243.381184
21
569.222149
0
LINE
8
annotation
62
1
39
211
10
243.381184
20
569.222149
11
243.089973
21
569.245072
0
LINE
8
annotation
62
1
39
211
10
243.089973
20
569.245072
11
242.801819
21
569.218317
0
LINE
8
annotation
62
1
39
211
10
242.801819
20
569.218317
11
242.523155
21
569.143556
0
LINE
8
annotation
62
1
39
211
10
242.523155
20
569.143556
11
242.260418
21
569.022461
0
LINE
8
annotation
62
1
39
211
10
242.260418
20
569.022461
11
242.020041
21
568.856704
0
LINE
8
annotation
62
1
39
211
10
242.020041
20
568.856704
11
241.808460
21
568.647955
0
LINE
8
annotation
62
1
39
211
10
241.808460
20
568.647955
11
241.632109
21
568.397888
0
LINE
8
annotation
62
1
39
211
10
241.632109
20
568.397888
11
241.409888
21
567.971605
0
LINE
8
annotation
62
1
39
211
10
335.324817
20
587.857521
11
337.456612
21
587.857521
0
LINE
8
annotation
62
1
39
211
10
337.456612
20
587.857521
11
337.456612
21
587.857521
0
LINE
8
annotation
62
1
39
211
10
337.456612
20
587.857521
11
337.840020
21
587.891915
0
LINE
8
annotation
62
1
39
211
10
337.840020
20
587.891915
11
338.200794
21
587.991042
0
LINE
8
annotation
62
1
39
211
10
338.200794
20
587.991042
11
338.532933
21
588.148815
0
LINE
8
annotation
62
1
39
211
10
338.532933
20
588.148815
11
338.830437
21
588.359152
0
LINE
8
annotation
62
1
39
211
10
338.830437
20
588.359152
11
339.087305
21
588.615966
0
LINE
8
annotation
62
1
39
211
10
339.087305
20
588.615966
11
339.297536
21
588.913173
0
LINE
8
annotation
62
1
39
211
10
339.297536
20
588.913173
11
339.455131
21
589.244688
0
LINE
8
annotation
62
1
39
211
10
339.455131
20
589.244688
11
339.554088
21
589.604428
0
LINE
8
annotation
62
1
39
211
10
339.554088
20
589.604428
11
339.588407
21
589.986306
0
LINE
8
annotation
62
1
39
211
10
339.588407
20
589.986306
11
339.588407
21
591.053708
0
LINE
8
annotation
62
1
39
211
10
339.588407
20
591.053708
11
339.588407
21
591.053708
0
LINE
8
annotation
62
1
39
211
10
339.588407
20
591.053708
11
339.554088
21
591.435428
0
LINE
8
annotation
62
1
39
211
10
339.554088
20
591.435428
11
339.455131
21
591.795083
0
LINE
8
annotation
62
1
39
211
10
339.455131
20
591.795083
11
339.297536
21
592.126574
0
LINE
8
annotation
62
1
39
211
10
339.297536
20
592.126574
11
339.087305
21
592.423801
0
LINE
8
annotation
62
1
39
211
10
339.087305
20
592.423801
11
338.830437
21
592.680664
0
LINE
8
annotation
62
1
39
211
10
338.830437
20
592.680664
11
338.532933
21
592.891065
0
LINE
8
annotation
62
1
39
211
10
338.532933
20
592.891065
11
338.200794
21
593.048903
0
LINE
8
annotation
62
1
39
211
10
338.200794
20
593.048903
11
337.840020
21
593.148079
0
LINE
8
annotation
62
1
39
211
10
337.840020
20
593.148079
11
337.456612
21
593.182493
0
LINE
8
annotation
62
1
39
211
10
337.456612
20
593.182493
11
336.389210
21
593.182493
0
LINE
8
annotation
62
1
39
211
10
336.389210
20
593.182493
11
337.456612
21
593.182493
0
LINE
8
annotation
62
1
39
211
10
337.456612
20
593.182493
11
337.456612
21
593.182493
0
LINE
8
annotation
62
1
39
211
10
337.456612
20
593.182493
11
337.840020
21
593.216915
0
LINE
8
annotation
62
1
39
211
10
337.840020
20
593.216915
11
338.200794
21
593.316149
0
LINE
8
annotation
62
1
39
211
10
338.200794
20
593.316149
11
338.532933
21
593.474144
0
LINE
8
annotation
62
1
39
211
10
338.532933
20
593.474144
11
338.830437
21
593.684850
0
LINE
8
annotation
62
1
39
211
10
338.830437
20
593.684850
11
339.087305
21
593.942217
0
LINE
8
annotation
62
1
39
211
10
339.087305
20
593.942217
11
339.297536
21
594.240196
0
LINE
8
annotation
62
1
39
211
10
339.297536
20
594.240196
11
339.455131
21
594.572736
0
LINE
8
annotation
62
1
39
211
10
339.455131
20
594.572736
11
339.554088
21
594.933786
0
LINE
8
annotation
62
1
39
211
10
339.554088
20
594.933786
11
339.588407
21
595.317298
0
LINE
8
annotation
62
1
39
211
10
339.588407
20
595.317298
11
339.588407
21
595.317298
0
LINE
8
annotation
62
1
39
211
10
339.588407
20
595.317298
11
339.554088
21
595.699017
0
LINE
8
annotation
62
1
39
211
10
339.554088
20
595.699017
11
339.455131
21
596.058672
0
LINE
8
annotation
62
1
39
211
10
339.455131
20
596.058672
11
339.297536
21
596.390163
0
LINE
8
annotation
62
1
39
211
10
339.297536
20
596.390163
11
339.087305
21
596.687390
0
LINE
8
annotation
62
1
39
211
10
339.087305
20
596.687390
11
338.830437
21
596.944254
0
LINE
8
annotation
62
1
39
211
10
338.830437
20
596.944254
11
338.532933
21
597.154654
0
LINE
8
annotation
62
1
39
211
10
338.532933
20
597.154654
11
338.200794
21
597.312493
0
LINE
8
annotation
62
1
39
211
10
338.200794
20
597.312493
11
337.840020
21
597.411668
0
LINE
8
annotation
62
1
39
211
10
337.840020
20
597.411668
11
337.456612
21
597.446082
0
LINE
8
annotation
62
1
39
211
10
337.456612
20
597.446082
11
335.324817
21
597.446082
0
LINE
8
annotation
62
1
39
211
10
333.692402
20
617.213644
11
328.362012
21
617.213644
0
LINE
8
annotation
62
1
39
211
10
328.362012
20
617.213644
11
330.490796
21
624.679441
0
LINE
8
annotation
62
1
39
211
10
332.094609
20
615.079441
11
332.094609
21
619.343031
0
LINE
8
annotation
62
1
39
211
10
320.117293
20
642.301663
11
322.249088
21
642.301663
0
LINE
8
annotation
62
1
39
211
10
322.249088
20
642.301663
11
322.249088
21
642.301663
0
LINE
8
annotation
62
1
39
211
10
322.249088
20
642.301663
11
322.631703
21
642.336064
0
LINE
8
annotation
62
1
39
211
10
322.631703
20
642.336064
11
322.992056
21
642.435243
0
LINE
8
annotation
62
1
39
211
10
322.992056
20
642.435243
11
323.324071
21
642.593158
0
LINE
8
annotation
62
1
39
211
10
323.324071
20
642.593158
11
323.621674
21
642.803769
0
LINE
8
annotation
62
1
39
211
10
323.621674
20
642.803769
11
323.878790
21
643.061036
0
LINE
8
annotation
62
1
39
211
10
323.878790
20
643.061036
11
324.089343
21
643.358920
0
LINE
8
annotation
62
1
39
211
10
324.089343
20
643.358920
11
324.247260
21
643.691379
0
LINE
8
annotation
62
1
39
211
10
324.247260
20
643.691379
11
324.346464
21
644.052375
0
LINE
8
annotation
62
1
39
211
10
324.346464
20
644.052375
11
324.380883
21
644.435866
0
LINE
8
annotation
62
1
39
211
10
324.380883
20
644.435866
11
324.380883
21
645.497850
0
LINE
8
annotation
62
1
39
211
10
324.380883
20
645.497850
11
324.380883
21
645.497850
0
LINE
8
annotation
62
1
39
211
10
324.380883
20
645.497850
11
324.346484
21
645.881155
0
LINE
8
annotation
62
1
39
211
10
324.346484
20
645.881155
11
324.247329
21
646.241652
0
LINE
8
annotation
62
1
39
211
10
324.247329
20
646.241652
11
324.089477
21
646.573391
0
LINE
8
annotation
62
1
39
211
10
324.089477
20
646.573391
11
323.878988
21
646.870420
0
LINE
8
annotation
62
1
39
211
10
323.878988
20
646.870420
11
323.621922
21
647.126788
0
LINE
8
annotation
62
1
39
211
10
323.621922
20
647.126788
11
323.324339
21
647.336544
0
LINE
8
annotation
62
1
39
211
10
323.324339
20
647.336544
11
322.992299
21
647.493738
0
LINE
8
annotation
62
1
39
211
10
322.992299
20
647.493738
11
322.631862
21
647.592419
0
LINE
8
annotation
62
1
39
211
10
322.631862
20
647.592419
11
322.249088
21
647.626635
0
LINE
8
annotation
62
1
39
211
10
322.249088
20
647.626635
11
320.117293
21
647.626635
0
LINE
8
annotation
62
1
39
211
10
320.117293
20
647.626635
11
320.117293
21
651.901663
0
LINE
8
annotation
62
1
39
211
10
320.117293
20
651.901663
11
324.380883
21
651.901663
0
LINE
8
annotation
62
1
39
211
10
311.479693
20
679.123884
11
311.479693
21
679.123884
0
LINE
8
annotation
62
1
39
211
10
311.479693
20
679.123884
11
310.868987
21
678.894906
0
LINE
8
annotation
62
1
39
211
10
310.868987
20
678.894906
11
310.308585
21
678.586386
0
LINE
8
annotation
62
1
39
211
10
310.308585
20
678.586386
11
309.804238
21
678.206053
0
LINE
8
annotation
62
1
39
211
10
309.804238
20
678.206053
11
309.361700
21
677.761637
0
LINE
8
annotation
62
1
39
211
10
309.361700
20
677.761637
11
308.986723
21
677.260868
0
LINE
8
annotation
62
1
39
211
10
308.986723
20
677.260868
11
308.685061
21
676.711476
0
LINE
8
annotation
62
1
39
211
10
308.685061
20
676.711476
11
308.462465
21
676.121190
0
LINE
8
annotation
62
1
39
211
10
308.462465
20
676.121190
11
308.324689
21
675.497740
0
LINE
8
annotation
62
1
39
211
10
308.324689
20
675.497740
11
308.277485
21
674.848856
0
LINE
8
annotation
62
1
39
211
10
308.277485
20
674.848856
11
308.277485
21
671.658087
0
LINE
8
annotation
62
1
39
211
10
308.277485
20
671.658087
11
308.277485
21
671.658087
0
LINE
8
annotation
62
1
39
211
10
308.277485
20
671.658087
11
308.311904
21
671.274596
0
LINE
8
annotation
62
1
39
211
10
308.311904
20
671.274596
11
308.411108
21
670.913601
0
LINE
8
annotation
62
1
39
211
10
308.411108
20
670.913601
11
308.569025
21
670.581141
0
LINE
8
annotation
62
1
39
211
10
308.569025
20
670.581141
11
308.779578
21
670.283258
0
LINE
8
annotation
62
1
39
211
10
308.779578
20
670.283258
11
309.036694
21
670.025990
0
LINE
8
annotation
62
1
39
211
10
309.036694
20
670.025990
11
309.334297
21
669.815379
0
LINE
8
annotation
62
1
39
211
10
309.334297
20
669.815379
11
309.666312
21
669.657464
0
LINE
8
annotation
62
1
39
211
10
309.666312
20
669.657464
11
310.026665
21
669.558286
0
LINE
8
annotation
62
1
39
211
10
310.026665
20
669.558286
11
310.409280
21
669.523884
0
LINE
8
annotation
62
1
39
211
10
310.409280
20
669.523884
11
310.409280
21
669.523884
0
LINE
8
annotation
62
1
39
211
10
310.409280
20
669.523884
11
310.792689
21
669.558286
0
LINE
8
annotation
62
1
39
211
10
310.792689
20
669.558286
11
311.153463
21
669.657464
0
LINE
8
annotation
62
1
39
211
10
311.153463
20
669.657464
11
311.485602
21
669.815379
0
LINE
8
annotation
62
1
39
211
10
311.485602
20
669.815379
11
311.783105
21
670.025990
0
LINE
8
annotation
62
1
39
211
10
311.783105
20
670.025990
11
312.039973
21
670.283258
0
LINE
8
annotation
62
1
39
211
10
312.039973
20
670.283258
11
312.250204
21
670.581141
0
LINE
8
annotation
62
1
39
211
10
312.250204
20
670.581141
11
312.407799
21
670.913601
0
LINE
8
annotation
62
1
39
211
10
312.407799
20
670.913601
11
312.506756
21
671.274596
0
LINE
8
annotation
62
1
39
211
10
312.506756
20
671.274596
11
312.541075
21
671.658087
0
LINE
8
annotation
62
1
39
211
10
312.541075
20
671.658087
11
312.541075
21
672.720071
0
LINE
8
annotation
62
1
39
211
10
312.541075
20
672.720071
11
312.541075
21
672.720071
0
LINE
8
annotation
62
1
39
211
10
312.541075
20
672.720071
11
312.506756
21
673.103376
0
LINE
8
annotation
62
1
39
211
10
312.506756
20
673.103376
11
312.407799
21
673.463874
0
LINE
8
annotation
62
1
39
211
10
312.407799
20
673.463874
11
312.250204
21
673.795612
0
LINE
8
annotation
62
1
39
211
10
312.250204
20
673.795612
11
312.039973
21
674.092641
0
LINE
8
annotation
62
1
39
211
10
312.039973
20
674.092641
11
311.783105
21
674.349009
0
LINE
8
annotation
62
1
39
211
10
311.783105
20
674.349009
11
311.485602
21
674.558766
0
LINE
8
annotation
62
1
39
211
10
311.485602
20
674.558766
11
311.153463
21
674.715960
0
LINE
8
annotation
62
1
39
211
10
311.153463
20
674.715960
11
310.792689
21
674.814640
0
LINE
8
annotation
62
1
39
211
10
310.792689
20
674.814640
11
310.409280
21
674.848856
0
LINE
8
annotation
62
1
39
211
10
310.409280
20
674.848856
11
308.277485
21
674.848856
0
LINE
8
annotation
62
1
39
211
10
308.010484
20
668.323884
11
312.810484
21
668.323884
0
LINE
8
annotation
62
1
39
211
10
293.796966
20
696.746105
11
295.931169
21
706.346105
0
LINE
8
annotation
62
1
39
211
10
295.931169
20
706.346105
11
291.662161
21
706.346105
0
LINE
8
annotation
62
1
39
211
10
295.931169
20
702.071077
11
293.796966
21
702.071077
0
LINE
8
annotation
62
1
39
211
10
264.340091
20
726.181903
11
264.340091
21
726.181903
0
LINE
8
annotation
62
1
39
211
10
264.340091
20
726.181903
11
264.373413
21
725.810807
0
LINE
8
annotation
62
1
39
211
10
264.373413
20
725.810807
11
264.469458
21
725.461792
0
LINE
8
annotation
62
1
39
211
10
264.469458
20
725.461792
11
264.622345
21
725.140619
0
LINE
8
annotation
62
1
39
211
10
264.622345
20
725.140619
11
264.826192
21
724.853052
0
LINE
8
annotation
62
1
39
211
10
264.826192
20
724.853052
11
265.075117
21
724.604849
0
LINE
8
annotation
62
1
39
211
10
265.075117
20
724.604849
11
265.363241
21
724.401774
0
LINE
8
annotation
62
1
39
211
10
265.363241
20
724.401774
11
265.684681
21
724.249587
0
LINE
8
annotation
62
1
39
211
10
265.684681
20
724.249587
11
266.033556
21
724.154050
0
LINE
8
annotation
62
1
39
211
10
266.033556
20
724.154050
11
266.403985
21
724.120923
0
LINE
8
annotation
62
1
39
211
10
266.403985
20
724.120923
11
266.403985
21
724.120923
0
LINE
8
annotation
62
1
39
211
10
266.403985
20
724.120923
11
266.774413
21
724.154050
0
LINE
8
annotation
62
1
39
211
10
266.774413
20
724.154050
11
267.123288
21
724.249587
0
LINE
8
annotation
62
1
39
211
10
267.123288
20
724.249587
11
267.444728
21
724.401774
0
LINE
8
annotation
62
1
39
211
10
267.444728
20
724.401774
11
267.732852
21
724.604849
0
LINE
8
annotation
62
1
39
211
10
267.732852
20
724.604849
11
267.981778
21
724.853052
0
LINE
8
annotation
62
1
39
211
10
267.981778
20
724.853052
11
268.185625
21
725.140619
0
LINE
8
annotation
62
1
39
211
10
268.185625
20
725.140619
11
268.338511
21
725.461792
0
LINE
8
annotation
62
1
39
211
10
268.338511
20
725.461792
11
268.434556
21
725.810807
0
LINE
8
annotation
62
1
39
211
10
268.434556
20
725.810807
11
268.467878
21
726.181903
0
LINE
8
annotation
62
1
39
211
10
268.467878
20
726.181903
11
268.467878
21
727.210061
0
LINE
8
annotation
62
1
39
211
10
268.467878
20
727.210061
11
268.467878
21
727.210061
0
LINE
8
annotation
62
1
39
211
10
268.467878
20
727.210061
11
268.434575
21
727.581337
0
LINE
8
annotation
62
1
39
211
10
268.434575
20
727.581337
11
268.338579
21
727.930834
0
LINE
8
annotation
62
1
39
211
10
268.338579
20
727.930834
11
268.185754
21
728.252704
0
LINE
8
annotation
62
1
39
211
10
268.185754
20
728.252704
11
267.981970
21
728.541100
0
LINE
8
annotation
62
1
39
211
10
267.981970
20
728.541100
11
267.733092
21
728.790173
0
LINE
8
annotation
62
1
39
211
10
267.733092
20
728.790173
11
267.444987
21
728.994076
0
LINE
8
annotation
62
1
39
211
10
267.444987
20
728.994076
11
267.123523
21
729.146961
0
LINE
8
annotation
62
1
39
211
10
267.123523
20
729.146961
11
266.774567
21
729.242980
0
LINE
8
annotation
62
1
39
211
10
266.774567
20
729.242980
11
266.403985
21
729.276286
0
LINE
8
annotation
62
1
39
211
10
266.403985
20
729.276286
11
266.403985
21
729.276286
0
LINE
8
annotation
62
1
39
211
10
266.403985
20
729.276286
11
266.033403
21
729.242961
0
LINE
8
annotation
62
1
39
211
10
266.033403
20
729.242961
11
265.684446
21
729.146894
0
LINE
8
annotation
62
1
39
211
10
265.684446
20
729.146894
11
265.362982
21
728.993946
0
LINE
8
annotation
62
1
39
211
10
265.362982
20
728.993946
11
265.074878
21
728.789981
0
LINE
8
annotation
62
1
39
211
10
265.074878
20
728.789981
11
264.826000
21
728.540860
0
LINE
8
annotation
62
1
39
211
10
264.826000
20
728.540860
11
264.622215
21
728.252445
0
LINE
8
annotation
62
1
39
211
10
264.622215
20
728.252445
11
264.469391
21
727.930599
0
LINE
8
annotation
62
1
39
211
10
264.469391
20
727.930599
11
264.373394
21
727.581184
0
LINE
8
annotation
62
1
39
211
10
264.373394
20
727.581184
11
264.340091
21
727.210061
0
LINE
8
annotation
62
1
39
211
10
264.340091
20
727.210061
11
264.340091
21
726.181903
0
LINE
8
annotation
62
1
39
211
10
268.467878
20
731.343094
11
268.467878
21
731.343094
0
LINE
8
annotation
62
1
39
211
10
268.467878
20
731.343094
11
268.434575
21
731.712655
0
LINE
8
annotation
62
1
39
211
10
268.434575
20
731.712655
11
268.338579
21
732.060854
0
LINE
8
annotation
62
1
39
211
10
268.338579
20
732.060854
11
268.185754
21
732.381787
0
LINE
8
annotation
62
1
39
211
10
268.185754
20
732.381787
11
267.981970
21
732.669546
0
LINE
8
annotation
62
1
39
211
10
267.981970
20
732.669546
11
267.733092
21
732.918229
0
LINE
8
annotation
62
1
39
211
10
267.733092
20
732.918229
11
267.444987
21
733.121928
0
LINE
8
annotation
62
1
39
211
10
267.444987
20
733.121928
11
267.123523
21
733.274738
0
LINE
8
annotation
62
1
39
211
10
267.123523
20
733.274738
11
266.774567
21
733.370755
0
LINE
8
annotation
62
1
39
211
10
266.774567
20
733.370755
11
266.403985
21
733.404073
0
LINE
8
annotation
62
1
39
211
10
266.403985
20
733.404073
11
266.403985
21
733.404073
0
LINE
8
annotation
62
1
39
211
10
266.403985
20
733.404073
11
266.033403
21
733.370755
0
LINE
8
annotation
62
1
39
211
10
266.033403
20
733.370755
11
265.684446
21
733.274738
0
LINE
8
annotation
62
1
39
211
10
265.684446
20
733.274738
11
265.362982
21
733.121928
0
LINE
8
annotation
62
1
39
211
10
265.362982
20
733.121928
11
265.074878
21
732.918229
0
LINE
8
annotation
62
1
39
211
10
265.074878
20
732.918229
11
264.826000
21
732.669546
0
LINE
8
annotation
62
1
39
211
10
264.826000
20
732.669546
11
264.622215
21
732.381787
0
LINE
8
annotation
62
1
39
211
10
264.622215
20
732.381787
11
264.469391
21
732.060854
0
LINE
8
annotation
62
1
39
211
10
264.469391
20
732.060854
11
264.373394
21
731.712655
0
LINE
8
annotation
62
1
39
211
10
264.373394
20
731.712655
11
264.340091
21
731.343094
0
LINE
8
annotation
62
1
39
211
10
264.340091
20
731.343094
11
264.340091
21
731.343094
0
LINE
8
annotation
62
1
39
211
10
264.340091
20
731.343094
11
264.373413
21
730.971798
0
LINE
8
annotation
62
1
39
211
10
264.373413
20
730.971798
11
264.469458
21
730.622247
0
LINE
8
annotation
62
1
39
211
10
264.469458
20
730.622247
11
264.622345
21
730.300299
0
LINE
8
annotation
62
1
39
211
10
264.622345
20
730.300299
11
264.826192
21
730.011812
0
LINE
8
annotation
62
1
39
211
10
264.826192
20
730.011812
11
265.075117
21
729.762642
0
LINE
8
annotation
62
1
39
211
10
265.075117
20
729.762642
11
265.363241
21
729.558647
0
LINE
8
annotation
62
1
39
211
10
265.363241
20
729.558647
11
265.684681
21
729.405685
0
LINE
8
annotation
62
1
39
211
10
265.684681
20
729.405685
11
266.033556
21
729.309612
0
LINE
8
annotation
62
1
39
211
10
266.033556
20
729.309612
11
266.403985
21
729.276286
0
LINE
8
annotation
62
1
39
211
10
266.403985
20
729.276286
11
266.403985
21
729.276286
0
LINE
8
annotation
62
1
39
211
10
266.403985
20
729.276286
11
266.774413
21
729.309612
0
LINE
8
annotation
62
1
39
211
10
266.774413
20
729.309612
11
267.123288
21
729.405685
0
LINE
8
annotation
62
1
39
211
10
267.123288
20
729.405685
11
267.444728
21
729.558647
0
LINE
8
annotation
62
1
39
211
10
267.444728
20
729.558647
11
267.732852
21
729.762642
0
LINE
8
annotation
62
1
39
211
10
267.732852
20
729.762642
11
267.981778
21
730.011812
0
LINE
8
annotation
62
1
39
211
10
267.981778
20
730.011812
11
268.185625
21
730.300299
0
LINE
8
annotation
62
1
39
211
10
268.185625
20
730.300299
11
268.338511
21
730.622247
0
LINE
8
annotation
62
1
39
211
10
268.338511
20
730.622247
11
268.434556
21
730.971798
0
LINE
8
annotation
62
1
39
211
10
268.434556
20
730.971798
11
268.467878
21
731.343094
0
LINE
8
annotation
62
1
39
211
10
379.332620
20
601.782259
11
373.455784
21
593.281954
0
LINE
8
annotation
62
1
39
211
10
373.455784
20
593.281954
11
367.577842
21
601.782259
0
LINE
8
annotation
62
1
39
211
10
373.455784
20
593.966001
11
373.455784
21
584.159487
0
LINE
8
annotation
62
1
39
211
10
395.578181
20
592.970873
11
385.942955
21
592.970873
0
LINE
8
annotation
62
1
39
211
10
404.138437
20
584.160039
11
404.138437
21
584.160039
0
LINE
8
annotation
62
1
39
211
10
404.138437
20
584.160039
11
405.257469
21
584.577046
0
LINE
8
annotation
62
1
39
211
10
405.257469
20
584.577046
11
406.284601
21
585.140705
0
LINE
8
annotation
62
1
39
211
10
406.284601
20
585.140705
11
407.209220
21
585.836656
0
LINE
8
annotation
62
1
39
211
10
407.209220
20
585.836656
11
408.020711
21
586.650538
0
LINE
8
annotation
62
1
39
211
10
408.020711
20
586.650538
11
408.708459
21
587.567988
0
LINE
8
annotation
62
1
39
211
10
408.708459
20
587.567988
11
409.261852
21
588.574645
0
LINE
8
annotation
62
1
39
211
10
409.261852
20
588.574645
11
409.670273
21
589.656148
0
LINE
8
annotation
62
1
39
211
10
409.670273
20
589.656148
11
409.923110
21
590.798134
0
LINE
8
annotation
62
1
39
211
10
409.923110
20
590.798134
11
410.009748
21
591.986243
0
LINE
8
annotation
62
1
39
211
10
410.009748
20
591.986243
11
410.009748
21
597.863080
0
LINE
8
annotation
62
1
39
211
10
410.009748
20
597.863080
11
410.009748
21
597.863080
0
LINE
8
annotation
62
1
39
211
10
410.009748
20
597.863080
11
409.946752
21
598.567050
0
LINE
8
annotation
62
1
39
211
10
409.946752
20
598.567050
11
409.765108
21
599.229791
0
LINE
8
annotation
62
1
39
211
10
409.765108
20
599.229791
11
409.475829
21
599.840197
0
LINE
8
annotation
62
1
39
211
10
409.475829
20
599.840197
11
409.089930
21
600.387164
0
LINE
8
annotation
62
1
39
211
10
409.089930
20
600.387164
11
408.618426
21
600.859585
0
LINE
8
annotation
62
1
39
211
10
408.618426
20
600.859585
11
408.072331
21
601.246355
0
LINE
8
annotation
62
1
39
211
10
408.072331
20
601.246355
11
407.462660
21
601.536369
0
LINE
8
annotation
62
1
39
211
10
407.462660
20
601.536369
11
406.800427
21
601.718522
0
LINE
8
annotation
62
1
39
211
10
406.800427
20
601.718522
11
406.096646
21
601.781707
0
LINE
8
annotation
62
1
39
211
10
406.096646
20
601.781707
11
406.096646
21
601.781707
0
LINE
8
annotation
62
1
39
211
10
406.096646
20
601.781707
11
405.394320
21
601.718522
0
LINE
8
annotation
62
1
39
211
10
405.394320
20
601.718522
11
404.732860
21
601.536369
0
LINE
8
annotation
62
1
39
211
10
404.732860
20
601.536369
11
404.123416
21
601.246355
0
LINE
8
annotation
62
1
39
211
10
404.123416
20
601.246355
11
403.577140
21
600.859585
0
LINE
8
annotation
62
1
39
211
10
403.577140
20
600.859585
11
403.105181
21
600.387164
0
LINE
8
annotation
62
1
39
211
10
403.105181
20
600.387164
11
402.718691
21
599.840197
0
LINE
8
annotation
62
1
39
211
10
402.718691
20
599.840197
11
402.428821
21
599.229791
0
LINE
8
annotation
62
1
39
211
10
402.428821
20
599.229791
11
402.246722
21
598.567050
0
LINE
8
annotation
62
1
39
211
10
402.246722
20
598.567050
11
402.183544
21
597.863080
0
LINE
8
annotation
62
1
39
211
10
402.183544
20
597.863080
11
402.183544
21
595.903766
0
LINE
8
annotation
62
1
39
211
10
402.183544
20
595.903766
11
402.183544
21
595.903766
0
LINE
8
annotation
62
1
39
211
10
402.183544
20
595.903766
11
402.246722
21
595.199833
0
LINE
8
annotation
62
1
39
211
10
402.246722
20
595.199833
11
402.428821
21
594.537194
0
LINE
8
annotation
62
1
39
211
10
402.428821
20
594.537194
11
402.718691
21
593.926934
0
LINE
8
annotation
62
1
39
211
10
402.718691
20
593.926934
11
403.105181
21
593.380142
0
LINE
8
annotation
62
1
39
211
10
403.105181
20
593.380142
11
403.577140
21
592.907905
0
LINE
8
annotation
62
1
39
211
10
403.577140
20
592.907905
11
404.123416
21
592.521309
0
LINE
8
annotation
62
1
39
211
10
404.123416
20
592.521309
11
404.732860
21
592.231442
0
LINE
8
annotation
62
1
39
211
10
404.732860
20
592.231442
11
405.394320
21
592.049391
0
LINE
8
annotation
62
1
39
211
10
405.394320
20
592.049391
11
406.096646
21
591.986243
0
LINE
8
annotation
62
1
39
211
10
406.096646
20
591.986243
11
410.009748
21
591.986243
0
LINE
8
annotation
62
1
39
211
10
401.694544
20
581.957331
11
410.505378
21
581.957331
0
LINE
8
frame
62
5
39
2
10
0.000000
20
0.000000
11
457.000000
21
0.000000
0
LINE
8
frame
62
5
39
2
10
457.000000
20
0.000000
11
457.000000
21
812.000000
0
LINE
8
frame
62
5
39
2
10
457.000000
20
812.000000
11
0.000000
21
812.000000
0
LINE
8
frame
62
5
39
2
10
0.000000
20
812.000000
11
0.000000
21
0.000000
0
ENDSEC
0
EOF
