0
SECTION
2
HEADER
9
$ACADVER
1
AC1009
0
ENDSEC
0
SECTION
2
TABLES
0
TABLE
2
VPORT
70
1
0
VPORT
2
ACTIVE
70
0
10
0.0
20
0.0
11
0.0
21
0.0
12
0.0
22
0.0
13
0.0
23
0.0
14
0.0
24
0.0
15
0.0
25
0.0
16
0.0
26
0.0
36
0.0
17
0.0
27
0.0
37
0.0
40
0.0
41
0.0
42
0.0
43
0.0
44
0.0
50
0.0
51
0.0
71
0
72
1000
73
1
74
3
75
0
76
0
77
0
78
0
0
ENDTAB
0
ENDSEC
0
SECTION
2
ENTITIES
0
LINE
8
boundary
62
5
39
2
10
43.210959
20
84.439834
11
44.918044
21
82.090232
0
LINE
8
boundary
62
5
39
2
10
44.918044
20
82.090232
11
47.613172
21
78.812468
0
LINE
8
boundary
62
5
39
2
10
47.613172
20
78.812468
11
52.798921
21
72.505648
0
LINE
8
boundary
62
5
39
2
10
52.798921
20
72.505648
11
55.685243
21
69.394927
0
LINE
8
boundary
62
5
39
2
10
55.685243
20
69.394927
11
61.238879
21
63.409529
0
LINE
8
boundary
62
5
39
2
10
61.238879
20
63.409529
11
64.306067
21
60.476996
0
LINE
8
boundary
62
5
39
2
10
64.306067
20
60.476996
11
70.207731
21
54.834429
0
LINE
8
boundary
62
5
39
2
10
70.207731
20
54.834429
11
73.444815
21
52.090574
0
LINE
8
boundary
62
5
39
2
10
73.444815
20
52.090574
11
79.673346
21
46.811057
0
LINE
8
boundary
62
5
39
2
10
79.673346
20
46.811057
11
83.068727
21
44.265701
0
LINE
8
boundary
62
5
39
2
10
83.068727
20
44.265701
11
89.601848
21
39.368136
0
LINE
8
boundary
62
5
39
2
10
89.601848
20
39.368136
11
93.143375
21
37.030394
0
LINE
8
boundary
62
5
39
2
10
93.143375
20
37.030394
11
99.957696
21
32.532298
0
LINE
8
boundary
62
5
39
2
10
99.957696
20
32.532298
11
103.632690
21
30.410540
0
LINE
8
boundary
62
5
39
2
10
103.632690
20
30.410540
11
110.703832
21
26.328020
0
LINE
8
boundary
62
5
39
2
10
110.703832
20
26.328020
11
114.499137
21
24.429839
0
LINE
8
boundary
62
5
39
2
10
114.499137
20
24.429839
11
121.801763
21
20.777513
0
LINE
8
boundary
62
5
39
2
10
121.801763
20
20.777513
11
125.703796
21
19.109708
0
LINE
8
boundary
62
5
39
2
10
125.703796
20
19.109708
11
133.211776
21
15.900637
0
LINE
8
boundary
62
5
39
2
10
133.211776
20
15.900637
11
137.206564
21
14.469170
0
LINE
8
boundary
62
5
39
2
10
137.206564
20
14.469170
11
141.785057
21
12.828541
0
LINE
8
boundary
62
5
39
2
10
141.785057
20
12.828541
11
172.657359
21
106.872896
0
LINE
8
boundary
62
5
39
2
10
172.657359
20
106.872896
11
178.363699
21
105.018794
0
LINE
8
boundary
62
5
39
2
10
178.363699
20
105.018794
11
147.869418
21
11.167048
0
LINE
8
boundary
62
5
39
2
10
147.869418
20
11.167048
11
148.966271
21
10.524852
0
LINE
8
boundary
62
5
39
2
10
148.966271
20
10.524852
11
156.803693
21
8.235154
0
LINE
8
boundary
62
5
39
2
10
156.803693
20
8.235154
11
160.940817
21
7.290884
0
LINE
8
boundary
62
5
39
2
10
160.940817
20
7.290884
11
168.901146
21
5.474000
0
LINE
8
boundary
62
5
39
2
10
168.901146
20
5.474000
11
173.087336
21
4.778837
0
LINE
8
boundary
62
5
39
2
10
173.087336
20
4.778837
11
181.142070
21
3.441256
0
LINE
8
boundary
62
5
39
2
10
181.142070
20
3.441256
11
185.362340
21
2.997684
0
LINE
8
boundary
62
5
39
2
10
185.362340
20
2.997684
11
193.482653
21
2.144210
0
LINE
8
boundary
62
5
39
2
10
193.482653
20
2.144210
11
197.721897
21
1.953825
0
LINE
8
boundary
62
5
39
2
10
197.721897
20
1.953825
11
205.878717
21
1.587500
0
LINE
8
boundary
62
5
39
2
10
205.878717
20
1.587500
11
210.121759
21
1.650980
0
LINE
8
boundary
62
5
39
2
10
210.121759
20
1.650980
11
218.285887
21
1.773126
0
LINE
8
boundary
62
5
39
2
10
218.285887
20
1.773126
11
222.517538
21
2.090246
0
LINE
8
boundary
62
5
39
2
10
222.517538
20
2.090246
11
230.659748
21
2.700421
0
LINE
8
boundary
62
5
39
2
10
230.659748
20
2.700421
11
234.864860
21
3.270043
0
LINE
8
boundary
62
5
39
2
10
234.864860
20
3.270043
11
242.956007
21
4.366058
0
LINE
8
boundary
62
5
39
2
10
242.956007
20
4.366058
11
247.119528
21
5.186143
0
LINE
8
boundary
62
5
39
2
10
247.119528
20
5.186143
11
255.130646
21
6.764077
0
LINE
8
boundary
62
5
39
2
10
255.130646
20
6.764077
11
259.237666
21
7.831686
0
LINE
8
boundary
62
5
39
2
10
259.237666
20
7.831686
11
267.140079
21
9.885906
0
LINE
8
boundary
62
5
39
2
10
267.140079
20
9.885906
11
269.902215
21
10.783377
0
LINE
8
boundary
62
5
39
2
10
269.902215
20
10.783377
11
239.584368
21
105.062935
0
LINE
8
boundary
62
5
39
2
10
239.584368
20
105.062935
11
245.290707
21
106.917037
0
LINE
8
boundary
62
5
39
2
10
245.290707
20
106.917037
11
275.801165
21
13.015503
0
LINE
8
boundary
62
5
39
2
10
275.801165
20
13.015503
11
278.941322
21
13.720365
0
LINE
8
boundary
62
5
39
2
10
278.941322
20
13.720365
11
282.891502
21
15.270702
0
LINE
8
boundary
62
5
39
2
10
282.891502
20
15.270702
11
290.492123
21
18.253725
0
LINE
8
boundary
62
5
39
2
10
290.492123
20
18.253725
11
294.342513
21
20.037517
0
LINE
8
boundary
62
5
39
2
10
294.342513
20
20.037517
11
301.751134
21
23.469755
0
LINE
8
boundary
62
5
39
2
10
301.751134
20
23.469755
11
305.487955
21
25.480627
0
LINE
8
boundary
62
5
39
2
10
305.487955
20
25.480627
11
312.678057
21
29.349779
0
LINE
8
boundary
62
5
39
2
10
312.678057
20
29.349779
11
316.287935
21
31.580526
0
LINE
8
boundary
62
5
39
2
10
316.287935
20
31.580526
11
323.233765
21
35.872760
0
LINE
8
boundary
62
5
39
2
10
323.233765
20
35.872760
11
326.703773
21
38.315394
0
LINE
8
boundary
62
5
39
2
10
326.703773
20
38.315394
11
333.380495
21
43.015327
0
LINE
8
boundary
62
5
39
2
10
333.380495
20
43.015327
11
336.698207
21
45.661122
0
LINE
8
boundary
62
5
39
2
10
336.698207
20
45.661122
11
343.081892
21
50.751939
0
LINE
8
boundary
62
5
39
2
10
343.081892
20
50.751939
11
346.235441
21
53.591409
0
LINE
8
boundary
62
5
39
2
10
346.235441
20
53.591409
11
352.303248
21
59.054892
0
LINE
8
boundary
62
5
39
2
10
352.303248
20
59.054892
11
355.281338
21
62.077873
0
LINE
8
boundary
62
5
39
2
10
355.281338
20
62.077873
11
361.011551
21
67.894450
0
LINE
8
boundary
62
5
39
2
10
361.011551
20
67.894450
11
363.803521
21
71.090115
0
LINE
8
boundary
62
5
39
2
10
363.803521
20
71.090115
11
369.175616
21
77.238976
0
LINE
8
boundary
62
5
39
2
10
369.175616
20
77.238976
11
371.771483
21
80.595905
0
LINE
8
boundary
62
5
39
2
10
371.771483
20
80.595905
11
374.746642
21
84.443328
0
LINE
8
boundary
62
5
39
2
10
374.746642
20
84.443328
11
294.845212
21
142.865935
0
LINE
8
boundary
62
5
39
2
10
294.845212
20
142.865935
11
298.371924
21
147.720037
0
LINE
8
boundary
62
5
39
2
10
298.371924
20
147.720037
11
378.206987
21
89.716467
0
LINE
8
boundary
62
5
39
2
10
378.206987
20
89.716467
11
379.156701
21
90.561189
0
LINE
8
boundary
62
5
39
2
10
379.156701
20
90.561189
11
383.756228
21
97.307458
0
LINE
8
boundary
62
5
39
2
10
383.756228
20
97.307458
11
385.932724
21
100.950304
0
LINE
8
boundary
62
5
39
2
10
385.932724
20
100.950304
11
390.120573
21
107.959570
0
LINE
8
boundary
62
5
39
2
10
390.120573
20
107.959570
11
392.075313
21
111.726054
0
LINE
8
boundary
62
5
39
2
10
392.075313
20
111.726054
11
395.836472
21
118.973235
0
LINE
8
boundary
62
5
39
2
10
395.836472
20
118.973235
11
397.562468
21
122.849882
0
LINE
8
boundary
62
5
39
2
10
397.562468
20
122.849882
11
400.883478
21
130.309023
0
LINE
8
boundary
62
5
39
2
10
400.883478
20
130.309023
11
402.374545
21
134.281948
0
LINE
8
boundary
62
5
39
2
10
402.374545
20
134.281948
11
405.243550
21
141.926345
0
LINE
8
boundary
62
5
39
2
10
405.243550
20
141.926345
11
406.494353
21
145.981336
0
LINE
8
boundary
62
5
39
2
10
406.494353
20
145.981336
11
408.901036
21
153.783626
0
LINE
8
boundary
62
5
39
2
10
408.901036
20
153.783626
11
409.907089
21
157.906162
0
LINE
8
boundary
62
5
39
2
10
409.907089
20
157.906162
11
411.842865
21
165.838417
0
LINE
8
boundary
62
5
39
2
10
411.842865
20
165.838417
11
412.600571
21
170.013738
0
LINE
8
boundary
62
5
39
2
10
412.600571
20
170.013738
11
414.058486
21
178.047565
0
LINE
8
boundary
62
5
39
2
10
414.058486
20
178.047565
11
414.565136
21
182.260727
0
LINE
8
boundary
62
5
39
2
10
414.565136
20
182.260727
11
415.539998
21
190.367365
0
LINE
8
boundary
62
5
39
2
10
415.539998
20
190.367365
11
415.793779
21
194.603286
0
LINE
8
boundary
62
5
39
2
10
415.793779
20
194.603286
11
416.282077
21
202.753713
0
LINE
8
boundary
62
5
39
2
10
416.282077
20
202.753713
11
416.282077
21
205.657992
0
LINE
8
boundary
62
5
39
2
10
416.282077
20
205.657992
11
317.248165
21
205.957992
0
LINE
8
boundary
62
5
39
2
10
317.248165
20
205.957992
11
317.248165
21
211.957992
0
LINE
8
boundary
62
5
39
2
10
317.248165
20
211.957992
11
415.982076
21
211.957992
0
LINE
8
boundary
62
5
39
2
10
415.982076
20
211.957992
11
416.282077
21
215.162271
0
LINE
8
boundary
62
5
39
2
10
416.282077
20
215.162271
11
416.028297
21
219.398193
0
LINE
8
boundary
62
5
39
2
10
416.028297
20
219.398193
11
415.539999
21
227.548619
0
LINE
8
boundary
62
5
39
2
10
415.539999
20
227.548619
11
415.033350
21
231.761782
0
LINE
8
boundary
62
5
39
2
10
415.033350
20
231.761782
11
414.058486
21
239.868419
0
LINE
8
boundary
62
5
39
2
10
414.058486
20
239.868419
11
413.300780
21
244.043741
0
LINE
8
boundary
62
5
39
2
10
413.300780
20
244.043741
11
411.842865
21
252.077567
0
LINE
8
boundary
62
5
39
2
10
411.842865
20
252.077567
11
410.836812
21
256.200103
0
LINE
8
boundary
62
5
39
2
10
410.836812
20
256.200103
11
408.901036
21
264.132357
0
LINE
8
boundary
62
5
39
2
10
408.901036
20
264.132357
11
407.650234
21
268.187348
0
LINE
8
boundary
62
5
39
2
10
407.650234
20
268.187348
11
405.243551
21
275.989638
0
LINE
8
boundary
62
5
39
2
10
405.243551
20
275.989638
11
403.752483
21
279.962564
0
LINE
8
boundary
62
5
39
2
10
403.752483
20
279.962564
11
400.883477
21
287.606961
0
LINE
8
boundary
62
5
39
2
10
400.883477
20
287.606961
11
399.157482
21
291.483609
0
LINE
8
boundary
62
5
39
2
10
399.157482
20
291.483609
11
395.836472
21
298.942749
0
LINE
8
boundary
62
5
39
2
10
395.836472
20
298.942749
11
393.881732
21
302.709232
0
LINE
8
boundary
62
5
39
2
10
393.881732
20
302.709232
11
390.120572
21
309.956413
0
LINE
8
boundary
62
5
39
2
10
390.120572
20
309.956413
11
387.944076
21
313.599259
0
LINE
8
boundary
62
5
39
2
10
387.944076
20
313.599259
11
383.756227
21
320.608526
0
LINE
8
boundary
62
5
39
2
10
383.756227
20
320.608526
11
381.365768
21
324.114679
0
LINE
8
boundary
62
5
39
2
10
381.365768
20
324.114679
11
378.626025
21
328.133145
0
LINE
8
boundary
62
5
39
2
10
378.626025
20
328.133145
11
298.371924
21
270.195947
0
LINE
8
boundary
62
5
39
2
10
298.371924
20
270.195947
11
294.845213
21
275.050049
0
LINE
8
boundary
62
5
39
2
10
294.845213
20
275.050049
11
374.680272
21
333.053616
0
LINE
8
boundary
62
5
39
2
10
374.680272
20
333.053616
11
374.170374
21
334.217875
0
LINE
8
boundary
62
5
39
2
10
374.170374
20
334.217875
11
369.175616
21
340.677007
0
LINE
8
boundary
62
5
39
2
10
369.175616
20
340.677007
11
366.383646
21
343.872673
0
LINE
8
boundary
62
5
39
2
10
366.383646
20
343.872673
11
361.011551
21
350.021534
0
LINE
8
boundary
62
5
39
2
10
361.011551
20
350.021534
11
358.033462
21
353.044515
0
LINE
8
boundary
62
5
39
2
10
358.033462
20
353.044515
11
352.303248
21
358.861092
0
LINE
8
boundary
62
5
39
2
10
352.303248
20
358.861092
11
349.149699
21
361.700562
0
LINE
8
boundary
62
5
39
2
10
349.149699
20
361.700562
11
343.081892
21
367.164045
0
LINE
8
boundary
62
5
39
2
10
343.081892
20
367.164045
11
339.764180
21
369.809839
0
LINE
8
boundary
62
5
39
2
10
339.764180
20
369.809839
11
333.380495
21
374.900656
0
LINE
8
boundary
62
5
39
2
10
333.380495
20
374.900656
11
329.910487
21
377.343291
0
LINE
8
boundary
62
5
39
2
10
329.910487
20
377.343291
11
323.233765
21
382.043225
0
LINE
8
boundary
62
5
39
2
10
323.233765
20
382.043225
11
319.623888
21
384.273972
0
LINE
8
boundary
62
5
39
2
10
319.623888
20
384.273972
11
312.678057
21
388.566206
0
LINE
8
boundary
62
5
39
2
10
312.678057
20
388.566206
11
308.941236
21
390.577078
0
LINE
8
boundary
62
5
39
2
10
308.941236
20
390.577078
11
301.751134
21
394.446229
0
LINE
8
boundary
62
5
39
2
10
301.751134
20
394.446229
11
297.900744
21
396.230020
0
LINE
8
boundary
62
5
39
2
10
297.900744
20
396.230020
11
290.492123
21
399.662258
0
LINE
8
boundary
62
5
39
2
10
290.492123
20
399.662258
11
286.541943
21
401.212595
0
LINE
8
boundary
62
5
39
2
10
286.541943
20
401.212595
11
278.941322
21
404.195618
0
LINE
8
boundary
62
5
39
2
10
278.941322
20
404.195618
11
276.179186
21
405.093089
0
LINE
8
boundary
62
5
39
2
10
276.179186
20
405.093089
11
245.290707
21
310.998945
0
LINE
8
boundary
62
5
39
2
10
245.290707
20
310.998945
11
239.584368
21
312.853047
0
LINE
8
boundary
62
5
39
2
10
239.584368
20
312.853047
11
270.094826
21
406.754582
0
LINE
8
boundary
62
5
39
2
10
270.094826
20
406.754582
11
267.140079
21
408.030078
0
LINE
8
boundary
62
5
39
2
10
267.140079
20
408.030078
11
263.033058
21
409.097687
0
LINE
8
boundary
62
5
39
2
10
263.033058
20
409.097687
11
255.130645
21
411.151907
0
LINE
8
boundary
62
5
39
2
10
255.130645
20
411.151907
11
250.967124
21
411.971992
0
LINE
8
boundary
62
5
39
2
10
250.967124
20
411.971992
11
242.956007
21
413.549926
0
LINE
8
boundary
62
5
39
2
10
242.956007
20
413.549926
11
238.750895
21
414.119547
0
LINE
8
boundary
62
5
39
2
10
238.750895
20
414.119547
11
230.659749
21
415.215563
0
LINE
8
boundary
62
5
39
2
10
230.659749
20
415.215563
11
226.428098
21
415.532683
0
LINE
8
boundary
62
5
39
2
10
226.428098
20
415.532683
11
218.285888
21
416.142858
0
LINE
8
boundary
62
5
39
2
10
218.285888
20
416.142858
11
214.042845
21
416.206338
0
LINE
8
boundary
62
5
39
2
10
214.042845
20
416.206338
11
205.878718
21
416.328483
0
LINE
8
boundary
62
5
39
2
10
205.878718
20
416.328483
11
201.639474
21
416.138099
0
LINE
8
boundary
62
5
39
2
10
201.639474
20
416.138099
11
193.482653
21
415.771773
0
LINE
8
boundary
62
5
39
2
10
193.482653
20
415.771773
11
189.262382
21
415.328201
0
LINE
8
boundary
62
5
39
2
10
189.262382
20
415.328201
11
181.142069
21
414.474728
0
LINE
8
boundary
62
5
39
2
10
181.142069
20
414.474728
11
176.955880
21
413.779565
0
LINE
8
boundary
62
5
39
2
10
176.955880
20
413.779565
11
168.901146
21
412.441984
0
LINE
8
boundary
62
5
39
2
10
168.901146
20
412.441984
11
164.764022
21
411.497713
0
LINE
8
boundary
62
5
39
2
10
164.764022
20
411.497713
11
156.803693
21
409.680829
0
LINE
8
boundary
62
5
39
2
10
156.803693
20
409.680829
11
152.730445
21
408.490830
0
LINE
8
boundary
62
5
39
2
10
152.730445
20
408.490830
11
148.062030
21
407.126956
0
LINE
8
boundary
62
5
39
2
10
148.062030
20
407.126956
11
178.363698
21
312.897190
0
LINE
8
boundary
62
5
39
2
10
178.363698
20
312.897190
11
172.657359
21
311.043088
0
LINE
8
boundary
62
5
39
2
10
172.657359
20
311.043088
11
142.163079
21
404.894832
0
LINE
8
boundary
62
5
39
2
10
142.163079
20
404.894832
11
140.898236
21
404.769665
0
LINE
8
boundary
62
5
39
2
10
140.898236
20
404.769665
11
133.211775
21
402.015347
0
LINE
8
boundary
62
5
39
2
10
133.211775
20
402.015347
11
129.309743
21
400.347542
0
LINE
8
boundary
62
5
39
2
10
129.309743
20
400.347542
11
121.801763
21
397.138470
0
LINE
8
boundary
62
5
39
2
10
121.801763
20
397.138470
11
118.006458
21
395.240290
0
LINE
8
boundary
62
5
39
2
10
118.006458
20
395.240290
11
110.703832
21
391.587964
0
LINE
8
boundary
62
5
39
2
10
110.703832
20
391.587964
11
107.028838
21
389.466205
0
LINE
8
boundary
62
5
39
2
10
107.028838
20
389.466205
11
99.957695
21
385.383685
0
LINE
8
boundary
62
5
39
2
10
99.957695
20
385.383685
11
96.416168
21
383.045944
0
LINE
8
boundary
62
5
39
2
10
96.416168
20
383.045944
11
89.601847
21
378.547849
0
LINE
8
boundary
62
5
39
2
10
89.601847
20
378.547849
11
86.206467
21
376.002492
0
LINE
8
boundary
62
5
39
2
10
86.206467
20
376.002492
11
79.673346
21
371.104927
0
LINE
8
boundary
62
5
39
2
10
79.673346
20
371.104927
11
76.436262
21
368.361071
0
LINE
8
boundary
62
5
39
2
10
76.436262
20
368.361071
11
70.207732
21
363.081554
0
LINE
8
boundary
62
5
39
2
10
70.207732
20
363.081554
11
67.140543
21
360.149021
0
LINE
8
boundary
62
5
39
2
10
67.140543
20
360.149021
11
61.238878
21
354.506454
0
LINE
8
boundary
62
5
39
2
10
61.238878
20
354.506454
11
58.352556
21
351.395733
0
LINE
8
boundary
62
5
39
2
10
58.352556
20
351.395733
11
52.798921
21
345.410336
0
LINE
8
boundary
62
5
39
2
10
52.798921
20
345.410336
11
50.103793
21
342.132572
0
LINE
8
boundary
62
5
39
2
10
50.103793
20
342.132572
11
44.918044
21
335.825752
0
LINE
8
boundary
62
5
39
2
10
44.918044
20
335.825752
11
43.210960
21
333.476148
0
LINE
8
boundary
62
5
39
2
10
43.210960
20
333.476148
11
123.154745
21
275.022769
0
LINE
8
boundary
62
5
39
2
10
123.154745
20
275.022769
11
119.628034
21
270.168666
0
LINE
8
boundary
62
5
39
2
10
119.628034
20
270.168666
11
39.750622
21
328.203004
0
LINE
8
boundary
62
5
39
2
10
39.750622
20
328.203004
11
37.624486
21
325.787018
0
LINE
8
boundary
62
5
39
2
10
37.624486
20
325.787018
11
35.339987
21
322.210922
0
LINE
8
boundary
62
5
39
2
10
35.339987
20
322.210922
11
30.944330
21
315.330078
0
LINE
8
boundary
62
5
39
2
10
30.944330
20
315.330078
11
28.877784
21
311.623754
0
LINE
8
boundary
62
5
39
2
10
28.877784
20
311.623754
11
24.901508
21
304.492334
0
LINE
8
boundary
62
5
39
2
10
24.901508
20
304.492334
11
23.060314
21
300.669057
0
LINE
8
boundary
62
5
39
2
10
23.060314
20
300.669057
11
19.517626
21
293.312609
0
LINE
8
boundary
62
5
39
2
10
19.517626
20
293.312609
11
17.908375
21
289.386065
0
LINE
8
boundary
62
5
39
2
10
17.908375
20
289.386065
11
14.811981
21
281.830917
0
LINE
8
boundary
62
5
39
2
10
14.811981
20
281.830917
11
13.440437
21
277.815161
0
LINE
8
boundary
62
5
39
2
10
13.440437
20
277.815161
11
10.801427
21
270.088359
0
LINE
8
boundary
62
5
39
2
10
10.801427
20
270.088359
11
9.672493
21
265.997764
0
LINE
8
boundary
62
5
39
2
10
9.672493
20
265.997764
11
7.500279
21
258.126971
0
LINE
8
boundary
62
5
39
2
10
7.500279
20
258.126971
11
6.618001
21
253.976187
0
LINE
8
boundary
62
5
39
2
10
6.618001
20
253.976187
11
4.920411
21
245.989569
0
LINE
8
boundary
62
5
39
2
10
4.920411
20
245.989569
11
4.287950
21
241.793448
0
LINE
8
boundary
62
5
39
2
10
4.287950
20
241.793448
11
3.071001
21
233.719602
0
LINE
8
boundary
62
5
39
2
10
3.071001
20
233.719602
11
2.690617
21
229.493169
0
LINE
8
boundary
62
5
39
2
10
2.690617
20
229.493169
11
1.958722
21
221.360997
0
LINE
8
boundary
62
5
39
2
10
1.958722
20
221.360997
11
1.831775
21
217.119380
0
LINE
8
boundary
62
5
39
2
10
1.831775
20
217.119380
11
1.686271
21
212.257992
0
LINE
8
boundary
62
5
39
2
10
1.686271
20
212.257992
11
100.667827
21
211.957992
0
LINE
8
boundary
62
5
39
2
10
100.667827
20
211.957992
11
100.667827
21
205.957992
0
LINE
8
boundary
62
5
39
2
10
100.667827
20
205.957992
11
1.986266
21
205.957992
0
LINE
8
boundary
62
5
39
2
10
1.986266
20
205.957992
11
1.714447
21
204.716374
0
LINE
8
boundary
62
5
39
2
10
1.714447
20
204.716374
11
1.958722
21
196.554986
0
LINE
8
boundary
62
5
39
2
10
1.958722
20
196.554986
11
2.339107
21
192.328553
0
LINE
8
boundary
62
5
39
2
10
2.339107
20
192.328553
11
3.071002
21
184.196382
0
LINE
8
boundary
62
5
39
2
10
3.071002
20
184.196382
11
3.703463
21
180.000260
0
LINE
8
boundary
62
5
39
2
10
3.703463
20
180.000260
11
4.920411
21
171.926415
0
LINE
8
boundary
62
5
39
2
10
4.920411
20
171.926415
11
5.802688
21
167.775631
0
LINE
8
boundary
62
5
39
2
10
5.802688
20
167.775631
11
7.500278
21
159.789013
0
LINE
8
boundary
62
5
39
2
10
7.500278
20
159.789013
11
8.629212
21
155.698418
0
LINE
8
boundary
62
5
39
2
10
8.629212
20
155.698418
11
10.801427
21
147.827625
0
LINE
8
boundary
62
5
39
2
10
10.801427
20
147.827625
11
12.172972
21
143.811871
0
LINE
8
boundary
62
5
39
2
10
12.172972
20
143.811871
11
14.811982
21
136.085068
0
LINE
8
boundary
62
5
39
2
10
14.811982
20
136.085068
11
16.421233
21
132.158522
0
LINE
8
boundary
62
5
39
2
10
16.421233
20
132.158522
11
19.517627
21
124.603375
0
LINE
8
boundary
62
5
39
2
10
19.517627
20
124.603375
11
21.358821
21
120.780098
0
LINE
8
boundary
62
5
39
2
10
21.358821
20
120.780098
11
24.901508
21
113.423650
0
LINE
8
boundary
62
5
39
2
10
24.901508
20
113.423650
11
26.968054
21
109.717325
0
LINE
8
boundary
62
5
39
2
10
26.968054
20
109.717325
11
30.944331
21
102.585905
0
LINE
8
boundary
62
5
39
2
10
30.944331
20
102.585905
11
33.228829
21
99.009809
0
LINE
8
boundary
62
5
39
2
10
33.228829
20
99.009809
11
37.624486
21
92.128966
0
LINE
8
boundary
62
5
39
2
10
37.624486
20
92.128966
11
39.331580
21
89.779348
0
LINE
8
boundary
62
5
39
2
10
39.331580
20
89.779348
11
119.628033
21
147.747317
0
LINE
8
boundary
62
5
39
2
10
119.628033
20
147.747317
11
123.154744
21
142.893215
0
LINE
8
boundary
62
5
39
2
10
123.154744
20
142.893215
11
43.277328
21
84.858875
0
LINE
8
boundary
62
5
39
2
10
43.277328
20
84.858875
11
43.210959
21
84.439834
0
LINE
8
annotation
62
1
39
211
10
306.314364
20
204.157992
11
306.314364
21
213.757992
0
LINE
8
annotation
62
1
39
211
10
306.314364
20
213.757992
11
304.180161
21
211.623187
0
LINE
8
annotation
62
1
39
211
10
291.445463
20
262.938560
11
287.996147
21
260.432485
0
LINE
8
annotation
62
1
39
211
10
287.996147
20
260.432485
11
287.455456
21
267.879295
0
LINE
8
annotation
62
1
39
211
10
287.455456
20
267.879295
11
287.455456
21
267.879295
0
LINE
8
annotation
62
1
39
211
10
287.455456
20
267.879295
11
287.455840
21
267.886778
0
LINE
8
annotation
62
1
39
211
10
287.455840
20
267.886778
11
287.456040
21
267.894187
0
LINE
8
annotation
62
1
39
211
10
287.456040
20
267.894187
11
287.456048
21
267.901581
0
LINE
8
annotation
62
1
39
211
10
287.456048
20
267.901581
11
287.455861
21
267.909016
0
LINE
8
annotation
62
1
39
211
10
287.455861
20
267.909016
11
287.455474
21
267.916551
0
LINE
8
annotation
62
1
39
211
10
287.455474
20
267.916551
11
287.454881
21
267.924242
0
LINE
8
annotation
62
1
39
211
10
287.454881
20
267.924242
11
287.454076
21
267.932148
0
LINE
8
annotation
62
1
39
211
10
287.454076
20
267.932148
11
287.453056
21
267.940325
0
LINE
8
annotation
62
1
39
211
10
287.453056
20
267.940325
11
287.451815
21
267.948832
0
LINE
8
annotation
62
1
39
211
10
287.451815
20
267.948832
11
287.451815
21
267.948832
0
LINE
8
annotation
62
1
39
211
10
287.451815
20
267.948832
11
287.378125
21
268.327008
0
LINE
8
annotation
62
1
39
211
10
287.378125
20
268.327008
11
287.242201
21
268.675763
0
LINE
8
annotation
62
1
39
211
10
287.242201
20
268.675763
11
287.050736
21
268.989849
0
LINE
8
annotation
62
1
39
211
10
287.050736
20
268.989849
11
286.810422
21
269.264017
0
LINE
8
annotation
62
1
39
211
10
286.810422
20
269.264017
11
286.527952
21
269.493016
0
LINE
8
annotation
62
1
39
211
10
286.527952
20
269.493016
11
286.210019
21
269.671598
0
LINE
8
annotation
62
1
39
211
10
286.210019
20
269.671598
11
285.863315
21
269.794513
0
LINE
8
annotation
62
1
39
211
10
285.863315
20
269.794513
11
285.494533
21
269.856511
0
LINE
8
annotation
62
1
39
211
10
285.494533
20
269.856511
11
285.110365
21
269.852343
0
LINE
8
annotation
62
1
39
211
10
285.110365
20
269.852343
11
285.110365
21
269.852343
0
LINE
8
annotation
62
1
39
211
10
285.110365
20
269.852343
11
284.732763
21
269.776212
0
LINE
8
annotation
62
1
39
211
10
284.732763
20
269.776212
11
284.384419
21
269.638777
0
LINE
8
annotation
62
1
39
211
10
284.384419
20
269.638777
11
284.070654
21
269.446507
0
LINE
8
annotation
62
1
39
211
10
284.070654
20
269.446507
11
283.796788
21
269.205871
0
LINE
8
annotation
62
1
39
211
10
283.796788
20
269.205871
11
283.568142
21
268.923336
0
LINE
8
annotation
62
1
39
211
10
283.568142
20
268.923336
11
283.390036
21
268.605372
0
LINE
8
annotation
62
1
39
211
10
283.390036
20
268.605372
11
283.267791
21
268.258447
0
LINE
8
annotation
62
1
39
211
10
283.267791
20
268.258447
11
283.206726
21
267.889029
0
LINE
8
annotation
62
1
39
211
10
283.206726
20
267.889029
11
283.212163
21
267.503588
0
LINE
8
annotation
62
1
39
211
10
283.212163
20
267.503588
11
283.301330
21
266.904588
0
LINE
8
annotation
62
1
39
211
10
242.634985
20
297.001527
11
243.293746
21
299.028984
0
LINE
8
annotation
62
1
39
211
10
243.293746
20
299.028984
11
243.293746
21
299.028984
0
LINE
8
annotation
62
1
39
211
10
243.293746
20
299.028984
11
243.379515
21
299.404256
0
LINE
8
annotation
62
1
39
211
10
243.379515
20
299.404256
11
243.396725
21
299.778004
0
LINE
8
annotation
62
1
39
211
10
243.396725
20
299.778004
11
243.349310
21
300.142642
0
LINE
8
annotation
62
1
39
211
10
243.349310
20
300.142642
11
243.241203
21
300.490582
0
LINE
8
annotation
62
1
39
211
10
243.241203
20
300.490582
11
243.076334
21
300.814238
0
LINE
8
annotation
62
1
39
211
10
243.076334
20
300.814238
11
242.858639
21
301.106022
0
LINE
8
annotation
62
1
39
211
10
242.858639
20
301.106022
11
242.592048
21
301.358347
0
LINE
8
annotation
62
1
39
211
10
242.592048
20
301.358347
11
242.280495
21
301.563626
0
LINE
8
annotation
62
1
39
211
10
242.280495
20
301.563626
11
241.927912
21
301.714272
0
LINE
8
annotation
62
1
39
211
10
241.927912
20
301.714272
11
240.912752
21
302.044118
0
LINE
8
annotation
62
1
39
211
10
240.912752
20
302.044118
11
240.912752
21
302.044118
0
LINE
8
annotation
62
1
39
211
10
240.912752
20
302.044118
11
240.539110
21
302.129436
0
LINE
8
annotation
62
1
39
211
10
240.539110
20
302.129436
11
240.166479
21
302.146462
0
LINE
8
annotation
62
1
39
211
10
240.166479
20
302.146462
11
239.802513
21
302.099017
0
LINE
8
annotation
62
1
39
211
10
239.802513
20
302.099017
11
239.454868
21
301.990923
0
LINE
8
annotation
62
1
39
211
10
239.454868
20
301.990923
11
239.131200
21
301.826003
0
LINE
8
annotation
62
1
39
211
10
239.131200
20
301.826003
11
238.839163
21
301.608077
0
LINE
8
annotation
62
1
39
211
10
238.839163
20
301.608077
11
238.586414
21
301.340969
0
LINE
8
annotation
62
1
39
211
10
238.586414
20
301.340969
11
238.380606
21
301.028500
0
LINE
8
annotation
62
1
39
211
10
238.380606
20
301.028500
11
238.229397
21
300.674491
0
LINE
8
annotation
62
1
39
211
10
238.229397
20
300.674491
11
237.899551
21
299.659331
0
LINE
8
annotation
62
1
39
211
10
237.899551
20
299.659331
11
238.229397
21
300.674491
0
LINE
8
annotation
62
1
39
211
10
238.229397
20
300.674491
11
238.229397
21
300.674491
0
LINE
8
annotation
62
1
39
211
10
238.229397
20
300.674491
11
238.315139
21
301.049771
0
LINE
8
annotation
62
1
39
211
10
238.315139
20
301.049771
11
238.332248
21
301.423553
0
LINE
8
annotation
62
1
39
211
10
238.332248
20
301.423553
11
238.284622
21
301.788259
0
LINE
8
annotation
62
1
39
211
10
238.284622
20
301.788259
11
238.176162
21
302.136313
0
LINE
8
annotation
62
1
39
211
10
238.176162
20
302.136313
11
238.010768
21
302.460140
0
LINE
8
annotation
62
1
39
211
10
238.010768
20
302.460140
11
237.792338
21
302.752162
0
LINE
8
annotation
62
1
39
211
10
237.792338
20
302.752162
11
237.524774
21
303.004804
0
LINE
8
annotation
62
1
39
211
10
237.524774
20
303.004804
11
237.211974
21
303.210488
0
LINE
8
annotation
62
1
39
211
10
237.211974
20
303.210488
11
236.857838
21
303.361639
0
LINE
8
annotation
62
1
39
211
10
236.857838
20
303.361639
11
236.857838
21
303.361639
0
LINE
8
annotation
62
1
39
211
10
236.857838
20
303.361639
11
236.484196
21
303.446958
0
LINE
8
annotation
62
1
39
211
10
236.484196
20
303.446958
11
236.111564
21
303.463984
0
LINE
8
annotation
62
1
39
211
10
236.111564
20
303.463984
11
235.747598
21
303.416539
0
LINE
8
annotation
62
1
39
211
10
235.747598
20
303.416539
11
235.399953
21
303.308445
0
LINE
8
annotation
62
1
39
211
10
235.399953
20
303.308445
11
235.076285
21
303.143524
0
LINE
8
annotation
62
1
39
211
10
235.076285
20
303.143524
11
234.784248
21
302.925599
0
LINE
8
annotation
62
1
39
211
10
234.784248
20
302.925599
11
234.531499
21
302.658491
0
LINE
8
annotation
62
1
39
211
10
234.531499
20
302.658491
11
234.325692
21
302.346021
0
LINE
8
annotation
62
1
39
211
10
234.325692
20
302.346021
11
234.174482
21
301.992013
0
LINE
8
annotation
62
1
39
211
10
234.174482
20
301.992013
11
233.515721
21
299.964555
0
LINE
8
annotation
62
1
39
211
10
180.930838
20
303.914843
11
182.578019
21
298.845341
0
LINE
8
annotation
62
1
39
211
10
182.578019
20
298.845341
11
174.819794
21
298.562877
0
LINE
8
annotation
62
1
39
211
10
183.454331
20
303.054757
11
179.399416
21
301.737236
0
LINE
8
annotation
62
1
39
211
10
135.646595
20
268.171831
11
133.921937
21
269.424868
0
LINE
8
annotation
62
1
39
211
10
133.921937
20
269.424868
11
133.921937
21
269.424868
0
LINE
8
annotation
62
1
39
211
10
133.921937
20
269.424868
11
133.592173
21
269.621933
0
LINE
8
annotation
62
1
39
211
10
133.592173
20
269.621933
11
133.242346
21
269.753506
0
LINE
8
annotation
62
1
39
211
10
133.242346
20
269.753506
11
132.880920
21
269.820903
0
LINE
8
annotation
62
1
39
211
10
132.880920
20
269.820903
11
132.516360
21
269.825442
0
LINE
8
annotation
62
1
39
211
10
132.516360
20
269.825442
11
132.157132
21
269.768437
0
LINE
8
annotation
62
1
39
211
10
132.157132
20
269.768437
11
131.811699
21
269.651204
0
LINE
8
annotation
62
1
39
211
10
131.811699
20
269.651204
11
131.488527
21
269.475060
0
LINE
8
annotation
62
1
39
211
10
131.488527
20
269.475060
11
131.196081
21
269.241320
0
LINE
8
annotation
62
1
39
211
10
131.196081
20
269.241320
11
130.942826
21
268.951299
0
LINE
8
annotation
62
1
39
211
10
130.942826
20
268.951299
11
130.318607
21
268.092136
0
LINE
8
annotation
62
1
39
211
10
130.318607
20
268.092136
11
130.318607
21
268.092136
0
LINE
8
annotation
62
1
39
211
10
130.318607
20
268.092136
11
130.121135
21
267.761817
0
LINE
8
annotation
62
1
39
211
10
130.121135
20
267.761817
11
129.989458
21
267.411886
0
LINE
8
annotation
62
1
39
211
10
129.989458
20
267.411886
11
129.922172
21
267.050721
0
LINE
8
annotation
62
1
39
211
10
129.922172
20
267.050721
11
129.917872
21
266.686697
0
LINE
8
annotation
62
1
39
211
10
129.917872
20
266.686697
11
129.975153
21
266.328192
0
LINE
8
annotation
62
1
39
211
10
129.975153
20
266.328192
11
130.092611
21
265.983580
0
LINE
8
annotation
62
1
39
211
10
130.092611
20
265.983580
11
130.268841
21
265.661240
0
LINE
8
annotation
62
1
39
211
10
130.268841
20
265.661240
11
130.502438
21
265.369546
0
LINE
8
annotation
62
1
39
211
10
130.502438
20
265.369546
11
130.791997
21
265.116876
0
LINE
8
annotation
62
1
39
211
10
130.791997
20
265.116876
11
132.516655
21
263.863838
0
LINE
8
annotation
62
1
39
211
10
132.516655
20
263.863838
11
130.003857
21
260.405268
0
LINE
8
annotation
62
1
39
211
10
130.003857
20
260.405268
11
126.554540
21
262.911343
0
LINE
8
annotation
62
1
39
211
10
111.598618
20
204.157992
11
111.598618
21
204.157992
0
LINE
8
annotation
62
1
39
211
10
111.598618
20
204.157992
11
112.209324
21
204.386970
0
LINE
8
annotation
62
1
39
211
10
112.209324
20
204.386970
11
112.769727
21
204.695490
0
LINE
8
annotation
62
1
39
211
10
112.769727
20
204.695490
11
113.274073
21
205.075823
0
LINE
8
annotation
62
1
39
211
10
113.274073
20
205.075823
11
113.716611
21
205.520239
0
LINE
8
annotation
62
1
39
211
10
113.716611
20
205.520239
11
114.091588
21
206.021008
0
LINE
8
annotation
62
1
39
211
10
114.091588
20
206.021008
11
114.393250
21
206.570400
0
LINE
8
annotation
62
1
39
211
10
114.393250
20
206.570400
11
114.615846
21
207.160686
0
LINE
8
annotation
62
1
39
211
10
114.615846
20
207.160686
11
114.753622
21
207.784136
0
LINE
8
annotation
62
1
39
211
10
114.753622
20
207.784136
11
114.800826
21
208.433020
0
LINE
8
annotation
62
1
39
211
10
114.800826
20
208.433020
11
114.800826
21
211.623789
0
LINE
8
annotation
62
1
39
211
10
114.800826
20
211.623789
11
114.800826
21
211.623789
0
LINE
8
annotation
62
1
39
211
10
114.800826
20
211.623789
11
114.766408
21
212.007280
0
LINE
8
annotation
62
1
39
211
10
114.766408
20
212.007280
11
114.667203
21
212.368275
0
LINE
8
annotation
62
1
39
211
10
114.667203
20
212.368275
11
114.509286
21
212.700735
0
LINE
8
annotation
62
1
39
211
10
114.509286
20
212.700735
11
114.298733
21
212.998618
0
LINE
8
annotation
62
1
39
211
10
114.298733
20
212.998618
11
114.041617
21
213.255886
0
LINE
8
annotation
62
1
39
211
10
114.041617
20
213.255886
11
113.744015
21
213.466497
0
LINE
8
annotation
62
1
39
211
10
113.744015
20
213.466497
11
113.412000
21
213.624412
0
LINE
8
annotation
62
1
39
211
10
113.412000
20
213.624412
11
113.051647
21
213.723590
0
LINE
8
annotation
62
1
39
211
10
113.051647
20
213.723590
11
112.669031
21
213.757992
0
LINE
8
annotation
62
1
39
211
10
112.669031
20
213.757992
11
112.669031
21
213.757992
0
LINE
8
annotation
62
1
39
211
10
112.669031
20
213.757992
11
112.285623
21
213.723590
0
LINE
8
annotation
62
1
39
211
10
112.285623
20
213.723590
11
111.924849
21
213.624412
0
LINE
8
annotation
62
1
39
211
10
111.924849
20
213.624412
11
111.592710
21
213.466497
0
LINE
8
annotation
62
1
39
211
10
111.592710
20
213.466497
11
111.295206
21
213.255886
0
LINE
8
annotation
62
1
39
211
10
111.295206
20
213.255886
11
111.038338
21
212.998618
0
LINE
8
annotation
62
1
39
211
10
111.038338
20
212.998618
11
110.828107
21
212.700735
0
LINE
8
annotation
62
1
39
211
10
110.828107
20
212.700735
11
110.670512
21
212.368275
0
LINE
8
annotation
62
1
39
211
10
110.670512
20
212.368275
11
110.571555
21
212.007280
0
LINE
8
annotation
62
1
39
211
10
110.571555
20
212.007280
11
110.537236
21
211.623789
0
LINE
8
annotation
62
1
39
211
10
110.537236
20
211.623789
11
110.537236
21
210.561805
0
LINE
8
annotation
62
1
39
211
10
110.537236
20
210.561805
11
110.537236
21
210.561805
0
LINE
8
annotation
62
1
39
211
10
110.537236
20
210.561805
11
110.571555
21
210.178500
0
LINE
8
annotation
62
1
39
211
10
110.571555
20
210.178500
11
110.670512
21
209.818002
0
LINE
8
annotation
62
1
39
211
10
110.670512
20
209.818002
11
110.828107
21
209.486264
0
LINE
8
annotation
62
1
39
211
10
110.828107
20
209.486264
11
111.038338
21
209.189235
0
LINE
8
annotation
62
1
39
211
10
111.038338
20
209.189235
11
111.295206
21
208.932867
0
LINE
8
annotation
62
1
39
211
10
111.295206
20
208.932867
11
111.592710
21
208.723110
0
LINE
8
annotation
62
1
39
211
10
111.592710
20
208.723110
11
111.924849
21
208.565916
0
LINE
8
annotation
62
1
39
211
10
111.924849
20
208.565916
11
112.285623
21
208.467236
0
LINE
8
annotation
62
1
39
211
10
112.285623
20
208.467236
11
112.669031
21
208.433020
0
LINE
8
annotation
62
1
39
211
10
112.669031
20
208.433020
11
114.800826
21
208.433020
0
LINE
8
annotation
62
1
39
211
10
115.067827
20
214.957992
11
110.267827
21
214.957992
0
LINE
8
annotation
62
1
39
211
10
128.279198
20
156.257678
11
132.195330
21
147.236662
0
LINE
8
annotation
62
1
39
211
10
132.195330
20
147.236662
11
135.649030
21
149.745922
0
LINE
8
annotation
62
1
39
211
10
129.682531
20
150.695232
11
131.409138
21
151.949685
0
LINE
8
annotation
62
1
39
211
10
177.337103
20
120.212670
11
177.337103
21
120.212670
0
LINE
8
annotation
62
1
39
211
10
177.337103
20
120.212670
11
176.961922
21
120.298384
0
LINE
8
annotation
62
1
39
211
10
176.961922
20
120.298384
11
176.588413
21
120.315434
0
LINE
8
annotation
62
1
39
211
10
176.588413
20
120.315434
11
176.224112
21
120.267760
0
LINE
8
annotation
62
1
39
211
10
176.224112
20
120.267760
11
175.876556
21
120.159298
0
LINE
8
annotation
62
1
39
211
10
175.876556
20
120.159298
11
175.553282
21
119.993989
0
LINE
8
annotation
62
1
39
211
10
175.553282
20
119.993989
11
175.261828
21
119.775770
0
LINE
8
annotation
62
1
39
211
10
175.261828
20
119.775770
11
175.009729
21
119.508581
0
LINE
8
annotation
62
1
39
211
10
175.009729
20
119.508581
11
174.804523
21
119.196359
0
LINE
8
annotation
62
1
39
211
10
174.804523
20
119.196359
11
174.653747
21
118.843043
0
LINE
8
annotation
62
1
39
211
10
174.653747
20
118.843043
11
174.653747
21
118.843043
0
LINE
8
annotation
62
1
39
211
10
174.653747
20
118.843043
11
174.568054
21
118.468581
0
LINE
8
annotation
62
1
39
211
10
174.568054
20
118.468581
11
174.550549
21
118.095371
0
LINE
8
annotation
62
1
39
211
10
174.550549
20
118.095371
11
174.597451
21
117.731030
0
LINE
8
annotation
62
1
39
211
10
174.597451
20
117.731030
11
174.704977
21
117.383175
0
LINE
8
annotation
62
1
39
211
10
174.704977
20
117.383175
11
174.869345
21
117.059421
0
LINE
8
annotation
62
1
39
211
10
174.869345
20
117.059421
11
175.086771
21
116.767386
0
LINE
8
annotation
62
1
39
211
10
175.086771
20
116.767386
11
175.353475
21
116.514686
0
LINE
8
annotation
62
1
39
211
10
175.353475
20
116.514686
11
175.665672
21
116.308937
0
LINE
8
annotation
62
1
39
211
10
175.665672
20
116.308937
11
176.019581
21
116.157755
0
LINE
8
annotation
62
1
39
211
10
176.019581
20
116.157755
11
177.029588
21
115.829584
0
LINE
8
annotation
62
1
39
211
10
177.029588
20
115.829584
11
177.029588
21
115.829584
0
LINE
8
annotation
62
1
39
211
10
177.029588
20
115.829584
11
177.404939
21
115.743794
0
LINE
8
annotation
62
1
39
211
10
177.404939
20
115.743794
11
177.778907
21
115.726542
0
LINE
8
annotation
62
1
39
211
10
177.778907
20
115.726542
11
178.143874
21
115.773933
0
LINE
8
annotation
62
1
39
211
10
178.143874
20
115.773933
11
178.492223
21
115.882069
0
LINE
8
annotation
62
1
39
211
10
178.492223
20
115.882069
11
178.816336
21
116.047053
0
LINE
8
annotation
62
1
39
211
10
178.816336
20
116.047053
11
179.108598
21
116.264989
0
LINE
8
annotation
62
1
39
211
10
179.108598
20
116.264989
11
179.361390
21
116.531979
0
LINE
8
annotation
62
1
39
211
10
179.361390
20
116.531979
11
179.567095
21
116.844127
0
LINE
8
annotation
62
1
39
211
10
179.567095
20
116.844127
11
179.718097
21
117.197536
0
LINE
8
annotation
62
1
39
211
10
179.718097
20
117.197536
11
179.718097
21
117.197536
0
LINE
8
annotation
62
1
39
211
10
179.718097
20
117.197536
11
179.803644
21
117.572213
0
LINE
8
annotation
62
1
39
211
10
179.803644
20
117.572213
11
179.820653
21
117.945672
0
LINE
8
annotation
62
1
39
211
10
179.820653
20
117.945672
11
179.773012
21
118.310279
0
LINE
8
annotation
62
1
39
211
10
179.773012
20
118.310279
11
179.664606
21
118.658400
0
LINE
8
annotation
62
1
39
211
10
179.664606
20
118.658400
11
179.499321
21
118.982399
0
LINE
8
annotation
62
1
39
211
10
179.499321
20
118.982399
11
179.281042
21
119.274643
0
LINE
8
annotation
62
1
39
211
10
179.281042
20
119.274643
11
179.013657
21
119.527498
0
LINE
8
annotation
62
1
39
211
10
179.013657
20
119.527498
11
178.701051
21
119.733328
0
LINE
8
annotation
62
1
39
211
10
178.701051
20
119.733328
11
178.347110
21
119.884499
0
LINE
8
annotation
62
1
39
211
10
178.347110
20
119.884499
11
177.337103
21
120.212670
0
LINE
8
annotation
62
1
39
211
10
181.089656
20
114.510388
11
181.089656
21
114.510388
0
LINE
8
annotation
62
1
39
211
10
181.089656
20
114.510388
11
181.463323
21
114.425145
0
LINE
8
annotation
62
1
39
211
10
181.463323
20
114.425145
11
181.836015
21
114.408308
0
LINE
8
annotation
62
1
39
211
10
181.836015
20
114.408308
11
182.200061
21
114.455998
0
LINE
8
annotation
62
1
39
211
10
182.200061
20
114.455998
11
182.547785
21
114.564336
0
LINE
8
annotation
62
1
39
211
10
182.547785
20
114.564336
11
182.871515
21
114.729445
0
LINE
8
annotation
62
1
39
211
10
182.871515
20
114.729445
11
183.163576
21
114.947446
0
LINE
8
annotation
62
1
39
211
10
183.163576
20
114.947446
11
183.416295
21
115.214460
0
LINE
8
annotation
62
1
39
211
10
183.416295
20
115.214460
11
183.621998
21
115.526609
0
LINE
8
annotation
62
1
39
211
10
183.621998
20
115.526609
11
183.773011
21
115.880015
0
LINE
8
annotation
62
1
39
211
10
183.773011
20
115.880015
11
183.773011
21
115.880015
0
LINE
8
annotation
62
1
39
211
10
183.773011
20
115.880015
11
183.858565
21
116.254689
0
LINE
8
annotation
62
1
39
211
10
183.858565
20
116.254689
11
183.875625
21
116.628132
0
LINE
8
annotation
62
1
39
211
10
183.875625
20
116.628132
11
183.828118
21
116.992696
0
LINE
8
annotation
62
1
39
211
10
183.828118
20
116.992696
11
183.719973
21
117.340731
0
LINE
8
annotation
62
1
39
211
10
183.719973
20
117.340731
11
183.555119
21
117.664591
0
LINE
8
annotation
62
1
39
211
10
183.555119
20
117.664591
11
183.337484
21
117.956626
0
LINE
8
annotation
62
1
39
211
10
183.337484
20
117.956626
11
183.070996
21
118.209188
0
LINE
8
annotation
62
1
39
211
10
183.070996
20
118.209188
11
182.759585
21
118.414630
0
LINE
8
annotation
62
1
39
211
10
182.759585
20
118.414630
11
182.407178
21
118.565303
0
LINE
8
annotation
62
1
39
211
10
182.407178
20
118.565303
11
182.407178
21
118.565303
0
LINE
8
annotation
62
1
39
211
10
182.407178
20
118.565303
11
182.031801
21
118.651081
0
LINE
8
annotation
62
1
39
211
10
182.031801
20
118.651081
11
181.657765
21
118.668302
0
LINE
8
annotation
62
1
39
211
10
181.657765
20
118.668302
11
181.292702
21
118.620875
0
LINE
8
annotation
62
1
39
211
10
181.292702
20
118.620875
11
180.944243
21
118.512707
0
LINE
8
annotation
62
1
39
211
10
180.944243
20
118.512707
11
180.620019
21
118.347707
0
LINE
8
annotation
62
1
39
211
10
180.620019
20
118.347707
11
180.327661
21
118.129781
0
LINE
8
annotation
62
1
39
211
10
180.327661
20
118.129781
11
180.074801
21
117.862839
0
LINE
8
annotation
62
1
39
211
10
180.074801
20
117.862839
11
179.869069
21
117.550788
0
LINE
8
annotation
62
1
39
211
10
179.869069
20
117.550788
11
179.718097
21
117.197536
0
LINE
8
annotation
62
1
39
211
10
179.718097
20
117.197536
11
179.718097
21
117.197536
0
LINE
8
annotation
62
1
39
211
10
179.718097
20
117.197536
11
179.632599
21
116.823010
0
LINE
8
annotation
62
1
39
211
10
179.632599
20
116.823010
11
179.615621
21
116.449629
0
LINE
8
annotation
62
1
39
211
10
179.615621
20
116.449629
11
179.663285
21
116.085041
0
LINE
8
annotation
62
1
39
211
10
179.663285
20
116.085041
11
179.771714
21
115.736892
0
LINE
8
annotation
62
1
39
211
10
179.771714
20
115.736892
11
179.937032
21
115.412830
0
LINE
8
annotation
62
1
39
211
10
179.937032
20
115.412830
11
180.155362
21
115.120501
0
LINE
8
annotation
62
1
39
211
10
180.155362
20
115.120501
11
180.422827
21
114.867553
0
LINE
8
annotation
62
1
39
211
10
180.422827
20
114.867553
11
180.735551
21
114.661633
0
LINE
8
annotation
62
1
39
211
10
180.735551
20
114.661633
11
181.089656
21
114.510388
0
LINE
8
annotation
62
1
39
211
10
233.834045
20
116.935688
11
233.834045
21
116.935688
0
LINE
8
annotation
62
1
39
211
10
233.834045
20
116.935688
11
234.238490
21
116.426097
0
LINE
8
annotation
62
1
39
211
10
234.238490
20
116.426097
11
234.703449
21
115.988809
0
LINE
8
annotation
62
1
39
211
10
234.703449
20
115.988809
11
235.219693
21
115.626907
0
LINE
8
annotation
62
1
39
211
10
235.219693
20
115.626907
11
235.777993
21
115.343472
0
LINE
8
annotation
62
1
39
211
10
235.777993
20
115.343472
11
236.369124
21
115.141586
0
LINE
8
annotation
62
1
39
211
10
236.369124
20
115.141586
11
236.983855
21
115.024331
0
LINE
8
annotation
62
1
39
211
10
236.983855
20
115.024331
11
237.612960
21
114.994787
0
LINE
8
annotation
62
1
39
211
10
237.612960
20
114.994787
11
238.247211
21
115.056038
0
LINE
8
annotation
62
1
39
211
10
238.247211
20
115.056038
11
238.877380
21
115.211164
0
LINE
8
annotation
62
1
39
211
10
238.877380
20
115.211164
11
241.922288
21
116.200515
0
LINE
8
annotation
62
1
39
211
10
241.922288
20
116.200515
11
241.922288
21
116.200515
0
LINE
8
annotation
62
1
39
211
10
241.922288
20
116.200515
11
242.276424
21
116.351666
0
LINE
8
annotation
62
1
39
211
10
242.276424
20
116.351666
11
242.589224
21
116.557350
0
LINE
8
annotation
62
1
39
211
10
242.589224
20
116.557350
11
242.856788
21
116.809992
0
LINE
8
annotation
62
1
39
211
10
242.856788
20
116.809992
11
243.075218
21
117.102014
0
LINE
8
annotation
62
1
39
211
10
243.075218
20
117.102014
11
243.240612
21
117.425841
0
LINE
8
annotation
62
1
39
211
10
243.240612
20
117.425841
11
243.349072
21
117.773896
0
LINE
8
annotation
62
1
39
211
10
243.349072
20
117.773896
11
243.396697
21
118.138602
0
LINE
8
annotation
62
1
39
211
10
243.396697
20
118.138602
11
243.379589
21
118.512383
0
LINE
8
annotation
62
1
39
211
10
243.379589
20
118.512383
11
243.293847
21
118.887663
0
LINE
8
annotation
62
1
39
211
10
243.293847
20
118.887663
11
243.293847
21
118.887663
0
LINE
8
annotation
62
1
39
211
10
243.293847
20
118.887663
11
243.142875
21
119.240915
0
LINE
8
annotation
62
1
39
211
10
243.142875
20
119.240915
11
242.937143
21
119.552966
0
LINE
8
annotation
62
1
39
211
10
242.937143
20
119.552966
11
242.684282
21
119.819908
0
LINE
8
annotation
62
1
39
211
10
242.684282
20
119.819908
11
242.391924
21
120.037834
0
LINE
8
annotation
62
1
39
211
10
242.391924
20
120.037834
11
242.067700
21
120.202834
0
LINE
8
annotation
62
1
39
211
10
242.067700
20
120.202834
11
241.719241
21
120.311002
0
LINE
8
annotation
62
1
39
211
10
241.719241
20
120.311002
11
241.354179
21
120.358429
0
LINE
8
annotation
62
1
39
211
10
241.354179
20
120.358429
11
240.980143
21
120.341208
0
LINE
8
annotation
62
1
39
211
10
240.980143
20
120.341208
11
240.604766
21
120.255430
0
LINE
8
annotation
62
1
39
211
10
240.604766
20
120.255430
11
239.589606
21
119.925584
0
LINE
8
annotation
62
1
39
211
10
239.589606
20
119.925584
11
239.589606
21
119.925584
0
LINE
8
annotation
62
1
39
211
10
239.589606
20
119.925584
11
239.235520
21
119.774345
0
LINE
8
annotation
62
1
39
211
10
239.235520
20
119.774345
11
238.922849
21
119.568442
0
LINE
8
annotation
62
1
39
211
10
238.922849
20
119.568442
11
238.655460
21
119.315519
0
LINE
8
annotation
62
1
39
211
10
238.655460
20
119.315519
11
238.437221
21
119.023220
0
LINE
8
annotation
62
1
39
211
10
238.437221
20
119.023220
11
238.271998
21
118.699188
0
LINE
8
annotation
62
1
39
211
10
238.271998
20
118.699188
11
238.163659
21
118.351069
0
LINE
8
annotation
62
1
39
211
10
238.163659
20
118.351069
11
238.116071
21
117.986505
0
LINE
8
annotation
62
1
39
211
10
238.116071
20
117.986505
11
238.133102
21
117.613142
0
LINE
8
annotation
62
1
39
211
10
238.133102
20
117.613142
11
238.218619
21
117.238622
0
LINE
8
annotation
62
1
39
211
10
238.218619
20
117.238622
11
238.877380
21
115.211164
0
LINE
8
annotation
62
1
39
211
10
232.281354
20
117.831098
11
233.764635
21
113.266026
0
LINE
8
annotation
62
1
39
211
10
281.963191
20
150.225660
11
287.391646
21
157.697287
0
LINE
8
annotation
62
1
39
211
10
287.391646
20
157.697287
11
284.523452
21
157.242595
0
LINE
8
annotation
62
1
39
211
10
286.036562
20
147.416758
11
286.036562
21
147.416758
0
LINE
8
annotation
62
1
39
211
10
286.036562
20
147.416758
11
286.163049
21
147.225679
0
LINE
8
annotation
62
1
39
211
10
286.163049
20
147.225679
11
286.317709
21
147.064037
0
LINE
8
annotation
62
1
39
211
10
286.317709
20
147.064037
11
286.495563
21
146.933440
0
LINE
8
annotation
62
1
39
211
10
286.495563
20
146.933440
11
286.691629
21
146.835501
0
LINE
8
annotation
62
1
39
211
10
286.691629
20
146.835501
11
286.900924
21
146.771828
0
LINE
8
annotation
62
1
39
211
10
286.900924
20
146.771828
11
287.118467
21
146.744032
0
LINE
8
annotation
62
1
39
211
10
287.118467
20
146.744032
11
287.339277
21
146.753722
0
LINE
8
annotation
62
1
39
211
10
287.339277
20
146.753722
11
287.558372
21
146.802510
0
LINE
8
annotation
62
1
39
211
10
287.558372
20
146.802510
11
287.770770
21
146.892004
0
LINE
8
annotation
62
1
39
211
10
287.770770
20
146.892004
11
287.770770
21
146.892004
0
LINE
8
annotation
62
1
39
211
10
287.770770
20
146.892004
11
288.548014
21
147.356570
0
LINE
8
annotation
62
1
39
211
10
288.548014
20
147.356570
11
289.267475
21
147.892909
0
LINE
8
annotation
62
1
39
211
10
289.267475
20
147.892909
11
289.925137
21
148.495493
0
LINE
8
annotation
62
1
39
211
10
289.925137
20
148.495493
11
290.516986
21
149.158798
0
LINE
8
annotation
62
1
39
211
10
290.516986
20
149.158798
11
291.039006
21
149.877297
0
LINE
8
annotation
62
1
39
211
10
291.039006
20
149.877297
11
291.487182
21
150.645464
0
LINE
8
annotation
62
1
39
211
10
291.487182
20
150.645464
11
291.857499
21
151.457771
0
LINE
8
annotation
62
1
39
211
10
291.857499
20
151.457771
11
292.145943
21
152.308694
0
LINE
8
annotation
62
1
39
211
10
292.145943
20
152.308694
11
292.348497
21
153.192705
0
LINE
8
annotation
62
1
39
211
10
292.348497
20
153.192705
11
292.348497
21
153.192705
0
LINE
8
annotation
62
1
39
211
10
292.348497
20
153.192705
11
292.361385
21
153.287410
0
LINE
8
annotation
62
1
39
211
10
292.361385
20
153.287410
11
292.367204
21
153.382677
0
LINE
8
annotation
62
1
39
211
10
292.367204
20
153.382677
11
292.366035
21
153.477960
0
LINE
8
annotation
62
1
39
211
10
292.366035
20
153.477960
11
292.357958
21
153.572712
0
LINE
8
annotation
62
1
39
211
10
292.357958
20
153.572712
11
292.343052
21
153.666386
0
LINE
8
annotation
62
1
39
211
10
292.343052
20
153.666386
11
292.321397
21
153.758435
0
LINE
8
annotation
62
1
39
211
10
292.321397
20
153.758435
11
292.293074
21
153.848312
0
LINE
8
annotation
62
1
39
211
10
292.293074
20
153.848312
11
292.258161
21
153.935469
0
LINE
8
annotation
62
1
39
211
10
292.258161
20
153.935469
11
292.216739
21
154.019360
0
LINE
8
annotation
62
1
39
211
10
292.216739
20
154.019360
11
292.216739
21
154.019360
0
LINE
8
annotation
62
1
39
211
10
292.216739
20
154.019360
11
292.089896
21
154.212848
0
LINE
8
annotation
62
1
39
211
10
292.089896
20
154.212848
11
291.934992
21
154.376351
0
LINE
8
annotation
62
1
39
211
10
291.934992
20
154.376351
11
291.756970
21
154.508300
0
LINE
8
annotation
62
1
39
211
10
291.756970
20
154.508300
11
291.560768
21
154.607127
0
LINE
8
annotation
62
1
39
211
10
291.560768
20
154.607127
11
291.351330
21
154.671263
0
LINE
8
annotation
62
1
39
211
10
291.351330
20
154.671263
11
291.133594
21
154.699139
0
LINE
8
annotation
62
1
39
211
10
291.133594
20
154.699139
11
290.912503
21
154.689187
0
LINE
8
annotation
62
1
39
211
10
290.912503
20
154.689187
11
290.692996
21
154.639837
0
LINE
8
annotation
62
1
39
211
10
290.692996
20
154.639837
11
290.480016
21
154.549521
0
LINE
8
annotation
62
1
39
211
10
290.480016
20
154.549521
11
290.480016
21
154.549521
0
LINE
8
annotation
62
1
39
211
10
290.480016
20
154.549521
11
289.704261
21
154.084085
0
LINE
8
annotation
62
1
39
211
10
289.704261
20
154.084085
11
288.985917
21
153.547094
0
LINE
8
annotation
62
1
39
211
10
288.985917
20
153.547094
11
288.328999
21
152.944075
0
LINE
8
annotation
62
1
39
211
10
288.328999
20
152.944075
11
287.737523
21
152.280552
0
LINE
8
annotation
62
1
39
211
10
287.737523
20
152.280552
11
287.215503
21
151.562053
0
LINE
8
annotation
62
1
39
211
10
287.215503
20
151.562053
11
286.766954
21
150.794104
0
LINE
8
annotation
62
1
39
211
10
286.766954
20
150.794104
11
286.395892
21
149.982232
0
LINE
8
annotation
62
1
39
211
10
286.395892
20
149.982232
11
286.106332
21
149.131961
0
LINE
8
annotation
62
1
39
211
10
286.106332
20
149.131961
11
285.902289
21
148.248820
0
LINE
8
annotation
62
1
39
211
10
285.902289
20
148.248820
11
285.902289
21
148.248820
0
LINE
8
annotation
62
1
39
211
10
285.902289
20
148.248820
11
285.889366
21
148.154348
0
LINE
8
annotation
62
1
39
211
10
285.889366
20
148.154348
11
285.883476
21
148.059628
0
LINE
8
annotation
62
1
39
211
10
285.883476
20
148.059628
11
285.884587
21
147.964983
0
LINE
8
annotation
62
1
39
211
10
285.884587
20
147.964983
11
285.892669
21
147.870735
0
LINE
8
annotation
62
1
39
211
10
285.892669
20
147.870735
11
285.907690
21
147.777208
0
LINE
8
annotation
62
1
39
211
10
285.907690
20
147.777208
11
285.929621
21
147.684724
0
LINE
8
annotation
62
1
39
211
10
285.929621
20
147.684724
11
285.958430
21
147.593606
0
LINE
8
annotation
62
1
39
211
10
285.958430
20
147.593606
11
285.994087
21
147.504176
0
LINE
8
annotation
62
1
39
211
10
285.994087
20
147.504176
11
286.036562
21
147.416758
0
LINE
8
annotation
62
1
39
211
10
163.718760
20
185.574631
11
130.554475
21
185.574631
0
LINE
8
annotation
62
1
39
211
10
130.554475
20
185.574631
11
163.718760
21
245.303305
0
LINE
8
annotation
62
1
39
211
10
163.718760
20
245.303305
11
130.554475
21
245.303305
0
LINE
8
annotation
62
1
39
211
10
218.781248
20
215.438968
11
186.122631
21
215.438968
0
LINE
8
annotation
62
1
39
211
10
274.338167
20
198.853080
11
241.173882
21
198.853080
0
LINE
8
annotation
62
1
39
211
10
241.173882
20
198.853080
11
254.418620
21
245.303305
0
LINE
8
annotation
62
1
39
211
10
264.397122
20
185.574631
11
264.397122
21
212.101564
0
LINE
8
boundary
62
5
39
2
10
53.130615
20
479.383887
11
56.187041
21
476.089844
0
LINE
8
boundary
62
5
39
2
10
56.187041
20
476.089844
11
61.148361
21
471.346317
0
LINE
8
boundary
62
5
39
2
10
61.148361
20
471.346317
11
64.396307
21
468.240960
0
LINE
8
boundary
62
5
39
2
10
64.396307
20
468.240960
11
69.632426
21
463.802648
0
LINE
8
boundary
62
5
39
2
10
69.632426
20
463.802648
11
73.060281
21
460.897089
0
LINE
8
boundary
62
5
39
2
10
73.060281
20
460.897089
11
78.552467
21
456.779866
0
LINE
8
boundary
62
5
39
2
10
78.552467
20
456.779866
11
82.147944
21
454.084506
0
LINE
8
boundary
62
5
39
2
10
82.147944
20
454.084506
11
87.876530
21
450.303104
0
LINE
8
boundary
62
5
39
2
10
87.876530
20
450.303104
11
91.626769
21
447.827597
0
LINE
8
boundary
62
5
39
2
10
91.626769
20
447.827597
11
97.571240
21
444.395555
0
LINE
8
boundary
62
5
39
2
10
97.571240
20
444.395555
11
101.462809
21
442.148751
0
LINE
8
boundary
62
5
39
2
10
101.462809
20
442.148751
11
107.601887
21
439.078352
0
LINE
8
boundary
62
5
39
2
10
107.601887
20
439.078352
11
111.620862
21
437.068310
0
LINE
8
boundary
62
5
39
2
10
111.620862
20
437.068310
11
117.932579
21
434.370554
0
LINE
8
boundary
62
5
39
2
10
117.932579
20
434.370554
11
122.064564
21
432.604454
0
LINE
8
boundary
62
5
39
2
10
122.064564
20
432.604454
11
128.526316
21
430.288985
0
LINE
8
boundary
62
5
39
2
10
128.526316
20
430.288985
11
129.648562
21
429.886849
0
LINE
8
boundary
62
5
39
2
10
129.648562
20
429.886849
11
157.807063
21
515.578982
0
LINE
8
boundary
62
5
39
2
10
157.807063
20
515.578982
11
163.513402
21
513.724880
0
LINE
8
boundary
62
5
39
2
10
163.513402
20
513.724880
11
135.732925
21
428.225365
0
LINE
8
boundary
62
5
39
2
10
135.732925
20
428.225365
11
139.345197
21
426.848295
0
LINE
8
boundary
62
5
39
2
10
139.345197
20
426.848295
11
143.658489
21
425.588168
0
LINE
8
boundary
62
5
39
2
10
143.658489
20
425.588168
11
150.350475
21
424.060758
0
LINE
8
boundary
62
5
39
2
10
150.350475
20
424.060758
11
154.731410
21
423.060838
0
LINE
8
boundary
62
5
39
2
10
154.731410
20
423.060838
11
161.502765
21
421.936385
0
LINE
8
boundary
62
5
39
2
10
161.502765
20
421.936385
11
165.935657
21
421.200258
0
LINE
8
boundary
62
5
39
2
10
165.935657
20
421.200258
11
172.762140
21
420.482768
0
LINE
8
boundary
62
5
39
2
10
172.762140
20
420.482768
11
177.231122
21
420.013057
0
LINE
8
boundary
62
5
39
2
10
177.231122
20
420.013057
11
184.088294
21
419.705092
0
LINE
8
boundary
62
5
39
2
10
184.088294
20
419.705092
11
188.577367
21
419.503484
0
LINE
8
boundary
62
5
39
2
10
188.577367
20
419.503484
11
195.440682
21
419.606168
0
LINE
8
boundary
62
5
39
2
10
195.440682
20
419.606168
11
199.933778
21
419.673391
0
LINE
8
boundary
62
5
39
2
10
199.933778
20
419.673391
11
206.778667
21
420.186346
0
LINE
8
boundary
62
5
39
2
10
206.778667
20
420.186346
11
211.259700
21
420.522153
0
LINE
8
boundary
62
5
39
2
10
211.259700
20
420.522153
11
218.061663
21
421.443545
0
LINE
8
boundary
62
5
39
2
10
218.061663
20
421.443545
11
222.514594
21
422.046737
0
LINE
8
boundary
62
5
39
2
10
222.514594
20
422.046737
11
229.249278
21
423.373260
0
LINE
8
boundary
62
5
39
2
10
229.249278
20
423.373260
11
233.658164
21
424.241678
0
LINE
8
boundary
62
5
39
2
10
233.658164
20
424.241678
11
240.301463
21
425.968588
0
LINE
8
boundary
62
5
39
2
10
240.301463
20
425.968588
11
244.650524
21
427.099106
0
LINE
8
boundary
62
5
39
2
10
244.650524
20
427.099106
11
246.912940
21
427.834210
0
LINE
8
boundary
62
5
39
2
10
246.912940
20
427.834210
11
219.307680
21
513.765282
0
LINE
8
boundary
62
5
39
2
10
219.307680
20
513.765282
11
225.014020
21
515.619384
0
LINE
8
boundary
62
5
39
2
10
225.014020
20
515.619384
11
252.811890
21
430.066337
0
LINE
8
boundary
62
5
39
2
10
252.811890
20
430.066337
11
255.452323
21
430.608828
0
LINE
8
boundary
62
5
39
2
10
255.452323
20
430.608828
11
261.841916
21
433.116557
0
LINE
8
boundary
62
5
39
2
10
261.841916
20
433.116557
11
266.024887
21
434.758252
0
LINE
8
boundary
62
5
39
2
10
266.024887
20
434.758252
11
272.253076
21
437.643622
0
LINE
8
boundary
62
5
39
2
10
272.253076
20
437.643622
11
276.330384
21
439.532546
0
LINE
8
boundary
62
5
39
2
10
276.330384
20
439.532546
11
282.374866
21
442.785211
0
LINE
8
boundary
62
5
39
2
10
282.374866
20
442.785211
11
286.331907
21
444.914587
0
LINE
8
boundary
62
5
39
2
10
286.331907
20
444.914587
11
292.171046
21
448.522929
0
LINE
8
boundary
62
5
39
2
10
292.171046
20
448.522929
11
295.993660
21
450.885142
0
LINE
8
boundary
62
5
39
2
10
295.993660
20
450.885142
11
301.606556
21
454.836231
0
LINE
8
boundary
62
5
39
2
10
301.606556
20
454.836231
11
305.281061
21
457.422824
0
LINE
8
boundary
62
5
39
2
10
305.281061
20
457.422824
11
310.647616
21
461.702509
0
LINE
8
boundary
62
5
39
2
10
310.647616
20
461.702509
11
314.160849
21
464.504216
0
LINE
8
boundary
62
5
39
2
10
314.160849
20
464.504216
11
319.261862
21
469.097183
0
LINE
8
boundary
62
5
39
2
10
319.261862
20
469.097183
11
322.601264
21
472.103991
0
LINE
8
boundary
62
5
39
2
10
322.601264
20
472.103991
11
327.418459
21
476.993804
0
LINE
8
boundary
62
5
39
2
10
327.418459
20
476.993804
11
330.572048
21
480.194936
0
LINE
8
boundary
62
5
39
2
10
330.572048
20
480.194936
11
335.088205
21
485.364083
0
LINE
8
boundary
62
5
39
2
10
335.088205
20
485.364083
11
338.044716
21
488.748080
0
LINE
8
boundary
62
5
39
2
10
338.044716
20
488.748080
11
342.243635
21
494.178054
0
LINE
8
boundary
62
5
39
2
10
342.243635
20
494.178054
11
342.972885
21
495.121108
0
LINE
8
boundary
62
5
39
2
10
342.972885
20
495.121108
11
270.176284
21
548.381755
0
LINE
8
boundary
62
5
39
2
10
270.176284
20
548.381755
11
273.702995
21
553.235857
0
LINE
8
boundary
62
5
39
2
10
273.702995
20
553.235857
11
346.433225
21
500.394252
0
LINE
8
boundary
62
5
39
2
10
346.433225
20
500.394252
11
348.859153
21
503.404186
0
LINE
8
boundary
62
5
39
2
10
348.859153
20
503.404186
11
351.390490
21
507.116965
0
LINE
8
boundary
62
5
39
2
10
351.390490
20
507.116965
11
354.911073
21
513.009428
0
LINE
8
boundary
62
5
39
2
10
354.911073
20
513.009428
11
357.215837
21
516.866957
0
LINE
8
boundary
62
5
39
2
10
357.215837
20
516.866957
11
360.377727
21
522.959422
0
LINE
8
boundary
62
5
39
2
10
360.377727
20
522.959422
11
362.447665
21
526.947874
0
LINE
8
boundary
62
5
39
2
10
362.447665
20
526.947874
11
365.239548
21
533.218524
0
LINE
8
boundary
62
5
39
2
10
365.239548
20
533.218524
11
367.067265
21
537.323627
0
LINE
8
boundary
62
5
39
2
10
367.067265
20
537.323627
11
369.479132
21
543.750024
0
LINE
8
boundary
62
5
39
2
10
369.479132
20
543.750024
11
371.058067
21
547.957093
0
LINE
8
boundary
62
5
39
2
10
371.058067
20
547.957093
11
373.081286
21
554.516224
0
LINE
8
boundary
62
5
39
2
10
373.081286
20
554.516224
11
374.405797
21
558.810183
0
LINE
8
boundary
62
5
39
2
10
374.405797
20
558.810183
11
376.033128
21
565.478571
0
LINE
8
boundary
62
5
39
2
10
376.033128
20
565.478571
11
377.098471
21
569.844056
0
LINE
8
boundary
62
5
39
2
10
377.098471
20
569.844056
11
378.324104
21
576.597833
0
LINE
8
boundary
62
5
39
2
10
378.324104
20
576.597833
11
379.126470
21
581.019217
0
LINE
8
boundary
62
5
39
2
10
379.126470
20
581.019217
11
379.945997
21
587.834203
0
LINE
8
boundary
62
5
39
2
10
379.945997
20
587.834203
11
380.482506
21
592.295658
0
LINE
8
boundary
62
5
39
2
10
380.482506
20
592.295658
11
380.893014
21
599.147456
0
LINE
8
boundary
62
5
39
2
10
380.893014
20
599.147456
11
381.161748
21
603.633011
0
LINE
8
boundary
62
5
39
2
10
381.161748
20
603.633011
11
381.161748
21
606.011852
0
LINE
8
boundary
62
5
39
2
10
381.161748
20
606.011852
11
290.905951
21
606.311851
0
LINE
8
boundary
62
5
39
2
10
290.905951
20
606.311851
11
290.905951
21
612.311851
0
LINE
8
boundary
62
5
39
2
10
290.905951
20
612.311851
11
380.861747
21
612.311852
0
LINE
8
boundary
62
5
39
2
10
380.861747
20
612.311852
11
381.161747
21
614.990693
0
LINE
8
boundary
62
5
39
2
10
381.161747
20
614.990693
11
380.751240
21
621.842490
0
LINE
8
boundary
62
5
39
2
10
380.751240
20
621.842490
11
380.482507
21
626.328046
0
LINE
8
boundary
62
5
39
2
10
380.482507
20
626.328046
11
379.662980
21
633.143030
0
LINE
8
boundary
62
5
39
2
10
379.662980
20
633.143030
11
379.126470
21
637.604485
0
LINE
8
boundary
62
5
39
2
10
379.126470
20
637.604485
11
377.900836
21
644.358263
0
LINE
8
boundary
62
5
39
2
10
377.900836
20
644.358263
11
377.098471
21
648.779647
0
LINE
8
boundary
62
5
39
2
10
377.098471
20
648.779647
11
375.471141
21
655.448035
0
LINE
8
boundary
62
5
39
2
10
375.471141
20
655.448035
11
374.405797
21
659.813521
0
LINE
8
boundary
62
5
39
2
10
374.405797
20
659.813521
11
372.382578
21
666.372652
0
LINE
8
boundary
62
5
39
2
10
372.382578
20
666.372652
11
371.058067
21
670.666610
0
LINE
8
boundary
62
5
39
2
10
371.058067
20
670.666610
11
368.646200
21
677.093007
0
LINE
8
boundary
62
5
39
2
10
368.646200
20
677.093007
11
367.067264
21
681.300076
0
LINE
8
boundary
62
5
39
2
10
367.067264
20
681.300076
11
364.275382
21
687.570726
0
LINE
8
boundary
62
5
39
2
10
364.275382
20
687.570726
11
362.447665
21
691.675829
0
LINE
8
boundary
62
5
39
2
10
362.447665
20
691.675829
11
359.285774
21
697.768295
0
LINE
8
boundary
62
5
39
2
10
359.285774
20
697.768295
11
357.215837
21
701.756746
0
LINE
8
boundary
62
5
39
2
10
357.215837
20
701.756746
11
353.695255
21
707.649208
0
LINE
8
boundary
62
5
39
2
10
353.695255
20
707.649208
11
351.390490
21
711.506738
0
LINE
8
boundary
62
5
39
2
10
351.390490
20
711.506738
11
347.523816
21
717.178111
0
LINE
8
boundary
62
5
39
2
10
347.523816
20
717.178111
11
346.852270
21
718.163085
0
LINE
8
boundary
62
5
39
2
10
346.852270
20
718.163085
11
273.702995
21
665.387846
0
LINE
8
boundary
62
5
39
2
10
273.702995
20
665.387846
11
270.176284
21
670.241948
0
LINE
8
boundary
62
5
39
2
10
270.176284
20
670.241948
11
342.906516
21
723.083556
0
LINE
8
boundary
62
5
39
2
10
342.906516
20
723.083556
11
340.793560
21
726.320865
0
LINE
8
boundary
62
5
39
2
10
340.793560
20
726.320865
11
338.044716
21
729.875624
0
LINE
8
boundary
62
5
39
2
10
338.044716
20
729.875624
11
333.528559
21
735.044772
0
LINE
8
boundary
62
5
39
2
10
333.528559
20
735.044772
11
330.572049
21
738.428767
0
LINE
8
boundary
62
5
39
2
10
330.572049
20
738.428767
11
325.754854
21
743.318580
0
LINE
8
boundary
62
5
39
2
10
325.754854
20
743.318580
11
322.601264
21
746.519712
0
LINE
8
boundary
62
5
39
2
10
322.601264
20
746.519712
11
317.500250
21
751.112679
0
LINE
8
boundary
62
5
39
2
10
317.500250
20
751.112679
11
314.160849
21
754.119488
0
LINE
8
boundary
62
5
39
2
10
314.160849
20
754.119488
11
308.794294
21
758.399173
0
LINE
8
boundary
62
5
39
2
10
308.794294
20
758.399173
11
305.281061
21
761.200880
0
LINE
8
boundary
62
5
39
2
10
305.281061
20
761.200880
11
299.668164
21
765.151969
0
LINE
8
boundary
62
5
39
2
10
299.668164
20
765.151969
11
295.993660
21
767.738562
0
LINE
8
boundary
62
5
39
2
10
295.993660
20
767.738562
11
290.154522
21
771.346903
0
LINE
8
boundary
62
5
39
2
10
290.154522
20
771.346903
11
286.331907
21
773.709116
0
LINE
8
boundary
62
5
39
2
10
286.331907
20
773.709116
11
280.287426
21
776.961781
0
LINE
8
boundary
62
5
39
2
10
280.287426
20
776.961781
11
276.330384
21
779.091157
0
LINE
8
boundary
62
5
39
2
10
276.330384
20
779.091157
11
270.102195
21
781.976527
0
LINE
8
boundary
62
5
39
2
10
270.102195
20
781.976527
11
266.024887
21
783.865451
0
LINE
8
boundary
62
5
39
2
10
266.024887
20
783.865451
11
259.635293
21
786.373181
0
LINE
8
boundary
62
5
39
2
10
259.635293
20
786.373181
11
255.452322
21
788.014876
0
LINE
8
boundary
62
5
39
2
10
255.452322
20
788.014876
11
253.189912
21
788.749978
0
LINE
8
boundary
62
5
39
2
10
253.189912
20
788.749978
11
225.014020
21
703.004320
0
LINE
8
boundary
62
5
39
2
10
225.014020
20
703.004320
11
219.307681
21
704.858421
0
LINE
8
boundary
62
5
39
2
10
219.307681
20
704.858421
11
247.105552
21
790.411471
0
LINE
8
boundary
62
5
39
2
10
247.105552
20
790.411471
11
244.650524
21
791.524597
0
LINE
8
boundary
62
5
39
2
10
244.650524
20
791.524597
11
238.007225
21
793.251507
0
LINE
8
boundary
62
5
39
2
10
238.007225
20
793.251507
11
233.658166
21
794.382026
0
LINE
8
boundary
62
5
39
2
10
233.658166
20
794.382026
11
226.923481
21
795.708549
0
LINE
8
boundary
62
5
39
2
10
226.923481
20
795.708549
11
222.514594
21
796.576966
0
LINE
8
boundary
62
5
39
2
10
222.514594
20
796.576966
11
215.712631
21
797.498359
0
LINE
8
boundary
62
5
39
2
10
215.712631
20
797.498359
11
211.259700
21
798.101551
0
LINE
8
boundary
62
5
39
2
10
211.259700
20
798.101551
11
204.414810
21
798.614505
0
LINE
8
boundary
62
5
39
2
10
204.414810
20
798.614505
11
199.933778
21
798.950312
0
LINE
8
boundary
62
5
39
2
10
199.933778
20
798.950312
11
193.070462
21
799.052997
0
LINE
8
boundary
62
5
39
2
10
193.070462
20
799.052997
11
188.577367
21
799.120220
0
LINE
8
boundary
62
5
39
2
10
188.577367
20
799.120220
11
181.720194
21
798.812255
0
LINE
8
boundary
62
5
39
2
10
181.720194
20
798.812255
11
177.231121
21
798.610646
0
LINE
8
boundary
62
5
39
2
10
177.231121
20
798.610646
11
170.404639
21
797.893157
0
LINE
8
boundary
62
5
39
2
10
170.404639
20
797.893157
11
165.935657
21
797.423445
0
LINE
8
boundary
62
5
39
2
10
165.935657
20
797.423445
11
159.164302
21
796.298992
0
LINE
8
boundary
62
5
39
2
10
159.164302
20
796.298992
11
154.731410
21
795.562865
0
LINE
8
boundary
62
5
39
2
10
154.731410
20
795.562865
11
148.039424
21
794.035456
0
LINE
8
boundary
62
5
39
2
10
148.039424
20
794.035456
11
143.658489
21
793.035536
0
LINE
8
boundary
62
5
39
2
10
143.658489
20
793.035536
11
137.069823
21
791.110667
0
LINE
8
boundary
62
5
39
2
10
137.069823
20
791.110667
11
135.925536
21
790.776364
0
LINE
8
boundary
62
5
39
2
10
135.925536
20
790.776364
11
163.513402
21
704.898823
0
LINE
8
boundary
62
5
39
2
10
163.513402
20
704.898823
11
157.807063
21
703.044720
0
LINE
8
boundary
62
5
39
2
10
157.807063
20
703.044720
11
130.026586
21
788.544236
0
LINE
8
boundary
62
5
39
2
10
130.026586
20
788.544236
11
126.294778
21
787.535070
0
LINE
8
boundary
62
5
39
2
10
126.294778
20
787.535070
11
122.064564
21
786.019249
0
LINE
8
boundary
62
5
39
2
10
122.064564
20
786.019249
11
115.752846
21
783.321493
0
LINE
8
boundary
62
5
39
2
10
115.752846
20
783.321493
11
111.620860
21
781.555393
0
LINE
8
boundary
62
5
39
2
10
111.620860
20
781.555393
11
105.481782
21
778.484993
0
LINE
8
boundary
62
5
39
2
10
105.481782
20
778.484993
11
101.462809
21
776.474953
0
LINE
8
boundary
62
5
39
2
10
101.462809
20
776.474953
11
95.518338
21
773.042911
0
LINE
8
boundary
62
5
39
2
10
95.518338
20
773.042911
11
91.626768
21
770.796108
0
LINE
8
boundary
62
5
39
2
10
91.626768
20
770.796108
11
85.898183
21
767.014706
0
LINE
8
boundary
62
5
39
2
10
85.898183
20
767.014706
11
82.147945
21
764.539197
0
LINE
8
boundary
62
5
39
2
10
82.147945
20
764.539197
11
76.655758
21
760.421974
0
LINE
8
boundary
62
5
39
2
10
76.655758
20
760.421974
11
73.060281
21
757.726614
0
LINE
8
boundary
62
5
39
2
10
73.060281
20
757.726614
11
67.824161
21
753.288303
0
LINE
8
boundary
62
5
39
2
10
67.824161
20
753.288303
11
64.396307
21
750.382745
0
LINE
8
boundary
62
5
39
2
10
64.396307
20
750.382745
11
59.434987
21
745.639217
0
LINE
8
boundary
62
5
39
2
10
59.434987
20
745.639217
11
56.187041
21
742.533859
0
LINE
8
boundary
62
5
39
2
10
56.187041
20
742.533859
11
51.518268
21
737.502133
0
LINE
8
boundary
62
5
39
2
10
51.518268
20
737.502133
11
48.461842
21
734.208091
0
LINE
8
boundary
62
5
39
2
10
48.461842
20
734.208091
11
44.102353
21
728.906162
0
LINE
8
boundary
62
5
39
2
10
44.102353
20
728.906162
11
41.248398
21
725.435233
0
LINE
8
boundary
62
5
39
2
10
41.248398
20
725.435233
11
39.850154
21
723.510712
0
LINE
8
boundary
62
5
39
2
10
39.850154
20
723.510712
11
112.692292
21
670.216980
0
LINE
8
boundary
62
5
39
2
10
112.692292
20
670.216980
11
109.165581
21
665.362878
0
LINE
8
boundary
62
5
39
2
10
109.165581
20
665.362878
11
36.389817
21
718.237566
0
LINE
8
boundary
62
5
39
2
10
36.389817
20
718.237566
11
34.572529
21
716.246671
0
LINE
8
boundary
62
5
39
2
10
34.572529
20
716.246671
11
30.877247
21
710.462171
0
LINE
8
boundary
62
5
39
2
10
30.877247
20
710.462171
11
28.458110
21
706.675323
0
LINE
8
boundary
62
5
39
2
10
28.458110
20
706.675323
11
25.115378
21
700.680173
0
LINE
8
boundary
62
5
39
2
10
25.115378
20
700.680173
11
22.927047
21
696.755424
0
LINE
8
boundary
62
5
39
2
10
22.927047
20
696.755424
11
19.948838
21
690.571096
0
LINE
8
boundary
62
5
39
2
10
19.948838
20
690.571096
11
17.999141
21
686.522505
0
LINE
8
boundary
62
5
39
2
10
17.999141
20
686.522505
11
15.396093
21
680.171138
0
LINE
8
boundary
62
5
39
2
10
15.396093
20
680.171138
11
13.692002
21
676.013192
0
LINE
8
boundary
62
5
39
2
10
13.692002
20
676.013192
11
11.473468
21
669.517526
0
LINE
8
boundary
62
5
39
2
10
11.473468
20
669.517526
11
10.021096
21
665.265112
0
LINE
8
boundary
62
5
39
2
10
10.021096
20
665.265112
11
8.194995
21
658.648389
0
LINE
8
boundary
62
5
39
2
10
8.194995
20
658.648389
11
6.999534
21
654.316726
0
LINE
8
boundary
62
5
39
2
10
6.999534
20
654.316726
11
5.572420
21
647.602640
0
LINE
8
boundary
62
5
39
2
10
5.572420
20
647.602640
11
4.638146
21
643.207238
0
LINE
8
boundary
62
5
39
2
10
4.638146
20
643.207238
11
3.615096
21
636.419819
0
LINE
8
boundary
62
5
39
2
10
3.615096
20
636.419819
11
2.945357
21
631.976410
0
LINE
8
boundary
62
5
39
2
10
2.945357
20
631.976410
11
2.330075
21
625.139959
0
LINE
8
boundary
62
5
39
2
10
2.330075
20
625.139959
11
1.927270
21
620.664450
0
LINE
8
boundary
62
5
39
2
10
1.927270
20
620.664450
11
1.721923
21
613.803439
0
LINE
8
boundary
62
5
39
2
10
1.721923
20
613.803439
11
1.686261
21
612.611852
0
LINE
8
boundary
62
5
39
2
10
1.686261
20
612.611852
11
91.885777
21
612.311851
0
LINE
8
boundary
62
5
39
2
10
91.885777
20
612.311851
11
91.885777
21
606.311852
0
LINE
8
boundary
62
5
39
2
10
91.885777
20
606.311852
11
1.986268
21
606.311852
0
LINE
8
boundary
62
5
39
2
10
1.986268
20
606.311852
11
1.792847
21
602.450840
0
LINE
8
boundary
62
5
39
2
10
1.792847
20
602.450840
11
1.927270
21
597.959253
0
LINE
8
boundary
62
5
39
2
10
1.927270
20
597.959253
11
2.542552
21
591.122802
0
LINE
8
boundary
62
5
39
2
10
2.542552
20
591.122802
11
2.945358
21
586.647293
0
LINE
8
boundary
62
5
39
2
10
2.945358
20
586.647293
11
3.968407
21
579.859874
0
LINE
8
boundary
62
5
39
2
10
3.968407
20
579.859874
11
4.638145
21
575.416465
0
LINE
8
boundary
62
5
39
2
10
4.638145
20
575.416465
11
6.065261
21
568.702380
0
LINE
8
boundary
62
5
39
2
10
6.065261
20
568.702380
11
6.999535
21
564.306978
0
LINE
8
boundary
62
5
39
2
10
6.999535
20
564.306978
11
8.825636
21
557.690254
0
LINE
8
boundary
62
5
39
2
10
8.825636
20
557.690254
11
10.021097
21
553.358591
0
LINE
8
boundary
62
5
39
2
10
10.021097
20
553.358591
11
12.239630
21
546.862924
0
LINE
8
boundary
62
5
39
2
10
12.239630
20
546.862924
11
13.692002
21
542.610510
0
LINE
8
boundary
62
5
39
2
10
13.692002
20
542.610510
11
16.295050
21
536.259144
0
LINE
8
boundary
62
5
39
2
10
16.295050
20
536.259144
11
17.999142
21
532.101198
0
LINE
8
boundary
62
5
39
2
10
17.999142
20
532.101198
11
20.977351
21
525.916870
0
LINE
8
boundary
62
5
39
2
10
20.977351
20
525.916870
11
22.927047
21
521.868279
0
LINE
8
boundary
62
5
39
2
10
22.927047
20
521.868279
11
26.269780
21
515.873128
0
LINE
8
boundary
62
5
39
2
10
26.269780
20
515.873128
11
28.458110
21
511.948380
0
LINE
8
boundary
62
5
39
2
10
28.458110
20
511.948380
11
32.153392
21
506.163881
0
LINE
8
boundary
62
5
39
2
10
32.153392
20
506.163881
11
34.572529
21
502.377033
0
LINE
8
boundary
62
5
39
2
10
34.572529
20
502.377033
11
35.970777
21
500.452507
0
LINE
8
boundary
62
5
39
2
10
35.970777
20
500.452507
11
109.165581
21
553.260826
0
LINE
8
boundary
62
5
39
2
10
109.165581
20
553.260826
11
112.692292
21
548.406723
0
LINE
8
boundary
62
5
39
2
10
112.692292
20
548.406723
11
39.916524
21
495.532032
0
LINE
8
boundary
62
5
39
2
10
39.916524
20
495.532032
11
41.248399
21
493.188469
0
LINE
8
boundary
62
5
39
2
10
41.248399
20
493.188469
11
45.607888
21
487.886540
0
LINE
8
boundary
62
5
39
2
10
45.607888
20
487.886540
11
48.461842
21
484.415612
0
LINE
8
boundary
62
5
39
2
10
48.461842
20
484.415612
11
53.130615
21
479.383887
0
LINE
8
annotation
62
1
39
211
10
279.972150
20
604.511852
11
279.972150
21
614.111852
0
LINE
8
annotation
62
1
39
211
10
279.972150
20
614.111852
11
277.837947
21
611.977047
0
LINE
8
annotation
62
1
39
211
10
266.776534
20
658.130459
11
263.327218
21
655.624384
0
LINE
8
annotation
62
1
39
211
10
263.327218
20
655.624384
11
262.786527
21
663.071193
0
LINE
8
annotation
62
1
39
211
10
262.786527
20
663.071193
11
262.786527
21
663.071193
0
LINE
8
annotation
62
1
39
211
10
262.786527
20
663.071193
11
262.786911
21
663.078677
0
LINE
8
annotation
62
1
39
211
10
262.786911
20
663.078677
11
262.787111
21
663.086086
0
LINE
8
annotation
62
1
39
211
10
262.787111
20
663.086086
11
262.787119
21
663.093480
0
LINE
8
annotation
62
1
39
211
10
262.787119
20
663.093480
11
262.786932
21
663.100915
0
LINE
8
annotation
62
1
39
211
10
262.786932
20
663.100915
11
262.786545
21
663.108450
0
LINE
8
annotation
62
1
39
211
10
262.786545
20
663.108450
11
262.785951
21
663.116141
0
LINE
8
annotation
62
1
39
211
10
262.785951
20
663.116141
11
262.785147
21
663.124047
0
LINE
8
annotation
62
1
39
211
10
262.785147
20
663.124047
11
262.784127
21
663.132224
0
LINE
8
annotation
62
1
39
211
10
262.784127
20
663.132224
11
262.782886
21
663.140731
0
LINE
8
annotation
62
1
39
211
10
262.782886
20
663.140731
11
262.782886
21
663.140731
0
LINE
8
annotation
62
1
39
211
10
262.782886
20
663.140731
11
262.709196
21
663.518906
0
LINE
8
annotation
62
1
39
211
10
262.709196
20
663.518906
11
262.573272
21
663.867662
0
LINE
8
annotation
62
1
39
211
10
262.573272
20
663.867662
11
262.381807
21
664.181748
0
LINE
8
annotation
62
1
39
211
10
262.381807
20
664.181748
11
262.141493
21
664.455916
0
LINE
8
annotation
62
1
39
211
10
262.141493
20
664.455916
11
261.859023
21
664.684915
0
LINE
8
annotation
62
1
39
211
10
261.859023
20
664.684915
11
261.541090
21
664.863497
0
LINE
8
annotation
62
1
39
211
10
261.541090
20
664.863497
11
261.194386
21
664.986412
0
LINE
8
annotation
62
1
39
211
10
261.194386
20
664.986412
11
260.825604
21
665.048410
0
LINE
8
annotation
62
1
39
211
10
260.825604
20
665.048410
11
260.441436
21
665.044242
0
LINE
8
annotation
62
1
39
211
10
260.441436
20
665.044242
11
260.441436
21
665.044242
0
LINE
8
annotation
62
1
39
211
10
260.441436
20
665.044242
11
260.063834
21
664.968111
0
LINE
8
annotation
62
1
39
211
10
260.063834
20
664.968111
11
259.715490
21
664.830676
0
LINE
8
annotation
62
1
39
211
10
259.715490
20
664.830676
11
259.401725
21
664.638406
0
LINE
8
annotation
62
1
39
211
10
259.401725
20
664.638406
11
259.127859
21
664.397770
0
LINE
8
annotation
62
1
39
211
10
259.127859
20
664.397770
11
258.899213
21
664.115235
0
LINE
8
annotation
62
1
39
211
10
258.899213
20
664.115235
11
258.721107
21
663.797271
0
LINE
8
annotation
62
1
39
211
10
258.721107
20
663.797271
11
258.598862
21
663.450346
0
LINE
8
annotation
62
1
39
211
10
258.598862
20
663.450346
11
258.537797
21
663.080928
0
LINE
8
annotation
62
1
39
211
10
258.537797
20
663.080928
11
258.543233
21
662.695486
0
LINE
8
annotation
62
1
39
211
10
258.543233
20
662.695486
11
258.632401
21
662.096487
0
LINE
8
annotation
62
1
39
211
10
222.358299
20
689.006901
11
223.017059
21
691.034359
0
LINE
8
annotation
62
1
39
211
10
223.017059
20
691.034359
11
223.017059
21
691.034359
0
LINE
8
annotation
62
1
39
211
10
223.017059
20
691.034359
11
223.102828
21
691.409630
0
LINE
8
annotation
62
1
39
211
10
223.102828
20
691.409630
11
223.120039
21
691.783378
0
LINE
8
annotation
62
1
39
211
10
223.120039
20
691.783378
11
223.072624
21
692.148016
0
LINE
8
annotation
62
1
39
211
10
223.072624
20
692.148016
11
222.964516
21
692.495956
0
LINE
8
annotation
62
1
39
211
10
222.964516
20
692.495956
11
222.799648
21
692.819612
0
LINE
8
annotation
62
1
39
211
10
222.799648
20
692.819612
11
222.581952
21
693.111396
0
LINE
8
annotation
62
1
39
211
10
222.581952
20
693.111396
11
222.315361
21
693.363721
0
LINE
8
annotation
62
1
39
211
10
222.315361
20
693.363721
11
222.003808
21
693.569000
0
LINE
8
annotation
62
1
39
211
10
222.003808
20
693.569000
11
221.651226
21
693.719647
0
LINE
8
annotation
62
1
39
211
10
221.651226
20
693.719647
11
220.636066
21
694.049492
0
LINE
8
annotation
62
1
39
211
10
220.636066
20
694.049492
11
220.636066
21
694.049492
0
LINE
8
annotation
62
1
39
211
10
220.636066
20
694.049492
11
220.262424
21
694.134811
0
LINE
8
annotation
62
1
39
211
10
220.262424
20
694.134811
11
219.889792
21
694.151836
0
LINE
8
annotation
62
1
39
211
10
219.889792
20
694.151836
11
219.525826
21
694.104392
0
LINE
8
annotation
62
1
39
211
10
219.525826
20
694.104392
11
219.178181
21
693.996298
0
LINE
8
annotation
62
1
39
211
10
219.178181
20
693.996298
11
218.854513
21
693.831377
0
LINE
8
annotation
62
1
39
211
10
218.854513
20
693.831377
11
218.562476
21
693.613452
0
LINE
8
annotation
62
1
39
211
10
218.562476
20
693.613452
11
218.309727
21
693.346343
0
LINE
8
annotation
62
1
39
211
10
218.309727
20
693.346343
11
218.103920
21
693.033874
0
LINE
8
annotation
62
1
39
211
10
218.103920
20
693.033874
11
217.952710
21
692.679866
0
LINE
8
annotation
62
1
39
211
10
217.952710
20
692.679866
11
217.622865
21
691.664705
0
LINE
8
annotation
62
1
39
211
10
217.622865
20
691.664705
11
217.952710
21
692.679866
0
LINE
8
annotation
62
1
39
211
10
217.952710
20
692.679866
11
217.952710
21
692.679866
0
LINE
8
annotation
62
1
39
211
10
217.952710
20
692.679866
11
218.038452
21
693.055146
0
LINE
8
annotation
62
1
39
211
10
218.038452
20
693.055146
11
218.055561
21
693.428927
0
LINE
8
annotation
62
1
39
211
10
218.055561
20
693.428927
11
218.007935
21
693.793633
0
LINE
8
annotation
62
1
39
211
10
218.007935
20
693.793633
11
217.899476
21
694.141688
0
LINE
8
annotation
62
1
39
211
10
217.899476
20
694.141688
11
217.734081
21
694.465514
0
LINE
8
annotation
62
1
39
211
10
217.734081
20
694.465514
11
217.515652
21
694.757537
0
LINE
8
annotation
62
1
39
211
10
217.515652
20
694.757537
11
217.248087
21
695.010178
0
LINE
8
annotation
62
1
39
211
10
217.248087
20
695.010178
11
216.935287
21
695.215863
0
LINE
8
annotation
62
1
39
211
10
216.935287
20
695.215863
11
216.581151
21
695.367014
0
LINE
8
annotation
62
1
39
211
10
216.581151
20
695.367014
11
216.581151
21
695.367014
0
LINE
8
annotation
62
1
39
211
10
216.581151
20
695.367014
11
216.207509
21
695.452332
0
LINE
8
annotation
62
1
39
211
10
216.207509
20
695.452332
11
215.834877
21
695.469358
0
LINE
8
annotation
62
1
39
211
10
215.834877
20
695.469358
11
215.470911
21
695.421913
0
LINE
8
annotation
62
1
39
211
10
215.470911
20
695.421913
11
215.123267
21
695.313819
0
LINE
8
annotation
62
1
39
211
10
215.123267
20
695.313819
11
214.799598
21
695.148899
0
LINE
8
annotation
62
1
39
211
10
214.799598
20
695.148899
11
214.507562
21
694.930974
0
LINE
8
annotation
62
1
39
211
10
214.507562
20
694.930974
11
214.254812
21
694.663865
0
LINE
8
annotation
62
1
39
211
10
214.254812
20
694.663865
11
214.049005
21
694.351396
0
LINE
8
annotation
62
1
39
211
10
214.049005
20
694.351396
11
213.897796
21
693.997387
0
LINE
8
annotation
62
1
39
211
10
213.897796
20
693.997387
11
213.239035
21
691.969930
0
LINE
8
annotation
62
1
39
211
10
166.080542
20
695.916476
11
167.727723
21
690.846974
0
LINE
8
annotation
62
1
39
211
10
167.727723
20
690.846974
11
159.969497
21
690.564510
0
LINE
8
annotation
62
1
39
211
10
168.604034
20
695.056390
11
164.549120
21
693.738868
0
LINE
8
annotation
62
1
39
211
10
125.184142
20
663.366042
11
123.459484
21
664.619080
0
LINE
8
annotation
62
1
39
211
10
123.459484
20
664.619080
11
123.459484
21
664.619080
0
LINE
8
annotation
62
1
39
211
10
123.459484
20
664.619080
11
123.129720
21
664.816144
0
LINE
8
annotation
62
1
39
211
10
123.129720
20
664.816144
11
122.779893
21
664.947717
0
LINE
8
annotation
62
1
39
211
10
122.779893
20
664.947717
11
122.418467
21
665.015115
0
LINE
8
annotation
62
1
39
211
10
122.418467
20
665.015115
11
122.053907
21
665.019654
0
LINE
8
annotation
62
1
39
211
10
122.053907
20
665.019654
11
121.694679
21
664.962649
0
LINE
8
annotation
62
1
39
211
10
121.694679
20
664.962649
11
121.349246
21
664.845416
0
LINE
8
annotation
62
1
39
211
10
121.349246
20
664.845416
11
121.026074
21
664.669271
0
LINE
8
annotation
62
1
39
211
10
121.026074
20
664.669271
11
120.733628
21
664.435531
0
LINE
8
annotation
62
1
39
211
10
120.733628
20
664.435531
11
120.480372
21
664.145511
0
LINE
8
annotation
62
1
39
211
10
120.480372
20
664.145511
11
119.856154
21
663.286348
0
LINE
8
annotation
62
1
39
211
10
119.856154
20
663.286348
11
119.856154
21
663.286348
0
LINE
8
annotation
62
1
39
211
10
119.856154
20
663.286348
11
119.658682
21
662.956029
0
LINE
8
annotation
62
1
39
211
10
119.658682
20
662.956029
11
119.527005
21
662.606098
0
LINE
8
annotation
62
1
39
211
10
119.527005
20
662.606098
11
119.459719
21
662.244933
0
LINE
8
annotation
62
1
39
211
10
119.459719
20
662.244933
11
119.455419
21
661.880909
0
LINE
8
annotation
62
1
39
211
10
119.455419
20
661.880909
11
119.512700
21
661.522403
0
LINE
8
annotation
62
1
39
211
10
119.512700
20
661.522403
11
119.630158
21
661.177792
0
LINE
8
annotation
62
1
39
211
10
119.630158
20
661.177792
11
119.806388
21
660.855451
0
LINE
8
annotation
62
1
39
211
10
119.806388
20
660.855451
11
120.039985
21
660.563758
0
LINE
8
annotation
62
1
39
211
10
120.039985
20
660.563758
11
120.329544
21
660.311087
0
LINE
8
annotation
62
1
39
211
10
120.329544
20
660.311087
11
122.054202
21
659.058050
0
LINE
8
annotation
62
1
39
211
10
122.054202
20
659.058050
11
119.541403
21
655.599479
0
LINE
8
annotation
62
1
39
211
10
119.541403
20
655.599479
11
116.092087
21
658.105554
0
LINE
8
annotation
62
1
39
211
10
102.816569
20
604.511852
11
102.816569
21
604.511852
0
LINE
8
annotation
62
1
39
211
10
102.816569
20
604.511852
11
103.427274
21
604.740829
0
LINE
8
annotation
62
1
39
211
10
103.427274
20
604.740829
11
103.987677
21
605.049350
0
LINE
8
annotation
62
1
39
211
10
103.987677
20
605.049350
11
104.492023
21
605.429683
0
LINE
8
annotation
62
1
39
211
10
104.492023
20
605.429683
11
104.934561
21
605.874099
0
LINE
8
annotation
62
1
39
211
10
104.934561
20
605.874099
11
105.309538
21
606.374868
0
LINE
8
annotation
62
1
39
211
10
105.309538
20
606.374868
11
105.611201
21
606.924260
0
LINE
8
annotation
62
1
39
211
10
105.611201
20
606.924260
11
105.833796
21
607.514546
0
LINE
8
annotation
62
1
39
211
10
105.833796
20
607.514546
11
105.971572
21
608.137996
0
LINE
8
annotation
62
1
39
211
10
105.971572
20
608.137996
11
106.018776
21
608.786880
0
LINE
8
annotation
62
1
39
211
10
106.018776
20
608.786880
11
106.018776
21
611.977649
0
LINE
8
annotation
62
1
39
211
10
106.018776
20
611.977649
11
106.018776
21
611.977649
0
LINE
8
annotation
62
1
39
211
10
106.018776
20
611.977649
11
105.984358
21
612.361140
0
LINE
8
annotation
62
1
39
211
10
105.984358
20
612.361140
11
105.885153
21
612.722135
0
LINE
8
annotation
62
1
39
211
10
105.885153
20
612.722135
11
105.727237
21
613.054594
0
LINE
8
annotation
62
1
39
211
10
105.727237
20
613.054594
11
105.516683
21
613.352478
0
LINE
8
annotation
62
1
39
211
10
105.516683
20
613.352478
11
105.259568
21
613.609745
0
LINE
8
annotation
62
1
39
211
10
105.259568
20
613.609745
11
104.961965
21
613.820357
0
LINE
8
annotation
62
1
39
211
10
104.961965
20
613.820357
11
104.629950
21
613.978272
0
LINE
8
annotation
62
1
39
211
10
104.629950
20
613.978272
11
104.269597
21
614.077450
0
LINE
8
annotation
62
1
39
211
10
104.269597
20
614.077450
11
103.886981
21
614.111852
0
LINE
8
annotation
62
1
39
211
10
103.886981
20
614.111852
11
103.886981
21
614.111852
0
LINE
8
annotation
62
1
39
211
10
103.886981
20
614.111852
11
103.503573
21
614.077450
0
LINE
8
annotation
62
1
39
211
10
103.503573
20
614.077450
11
103.142799
21
613.978272
0
LINE
8
annotation
62
1
39
211
10
103.142799
20
613.978272
11
102.810660
21
613.820357
0
LINE
8
annotation
62
1
39
211
10
102.810660
20
613.820357
11
102.513156
21
613.609745
0
LINE
8
annotation
62
1
39
211
10
102.513156
20
613.609745
11
102.256288
21
613.352478
0
LINE
8
annotation
62
1
39
211
10
102.256288
20
613.352478
11
102.046057
21
613.054594
0
LINE
8
annotation
62
1
39
211
10
102.046057
20
613.054594
11
101.888463
21
612.722135
0
LINE
8
annotation
62
1
39
211
10
101.888463
20
612.722135
11
101.789506
21
612.361140
0
LINE
8
annotation
62
1
39
211
10
101.789506
20
612.361140
11
101.755187
21
611.977649
0
LINE
8
annotation
62
1
39
211
10
101.755187
20
611.977649
11
101.755187
21
610.915664
0
LINE
8
annotation
62
1
39
211
10
101.755187
20
610.915664
11
101.755187
21
610.915664
0
LINE
8
annotation
62
1
39
211
10
101.755187
20
610.915664
11
101.789506
21
610.532359
0
LINE
8
annotation
62
1
39
211
10
101.789506
20
610.532359
11
101.888463
21
610.171862
0
LINE
8
annotation
62
1
39
211
10
101.888463
20
610.171862
11
102.046057
21
609.840123
0
LINE
8
annotation
62
1
39
211
10
102.046057
20
609.840123
11
102.256288
21
609.543095
0
LINE
8
annotation
62
1
39
211
10
102.256288
20
609.543095
11
102.513156
21
609.286726
0
LINE
8
annotation
62
1
39
211
10
102.513156
20
609.286726
11
102.810660
21
609.076970
0
LINE
8
annotation
62
1
39
211
10
102.810660
20
609.076970
11
103.142799
21
608.919776
0
LINE
8
annotation
62
1
39
211
10
103.142799
20
608.919776
11
103.503573
21
608.821096
0
LINE
8
annotation
62
1
39
211
10
103.503573
20
608.821096
11
103.886981
21
608.786880
0
LINE
8
annotation
62
1
39
211
10
103.886981
20
608.786880
11
106.018776
21
608.786880
0
LINE
8
annotation
62
1
39
211
10
106.285777
20
615.311852
11
101.485777
21
615.311852
0
LINE
8
annotation
62
1
39
211
10
117.816746
20
561.771187
11
121.732878
21
552.750171
0
LINE
8
annotation
62
1
39
211
10
121.732878
20
552.750171
11
125.186578
21
555.259430
0
LINE
8
annotation
62
1
39
211
10
119.220079
20
556.208741
11
120.946685
21
557.463194
0
LINE
8
annotation
62
1
39
211
10
162.486806
20
528.918756
11
162.486806
21
528.918756
0
LINE
8
annotation
62
1
39
211
10
162.486806
20
528.918756
11
162.111626
21
529.004470
0
LINE
8
annotation
62
1
39
211
10
162.111626
20
529.004470
11
161.738116
21
529.021521
0
LINE
8
annotation
62
1
39
211
10
161.738116
20
529.021521
11
161.373815
21
528.973846
0
LINE
8
annotation
62
1
39
211
10
161.373815
20
528.973846
11
161.026260
21
528.865385
0
LINE
8
annotation
62
1
39
211
10
161.026260
20
528.865385
11
160.702986
21
528.700076
0
LINE
8
annotation
62
1
39
211
10
160.702986
20
528.700076
11
160.411531
21
528.481857
0
LINE
8
annotation
62
1
39
211
10
160.411531
20
528.481857
11
160.159433
21
528.214667
0
LINE
8
annotation
62
1
39
211
10
160.159433
20
528.214667
11
159.954227
21
527.902445
0
LINE
8
annotation
62
1
39
211
10
159.954227
20
527.902445
11
159.803451
21
527.549129
0
LINE
8
annotation
62
1
39
211
10
159.803451
20
527.549129
11
159.803451
21
527.549129
0
LINE
8
annotation
62
1
39
211
10
159.803451
20
527.549129
11
159.717758
21
527.174667
0
LINE
8
annotation
62
1
39
211
10
159.717758
20
527.174667
11
159.700253
21
526.801457
0
LINE
8
annotation
62
1
39
211
10
159.700253
20
526.801457
11
159.747155
21
526.437116
0
LINE
8
annotation
62
1
39
211
10
159.747155
20
526.437116
11
159.854681
21
526.089261
0
LINE
8
annotation
62
1
39
211
10
159.854681
20
526.089261
11
160.019048
21
525.765508
0
LINE
8
annotation
62
1
39
211
10
160.019048
20
525.765508
11
160.236475
21
525.473472
0
LINE
8
annotation
62
1
39
211
10
160.236475
20
525.473472
11
160.503178
21
525.220772
0
LINE
8
annotation
62
1
39
211
10
160.503178
20
525.220772
11
160.815376
21
525.015023
0
LINE
8
annotation
62
1
39
211
10
160.815376
20
525.015023
11
161.169285
21
524.863841
0
LINE
8
annotation
62
1
39
211
10
161.169285
20
524.863841
11
162.179292
21
524.535670
0
LINE
8
annotation
62
1
39
211
10
162.179292
20
524.535670
11
162.179292
21
524.535670
0
LINE
8
annotation
62
1
39
211
10
162.179292
20
524.535670
11
162.554643
21
524.449880
0
LINE
8
annotation
62
1
39
211
10
162.554643
20
524.449880
11
162.928611
21
524.432628
0
LINE
8
annotation
62
1
39
211
10
162.928611
20
524.432628
11
163.293577
21
524.480019
0
LINE
8
annotation
62
1
39
211
10
163.293577
20
524.480019
11
163.641926
21
524.588155
0
LINE
8
annotation
62
1
39
211
10
163.641926
20
524.588155
11
163.966040
21
524.753139
0
LINE
8
annotation
62
1
39
211
10
163.966040
20
524.753139
11
164.258301
21
524.971075
0
LINE
8
annotation
62
1
39
211
10
164.258301
20
524.971075
11
164.511093
21
525.238065
0
LINE
8
annotation
62
1
39
211
10
164.511093
20
525.238065
11
164.716798
21
525.550213
0
LINE
8
annotation
62
1
39
211
10
164.716798
20
525.550213
11
164.867800
21
525.903623
0
LINE
8
annotation
62
1
39
211
10
164.867800
20
525.903623
11
164.867800
21
525.903623
0
LINE
8
annotation
62
1
39
211
10
164.867800
20
525.903623
11
164.953347
21
526.278299
0
LINE
8
annotation
62
1
39
211
10
164.953347
20
526.278299
11
164.970357
21
526.651758
0
LINE
8
annotation
62
1
39
211
10
164.970357
20
526.651758
11
164.922716
21
527.016366
0
LINE
8
annotation
62
1
39
211
10
164.922716
20
527.016366
11
164.814309
21
527.364486
0
LINE
8
annotation
62
1
39
211
10
164.814309
20
527.364486
11
164.649024
21
527.688486
0
LINE
8
annotation
62
1
39
211
10
164.649024
20
527.688486
11
164.430746
21
527.980730
0
LINE
8
annotation
62
1
39
211
10
164.430746
20
527.980730
11
164.163361
21
528.233584
0
LINE
8
annotation
62
1
39
211
10
164.163361
20
528.233584
11
163.850754
21
528.439414
0
LINE
8
annotation
62
1
39
211
10
163.850754
20
528.439414
11
163.496813
21
528.590585
0
LINE
8
annotation
62
1
39
211
10
163.496813
20
528.590585
11
162.486806
21
528.918756
0
LINE
8
annotation
62
1
39
211
10
166.239359
20
523.216474
11
166.239359
21
523.216474
0
LINE
8
annotation
62
1
39
211
10
166.239359
20
523.216474
11
166.613026
21
523.131231
0
LINE
8
annotation
62
1
39
211
10
166.613026
20
523.131231
11
166.985719
21
523.114394
0
LINE
8
annotation
62
1
39
211
10
166.985719
20
523.114394
11
167.349764
21
523.162084
0
LINE
8
annotation
62
1
39
211
10
167.349764
20
523.162084
11
167.697489
21
523.270423
0
LINE
8
annotation
62
1
39
211
10
167.697489
20
523.270423
11
168.021218
21
523.435532
0
LINE
8
annotation
62
1
39
211
10
168.021218
20
523.435532
11
168.313279
21
523.653533
0
LINE
8
annotation
62
1
39
211
10
168.313279
20
523.653533
11
168.565998
21
523.920547
0
LINE
8
annotation
62
1
39
211
10
168.565998
20
523.920547
11
168.771701
21
524.232696
0
LINE
8
annotation
62
1
39
211
10
168.771701
20
524.232696
11
168.922715
21
524.586101
0
LINE
8
annotation
62
1
39
211
10
168.922715
20
524.586101
11
168.922715
21
524.586101
0
LINE
8
annotation
62
1
39
211
10
168.922715
20
524.586101
11
169.008269
21
524.960775
0
LINE
8
annotation
62
1
39
211
10
169.008269
20
524.960775
11
169.025328
21
525.334218
0
LINE
8
annotation
62
1
39
211
10
169.025328
20
525.334218
11
168.977821
21
525.698782
0
LINE
8
annotation
62
1
39
211
10
168.977821
20
525.698782
11
168.869676
21
526.046817
0
LINE
8
annotation
62
1
39
211
10
168.869676
20
526.046817
11
168.704822
21
526.370677
0
LINE
8
annotation
62
1
39
211
10
168.704822
20
526.370677
11
168.487187
21
526.662712
0
LINE
8
annotation
62
1
39
211
10
168.487187
20
526.662712
11
168.220700
21
526.915275
0
LINE
8
annotation
62
1
39
211
10
168.220700
20
526.915275
11
167.909288
21
527.120716
0
LINE
8
annotation
62
1
39
211
10
167.909288
20
527.120716
11
167.556881
21
527.271389
0
LINE
8
annotation
62
1
39
211
10
167.556881
20
527.271389
11
167.556881
21
527.271389
0
LINE
8
annotation
62
1
39
211
10
167.556881
20
527.271389
11
167.181504
21
527.357167
0
LINE
8
annotation
62
1
39
211
10
167.181504
20
527.357167
11
166.807469
21
527.374388
0
LINE
8
annotation
62
1
39
211
10
166.807469
20
527.374388
11
166.442406
21
527.326961
0
LINE
8
annotation
62
1
39
211
10
166.442406
20
527.326961
11
166.093947
21
527.218793
0
LINE
8
annotation
62
1
39
211
10
166.093947
20
527.218793
11
165.769723
21
527.053793
0
LINE
8
annotation
62
1
39
211
10
165.769723
20
527.053793
11
165.477365
21
526.835868
0
LINE
8
annotation
62
1
39
211
10
165.477365
20
526.835868
11
165.224504
21
526.568926
0
LINE
8
annotation
62
1
39
211
10
165.224504
20
526.568926
11
165.018772
21
526.256875
0
LINE
8
annotation
62
1
39
211
10
165.018772
20
526.256875
11
164.867800
21
525.903623
0
LINE
8
annotation
62
1
39
211
10
164.867800
20
525.903623
11
164.867800
21
525.903623
0
LINE
8
annotation
62
1
39
211
10
164.867800
20
525.903623
11
164.782303
21
525.529096
0
LINE
8
annotation
62
1
39
211
10
164.782303
20
525.529096
11
164.765325
21
525.155716
0
LINE
8
annotation
62
1
39
211
10
164.765325
20
525.155716
11
164.812988
21
524.791127
0
LINE
8
annotation
62
1
39
211
10
164.812988
20
524.791127
11
164.921418
21
524.442978
0
LINE
8
annotation
62
1
39
211
10
164.921418
20
524.442978
11
165.086736
21
524.118916
0
LINE
8
annotation
62
1
39
211
10
165.086736
20
524.118916
11
165.305065
21
523.826588
0
LINE
8
annotation
62
1
39
211
10
165.305065
20
523.826588
11
165.572530
21
523.573640
0
LINE
8
annotation
62
1
39
211
10
165.572530
20
523.573640
11
165.885254
21
523.367720
0
LINE
8
annotation
62
1
39
211
10
165.885254
20
523.367720
11
166.239359
21
523.216474
0
LINE
8
annotation
62
1
39
211
10
213.557358
20
525.638035
11
213.557358
21
525.638035
0
LINE
8
annotation
62
1
39
211
10
213.557358
20
525.638035
11
213.961803
21
525.128444
0
LINE
8
annotation
62
1
39
211
10
213.961803
20
525.128444
11
214.426762
21
524.691156
0
LINE
8
annotation
62
1
39
211
10
214.426762
20
524.691156
11
214.943005
21
524.329254
0
LINE
8
annotation
62
1
39
211
10
214.943005
20
524.329254
11
215.501306
21
524.045819
0
LINE
8
annotation
62
1
39
211
10
215.501306
20
524.045819
11
216.092436
21
523.843933
0
LINE
8
annotation
62
1
39
211
10
216.092436
20
523.843933
11
216.707168
21
523.726677
0
LINE
8
annotation
62
1
39
211
10
216.707168
20
523.726677
11
217.336273
21
523.697134
0
LINE
8
annotation
62
1
39
211
10
217.336273
20
523.697134
11
217.970524
21
523.758385
0
LINE
8
annotation
62
1
39
211
10
217.970524
20
523.758385
11
218.600693
21
523.913511
0
LINE
8
annotation
62
1
39
211
10
218.600693
20
523.913511
11
221.645600
21
524.902862
0
LINE
8
annotation
62
1
39
211
10
221.645600
20
524.902862
11
221.645600
21
524.902862
0
LINE
8
annotation
62
1
39
211
10
221.645600
20
524.902862
11
221.999736
21
525.054013
0
LINE
8
annotation
62
1
39
211
10
221.999736
20
525.054013
11
222.312536
21
525.259697
0
LINE
8
annotation
62
1
39
211
10
222.312536
20
525.259697
11
222.580101
21
525.512339
0
LINE
8
annotation
62
1
39
211
10
222.580101
20
525.512339
11
222.798530
21
525.804361
0
LINE
8
annotation
62
1
39
211
10
222.798530
20
525.804361
11
222.963925
21
526.128188
0
LINE
8
annotation
62
1
39
211
10
222.963925
20
526.128188
11
223.072385
21
526.476242
0
LINE
8
annotation
62
1
39
211
10
223.072385
20
526.476242
11
223.120010
21
526.840949
0
LINE
8
annotation
62
1
39
211
10
223.120010
20
526.840949
11
223.102902
21
527.214730
0
LINE
8
annotation
62
1
39
211
10
223.102902
20
527.214730
11
223.017160
21
527.590010
0
LINE
8
annotation
62
1
39
211
10
223.017160
20
527.590010
11
223.017160
21
527.590010
0
LINE
8
annotation
62
1
39
211
10
223.017160
20
527.590010
11
222.866187
21
527.943262
0
LINE
8
annotation
62
1
39
211
10
222.866187
20
527.943262
11
222.660455
21
528.255313
0
LINE
8
annotation
62
1
39
211
10
222.660455
20
528.255313
11
222.407595
21
528.522255
0
LINE
8
annotation
62
1
39
211
10
222.407595
20
528.522255
11
222.115237
21
528.740180
0
LINE
8
annotation
62
1
39
211
10
222.115237
20
528.740180
11
221.791013
21
528.905181
0
LINE
8
annotation
62
1
39
211
10
221.791013
20
528.905181
11
221.442554
21
529.013349
0
LINE
8
annotation
62
1
39
211
10
221.442554
20
529.013349
11
221.077491
21
529.060776
0
LINE
8
annotation
62
1
39
211
10
221.077491
20
529.060776
11
220.703456
21
529.043554
0
LINE
8
annotation
62
1
39
211
10
220.703456
20
529.043554
11
220.328079
21
528.957776
0
LINE
8
annotation
62
1
39
211
10
220.328079
20
528.957776
11
219.312919
21
528.627931
0
LINE
8
annotation
62
1
39
211
10
219.312919
20
528.627931
11
219.312919
21
528.627931
0
LINE
8
annotation
62
1
39
211
10
219.312919
20
528.627931
11
218.958833
21
528.476692
0
LINE
8
annotation
62
1
39
211
10
218.958833
20
528.476692
11
218.646162
21
528.270789
0
LINE
8
annotation
62
1
39
211
10
218.646162
20
528.270789
11
218.378773
21
528.017866
0
LINE
8
annotation
62
1
39
211
10
218.378773
20
528.017866
11
218.160533
21
527.725567
0
LINE
8
annotation
62
1
39
211
10
218.160533
20
527.725567
11
217.995311
21
527.401535
0
LINE
8
annotation
62
1
39
211
10
217.995311
20
527.401535
11
217.886972
21
527.053416
0
LINE
8
annotation
62
1
39
211
10
217.886972
20
527.053416
11
217.839384
21
526.688852
0
LINE
8
annotation
62
1
39
211
10
217.839384
20
526.688852
11
217.856415
21
526.315488
0
LINE
8
annotation
62
1
39
211
10
217.856415
20
526.315488
11
217.941932
21
525.940969
0
LINE
8
annotation
62
1
39
211
10
217.941932
20
525.940969
11
218.600693
21
523.913511
0
LINE
8
annotation
62
1
39
211
10
212.004667
20
526.533445
11
213.487948
21
521.968373
0
LINE
8
annotation
62
1
39
211
10
257.294262
20
555.741480
11
262.722717
21
563.213108
0
LINE
8
annotation
62
1
39
211
10
262.722717
20
563.213108
11
259.854523
21
562.758416
0
LINE
8
annotation
62
1
39
211
10
261.367633
20
552.932579
11
261.367633
21
552.932579
0
LINE
8
annotation
62
1
39
211
10
261.367633
20
552.932579
11
261.494120
21
552.741500
0
LINE
8
annotation
62
1
39
211
10
261.494120
20
552.741500
11
261.648781
21
552.579857
0
LINE
8
annotation
62
1
39
211
10
261.648781
20
552.579857
11
261.826634
21
552.449261
0
LINE
8
annotation
62
1
39
211
10
261.826634
20
552.449261
11
262.022700
21
552.351321
0
LINE
8
annotation
62
1
39
211
10
262.022700
20
552.351321
11
262.231995
21
552.287648
0
LINE
8
annotation
62
1
39
211
10
262.231995
20
552.287648
11
262.449538
21
552.259852
0
LINE
8
annotation
62
1
39
211
10
262.449538
20
552.259852
11
262.670348
21
552.269543
0
LINE
8
annotation
62
1
39
211
10
262.670348
20
552.269543
11
262.889443
21
552.318330
0
LINE
8
annotation
62
1
39
211
10
262.889443
20
552.318330
11
263.101841
21
552.407825
0
LINE
8
annotation
62
1
39
211
10
263.101841
20
552.407825
11
263.101841
21
552.407825
0
LINE
8
annotation
62
1
39
211
10
263.101841
20
552.407825
11
263.879085
21
552.872391
0
LINE
8
annotation
62
1
39
211
10
263.879085
20
552.872391
11
264.598546
21
553.408729
0
LINE
8
annotation
62
1
39
211
10
264.598546
20
553.408729
11
265.256208
21
554.011314
0
LINE
8
annotation
62
1
39
211
10
265.256208
20
554.011314
11
265.848057
21
554.674619
0
LINE
8
annotation
62
1
39
211
10
265.848057
20
554.674619
11
266.370077
21
555.393118
0
LINE
8
annotation
62
1
39
211
10
266.370077
20
555.393118
11
266.818253
21
556.161284
0
LINE
8
annotation
62
1
39
211
10
266.818253
20
556.161284
11
267.188570
21
556.973592
0
LINE
8
annotation
62
1
39
211
10
267.188570
20
556.973592
11
267.477014
21
557.824515
0
LINE
8
annotation
62
1
39
211
10
267.477014
20
557.824515
11
267.679568
21
558.708526
0
LINE
8
annotation
62
1
39
211
10
267.679568
20
558.708526
11
267.679568
21
558.708526
0
LINE
8
annotation
62
1
39
211
10
267.679568
20
558.708526
11
267.692456
21
558.803230
0
LINE
8
annotation
62
1
39
211
10
267.692456
20
558.803230
11
267.698275
21
558.898498
0
LINE
8
annotation
62
1
39
211
10
267.698275
20
558.898498
11
267.697106
21
558.993781
0
LINE
8
annotation
62
1
39
211
10
267.697106
20
558.993781
11
267.689029
21
559.088533
0
LINE
8
annotation
62
1
39
211
10
267.689029
20
559.088533
11
267.674123
21
559.182207
0
LINE
8
annotation
62
1
39
211
10
267.674123
20
559.182207
11
267.652469
21
559.274256
0
LINE
8
annotation
62
1
39
211
10
267.652469
20
559.274256
11
267.624145
21
559.364132
0
LINE
8
annotation
62
1
39
211
10
267.624145
20
559.364132
11
267.589232
21
559.451290
0
LINE
8
annotation
62
1
39
211
10
267.589232
20
559.451290
11
267.547810
21
559.535181
0
LINE
8
annotation
62
1
39
211
10
267.547810
20
559.535181
11
267.547810
21
559.535181
0
LINE
8
annotation
62
1
39
211
10
267.547810
20
559.535181
11
267.420967
21
559.728668
0
LINE
8
annotation
62
1
39
211
10
267.420967
20
559.728668
11
267.266063
21
559.892171
0
LINE
8
annotation
62
1
39
211
10
267.266063
20
559.892171
11
267.088041
21
560.024121
0
LINE
8
annotation
62
1
39
211
10
267.088041
20
560.024121
11
266.891839
21
560.122948
0
LINE
8
annotation
62
1
39
211
10
266.891839
20
560.122948
11
266.682401
21
560.187084
0
LINE
8
annotation
62
1
39
211
10
266.682401
20
560.187084
11
266.464665
21
560.214960
0
LINE
8
annotation
62
1
39
211
10
266.464665
20
560.214960
11
266.243574
21
560.205007
0
LINE
8
annotation
62
1
39
211
10
266.243574
20
560.205007
11
266.024067
21
560.155657
0
LINE
8
annotation
62
1
39
211
10
266.024067
20
560.155657
11
265.811087
21
560.065341
0
LINE
8
annotation
62
1
39
211
10
265.811087
20
560.065341
11
265.811087
21
560.065341
0
LINE
8
annotation
62
1
39
211
10
265.811087
20
560.065341
11
265.035332
21
559.599906
0
LINE
8
annotation
62
1
39
211
10
265.035332
20
559.599906
11
264.316988
21
559.062915
0
LINE
8
annotation
62
1
39
211
10
264.316988
20
559.062915
11
263.660070
21
558.459895
0
LINE
8
annotation
62
1
39
211
10
263.660070
20
558.459895
11
263.068594
21
557.796373
0
LINE
8
annotation
62
1
39
211
10
263.068594
20
557.796373
11
262.546574
21
557.077874
0
LINE
8
annotation
62
1
39
211
10
262.546574
20
557.077874
11
262.098025
21
556.309925
0
LINE
8
annotation
62
1
39
211
10
262.098025
20
556.309925
11
261.726963
21
555.498052
0
LINE
8
annotation
62
1
39
211
10
261.726963
20
555.498052
11
261.437403
21
554.647782
0
LINE
8
annotation
62
1
39
211
10
261.437403
20
554.647782
11
261.233360
21
553.764640
0
LINE
8
annotation
62
1
39
211
10
261.233360
20
553.764640
11
261.233360
21
553.764640
0
LINE
8
annotation
62
1
39
211
10
261.233360
20
553.764640
11
261.220438
21
553.670168
0
LINE
8
annotation
62
1
39
211
10
261.220438
20
553.670168
11
261.214547
21
553.575448
0
LINE
8
annotation
62
1
39
211
10
261.214547
20
553.575448
11
261.215658
21
553.480803
0
LINE
8
annotation
62
1
39
211
10
261.215658
20
553.480803
11
261.223740
21
553.386556
0
LINE
8
annotation
62
1
39
211
10
261.223740
20
553.386556
11
261.238761
21
553.293029
0
LINE
8
annotation
62
1
39
211
10
261.238761
20
553.293029
11
261.260692
21
553.200545
0
LINE
8
annotation
62
1
39
211
10
261.260692
20
553.200545
11
261.289501
21
553.109426
0
LINE
8
annotation
62
1
39
211
10
261.289501
20
553.109426
11
261.325158
21
553.019997
0
LINE
8
annotation
62
1
39
211
10
261.325158
20
553.019997
11
261.367633
21
552.932579
0
LINE
8
annotation
62
1
39
211
10
153.025541
20
587.908818
11
122.669927
21
587.908818
0
LINE
8
annotation
62
1
39
211
10
122.669927
20
587.908818
11
153.025541
21
642.579094
0
LINE
8
annotation
62
1
39
211
10
153.025541
20
642.579094
11
122.669927
21
642.579094
0
LINE
8
annotation
62
1
39
211
10
203.424809
20
615.243956
11
173.532038
21
615.243956
0
LINE
8
annotation
62
1
39
211
10
223.921020
20
587.908818
11
236.061209
21
587.908818
0
LINE
8
annotation
62
1
39
211
10
236.061209
20
587.908818
11
236.061209
21
587.908818
0
LINE
8
annotation
62
1
39
211
10
236.061209
20
587.908818
11
238.240136
21
588.104730
0
LINE
8
annotation
62
1
39
211
10
238.240136
20
588.104730
11
240.292281
21
588.669532
0
LINE
8
annotation
62
1
39
211
10
240.292281
20
588.669532
11
242.183048
21
589.568829
0
LINE
8
annotation
62
1
39
211
10
242.183048
20
589.568829
11
243.877842
21
590.768222
0
LINE
8
annotation
62
1
39
211
10
243.877842
20
590.768222
11
245.342069
21
592.233314
0
LINE
8
annotation
62
1
39
211
10
245.342069
20
592.233314
11
246.541133
21
593.929708
0
LINE
8
annotation
62
1
39
211
10
246.541133
20
593.929708
11
247.440439
21
595.823005
0
LINE
8
annotation
62
1
39
211
10
247.440439
20
595.823005
11
248.005392
21
597.878808
0
LINE
8
annotation
62
1
39
211
10
248.005392
20
597.878808
11
248.201398
21
600.062721
0
LINE
8
annotation
62
1
39
211
10
248.201398
20
600.062721
11
248.201398
21
606.110530
0
LINE
8
annotation
62
1
39
211
10
248.201398
20
606.110530
11
248.201398
21
606.110530
0
LINE
8
annotation
62
1
39
211
10
248.201398
20
606.110530
11
248.005505
21
608.293384
0
LINE
8
annotation
62
1
39
211
10
248.005505
20
608.293384
11
247.440834
21
610.346352
0
LINE
8
annotation
62
1
39
211
10
247.440834
20
610.346352
11
246.541894
21
612.235543
0
LINE
8
annotation
62
1
39
211
10
246.541894
20
612.235543
11
245.343197
21
613.927069
0
LINE
8
annotation
62
1
39
211
10
245.343197
20
613.927069
11
243.879253
21
615.387039
0
LINE
8
annotation
62
1
39
211
10
243.879253
20
615.387039
11
242.184572
21
616.581565
0
LINE
8
annotation
62
1
39
211
10
242.184572
20
616.581565
11
240.293664
21
617.476756
0
LINE
8
annotation
62
1
39
211
10
240.293664
20
617.476756
11
238.241039
21
618.038723
0
LINE
8
annotation
62
1
39
211
10
238.241039
20
618.038723
11
236.061209
21
618.233576
0
LINE
8
annotation
62
1
39
211
10
236.061209
20
618.233576
11
223.921020
21
618.233576
0
LINE
8
annotation
62
1
39
211
10
223.921020
20
618.233576
11
223.921020
21
642.579094
0
LINE
8
annotation
62
1
39
211
10
223.921020
20
642.579094
11
248.201398
21
642.579094
0
LINE
8
frame
62
5
39
2
10
0.000000
20
0.000000
11
457.000000
21
0.000000
0
LINE
8
frame
62
5
39
2
10
457.000000
20
0.000000
11
457.000000
21
812.000000
0
LINE
8
frame
62
5
39
2
10
457.000000
20
812.000000
11
0.000000
21
812.000000
0
LINE
8
frame
62
5
39
2
10
0.000000
20
812.000000
11
0.000000
21
0.000000
0
ENDSEC
0
EOF
