0
SECTION
2
HEADER
9
$ACADVER
1
AC1009
0
ENDSEC
0
SECTION
2
TABLES
0
TABLE
2
VPORT
70
1
0
VPORT
2
ACTIVE
70
0
10
0.0
20
0.0
11
0.0
21
0.0
12
0.0
22
0.0
13
0.0
23
0.0
14
0.0
24
0.0
15
0.0
25
0.0
16
0.0
26
0.0
36
0.0
17
0.0
27
0.0
37
0.0
40
0.0
41
0.0
42
0.0
43
0.0
44
0.0
50
0.0
51
0.0
71
0
72
1000
73
1
74
3
75
0
76
0
77
0
78
0
0
ENDTAB
0
ENDSEC
0
SECTION
2
ENTITIES
0
LINE
8
boundary
62
5
39
2
10
49.615376
20
84.639814
11
55.975557
21
76.904676
0
LINE
8
boundary
62
5
39
2
10
55.975557
20
76.904676
11
58.127656
21
74.585268
0
LINE
8
boundary
62
5
39
2
10
58.127656
20
74.585268
11
64.939044
21
67.244337
0
LINE
8
boundary
62
5
39
2
10
64.939044
20
67.244337
11
67.226000
21
65.057780
0
LINE
8
boundary
62
5
39
2
10
67.226000
20
65.057780
11
74.464218
21
58.137328
0
LINE
8
boundary
62
5
39
2
10
74.464218
20
58.137328
11
76.877848
21
56.091455
0
LINE
8
boundary
62
5
39
2
10
76.877848
20
56.091455
11
84.516986
21
49.616266
0
LINE
8
boundary
62
5
39
2
10
84.516986
20
49.616266
11
87.048648
21
47.718403
0
LINE
8
boundary
62
5
39
2
10
87.048648
20
47.718403
11
95.061355
21
41.711666
0
LINE
8
boundary
62
5
39
2
10
95.061355
20
41.711666
11
97.701984
21
39.968600
0
LINE
8
boundary
62
5
39
2
10
97.701984
20
39.968600
11
106.059580
21
34.451812
0
LINE
8
boundary
62
5
39
2
10
106.059580
20
34.451812
11
108.799727
21
32.869785
0
LINE
8
boundary
62
5
39
2
10
108.799727
20
32.869785
11
117.472282
21
27.862669
0
LINE
8
boundary
62
5
39
2
10
117.472282
20
27.862669
11
120.302135
21
26.447349
0
LINE
8
boundary
62
5
39
2
10
120.302135
20
26.447349
11
129.258620
21
21.967865
0
LINE
8
boundary
62
5
39
2
10
129.258620
20
21.967865
11
132.168051
21
20.724314
0
LINE
8
boundary
62
5
39
2
10
132.168051
20
20.724314
11
141.376395
21
16.788478
0
LINE
8
boundary
62
5
39
2
10
141.376395
20
16.788478
11
144.354987
21
15.721150
0
LINE
8
boundary
62
5
39
2
10
144.354987
20
15.721150
11
150.674262
21
13.456746
0
LINE
8
boundary
62
5
39
2
10
150.674262
20
13.456746
11
183.534250
21
113.618568
0
LINE
8
boundary
62
5
39
2
10
183.534250
20
113.618568
11
189.240589
21
111.764466
0
LINE
8
boundary
62
5
39
2
10
189.240589
20
111.764466
11
156.758624
21
11.795257
0
LINE
8
boundary
62
5
39
2
10
156.758624
20
11.795257
11
166.431712
21
8.647516
0
LINE
8
boundary
62
5
39
2
10
166.431712
20
8.647516
11
169.516430
21
7.943449
0
LINE
8
boundary
62
5
39
2
10
169.516430
20
7.943449
11
179.279563
21
5.715082
0
LINE
8
boundary
62
5
39
2
10
179.279563
20
5.715082
11
182.400869
21
5.196753
0
LINE
8
boundary
62
5
39
2
10
182.400869
20
5.196753
11
192.279792
21
3.556238
0
LINE
8
boundary
62
5
39
2
10
192.279792
20
3.556238
11
195.426507
21
3.225508
0
LINE
8
boundary
62
5
39
2
10
195.426507
20
3.225508
11
205.385859
21
2.178736
0
LINE
8
boundary
62
5
39
2
10
205.385859
20
2.178736
11
208.546721
21
2.036778
0
LINE
8
boundary
62
5
39
2
10
208.546721
20
2.036778
11
218.550846
21
1.587500
0
LINE
8
boundary
62
5
39
2
10
218.550846
20
1.587500
11
221.714541
21
1.634835
0
LINE
8
boundary
62
5
39
2
10
221.714541
20
1.634835
11
231.727629
21
1.784625
0
LINE
8
boundary
62
5
39
2
10
231.727629
20
1.784625
11
234.882830
21
2.021070
0
LINE
8
boundary
62
5
39
2
10
234.882830
20
2.021070
11
244.869037
21
2.769452
0
LINE
8
boundary
62
5
39
2
10
244.869037
20
2.769452
11
248.004450
21
3.194177
0
LINE
8
boundary
62
5
39
2
10
248.004450
20
3.194177
11
257.928028
21
4.538424
0
LINE
8
boundary
62
5
39
2
10
257.928028
20
4.538424
11
261.032430
21
5.149895
0
LINE
8
boundary
62
5
39
2
10
261.032430
20
5.149895
11
270.857857
21
7.085195
0
LINE
8
boundary
62
5
39
2
10
270.857857
20
7.085195
11
273.920133
21
7.881229
0
LINE
8
boundary
62
5
39
2
10
273.920133
20
7.881229
11
283.612231
21
10.400668
0
LINE
8
boundary
62
5
39
2
10
283.612231
20
10.400668
11
286.621421
21
11.378409
0
LINE
8
boundary
62
5
39
2
10
286.621421
20
11.378409
11
286.932991
21
11.795083
0
LINE
8
boundary
62
5
39
2
10
286.932991
20
11.795083
11
254.435738
21
111.811343
0
LINE
8
boundary
62
5
39
2
10
254.435738
20
111.811343
11
260.142078
21
113.665446
0
LINE
8
boundary
62
5
39
2
10
260.142078
20
113.665446
11
292.639332
21
13.649181
0
LINE
8
boundary
62
5
39
2
10
292.639332
20
13.649181
11
296.145504
21
14.472965
0
LINE
8
boundary
62
5
39
2
10
296.145504
20
14.472965
11
299.090834
21
15.628921
0
LINE
8
boundary
62
5
39
2
10
299.090834
20
15.628921
11
308.412792
21
19.287526
0
LINE
8
boundary
62
5
39
2
10
308.412792
20
19.287526
11
311.283721
21
20.617561
0
LINE
8
boundary
62
5
39
2
10
311.283721
20
20.617561
11
320.370204
21
24.827097
0
LINE
8
boundary
62
5
39
2
10
320.370204
20
24.827097
11
323.156449
21
26.326439
0
LINE
8
boundary
62
5
39
2
10
323.156449
20
26.326439
11
331.974919
21
31.071866
0
LINE
8
boundary
62
5
39
2
10
331.974919
20
31.071866
11
334.666513
21
32.735151
0
LINE
8
boundary
62
5
39
2
10
334.666513
20
32.735151
11
343.185399
21
37.999463
0
LINE
8
boundary
62
5
39
2
10
343.185399
20
37.999463
11
345.772702
21
39.820745
0
LINE
8
boundary
62
5
39
2
10
345.772702
20
39.820745
11
353.961517
21
45.585097
0
LINE
8
boundary
62
5
39
2
10
353.961517
20
45.585097
11
356.435269
21
47.557847
0
LINE
8
boundary
62
5
39
2
10
356.435269
20
47.557847
11
364.264686
21
53.801592
0
LINE
8
boundary
62
5
39
2
10
364.264686
20
53.801592
11
366.616033
21
55.918756
0
LINE
8
boundary
62
5
39
2
10
366.616033
20
55.918756
11
374.058049
21
62.619572
0
LINE
8
boundary
62
5
39
2
10
374.058049
20
62.619572
11
376.278573
21
64.873567
0
LINE
8
boundary
62
5
39
2
10
376.278573
20
64.873567
11
383.306514
21
72.007451
0
LINE
8
boundary
62
5
39
2
10
383.306514
20
72.007451
11
385.388259
21
74.390207
0
LINE
8
boundary
62
5
39
2
10
385.388259
20
74.390207
11
391.977003
21
81.931635
0
LINE
8
boundary
62
5
39
2
10
391.977003
20
81.931635
11
393.912533
21
84.434619
0
LINE
8
boundary
62
5
39
2
10
393.912533
20
84.434619
11
398.018874
21
89.744858
0
LINE
8
boundary
62
5
39
2
10
398.018874
20
89.744858
11
312.913617
21
151.948268
0
LINE
8
boundary
62
5
39
2
10
312.913617
20
151.948268
11
316.440328
21
156.802370
0
LINE
8
boundary
62
5
39
2
10
316.440328
20
156.802370
11
401.479217
21
95.018000
0
LINE
8
boundary
62
5
39
2
10
401.479217
20
95.018000
11
407.462050
21
103.244957
0
LINE
8
boundary
62
5
39
2
10
407.462050
20
103.244957
11
409.084890
21
105.961132
0
LINE
8
boundary
62
5
39
2
10
409.084890
20
105.961132
11
414.221166
21
114.557811
0
LINE
8
boundary
62
5
39
2
10
414.221166
20
114.557811
11
415.678662
21
117.366176
0
LINE
8
boundary
62
5
39
2
10
415.678662
20
117.366176
11
420.291643
21
126.254641
0
LINE
8
boundary
62
5
39
2
10
420.291643
20
126.254641
11
421.578577
21
129.145143
0
LINE
8
boundary
62
5
39
2
10
421.578577
20
129.145143
11
425.651715
21
138.293582
0
LINE
8
boundary
62
5
39
2
10
425.651715
20
138.293582
11
426.763484
21
141.255873
0
LINE
8
boundary
62
5
39
2
10
426.763484
20
141.255873
11
430.282216
21
150.631526
0
LINE
8
boundary
62
5
39
2
10
430.282216
20
150.631526
11
431.214833
21
153.655007
0
LINE
8
boundary
62
5
39
2
10
431.214833
20
153.655007
11
434.166570
21
163.224313
0
LINE
8
boundary
62
5
39
2
10
434.166570
20
163.224313
11
434.916704
21
166.298154
0
LINE
8
boundary
62
5
39
2
10
434.916704
20
166.298154
11
437.290872
21
176.026855
0
LINE
8
boundary
62
5
39
2
10
437.290872
20
176.026855
11
437.855831
21
179.140058
0
LINE
8
boundary
62
5
39
2
10
437.855831
20
179.140058
11
439.643957
21
188.993336
0
LINE
8
boundary
62
5
39
2
10
439.643957
20
188.993336
11
440.021733
21
192.134752
0
LINE
8
boundary
62
5
39
2
10
440.021733
20
192.134752
11
441.217361
21
202.077329
0
LINE
8
boundary
62
5
39
2
10
441.217361
20
202.077329
11
441.406584
21
205.235714
0
LINE
8
boundary
62
5
39
2
10
441.406584
20
205.235714
11
442.005468
21
215.231999
0
LINE
8
boundary
62
5
39
2
10
442.005468
20
215.231999
11
442.005469
21
218.396048
0
LINE
8
boundary
62
5
39
2
10
442.005469
20
218.396048
11
441.705468
21
218.821128
0
LINE
8
boundary
62
5
39
2
10
441.705468
20
218.821128
11
336.542149
21
218.821128
0
LINE
8
boundary
62
5
39
2
10
336.542149
20
218.821128
11
336.542149
21
224.821128
0
LINE
8
boundary
62
5
39
2
10
336.542149
20
224.821128
11
441.705468
21
224.821129
0
LINE
8
boundary
62
5
39
2
10
441.705468
20
224.821129
11
442.005469
21
228.410258
0
LINE
8
boundary
62
5
39
2
10
442.005469
20
228.410258
11
441.816246
21
231.568643
0
LINE
8
boundary
62
5
39
2
10
441.816246
20
231.568643
11
441.217362
21
241.564930
0
LINE
8
boundary
62
5
39
2
10
441.217362
20
241.564930
11
440.839586
21
244.706345
0
LINE
8
boundary
62
5
39
2
10
440.839586
20
244.706345
11
439.643958
21
254.648922
0
LINE
8
boundary
62
5
39
2
10
439.643958
20
254.648922
11
439.078999
21
257.762123
0
LINE
8
boundary
62
5
39
2
10
439.078999
20
257.762123
11
437.290872
21
267.615401
0
LINE
8
boundary
62
5
39
2
10
437.290872
20
267.615401
11
436.540738
21
270.689242
0
LINE
8
boundary
62
5
39
2
10
436.540738
20
270.689242
11
434.166570
21
280.417944
0
LINE
8
boundary
62
5
39
2
10
434.166570
20
280.417944
11
433.233953
21
283.441424
0
LINE
8
boundary
62
5
39
2
10
433.233953
20
283.441424
11
430.282216
21
293.010731
0
LINE
8
boundary
62
5
39
2
10
430.282216
20
293.010731
11
429.170448
21
295.973023
0
LINE
8
boundary
62
5
39
2
10
429.170448
20
295.973023
11
425.651716
21
305.348676
0
LINE
8
boundary
62
5
39
2
10
425.651716
20
305.348676
11
424.364781
21
308.239178
0
LINE
8
boundary
62
5
39
2
10
424.364781
20
308.239178
11
420.291642
21
317.387615
0
LINE
8
boundary
62
5
39
2
10
420.291642
20
317.387615
11
418.834147
21
320.195980
0
LINE
8
boundary
62
5
39
2
10
418.834147
20
320.195980
11
414.221165
21
329.084446
0
LINE
8
boundary
62
5
39
2
10
414.221165
20
329.084446
11
412.598325
21
331.800620
0
LINE
8
boundary
62
5
39
2
10
412.598325
20
331.800620
11
407.462049
21
340.397301
0
LINE
8
boundary
62
5
39
2
10
407.462049
20
340.397301
11
405.679680
21
343.011559
0
LINE
8
boundary
62
5
39
2
10
405.679680
20
343.011559
11
401.898258
21
348.557888
0
LINE
8
boundary
62
5
39
2
10
401.898258
20
348.557888
11
316.440328
21
286.839887
0
LINE
8
boundary
62
5
39
2
10
316.440328
20
286.839887
11
312.913617
21
291.693989
0
LINE
8
boundary
62
5
39
2
10
312.913617
20
291.693989
11
397.952502
21
353.478356
0
LINE
8
boundary
62
5
39
2
10
397.952502
20
353.478356
11
391.977003
21
361.710622
0
LINE
8
boundary
62
5
39
2
10
391.977003
20
361.710622
11
389.895258
21
364.093378
0
LINE
8
boundary
62
5
39
2
10
389.895258
20
364.093378
11
383.306514
21
371.634807
0
LINE
8
boundary
62
5
39
2
10
383.306514
20
371.634807
11
381.085991
21
373.888801
0
LINE
8
boundary
62
5
39
2
10
381.085991
20
373.888801
11
374.058050
21
381.022686
0
LINE
8
boundary
62
5
39
2
10
374.058050
20
381.022686
11
371.706703
21
383.139849
0
LINE
8
boundary
62
5
39
2
10
371.706703
20
383.139849
11
364.264686
21
389.840666
0
LINE
8
boundary
62
5
39
2
10
364.264686
20
389.840666
11
361.790934
21
391.813417
0
LINE
8
boundary
62
5
39
2
10
361.790934
20
391.813417
11
353.961517
21
398.057161
0
LINE
8
boundary
62
5
39
2
10
353.961517
20
398.057161
11
351.374214
21
399.878443
0
LINE
8
boundary
62
5
39
2
10
351.374214
20
399.878443
11
343.185398
21
405.642795
0
LINE
8
boundary
62
5
39
2
10
343.185398
20
405.642795
11
340.493804
21
407.306079
0
LINE
8
boundary
62
5
39
2
10
340.493804
20
407.306079
11
331.974919
21
412.570391
0
LINE
8
boundary
62
5
39
2
10
331.974919
20
412.570391
11
329.188674
21
414.069733
0
LINE
8
boundary
62
5
39
2
10
329.188674
20
414.069733
11
320.370204
21
418.815160
0
LINE
8
boundary
62
5
39
2
10
320.370204
20
418.815160
11
317.499275
21
420.145195
0
LINE
8
boundary
62
5
39
2
10
317.499275
20
420.145195
11
308.412792
21
424.354730
0
LINE
8
boundary
62
5
39
2
10
308.412792
20
424.354730
11
305.467463
21
425.510687
0
LINE
8
boundary
62
5
39
2
10
305.467463
20
425.510687
11
296.145505
21
429.169292
0
LINE
8
boundary
62
5
39
2
10
296.145505
20
429.169292
11
293.136315
21
430.147033
0
LINE
8
boundary
62
5
39
2
10
293.136315
20
430.147033
11
292.639331
21
429.993073
0
LINE
8
boundary
62
5
39
2
10
292.639331
20
429.993073
11
260.142077
21
329.976810
0
LINE
8
boundary
62
5
39
2
10
260.142077
20
329.976810
11
254.435738
21
331.830912
0
LINE
8
boundary
62
5
39
2
10
254.435738
20
331.830912
11
286.932991
21
431.847173
0
LINE
8
boundary
62
5
39
2
10
286.932991
20
431.847173
11
283.612232
21
433.241590
0
LINE
8
boundary
62
5
39
2
10
283.612232
20
433.241590
11
280.549956
21
434.037623
0
LINE
8
boundary
62
5
39
2
10
280.549956
20
434.037623
11
270.857857
21
436.557062
0
LINE
8
boundary
62
5
39
2
10
270.857857
20
436.557062
11
267.753455
21
437.168532
0
LINE
8
boundary
62
5
39
2
10
267.753455
20
437.168532
11
257.928029
21
439.103833
0
LINE
8
boundary
62
5
39
2
10
257.928029
20
439.103833
11
254.792616
21
439.528558
0
LINE
8
boundary
62
5
39
2
10
254.792616
20
439.528558
11
244.869037
21
440.872806
0
LINE
8
boundary
62
5
39
2
10
244.869037
20
440.872806
11
241.713837
21
441.109250
0
LINE
8
boundary
62
5
39
2
10
241.713837
20
441.109250
11
231.727630
21
441.857632
0
LINE
8
boundary
62
5
39
2
10
231.727630
20
441.857632
11
228.563934
21
441.904967
0
LINE
8
boundary
62
5
39
2
10
228.563934
20
441.904967
11
218.550846
21
442.054756
0
LINE
8
boundary
62
5
39
2
10
218.550846
20
442.054756
11
215.389983
21
441.912799
0
LINE
8
boundary
62
5
39
2
10
215.389983
20
441.912799
11
205.385858
21
441.463521
0
LINE
8
boundary
62
5
39
2
10
205.385858
20
441.463521
11
202.239143
21
441.132790
0
LINE
8
boundary
62
5
39
2
10
202.239143
20
441.132790
11
192.279792
21
440.086018
0
LINE
8
boundary
62
5
39
2
10
192.279792
20
440.086018
11
189.158486
21
439.567689
0
LINE
8
boundary
62
5
39
2
10
189.158486
20
439.567689
11
179.279563
21
437.927175
0
LINE
8
boundary
62
5
39
2
10
179.279563
20
437.927175
11
176.194845
21
437.223108
0
LINE
8
boundary
62
5
39
2
10
176.194845
20
437.223108
11
166.431712
21
434.994741
0
LINE
8
boundary
62
5
39
2
10
166.431712
20
434.994741
11
163.394619
21
434.107456
0
LINE
8
boundary
62
5
39
2
10
163.394619
20
434.107456
11
156.951235
21
432.225023
0
LINE
8
boundary
62
5
39
2
10
156.951235
20
432.225023
11
189.240588
21
331.877791
0
LINE
8
boundary
62
5
39
2
10
189.240588
20
331.877791
11
183.534249
21
330.023688
0
LINE
8
boundary
62
5
39
2
10
183.534249
20
330.023688
11
151.052284
21
429.992899
0
LINE
8
boundary
62
5
39
2
10
151.052284
20
429.992899
11
141.376395
21
426.853778
0
LINE
8
boundary
62
5
39
2
10
141.376395
20
426.853778
11
138.466964
21
425.610228
0
LINE
8
boundary
62
5
39
2
10
138.466964
20
425.610228
11
129.258620
21
421.674392
0
LINE
8
boundary
62
5
39
2
10
129.258620
20
421.674392
11
126.428766
21
420.259073
0
LINE
8
boundary
62
5
39
2
10
126.428766
20
420.259073
11
117.472280
21
415.779589
0
LINE
8
boundary
62
5
39
2
10
117.472280
20
415.779589
11
114.732133
21
414.197561
0
LINE
8
boundary
62
5
39
2
10
114.732133
20
414.197561
11
106.059580
21
409.190446
0
LINE
8
boundary
62
5
39
2
10
106.059580
20
409.190446
11
103.418952
21
407.447379
0
LINE
8
boundary
62
5
39
2
10
103.418952
20
407.447379
11
95.061355
21
401.930591
0
LINE
8
boundary
62
5
39
2
10
95.061355
20
401.930591
11
92.529693
21
400.032729
0
LINE
8
boundary
62
5
39
2
10
92.529693
20
400.032729
11
84.516986
21
394.025992
0
LINE
8
boundary
62
5
39
2
10
84.516986
20
394.025992
11
82.103355
21
391.980118
0
LINE
8
boundary
62
5
39
2
10
82.103355
20
391.980118
11
74.464217
21
385.504928
0
LINE
8
boundary
62
5
39
2
10
74.464217
20
385.504928
11
72.177260
21
383.318371
0
LINE
8
boundary
62
5
39
2
10
72.177260
20
383.318371
11
64.939044
21
376.397920
0
LINE
8
boundary
62
5
39
2
10
64.939044
20
376.397920
11
62.786945
21
374.078512
0
LINE
8
boundary
62
5
39
2
10
62.786945
20
374.078512
11
55.975556
21
366.737581
0
LINE
8
boundary
62
5
39
2
10
55.975556
20
366.737581
11
53.966017
21
364.293614
0
LINE
8
boundary
62
5
39
2
10
53.966017
20
364.293614
11
47.605837
21
356.558476
0
LINE
8
boundary
62
5
39
2
10
47.605837
20
356.558476
11
45.746056
21
353.998708
0
LINE
8
boundary
62
5
39
2
10
45.746056
20
353.998708
11
45.738901
21
353.478469
0
LINE
8
boundary
62
5
39
2
10
45.738901
20
353.478469
11
130.817817
21
291.665018
0
LINE
8
boundary
62
5
39
2
10
130.817817
20
291.665018
11
127.291106
21
286.810916
0
LINE
8
boundary
62
5
39
2
10
127.291106
20
286.810916
11
42.212188
21
348.624368
0
LINE
8
boundary
62
5
39
2
10
42.212188
20
348.624368
11
39.859845
21
345.897037
0
LINE
8
boundary
62
5
39
2
10
39.859845
20
345.897037
11
38.156474
21
343.230625
0
LINE
8
boundary
62
5
39
2
10
38.156474
20
343.230625
11
32.765334
21
334.791437
0
LINE
8
boundary
62
5
39
2
10
32.765334
20
334.791437
11
31.224480
21
332.027931
0
LINE
8
boundary
62
5
39
2
10
31.224480
20
332.027931
11
26.347669
21
323.281443
0
LINE
8
boundary
62
5
39
2
10
26.347669
20
323.281443
11
24.974839
21
320.430734
0
LINE
8
boundary
62
5
39
2
10
24.974839
20
320.430734
11
20.629822
21
311.408241
0
LINE
8
boundary
62
5
39
2
10
20.629822
20
311.408241
11
19.429935
21
308.480533
0
LINE
8
boundary
62
5
39
2
10
19.429935
20
308.480533
11
15.632307
21
299.214342
0
LINE
8
boundary
62
5
39
2
10
15.632307
20
299.214342
11
14.609655
21
296.220118
0
LINE
8
boundary
62
5
39
2
10
14.609655
20
296.220118
11
11.372975
21
286.743393
0
LINE
8
boundary
62
5
39
2
10
11.372975
20
286.743393
11
10.531225
21
283.693366
0
LINE
8
boundary
62
5
39
2
10
10.531225
20
283.693366
11
7.867064
21
274.040044
0
LINE
8
boundary
62
5
39
2
10
7.867064
20
274.040044
11
7.209219
21
270.945139
0
LINE
8
boundary
62
5
39
2
10
7.209219
20
270.945139
11
5.127147
21
261.149761
0
LINE
8
boundary
62
5
39
2
10
5.127147
20
261.149761
11
4.655572
21
258.021052
0
LINE
8
boundary
62
5
39
2
10
4.655572
20
258.021052
11
3.163036
21
248.118696
0
LINE
8
boundary
62
5
39
2
10
3.163036
20
248.118696
11
2.879410
21
244.967385
0
LINE
8
boundary
62
5
39
2
10
2.879410
20
244.967385
11
1.981751
21
234.993489
0
LINE
8
boundary
62
5
39
2
10
1.981751
20
234.993489
11
1.887098
21
231.830856
0
LINE
8
boundary
62
5
39
2
10
1.887098
20
231.830856
11
1.686271
21
225.121128
0
LINE
8
boundary
62
5
39
2
10
1.686271
20
225.121128
11
107.100115
21
224.821128
0
LINE
8
boundary
62
5
39
2
10
107.100115
20
224.821128
11
107.100114
21
218.821129
0
LINE
8
boundary
62
5
39
2
10
107.100114
20
218.821129
11
1.986265
21
218.821129
0
LINE
8
boundary
62
5
39
2
10
1.986265
20
218.821129
11
1.981751
21
208.648768
0
LINE
8
boundary
62
5
39
2
10
1.981751
20
208.648768
11
2.265377
21
205.497457
0
LINE
8
boundary
62
5
39
2
10
2.265377
20
205.497457
11
3.163036
21
195.523561
0
LINE
8
boundary
62
5
39
2
10
3.163036
20
195.523561
11
3.634611
21
192.394852
0
LINE
8
boundary
62
5
39
2
10
3.634611
20
192.394852
11
5.127147
21
182.492496
0
LINE
8
boundary
62
5
39
2
10
5.127147
20
182.492496
11
5.784993
21
179.397590
0
LINE
8
boundary
62
5
39
2
10
5.784993
20
179.397590
11
7.867064
21
169.602213
0
LINE
8
boundary
62
5
39
2
10
7.867064
20
169.602213
11
8.708815
21
166.552186
0
LINE
8
boundary
62
5
39
2
10
8.708815
20
166.552186
11
11.372975
21
156.898864
0
LINE
8
boundary
62
5
39
2
10
11.372975
20
156.898864
11
12.395628
21
153.904639
0
LINE
8
boundary
62
5
39
2
10
12.395628
20
153.904639
11
15.632308
21
144.427915
0
LINE
8
boundary
62
5
39
2
10
15.632308
20
144.427915
11
16.832195
21
141.500208
0
LINE
8
boundary
62
5
39
2
10
16.832195
20
141.500208
11
20.629822
21
132.234016
0
LINE
8
boundary
62
5
39
2
10
20.629822
20
132.234016
11
22.002652
21
129.383306
0
LINE
8
boundary
62
5
39
2
10
22.002652
20
129.383306
11
26.347670
21
120.360813
0
LINE
8
boundary
62
5
39
2
10
26.347670
20
120.360813
11
27.888524
21
117.597308
0
LINE
8
boundary
62
5
39
2
10
27.888524
20
117.597308
11
32.765334
21
108.850821
0
LINE
8
boundary
62
5
39
2
10
32.765334
20
108.850821
11
34.468705
21
106.184408
0
LINE
8
boundary
62
5
39
2
10
34.468705
20
106.184408
11
39.859845
21
97.745220
0
LINE
8
boundary
62
5
39
2
10
39.859845
20
97.745220
11
41.719625
21
95.185451
0
LINE
8
boundary
62
5
39
2
10
41.719625
20
95.185451
11
42.212187
21
95.017888
0
LINE
8
boundary
62
5
39
2
10
42.212187
20
95.017888
11
127.291105
21
156.831341
0
LINE
8
boundary
62
5
39
2
10
127.291105
20
156.831341
11
130.817817
21
151.977239
0
LINE
8
boundary
62
5
39
2
10
130.817817
20
151.977239
11
45.738900
21
90.163787
0
LINE
8
boundary
62
5
39
2
10
45.738900
20
90.163787
11
47.605837
21
87.083781
0
LINE
8
boundary
62
5
39
2
10
47.605837
20
87.083781
11
49.615376
21
84.639814
0
LINE
8
annotation
62
1
39
211
10
325.608348
20
217.021129
11
325.608348
21
226.621129
0
LINE
8
annotation
62
1
39
211
10
325.608348
20
226.621129
11
323.474145
21
224.486324
0
LINE
8
annotation
62
1
39
211
10
309.513867
20
279.582500
11
306.064551
21
277.076425
0
LINE
8
annotation
62
1
39
211
10
306.064551
20
277.076425
11
305.523860
21
284.523234
0
LINE
8
annotation
62
1
39
211
10
305.523860
20
284.523234
11
305.523860
21
284.523234
0
LINE
8
annotation
62
1
39
211
10
305.523860
20
284.523234
11
305.524245
21
284.530718
0
LINE
8
annotation
62
1
39
211
10
305.524245
20
284.530718
11
305.524444
21
284.538127
0
LINE
8
annotation
62
1
39
211
10
305.524444
20
284.538127
11
305.524453
21
284.545521
0
LINE
8
annotation
62
1
39
211
10
305.524453
20
284.545521
11
305.524266
21
284.552956
0
LINE
8
annotation
62
1
39
211
10
305.524266
20
284.552956
11
305.523878
21
284.560491
0
LINE
8
annotation
62
1
39
211
10
305.523878
20
284.560491
11
305.523285
21
284.568182
0
LINE
8
annotation
62
1
39
211
10
305.523285
20
284.568182
11
305.522481
21
284.576088
0
LINE
8
annotation
62
1
39
211
10
305.522481
20
284.576088
11
305.521460
21
284.584265
0
LINE
8
annotation
62
1
39
211
10
305.521460
20
284.584265
11
305.520219
21
284.592772
0
LINE
8
annotation
62
1
39
211
10
305.520219
20
284.592772
11
305.520219
21
284.592772
0
LINE
8
annotation
62
1
39
211
10
305.520219
20
284.592772
11
305.446529
21
284.970948
0
LINE
8
annotation
62
1
39
211
10
305.446529
20
284.970948
11
305.310605
21
285.319703
0
LINE
8
annotation
62
1
39
211
10
305.310605
20
285.319703
11
305.119140
21
285.633789
0
LINE
8
annotation
62
1
39
211
10
305.119140
20
285.633789
11
304.878826
21
285.907957
0
LINE
8
annotation
62
1
39
211
10
304.878826
20
285.907957
11
304.596357
21
286.136956
0
LINE
8
annotation
62
1
39
211
10
304.596357
20
286.136956
11
304.278424
21
286.315538
0
LINE
8
annotation
62
1
39
211
10
304.278424
20
286.315538
11
303.931720
21
286.438453
0
LINE
8
annotation
62
1
39
211
10
303.931720
20
286.438453
11
303.562937
21
286.500451
0
LINE
8
annotation
62
1
39
211
10
303.562937
20
286.500451
11
303.178770
21
286.496283
0
LINE
8
annotation
62
1
39
211
10
303.178770
20
286.496283
11
303.178770
21
286.496283
0
LINE
8
annotation
62
1
39
211
10
303.178770
20
286.496283
11
302.801167
21
286.420152
0
LINE
8
annotation
62
1
39
211
10
302.801167
20
286.420152
11
302.452823
21
286.282717
0
LINE
8
annotation
62
1
39
211
10
302.452823
20
286.282717
11
302.139058
21
286.090447
0
LINE
8
annotation
62
1
39
211
10
302.139058
20
286.090447
11
301.865193
21
285.849811
0
LINE
8
annotation
62
1
39
211
10
301.865193
20
285.849811
11
301.636547
21
285.567276
0
LINE
8
annotation
62
1
39
211
10
301.636547
20
285.567276
11
301.458441
21
285.249312
0
LINE
8
annotation
62
1
39
211
10
301.458441
20
285.249312
11
301.336195
21
284.902387
0
LINE
8
annotation
62
1
39
211
10
301.336195
20
284.902387
11
301.275130
21
284.532969
0
LINE
8
annotation
62
1
39
211
10
301.275130
20
284.532969
11
301.280567
21
284.147528
0
LINE
8
annotation
62
1
39
211
10
301.280567
20
284.147528
11
301.369735
21
283.548528
0
LINE
8
annotation
62
1
39
211
10
257.486356
20
315.979392
11
258.145117
21
318.006849
0
LINE
8
annotation
62
1
39
211
10
258.145117
20
318.006849
11
258.145117
21
318.006849
0
LINE
8
annotation
62
1
39
211
10
258.145117
20
318.006849
11
258.230885
21
318.382121
0
LINE
8
annotation
62
1
39
211
10
258.230885
20
318.382121
11
258.248096
21
318.755869
0
LINE
8
annotation
62
1
39
211
10
258.248096
20
318.755869
11
258.200681
21
319.120507
0
LINE
8
annotation
62
1
39
211
10
258.200681
20
319.120507
11
258.092573
21
319.468447
0
LINE
8
annotation
62
1
39
211
10
258.092573
20
319.468447
11
257.927705
21
319.792103
0
LINE
8
annotation
62
1
39
211
10
257.927705
20
319.792103
11
257.710009
21
320.083887
0
LINE
8
annotation
62
1
39
211
10
257.710009
20
320.083887
11
257.443418
21
320.336212
0
LINE
8
annotation
62
1
39
211
10
257.443418
20
320.336212
11
257.131865
21
320.541491
0
LINE
8
annotation
62
1
39
211
10
257.131865
20
320.541491
11
256.779283
21
320.692137
0
LINE
8
annotation
62
1
39
211
10
256.779283
20
320.692137
11
255.764123
21
321.021983
0
LINE
8
annotation
62
1
39
211
10
255.764123
20
321.021983
11
255.764123
21
321.021983
0
LINE
8
annotation
62
1
39
211
10
255.764123
20
321.021983
11
255.390481
21
321.107301
0
LINE
8
annotation
62
1
39
211
10
255.390481
20
321.107301
11
255.017849
21
321.124327
0
LINE
8
annotation
62
1
39
211
10
255.017849
20
321.124327
11
254.653883
21
321.076882
0
LINE
8
annotation
62
1
39
211
10
254.653883
20
321.076882
11
254.306239
21
320.968788
0
LINE
8
annotation
62
1
39
211
10
254.306239
20
320.968788
11
253.982570
21
320.803868
0
LINE
8
annotation
62
1
39
211
10
253.982570
20
320.803868
11
253.690534
21
320.585942
0
LINE
8
annotation
62
1
39
211
10
253.690534
20
320.585942
11
253.437784
21
320.318834
0
LINE
8
annotation
62
1
39
211
10
253.437784
20
320.318834
11
253.231977
21
320.006365
0
LINE
8
annotation
62
1
39
211
10
253.231977
20
320.006365
11
253.080768
21
319.652356
0
LINE
8
annotation
62
1
39
211
10
253.080768
20
319.652356
11
252.750922
21
318.637196
0
LINE
8
annotation
62
1
39
211
10
252.750922
20
318.637196
11
253.080768
21
319.652356
0
LINE
8
annotation
62
1
39
211
10
253.080768
20
319.652356
11
253.080768
21
319.652356
0
LINE
8
annotation
62
1
39
211
10
253.080768
20
319.652356
11
253.166510
21
320.027636
0
LINE
8
annotation
62
1
39
211
10
253.166510
20
320.027636
11
253.183618
21
320.401418
0
LINE
8
annotation
62
1
39
211
10
253.183618
20
320.401418
11
253.135993
21
320.766124
0
LINE
8
annotation
62
1
39
211
10
253.135993
20
320.766124
11
253.027533
21
321.114178
0
LINE
8
annotation
62
1
39
211
10
253.027533
20
321.114178
11
252.862138
21
321.438005
0
LINE
8
annotation
62
1
39
211
10
252.862138
20
321.438005
11
252.643709
21
321.730027
0
LINE
8
annotation
62
1
39
211
10
252.643709
20
321.730027
11
252.376144
21
321.982669
0
LINE
8
annotation
62
1
39
211
10
252.376144
20
321.982669
11
252.063344
21
322.188353
0
LINE
8
annotation
62
1
39
211
10
252.063344
20
322.188353
11
251.709208
21
322.339504
0
LINE
8
annotation
62
1
39
211
10
251.709208
20
322.339504
11
251.709208
21
322.339504
0
LINE
8
annotation
62
1
39
211
10
251.709208
20
322.339504
11
251.335566
21
322.424823
0
LINE
8
annotation
62
1
39
211
10
251.335566
20
322.424823
11
250.962934
21
322.441849
0
LINE
8
annotation
62
1
39
211
10
250.962934
20
322.441849
11
250.598969
21
322.394404
0
LINE
8
annotation
62
1
39
211
10
250.598969
20
322.394404
11
250.251324
21
322.286310
0
LINE
8
annotation
62
1
39
211
10
250.251324
20
322.286310
11
249.927656
21
322.121390
0
LINE
8
annotation
62
1
39
211
10
249.927656
20
322.121390
11
249.635619
21
321.903464
0
LINE
8
annotation
62
1
39
211
10
249.635619
20
321.903464
11
249.382869
21
321.636356
0
LINE
8
annotation
62
1
39
211
10
249.382869
20
321.636356
11
249.177062
21
321.323886
0
LINE
8
annotation
62
1
39
211
10
249.177062
20
321.323886
11
249.025853
21
320.969878
0
LINE
8
annotation
62
1
39
211
10
249.025853
20
320.969878
11
248.367092
21
318.942420
0
LINE
8
annotation
62
1
39
211
10
191.807728
20
322.895444
11
193.454909
21
317.825942
0
LINE
8
annotation
62
1
39
211
10
193.454909
20
317.825942
11
185.696684
21
317.543478
0
LINE
8
annotation
62
1
39
211
10
194.331221
20
322.035358
11
190.276306
21
320.717836
0
LINE
8
annotation
62
1
39
211
10
143.309667
20
284.814080
11
141.585009
21
286.067118
0
LINE
8
annotation
62
1
39
211
10
141.585009
20
286.067118
11
141.585009
21
286.067118
0
LINE
8
annotation
62
1
39
211
10
141.585009
20
286.067118
11
141.255246
21
286.264182
0
LINE
8
annotation
62
1
39
211
10
141.255246
20
286.264182
11
140.905418
21
286.395755
0
LINE
8
annotation
62
1
39
211
10
140.905418
20
286.395755
11
140.543992
21
286.463153
0
LINE
8
annotation
62
1
39
211
10
140.543992
20
286.463153
11
140.179433
21
286.467691
0
LINE
8
annotation
62
1
39
211
10
140.179433
20
286.467691
11
139.820204
21
286.410686
0
LINE
8
annotation
62
1
39
211
10
139.820204
20
286.410686
11
139.474771
21
286.293454
0
LINE
8
annotation
62
1
39
211
10
139.474771
20
286.293454
11
139.151599
21
286.117309
0
LINE
8
annotation
62
1
39
211
10
139.151599
20
286.117309
11
138.859153
21
285.883569
0
LINE
8
annotation
62
1
39
211
10
138.859153
20
285.883569
11
138.605898
21
285.593549
0
LINE
8
annotation
62
1
39
211
10
138.605898
20
285.593549
11
137.981679
21
284.734386
0
LINE
8
annotation
62
1
39
211
10
137.981679
20
284.734386
11
137.981679
21
284.734386
0
LINE
8
annotation
62
1
39
211
10
137.981679
20
284.734386
11
137.784207
21
284.404066
0
LINE
8
annotation
62
1
39
211
10
137.784207
20
284.404066
11
137.652530
21
284.054136
0
LINE
8
annotation
62
1
39
211
10
137.652530
20
284.054136
11
137.585244
21
283.692971
0
LINE
8
annotation
62
1
39
211
10
137.585244
20
283.692971
11
137.580944
21
283.328947
0
LINE
8
annotation
62
1
39
211
10
137.580944
20
283.328947
11
137.638225
21
282.970441
0
LINE
8
annotation
62
1
39
211
10
137.638225
20
282.970441
11
137.755683
21
282.625830
0
LINE
8
annotation
62
1
39
211
10
137.755683
20
282.625830
11
137.931913
21
282.303489
0
LINE
8
annotation
62
1
39
211
10
137.931913
20
282.303489
11
138.165510
21
282.011795
0
LINE
8
annotation
62
1
39
211
10
138.165510
20
282.011795
11
138.455069
21
281.759125
0
LINE
8
annotation
62
1
39
211
10
138.455069
20
281.759125
11
140.179727
21
280.506088
0
LINE
8
annotation
62
1
39
211
10
140.179727
20
280.506088
11
137.666929
21
277.047517
0
LINE
8
annotation
62
1
39
211
10
137.666929
20
277.047517
11
134.217612
21
279.553592
0
LINE
8
annotation
62
1
39
211
10
118.030906
20
217.021129
11
118.030906
21
217.021129
0
LINE
8
annotation
62
1
39
211
10
118.030906
20
217.021129
11
118.641611
21
217.250106
0
LINE
8
annotation
62
1
39
211
10
118.641611
20
217.250106
11
119.202014
21
217.558627
0
LINE
8
annotation
62
1
39
211
10
119.202014
20
217.558627
11
119.706361
21
217.938960
0
LINE
8
annotation
62
1
39
211
10
119.706361
20
217.938960
11
120.148899
21
218.383375
0
LINE
8
annotation
62
1
39
211
10
120.148899
20
218.383375
11
120.523875
21
218.884145
0
LINE
8
annotation
62
1
39
211
10
120.523875
20
218.884145
11
120.825538
21
219.433537
0
LINE
8
annotation
62
1
39
211
10
120.825538
20
219.433537
11
121.048133
21
220.023823
0
LINE
8
annotation
62
1
39
211
10
121.048133
20
220.023823
11
121.185910
21
220.647273
0
LINE
8
annotation
62
1
39
211
10
121.185910
20
220.647273
11
121.233113
21
221.296157
0
LINE
8
annotation
62
1
39
211
10
121.233113
20
221.296157
11
121.233113
21
224.486926
0
LINE
8
annotation
62
1
39
211
10
121.233113
20
224.486926
11
121.233113
21
224.486926
0
LINE
8
annotation
62
1
39
211
10
121.233113
20
224.486926
11
121.198695
21
224.870417
0
LINE
8
annotation
62
1
39
211
10
121.198695
20
224.870417
11
121.099490
21
225.231412
0
LINE
8
annotation
62
1
39
211
10
121.099490
20
225.231412
11
120.941574
21
225.563871
0
LINE
8
annotation
62
1
39
211
10
120.941574
20
225.563871
11
120.731020
21
225.861755
0
LINE
8
annotation
62
1
39
211
10
120.731020
20
225.861755
11
120.473905
21
226.119022
0
LINE
8
annotation
62
1
39
211
10
120.473905
20
226.119022
11
120.176302
21
226.329634
0
LINE
8
annotation
62
1
39
211
10
120.176302
20
226.329634
11
119.844287
21
226.487548
0
LINE
8
annotation
62
1
39
211
10
119.844287
20
226.487548
11
119.483934
21
226.586727
0
LINE
8
annotation
62
1
39
211
10
119.483934
20
226.586727
11
119.101319
21
226.621129
0
LINE
8
annotation
62
1
39
211
10
119.101319
20
226.621129
11
119.101319
21
226.621129
0
LINE
8
annotation
62
1
39
211
10
119.101319
20
226.621129
11
118.717910
21
226.586727
0
LINE
8
annotation
62
1
39
211
10
118.717910
20
226.586727
11
118.357136
21
226.487548
0
LINE
8
annotation
62
1
39
211
10
118.357136
20
226.487548
11
118.024997
21
226.329634
0
LINE
8
annotation
62
1
39
211
10
118.024997
20
226.329634
11
117.727493
21
226.119022
0
LINE
8
annotation
62
1
39
211
10
117.727493
20
226.119022
11
117.470626
21
225.861755
0
LINE
8
annotation
62
1
39
211
10
117.470626
20
225.861755
11
117.260394
21
225.563871
0
LINE
8
annotation
62
1
39
211
10
117.260394
20
225.563871
11
117.102800
21
225.231412
0
LINE
8
annotation
62
1
39
211
10
117.102800
20
225.231412
11
117.003843
21
224.870417
0
LINE
8
annotation
62
1
39
211
10
117.003843
20
224.870417
11
116.969524
21
224.486926
0
LINE
8
annotation
62
1
39
211
10
116.969524
20
224.486926
11
116.969524
21
223.424941
0
LINE
8
annotation
62
1
39
211
10
116.969524
20
223.424941
11
116.969524
21
223.424941
0
LINE
8
annotation
62
1
39
211
10
116.969524
20
223.424941
11
117.003843
21
223.041636
0
LINE
8
annotation
62
1
39
211
10
117.003843
20
223.041636
11
117.102800
21
222.681139
0
LINE
8
annotation
62
1
39
211
10
117.102800
20
222.681139
11
117.260394
21
222.349400
0
LINE
8
annotation
62
1
39
211
10
117.260394
20
222.349400
11
117.470626
21
222.052372
0
LINE
8
annotation
62
1
39
211
10
117.470626
20
222.052372
11
117.727493
21
221.796003
0
LINE
8
annotation
62
1
39
211
10
117.727493
20
221.796003
11
118.024997
21
221.586247
0
LINE
8
annotation
62
1
39
211
10
118.024997
20
221.586247
11
118.357136
21
221.429053
0
LINE
8
annotation
62
1
39
211
10
118.357136
20
221.429053
11
118.717910
21
221.330373
0
LINE
8
annotation
62
1
39
211
10
118.717910
20
221.330373
11
119.101319
21
221.296157
0
LINE
8
annotation
62
1
39
211
10
119.101319
20
221.296157
11
121.233113
21
221.296157
0
LINE
8
annotation
62
1
39
211
10
121.500114
20
227.821129
11
116.700114
21
227.821129
0
LINE
8
annotation
62
1
39
211
10
135.942270
20
165.341702
11
139.858402
21
156.320686
0
LINE
8
annotation
62
1
39
211
10
139.858402
20
156.320686
11
143.312102
21
158.829946
0
LINE
8
annotation
62
1
39
211
10
137.345604
20
159.779256
11
139.072210
21
161.033709
0
LINE
8
annotation
62
1
39
211
10
188.213993
20
126.958342
11
188.213993
21
126.958342
0
LINE
8
annotation
62
1
39
211
10
188.213993
20
126.958342
11
187.838812
21
127.044056
0
LINE
8
annotation
62
1
39
211
10
187.838812
20
127.044056
11
187.465303
21
127.061107
0
LINE
8
annotation
62
1
39
211
10
187.465303
20
127.061107
11
187.101002
21
127.013432
0
LINE
8
annotation
62
1
39
211
10
187.101002
20
127.013432
11
186.753446
21
126.904971
0
LINE
8
annotation
62
1
39
211
10
186.753446
20
126.904971
11
186.430173
21
126.739661
0
LINE
8
annotation
62
1
39
211
10
186.430173
20
126.739661
11
186.138718
21
126.521443
0
LINE
8
annotation
62
1
39
211
10
186.138718
20
126.521443
11
185.886619
21
126.254253
0
LINE
8
annotation
62
1
39
211
10
185.886619
20
126.254253
11
185.681414
21
125.942031
0
LINE
8
annotation
62
1
39
211
10
185.681414
20
125.942031
11
185.530638
21
125.588715
0
LINE
8
annotation
62
1
39
211
10
185.530638
20
125.588715
11
185.530638
21
125.588715
0
LINE
8
annotation
62
1
39
211
10
185.530638
20
125.588715
11
185.444944
21
125.214253
0
LINE
8
annotation
62
1
39
211
10
185.444944
20
125.214253
11
185.427440
21
124.841043
0
LINE
8
annotation
62
1
39
211
10
185.427440
20
124.841043
11
185.474342
21
124.476702
0
LINE
8
annotation
62
1
39
211
10
185.474342
20
124.476702
11
185.581868
21
124.128847
0
LINE
8
annotation
62
1
39
211
10
185.581868
20
124.128847
11
185.746235
21
123.805094
0
LINE
8
annotation
62
1
39
211
10
185.746235
20
123.805094
11
185.963662
21
123.513058
0
LINE
8
annotation
62
1
39
211
10
185.963662
20
123.513058
11
186.230365
21
123.260358
0
LINE
8
annotation
62
1
39
211
10
186.230365
20
123.260358
11
186.542562
21
123.054609
0
LINE
8
annotation
62
1
39
211
10
186.542562
20
123.054609
11
186.896471
21
122.903427
0
LINE
8
annotation
62
1
39
211
10
186.896471
20
122.903427
11
187.906478
21
122.575256
0
LINE
8
annotation
62
1
39
211
10
187.906478
20
122.575256
11
187.906478
21
122.575256
0
LINE
8
annotation
62
1
39
211
10
187.906478
20
122.575256
11
188.281830
21
122.489466
0
LINE
8
annotation
62
1
39
211
10
188.281830
20
122.489466
11
188.655797
21
122.472214
0
LINE
8
annotation
62
1
39
211
10
188.655797
20
122.472214
11
189.020764
21
122.519605
0
LINE
8
annotation
62
1
39
211
10
189.020764
20
122.519605
11
189.369113
21
122.627741
0
LINE
8
annotation
62
1
39
211
10
189.369113
20
122.627741
11
189.693226
21
122.792725
0
LINE
8
annotation
62
1
39
211
10
189.693226
20
122.792725
11
189.985488
21
123.010661
0
LINE
8
annotation
62
1
39
211
10
189.985488
20
123.010661
11
190.238280
21
123.277651
0
LINE
8
annotation
62
1
39
211
10
190.238280
20
123.277651
11
190.443985
21
123.589799
0
LINE
8
annotation
62
1
39
211
10
190.443985
20
123.589799
11
190.594987
21
123.943209
0
LINE
8
annotation
62
1
39
211
10
190.594987
20
123.943209
11
190.594987
21
123.943209
0
LINE
8
annotation
62
1
39
211
10
190.594987
20
123.943209
11
190.680534
21
124.317885
0
LINE
8
annotation
62
1
39
211
10
190.680534
20
124.317885
11
190.697544
21
124.691344
0
LINE
8
annotation
62
1
39
211
10
190.697544
20
124.691344
11
190.649902
21
125.055951
0
LINE
8
annotation
62
1
39
211
10
190.649902
20
125.055951
11
190.541496
21
125.404072
0
LINE
8
annotation
62
1
39
211
10
190.541496
20
125.404072
11
190.376211
21
125.728072
0
LINE
8
annotation
62
1
39
211
10
190.376211
20
125.728072
11
190.157933
21
126.020316
0
LINE
8
annotation
62
1
39
211
10
190.157933
20
126.020316
11
189.890547
21
126.273170
0
LINE
8
annotation
62
1
39
211
10
189.890547
20
126.273170
11
189.577941
21
126.479000
0
LINE
8
annotation
62
1
39
211
10
189.577941
20
126.479000
11
189.224000
21
126.630171
0
LINE
8
annotation
62
1
39
211
10
189.224000
20
126.630171
11
188.213993
21
126.958342
0
LINE
8
annotation
62
1
39
211
10
191.966546
20
121.256060
11
191.966546
21
121.256060
0
LINE
8
annotation
62
1
39
211
10
191.966546
20
121.256060
11
192.340213
21
121.170817
0
LINE
8
annotation
62
1
39
211
10
192.340213
20
121.170817
11
192.712906
21
121.153980
0
LINE
8
annotation
62
1
39
211
10
192.712906
20
121.153980
11
193.076951
21
121.201670
0
LINE
8
annotation
62
1
39
211
10
193.076951
20
121.201670
11
193.424675
21
121.310009
0
LINE
8
annotation
62
1
39
211
10
193.424675
20
121.310009
11
193.748405
21
121.475118
0
LINE
8
annotation
62
1
39
211
10
193.748405
20
121.475118
11
194.040466
21
121.693118
0
LINE
8
annotation
62
1
39
211
10
194.040466
20
121.693118
11
194.293185
21
121.960133
0
LINE
8
annotation
62
1
39
211
10
194.293185
20
121.960133
11
194.498888
21
122.272282
0
LINE
8
annotation
62
1
39
211
10
194.498888
20
122.272282
11
194.649901
21
122.625687
0
LINE
8
annotation
62
1
39
211
10
194.649901
20
122.625687
11
194.649901
21
122.625687
0
LINE
8
annotation
62
1
39
211
10
194.649901
20
122.625687
11
194.735455
21
123.000361
0
LINE
8
annotation
62
1
39
211
10
194.735455
20
123.000361
11
194.752515
21
123.373804
0
LINE
8
annotation
62
1
39
211
10
194.752515
20
123.373804
11
194.705008
21
123.738368
0
LINE
8
annotation
62
1
39
211
10
194.705008
20
123.738368
11
194.596863
21
124.086403
0
LINE
8
annotation
62
1
39
211
10
194.596863
20
124.086403
11
194.432009
21
124.410263
0
LINE
8
annotation
62
1
39
211
10
194.432009
20
124.410263
11
194.214374
21
124.702298
0
LINE
8
annotation
62
1
39
211
10
194.214374
20
124.702298
11
193.947887
21
124.954861
0
LINE
8
annotation
62
1
39
211
10
193.947887
20
124.954861
11
193.636475
21
125.160302
0
LINE
8
annotation
62
1
39
211
10
193.636475
20
125.160302
11
193.284068
21
125.310975
0
LINE
8
annotation
62
1
39
211
10
193.284068
20
125.310975
11
193.284068
21
125.310975
0
LINE
8
annotation
62
1
39
211
10
193.284068
20
125.310975
11
192.908691
21
125.396753
0
LINE
8
annotation
62
1
39
211
10
192.908691
20
125.396753
11
192.534655
21
125.413974
0
LINE
8
annotation
62
1
39
211
10
192.534655
20
125.413974
11
192.169592
21
125.366547
0
LINE
8
annotation
62
1
39
211
10
192.169592
20
125.366547
11
191.821133
21
125.258379
0
LINE
8
annotation
62
1
39
211
10
191.821133
20
125.258379
11
191.496909
21
125.093379
0
LINE
8
annotation
62
1
39
211
10
191.496909
20
125.093379
11
191.204552
21
124.875454
0
LINE
8
annotation
62
1
39
211
10
191.204552
20
124.875454
11
190.951691
21
124.608512
0
LINE
8
annotation
62
1
39
211
10
190.951691
20
124.608512
11
190.745959
21
124.296461
0
LINE
8
annotation
62
1
39
211
10
190.745959
20
124.296461
11
190.594987
21
123.943209
0
LINE
8
annotation
62
1
39
211
10
190.594987
20
123.943209
11
190.594987
21
123.943209
0
LINE
8
annotation
62
1
39
211
10
190.594987
20
123.943209
11
190.509490
21
123.568682
0
LINE
8
annotation
62
1
39
211
10
190.509490
20
123.568682
11
190.492511
21
123.195302
0
LINE
8
annotation
62
1
39
211
10
190.492511
20
123.195302
11
190.540175
21
122.830713
0
LINE
8
annotation
62
1
39
211
10
190.540175
20
122.830713
11
190.648604
21
122.482564
0
LINE
8
annotation
62
1
39
211
10
190.648604
20
122.482564
11
190.813922
21
122.158502
0
LINE
8
annotation
62
1
39
211
10
190.813922
20
122.158502
11
191.032252
21
121.866174
0
LINE
8
annotation
62
1
39
211
10
191.032252
20
121.866174
11
191.299717
21
121.613226
0
LINE
8
annotation
62
1
39
211
10
191.299717
20
121.613226
11
191.612441
21
121.407305
0
LINE
8
annotation
62
1
39
211
10
191.612441
20
121.407305
11
191.966546
21
121.256060
0
LINE
8
annotation
62
1
39
211
10
248.685415
20
123.684096
11
248.685415
21
123.684096
0
LINE
8
annotation
62
1
39
211
10
248.685415
20
123.684096
11
249.089861
21
123.174505
0
LINE
8
annotation
62
1
39
211
10
249.089861
20
123.174505
11
249.554819
21
122.737218
0
LINE
8
annotation
62
1
39
211
10
249.554819
20
122.737218
11
250.071063
21
122.375316
0
LINE
8
annotation
62
1
39
211
10
250.071063
20
122.375316
11
250.629364
21
122.091881
0
LINE
8
annotation
62
1
39
211
10
250.629364
20
122.091881
11
251.220494
21
121.889995
0
LINE
8
annotation
62
1
39
211
10
251.220494
20
121.889995
11
251.835226
21
121.772739
0
LINE
8
annotation
62
1
39
211
10
251.835226
20
121.772739
11
252.464331
21
121.743196
0
LINE
8
annotation
62
1
39
211
10
252.464331
20
121.743196
11
253.098582
21
121.804447
0
LINE
8
annotation
62
1
39
211
10
253.098582
20
121.804447
11
253.728750
21
121.959573
0
LINE
8
annotation
62
1
39
211
10
253.728750
20
121.959573
11
256.773658
21
122.948924
0
LINE
8
annotation
62
1
39
211
10
256.773658
20
122.948924
11
256.773658
21
122.948924
0
LINE
8
annotation
62
1
39
211
10
256.773658
20
122.948924
11
257.127794
21
123.100075
0
LINE
8
annotation
62
1
39
211
10
257.127794
20
123.100075
11
257.440594
21
123.305759
0
LINE
8
annotation
62
1
39
211
10
257.440594
20
123.305759
11
257.708159
21
123.558401
0
LINE
8
annotation
62
1
39
211
10
257.708159
20
123.558401
11
257.926588
21
123.850423
0
LINE
8
annotation
62
1
39
211
10
257.926588
20
123.850423
11
258.091983
21
124.174250
0
LINE
8
annotation
62
1
39
211
10
258.091983
20
124.174250
11
258.200442
21
124.522304
0
LINE
8
annotation
62
1
39
211
10
258.200442
20
124.522304
11
258.248068
21
124.887010
0
LINE
8
annotation
62
1
39
211
10
258.248068
20
124.887010
11
258.230959
21
125.260792
0
LINE
8
annotation
62
1
39
211
10
258.230959
20
125.260792
11
258.145217
21
125.636072
0
LINE
8
annotation
62
1
39
211
10
258.145217
20
125.636072
11
258.145217
21
125.636072
0
LINE
8
annotation
62
1
39
211
10
258.145217
20
125.636072
11
257.994245
21
125.989324
0
LINE
8
annotation
62
1
39
211
10
257.994245
20
125.989324
11
257.788513
21
126.301375
0
LINE
8
annotation
62
1
39
211
10
257.788513
20
126.301375
11
257.535653
21
126.568317
0
LINE
8
annotation
62
1
39
211
10
257.535653
20
126.568317
11
257.243295
21
126.786242
0
LINE
8
annotation
62
1
39
211
10
257.243295
20
126.786242
11
256.919071
21
126.951243
0
LINE
8
annotation
62
1
39
211
10
256.919071
20
126.951243
11
256.570612
21
127.059411
0
LINE
8
annotation
62
1
39
211
10
256.570612
20
127.059411
11
256.205549
21
127.106838
0
LINE
8
annotation
62
1
39
211
10
256.205549
20
127.106838
11
255.831513
21
127.089616
0
LINE
8
annotation
62
1
39
211
10
255.831513
20
127.089616
11
255.456136
21
127.003838
0
LINE
8
annotation
62
1
39
211
10
255.456136
20
127.003838
11
254.440976
21
126.673993
0
LINE
8
annotation
62
1
39
211
10
254.440976
20
126.673993
11
254.440976
21
126.673993
0
LINE
8
annotation
62
1
39
211
10
254.440976
20
126.673993
11
254.086890
21
126.522754
0
LINE
8
annotation
62
1
39
211
10
254.086890
20
126.522754
11
253.774219
21
126.316851
0
LINE
8
annotation
62
1
39
211
10
253.774219
20
126.316851
11
253.506831
21
126.063928
0
LINE
8
annotation
62
1
39
211
10
253.506831
20
126.063928
11
253.288591
21
125.771628
0
LINE
8
annotation
62
1
39
211
10
253.288591
20
125.771628
11
253.123368
21
125.447597
0
LINE
8
annotation
62
1
39
211
10
253.123368
20
125.447597
11
253.015029
21
125.099478
0
LINE
8
annotation
62
1
39
211
10
253.015029
20
125.099478
11
252.967442
21
124.734914
0
LINE
8
annotation
62
1
39
211
10
252.967442
20
124.734914
11
252.984473
21
124.361550
0
LINE
8
annotation
62
1
39
211
10
252.984473
20
124.361550
11
253.069989
21
123.987030
0
LINE
8
annotation
62
1
39
211
10
253.069989
20
123.987030
11
253.728750
21
121.959573
0
LINE
8
annotation
62
1
39
211
10
247.132724
20
124.579506
11
248.616006
21
120.014435
0
LINE
8
annotation
62
1
39
211
10
300.031595
20
159.307993
11
305.460050
21
166.779620
0
LINE
8
annotation
62
1
39
211
10
305.460050
20
166.779620
11
302.591856
21
166.324928
0
LINE
8
annotation
62
1
39
211
10
304.104966
20
156.499091
11
304.104966
21
156.499091
0
LINE
8
annotation
62
1
39
211
10
304.104966
20
156.499091
11
304.231453
21
156.308013
0
LINE
8
annotation
62
1
39
211
10
304.231453
20
156.308013
11
304.386114
21
156.146370
0
LINE
8
annotation
62
1
39
211
10
304.386114
20
156.146370
11
304.563968
21
156.015774
0
LINE
8
annotation
62
1
39
211
10
304.563968
20
156.015774
11
304.760033
21
155.917834
0
LINE
8
annotation
62
1
39
211
10
304.760033
20
155.917834
11
304.969328
21
155.854161
0
LINE
8
annotation
62
1
39
211
10
304.969328
20
155.854161
11
305.186871
21
155.826365
0
LINE
8
annotation
62
1
39
211
10
305.186871
20
155.826365
11
305.407681
21
155.836055
0
LINE
8
annotation
62
1
39
211
10
305.407681
20
155.836055
11
305.626776
21
155.884843
0
LINE
8
annotation
62
1
39
211
10
305.626776
20
155.884843
11
305.839174
21
155.974338
0
LINE
8
annotation
62
1
39
211
10
305.839174
20
155.974338
11
305.839174
21
155.974338
0
LINE
8
annotation
62
1
39
211
10
305.839174
20
155.974338
11
306.616419
21
156.438903
0
LINE
8
annotation
62
1
39
211
10
306.616419
20
156.438903
11
307.335879
21
156.975242
0
LINE
8
annotation
62
1
39
211
10
307.335879
20
156.975242
11
307.993542
21
157.577827
0
LINE
8
annotation
62
1
39
211
10
307.993542
20
157.577827
11
308.585390
21
158.241132
0
LINE
8
annotation
62
1
39
211
10
308.585390
20
158.241132
11
309.107410
21
158.959630
0
LINE
8
annotation
62
1
39
211
10
309.107410
20
158.959630
11
309.555586
21
159.727797
0
LINE
8
annotation
62
1
39
211
10
309.555586
20
159.727797
11
309.925904
21
160.540105
0
LINE
8
annotation
62
1
39
211
10
309.925904
20
160.540105
11
310.214347
21
161.391027
0
LINE
8
annotation
62
1
39
211
10
310.214347
20
161.391027
11
310.416902
21
162.275039
0
LINE
8
annotation
62
1
39
211
10
310.416902
20
162.275039
11
310.416902
21
162.275039
0
LINE
8
annotation
62
1
39
211
10
310.416902
20
162.275039
11
310.429789
21
162.369743
0
LINE
8
annotation
62
1
39
211
10
310.429789
20
162.369743
11
310.435609
21
162.465010
0
LINE
8
annotation
62
1
39
211
10
310.435609
20
162.465010
11
310.434440
21
162.560293
0
LINE
8
annotation
62
1
39
211
10
310.434440
20
162.560293
11
310.426362
21
162.655046
0
LINE
8
annotation
62
1
39
211
10
310.426362
20
162.655046
11
310.411457
21
162.748720
0
LINE
8
annotation
62
1
39
211
10
310.411457
20
162.748720
11
310.389802
21
162.840768
0
LINE
8
annotation
62
1
39
211
10
310.389802
20
162.840768
11
310.361478
21
162.930645
0
LINE
8
annotation
62
1
39
211
10
310.361478
20
162.930645
11
310.326565
21
163.017802
0
LINE
8
annotation
62
1
39
211
10
310.326565
20
163.017802
11
310.285143
21
163.101694
0
LINE
8
annotation
62
1
39
211
10
310.285143
20
163.101694
11
310.285143
21
163.101694
0
LINE
8
annotation
62
1
39
211
10
310.285143
20
163.101694
11
310.158300
21
163.295181
0
LINE
8
annotation
62
1
39
211
10
310.158300
20
163.295181
11
310.003397
21
163.458684
0
LINE
8
annotation
62
1
39
211
10
310.003397
20
163.458684
11
309.825374
21
163.590633
0
LINE
8
annotation
62
1
39
211
10
309.825374
20
163.590633
11
309.629173
21
163.689460
0
LINE
8
annotation
62
1
39
211
10
309.629173
20
163.689460
11
309.419734
21
163.753596
0
LINE
8
annotation
62
1
39
211
10
309.419734
20
163.753596
11
309.201998
21
163.781472
0
LINE
8
annotation
62
1
39
211
10
309.201998
20
163.781472
11
308.980907
21
163.771520
0
LINE
8
annotation
62
1
39
211
10
308.980907
20
163.771520
11
308.761400
21
163.722170
0
LINE
8
annotation
62
1
39
211
10
308.761400
20
163.722170
11
308.548420
21
163.631854
0
LINE
8
annotation
62
1
39
211
10
308.548420
20
163.631854
11
308.548420
21
163.631854
0
LINE
8
annotation
62
1
39
211
10
308.548420
20
163.631854
11
307.772665
21
163.166418
0
LINE
8
annotation
62
1
39
211
10
307.772665
20
163.166418
11
307.054321
21
162.629428
0
LINE
8
annotation
62
1
39
211
10
307.054321
20
162.629428
11
306.397403
21
162.026408
0
LINE
8
annotation
62
1
39
211
10
306.397403
20
162.026408
11
305.805927
21
161.362885
0
LINE
8
annotation
62
1
39
211
10
305.805927
20
161.362885
11
305.283907
21
160.644387
0
LINE
8
annotation
62
1
39
211
10
305.283907
20
160.644387
11
304.835359
21
159.876438
0
LINE
8
annotation
62
1
39
211
10
304.835359
20
159.876438
11
304.464297
21
159.064565
0
LINE
8
annotation
62
1
39
211
10
304.464297
20
159.064565
11
304.174736
21
158.214295
0
LINE
8
annotation
62
1
39
211
10
304.174736
20
158.214295
11
303.970693
21
157.331153
0
LINE
8
annotation
62
1
39
211
10
303.970693
20
157.331153
11
303.970693
21
157.331153
0
LINE
8
annotation
62
1
39
211
10
303.970693
20
157.331153
11
303.957771
21
157.236681
0
LINE
8
annotation
62
1
39
211
10
303.957771
20
157.236681
11
303.951881
21
157.141961
0
LINE
8
annotation
62
1
39
211
10
303.951881
20
157.141961
11
303.952992
21
157.047316
0
LINE
8
annotation
62
1
39
211
10
303.952992
20
157.047316
11
303.961073
21
156.953068
0
LINE
8
annotation
62
1
39
211
10
303.961073
20
156.953068
11
303.976095
21
156.859541
0
LINE
8
annotation
62
1
39
211
10
303.976095
20
156.859541
11
303.998025
21
156.767057
0
LINE
8
annotation
62
1
39
211
10
303.998025
20
156.767057
11
304.026835
21
156.675939
0
LINE
8
annotation
62
1
39
211
10
304.026835
20
156.675939
11
304.062492
21
156.586510
0
LINE
8
annotation
62
1
39
211
10
304.062492
20
156.586510
11
304.104966
21
156.499091
0
LINE
8
annotation
62
1
39
211
10
177.300250
20
196.987304
11
142.078794
21
196.987304
0
LINE
8
annotation
62
1
39
211
10
142.078794
20
196.987304
11
177.300250
21
260.420931
0
LINE
8
annotation
62
1
39
211
10
177.300250
20
260.420931
11
142.078794
21
260.420931
0
LINE
8
annotation
62
1
39
211
10
235.778250
20
228.704117
11
201.093827
21
228.704117
0
LINE
8
annotation
62
1
39
211
10
259.559893
20
196.989293
11
273.646089
21
196.989293
0
LINE
8
annotation
62
1
39
211
10
273.646089
20
196.989293
11
273.646089
21
196.989293
0
LINE
8
annotation
62
1
39
211
10
273.646089
20
196.989293
11
276.179525
21
197.216559
0
LINE
8
annotation
62
1
39
211
10
276.179525
20
197.216559
11
278.563400
21
197.871553
0
LINE
8
annotation
62
1
39
211
10
278.563400
20
197.871553
11
280.758065
21
198.914069
0
LINE
8
annotation
62
1
39
211
10
280.758065
20
198.914069
11
282.723871
21
200.303901
0
LINE
8
annotation
62
1
39
211
10
282.723871
20
200.303901
11
284.421169
21
202.000843
0
LINE
8
annotation
62
1
39
211
10
284.421169
20
202.000843
11
285.810308
21
203.964690
0
LINE
8
annotation
62
1
39
211
10
285.810308
20
203.964690
11
286.851640
21
206.155236
0
LINE
8
annotation
62
1
39
211
10
286.851640
20
206.155236
11
287.505515
21
208.532274
0
LINE
8
annotation
62
1
39
211
10
287.505515
20
208.532274
11
287.732284
21
211.055598
0
LINE
8
annotation
62
1
39
211
10
287.732284
20
211.055598
11
287.732284
21
218.108641
0
LINE
8
annotation
62
1
39
211
10
287.732284
20
218.108641
11
287.732284
21
218.108641
0
LINE
8
annotation
62
1
39
211
10
287.732284
20
218.108641
11
287.505515
21
220.630918
0
LINE
8
annotation
62
1
39
211
10
287.505515
20
220.630918
11
286.851640
21
223.007399
0
LINE
8
annotation
62
1
39
211
10
286.851640
20
223.007399
11
285.810308
21
225.197781
0
LINE
8
annotation
62
1
39
211
10
285.810308
20
225.197781
11
284.421169
21
227.161759
0
LINE
8
annotation
62
1
39
211
10
284.421169
20
227.161759
11
282.723871
21
228.859029
0
LINE
8
annotation
62
1
39
211
10
282.723871
20
228.859029
11
280.758065
21
230.249286
0
LINE
8
annotation
62
1
39
211
10
280.758065
20
230.249286
11
278.563400
21
231.292228
0
LINE
8
annotation
62
1
39
211
10
278.563400
20
231.292228
11
276.179525
21
231.947550
0
LINE
8
annotation
62
1
39
211
10
276.179525
20
231.947550
11
273.646089
21
232.174946
0
LINE
8
annotation
62
1
39
211
10
273.646089
20
232.174946
11
266.593046
21
232.174946
0
LINE
8
annotation
62
1
39
211
10
266.593046
20
232.174946
11
273.646089
21
232.174946
0
LINE
8
annotation
62
1
39
211
10
273.646089
20
232.174946
11
273.646089
21
232.174946
0
LINE
8
annotation
62
1
39
211
10
273.646089
20
232.174946
11
276.179525
21
232.402398
0
LINE
8
annotation
62
1
39
211
10
276.179525
20
232.402398
11
278.563400
21
233.058101
0
LINE
8
annotation
62
1
39
211
10
278.563400
20
233.058101
11
280.758065
21
234.102080
0
LINE
8
annotation
62
1
39
211
10
280.758065
20
234.102080
11
282.723871
21
235.494357
0
LINE
8
annotation
62
1
39
211
10
282.723871
20
235.494357
11
284.421169
21
237.194955
0
LINE
8
annotation
62
1
39
211
10
284.421169
20
237.194955
11
285.810308
21
239.163899
0
LINE
8
annotation
62
1
39
211
10
285.810308
20
239.163899
11
286.851640
21
241.361211
0
LINE
8
annotation
62
1
39
211
10
286.851640
20
241.361211
11
287.505515
21
243.746914
0
LINE
8
annotation
62
1
39
211
10
287.505515
20
243.746914
11
287.732284
21
246.281032
0
LINE
8
annotation
62
1
39
211
10
287.732284
20
246.281032
11
287.732284
21
246.281032
0
LINE
8
annotation
62
1
39
211
10
287.732284
20
246.281032
11
287.505515
21
248.803309
0
LINE
8
annotation
62
1
39
211
10
287.505515
20
248.803309
11
286.851640
21
251.179790
0
LINE
8
annotation
62
1
39
211
10
286.851640
20
251.179790
11
285.810308
21
253.370172
0
LINE
8
annotation
62
1
39
211
10
285.810308
20
253.370172
11
284.421169
21
255.334150
0
LINE
8
annotation
62
1
39
211
10
284.421169
20
255.334150
11
282.723871
21
257.031420
0
LINE
8
annotation
62
1
39
211
10
282.723871
20
257.031420
11
280.758065
21
258.421678
0
LINE
8
annotation
62
1
39
211
10
280.758065
20
258.421678
11
278.563400
21
259.464619
0
LINE
8
annotation
62
1
39
211
10
278.563400
20
259.464619
11
276.179525
21
260.119941
0
LINE
8
annotation
62
1
39
211
10
276.179525
20
260.119941
11
273.646089
21
260.347338
0
LINE
8
annotation
62
1
39
211
10
273.646089
20
260.347338
11
259.559893
21
260.347338
0
LINE
8
boundary
62
5
39
2
10
37.126625
20
508.712306
11
42.612049
21
502.041011
0
LINE
8
boundary
62
5
39
2
10
42.612049
20
502.041011
11
43.498567
21
501.085573
0
LINE
8
boundary
62
5
39
2
10
43.498567
20
501.085573
11
49.373156
21
494.754275
0
LINE
8
boundary
62
5
39
2
10
49.373156
20
494.754275
11
50.315224
21
493.853564
0
LINE
8
boundary
62
5
39
2
10
50.315224
20
493.853564
11
56.557937
21
487.884912
0
LINE
8
boundary
62
5
39
2
10
56.557937
20
487.884912
11
57.552186
21
487.042155
0
LINE
8
boundary
62
5
39
2
10
57.552186
20
487.042155
11
64.140674
21
481.457547
0
LINE
8
boundary
62
5
39
2
10
64.140674
20
481.457547
11
65.183544
21
480.675757
0
LINE
8
boundary
62
5
39
2
10
65.183544
20
480.675757
11
72.094220
21
475.495140
0
LINE
8
boundary
62
5
39
2
10
72.094220
20
475.495140
11
73.181978
21
474.777116
0
LINE
8
boundary
62
5
39
2
10
73.181978
20
474.777116
11
80.390109
21
470.019081
0
LINE
8
boundary
62
5
39
2
10
80.390109
20
470.019081
11
81.518861
21
469.367397
0
LINE
8
boundary
62
5
39
2
10
81.518861
20
469.367397
11
88.998644
21
465.048939
0
LINE
8
boundary
62
5
39
2
10
88.998644
20
465.048939
11
90.164348
21
464.465925
0
LINE
8
boundary
62
5
39
2
10
90.164348
20
464.465925
11
97.888994
21
460.602527
0
LINE
8
boundary
62
5
39
2
10
97.888994
20
460.602527
11
99.087478
21
460.090269
0
LINE
8
boundary
62
5
39
2
10
99.087478
20
460.090269
11
107.029351
21
456.695744
0
LINE
8
boundary
62
5
39
2
10
107.029351
20
456.695744
11
108.256328
21
456.256077
0
LINE
8
boundary
62
5
39
2
10
108.256328
20
456.256077
11
113.279026
21
454.456285
0
LINE
8
boundary
62
5
39
2
10
113.279026
20
454.456285
11
137.777186
21
528.883047
0
LINE
8
boundary
62
5
39
2
10
137.777186
20
528.883047
11
143.483525
21
527.028946
0
LINE
8
boundary
62
5
39
2
10
143.483525
20
527.028946
11
119.363389
21
452.794800
0
LINE
8
boundary
62
5
39
2
10
119.363389
20
452.794800
11
125.928416
21
450.555084
0
LINE
8
boundary
62
5
39
2
10
125.928416
20
450.555084
11
127.199106
21
450.265060
0
LINE
8
boundary
62
5
39
2
10
127.199106
20
450.265060
11
135.619470
21
448.343152
0
LINE
8
boundary
62
5
39
2
10
135.619470
20
448.343152
11
136.905233
21
448.129635
0
LINE
8
boundary
62
5
39
2
10
136.905233
20
448.129635
11
145.425455
21
446.714764
0
LINE
8
boundary
62
5
39
2
10
145.425455
20
446.714764
11
146.721685
21
446.578526
0
LINE
8
boundary
62
5
39
2
10
146.721685
20
446.578526
11
155.311275
21
445.675730
0
LINE
8
boundary
62
5
39
2
10
155.311275
20
445.675730
11
156.613332
21
445.617253
0
LINE
8
boundary
62
5
39
2
10
156.613332
20
445.617253
11
165.241540
21
445.229756
0
LINE
8
boundary
62
5
39
2
10
165.241540
20
445.229756
11
166.544764
21
445.249254
0
LINE
8
boundary
62
5
39
2
10
166.544764
20
445.249254
11
175.180702
21
445.378455
0
LINE
8
boundary
62
5
39
2
10
175.180702
20
445.378455
11
176.480427
21
445.475855
0
LINE
8
boundary
62
5
39
2
10
176.480427
20
445.475855
11
185.093182
21
446.121283
0
LINE
8
boundary
62
5
39
2
10
185.093182
20
446.121283
11
186.384756
21
446.296239
0
LINE
8
boundary
62
5
39
2
10
186.384756
20
446.296239
11
194.943494
21
447.455610
0
LINE
8
boundary
62
5
39
2
10
194.943494
20
447.455610
11
196.222294
21
447.707494
0
LINE
8
boundary
62
5
39
2
10
196.222294
20
447.707494
11
204.696379
21
449.376634
0
LINE
8
boundary
62
5
39
2
10
204.696379
20
449.376634
11
205.957825
21
449.704544
0
LINE
8
boundary
62
5
39
2
10
205.957825
20
449.704544
11
214.316924
21
451.877455
0
LINE
8
boundary
62
5
39
2
10
214.316924
20
451.877455
11
215.556503
21
452.280219
0
LINE
8
boundary
62
5
39
2
10
215.556503
20
452.280219
11
216.097930
21
452.771578
0
LINE
8
boundary
62
5
39
2
10
216.097930
20
452.771578
11
191.958761
21
527.064302
0
LINE
8
boundary
62
5
39
2
10
191.958761
20
527.064302
11
197.665100
21
528.918404
0
LINE
8
boundary
62
5
39
2
10
197.665100
20
528.918404
11
221.804266
21
454.625689
0
LINE
8
boundary
62
5
39
2
10
221.804266
20
454.625689
11
223.770681
21
454.949181
0
LINE
8
boundary
62
5
39
2
10
223.770681
20
454.949181
11
224.983955
21
455.425357
0
LINE
8
boundary
62
5
39
2
10
224.983955
20
455.425357
11
233.023824
21
458.580771
0
LINE
8
boundary
62
5
39
2
10
233.023824
20
458.580771
11
234.206449
21
459.128651
0
LINE
8
boundary
62
5
39
2
10
234.206449
20
459.128651
11
242.043222
21
462.759230
0
LINE
8
boundary
62
5
39
2
10
242.043222
20
462.759230
11
243.190962
21
463.376855
0
LINE
8
boundary
62
5
39
2
10
243.190962
20
463.376855
11
250.796580
21
467.469619
0
LINE
8
boundary
62
5
39
2
10
250.796580
20
467.469619
11
251.905332
21
468.154780
0
LINE
8
boundary
62
5
39
2
10
251.905332
20
468.154780
11
259.252570
21
472.695072
0
LINE
8
boundary
62
5
39
2
10
259.252570
20
472.695072
11
260.318360
21
473.445313
0
LINE
8
boundary
62
5
39
2
10
260.318360
20
473.445313
11
267.380927
21
478.416857
0
LINE
8
boundary
62
5
39
2
10
267.380927
20
478.416857
11
268.399943
21
479.229493
0
LINE
8
boundary
62
5
39
2
10
268.399943
20
479.229493
11
275.152556
21
484.614511
0
LINE
8
boundary
62
5
39
2
10
275.152556
20
484.614511
11
276.121147
21
485.486637
0
LINE
8
boundary
62
5
39
2
10
276.121147
20
485.486637
11
282.539611
21
491.265860
0
LINE
8
boundary
62
5
39
2
10
282.539611
20
491.265860
11
283.454315
21
492.194350
0
LINE
8
boundary
62
5
39
2
10
283.454315
20
492.194350
11
289.515674
21
498.347058
0
LINE
8
boundary
62
5
39
2
10
289.515674
20
498.347058
11
290.373213
21
499.328588
0
LINE
8
boundary
62
5
39
2
10
290.373213
20
499.328588
11
296.055775
21
505.832801
0
LINE
8
boundary
62
5
39
2
10
296.055775
20
505.832801
11
296.853076
21
506.863859
0
LINE
8
boundary
62
5
39
2
10
296.853076
20
506.863859
11
300.116884
21
511.084558
0
LINE
8
boundary
62
5
39
2
10
300.116884
20
511.084558
11
236.903174
21
557.382827
0
LINE
8
boundary
62
5
39
2
10
236.903174
20
557.382827
11
240.429885
21
562.236929
0
LINE
8
boundary
62
5
39
2
10
240.429885
20
562.236929
11
303.577226
21
516.357701
0
LINE
8
boundary
62
5
39
2
10
303.577226
20
516.357701
11
307.736030
21
521.909302
0
LINE
8
boundary
62
5
39
2
10
307.736030
20
521.909302
11
308.404529
21
523.028179
0
LINE
8
boundary
62
5
39
2
10
308.404529
20
523.028179
11
312.834389
21
530.442515
0
LINE
8
boundary
62
5
39
2
10
312.834389
20
530.442515
11
313.434775
21
531.599368
0
LINE
8
boundary
62
5
39
2
10
313.434775
20
531.599368
11
317.413309
21
539.265365
0
LINE
8
boundary
62
5
39
2
10
317.413309
20
539.265365
11
317.943437
21
540.456053
0
LINE
8
boundary
62
5
39
2
10
317.943437
20
540.456053
11
321.456374
21
548.346259
0
LINE
8
boundary
62
5
39
2
10
321.456374
20
548.346259
11
321.914347
21
549.566519
0
LINE
8
boundary
62
5
39
2
10
321.914347
20
549.566519
11
324.949138
21
557.652690
0
LINE
8
boundary
62
5
39
2
10
324.949138
20
557.652690
11
325.333312
21
558.898155
0
LINE
8
boundary
62
5
39
2
10
325.333312
20
558.898155
11
327.879083
21
567.151350
0
LINE
8
boundary
62
5
39
2
10
327.879083
20
567.151350
11
328.188084
21
568.417560
0
LINE
8
boundary
62
5
39
2
10
328.188084
20
568.417560
11
330.235728
21
576.808223
0
LINE
8
boundary
62
5
39
2
10
330.235728
20
576.808223
11
330.468458
21
578.090648
0
LINE
8
boundary
62
5
39
2
10
330.468458
20
578.090648
11
332.010630
21
586.588756
0
LINE
8
boundary
62
5
39
2
10
332.010630
20
586.588756
11
332.166243
21
587.882803
0
LINE
8
boundary
62
5
39
2
10
332.166243
20
587.882803
11
333.197447
21
596.457925
0
LINE
8
boundary
62
5
39
2
10
333.197447
20
596.457925
11
333.275395
21
597.758963
0
LINE
8
boundary
62
5
39
2
10
333.275395
20
597.758963
11
333.791925
21
606.380408
0
LINE
8
boundary
62
5
39
2
10
333.791925
20
606.380408
11
333.791925
21
607.683778
0
LINE
8
boundary
62
5
39
2
10
333.791925
20
607.683778
11
333.491924
21
608.350545
0
LINE
8
boundary
62
5
39
2
10
333.491924
20
608.350545
11
255.375931
21
608.350545
0
LINE
8
boundary
62
5
39
2
10
255.375931
20
608.350545
11
255.375931
21
614.350545
0
LINE
8
boundary
62
5
39
2
10
255.375931
20
614.350545
11
333.491925
21
614.350545
0
LINE
8
boundary
62
5
39
2
10
333.491925
20
614.350545
11
333.791925
21
616.320683
0
LINE
8
boundary
62
5
39
2
10
333.791925
20
616.320683
11
333.713977
21
617.621720
0
LINE
8
boundary
62
5
39
2
10
333.713977
20
617.621720
11
333.197447
21
626.243166
0
LINE
8
boundary
62
5
39
2
10
333.197447
20
626.243166
11
333.041834
21
627.537212
0
LINE
8
boundary
62
5
39
2
10
333.041834
20
627.537212
11
332.010631
21
636.112335
0
LINE
8
boundary
62
5
39
2
10
332.010631
20
636.112335
11
331.777902
21
637.394759
0
LINE
8
boundary
62
5
39
2
10
331.777902
20
637.394759
11
330.235728
21
645.892867
0
LINE
8
boundary
62
5
39
2
10
330.235728
20
645.892867
11
329.926727
21
647.159077
0
LINE
8
boundary
62
5
39
2
10
329.926727
20
647.159077
11
327.879082
21
655.549741
0
LINE
8
boundary
62
5
39
2
10
327.879082
20
655.549741
11
327.494908
21
656.795206
0
LINE
8
boundary
62
5
39
2
10
327.494908
20
656.795206
11
324.949137
21
665.048402
0
LINE
8
boundary
62
5
39
2
10
324.949137
20
665.048402
11
324.491165
21
666.268661
0
LINE
8
boundary
62
5
39
2
10
324.491165
20
666.268661
11
321.456375
21
674.354832
0
LINE
8
boundary
62
5
39
2
10
321.456375
20
674.354832
11
320.926246
21
675.545520
0
LINE
8
boundary
62
5
39
2
10
320.926246
20
675.545520
11
317.413308
21
683.435725
0
LINE
8
boundary
62
5
39
2
10
317.413308
20
683.435725
11
316.812923
21
684.592577
0
LINE
8
boundary
62
5
39
2
10
316.812923
20
684.592577
11
312.834388
21
692.258575
0
LINE
8
boundary
62
5
39
2
10
312.834388
20
692.258575
11
312.165890
21
693.377452
0
LINE
8
boundary
62
5
39
2
10
312.165890
20
693.377452
11
307.736030
21
700.791789
0
LINE
8
boundary
62
5
39
2
10
307.736030
20
700.791789
11
307.001815
21
701.868683
0
LINE
8
boundary
62
5
39
2
10
307.001815
20
701.868683
11
303.996265
21
706.277019
0
LINE
8
boundary
62
5
39
2
10
303.996265
20
706.277019
11
240.429886
21
660.464162
0
LINE
8
boundary
62
5
39
2
10
240.429886
20
660.464162
11
236.903174
21
665.318263
0
LINE
8
boundary
62
5
39
2
10
236.903174
20
665.318263
11
300.050516
21
711.197493
0
LINE
8
boundary
62
5
39
2
10
300.050516
20
711.197493
11
296.055775
21
716.868290
0
LINE
8
boundary
62
5
39
2
10
296.055775
20
716.868290
11
295.198237
21
717.849820
0
LINE
8
boundary
62
5
39
2
10
295.198237
20
717.849820
11
289.515674
21
724.354032
0
LINE
8
boundary
62
5
39
2
10
289.515674
20
724.354032
11
288.600970
21
725.282523
0
LINE
8
boundary
62
5
39
2
10
288.600970
20
725.282523
11
282.539612
21
731.435231
0
LINE
8
boundary
62
5
39
2
10
282.539612
20
731.435231
11
281.571020
21
732.307357
0
LINE
8
boundary
62
5
39
2
10
281.571020
20
732.307357
11
275.152556
21
738.086580
0
LINE
8
boundary
62
5
39
2
10
275.152556
20
738.086580
11
274.133540
21
738.899217
0
LINE
8
boundary
62
5
39
2
10
274.133540
20
738.899217
11
267.380927
21
744.284235
0
LINE
8
boundary
62
5
39
2
10
267.380927
20
744.284235
11
266.315138
21
745.034476
0
LINE
8
boundary
62
5
39
2
10
266.315138
20
745.034476
11
259.252570
21
750.006019
0
LINE
8
boundary
62
5
39
2
10
259.252570
20
750.006019
11
258.143818
21
750.691180
0
LINE
8
boundary
62
5
39
2
10
258.143818
20
750.691180
11
250.796581
21
755.231471
0
LINE
8
boundary
62
5
39
2
10
250.796581
20
755.231471
11
249.648840
21
755.849097
0
LINE
8
boundary
62
5
39
2
10
249.648840
20
755.849097
11
242.043222
21
759.941861
0
LINE
8
boundary
62
5
39
2
10
242.043222
20
759.941861
11
240.860597
21
760.489741
0
LINE
8
boundary
62
5
39
2
10
240.860597
20
760.489741
11
233.023824
21
764.120319
0
LINE
8
boundary
62
5
39
2
10
233.023824
20
764.120319
11
231.810551
21
764.596496
0
LINE
8
boundary
62
5
39
2
10
231.810551
20
764.596496
11
223.770682
21
767.751910
0
LINE
8
boundary
62
5
39
2
10
223.770682
20
767.751910
11
222.531103
21
768.154673
0
LINE
8
boundary
62
5
39
2
10
222.531103
20
768.154673
11
221.804265
21
768.075398
0
LINE
8
boundary
62
5
39
2
10
221.804265
20
768.075398
11
197.665100
21
693.782686
0
LINE
8
boundary
62
5
39
2
10
197.665100
20
693.782686
11
191.958761
21
695.636788
0
LINE
8
boundary
62
5
39
2
10
191.958761
20
695.636788
11
216.097930
21
769.929511
0
LINE
8
boundary
62
5
39
2
10
216.097930
20
769.929511
11
214.316924
21
770.823636
0
LINE
8
boundary
62
5
39
2
10
214.316924
20
770.823636
11
213.055478
21
771.151545
0
LINE
8
boundary
62
5
39
2
10
213.055478
20
771.151545
11
204.696378
21
773.324457
0
LINE
8
boundary
62
5
39
2
10
204.696378
20
773.324457
11
203.417579
21
773.576340
0
LINE
8
boundary
62
5
39
2
10
203.417579
20
773.576340
11
194.943494
21
775.245481
0
LINE
8
boundary
62
5
39
2
10
194.943494
20
775.245481
11
193.651921
21
775.420437
0
LINE
8
boundary
62
5
39
2
10
193.651921
20
775.420437
11
185.093183
21
776.579808
0
LINE
8
boundary
62
5
39
2
10
185.093183
20
776.579808
11
183.793457
21
776.677208
0
LINE
8
boundary
62
5
39
2
10
183.793457
20
776.677208
11
175.180702
21
777.322636
0
LINE
8
boundary
62
5
39
2
10
175.180702
20
777.322636
11
173.877477
21
777.342134
0
LINE
8
boundary
62
5
39
2
10
173.877477
20
777.342134
11
165.241540
21
777.471334
0
LINE
8
boundary
62
5
39
2
10
165.241540
20
777.471334
11
163.939482
21
777.412857
0
LINE
8
boundary
62
5
39
2
10
163.939482
20
777.412857
11
155.311275
21
777.025361
0
LINE
8
boundary
62
5
39
2
10
155.311275
20
777.025361
11
154.015045
21
776.889123
0
LINE
8
boundary
62
5
39
2
10
154.015045
20
776.889123
11
145.425455
21
775.986327
0
LINE
8
boundary
62
5
39
2
10
145.425455
20
775.986327
11
144.139692
21
775.772810
0
LINE
8
boundary
62
5
39
2
10
144.139692
20
775.772810
11
135.619470
21
774.357939
0
LINE
8
boundary
62
5
39
2
10
135.619470
20
774.357939
11
134.348779
21
774.067915
0
LINE
8
boundary
62
5
39
2
10
134.348779
20
774.067915
11
125.928415
21
772.146007
0
LINE
8
boundary
62
5
39
2
10
125.928415
20
772.146007
11
124.677343
21
771.780506
0
LINE
8
boundary
62
5
39
2
10
124.677343
20
771.780506
11
119.556001
21
770.284312
0
LINE
8
boundary
62
5
39
2
10
119.556001
20
770.284312
11
143.483525
21
695.672145
0
LINE
8
boundary
62
5
39
2
10
143.483525
20
695.672145
11
137.777186
21
693.818043
0
LINE
8
boundary
62
5
39
2
10
137.777186
20
693.818043
11
113.657049
21
768.052192
0
LINE
8
boundary
62
5
39
2
10
113.657049
20
768.052192
11
107.029351
21
766.005346
0
LINE
8
boundary
62
5
39
2
10
107.029351
20
766.005346
11
105.830867
21
765.493088
0
LINE
8
boundary
62
5
39
2
10
105.830867
20
765.493088
11
97.888993
21
762.098564
0
LINE
8
boundary
62
5
39
2
10
97.888993
20
762.098564
11
96.723289
21
761.515549
0
LINE
8
boundary
62
5
39
2
10
96.723289
20
761.515549
11
88.998643
21
757.652152
0
LINE
8
boundary
62
5
39
2
10
88.998643
20
757.652152
11
87.869891
21
757.000468
0
LINE
8
boundary
62
5
39
2
10
87.869891
20
757.000468
11
80.390109
21
752.682010
0
LINE
8
boundary
62
5
39
2
10
80.390109
20
752.682010
11
79.302352
21
751.963986
0
LINE
8
boundary
62
5
39
2
10
79.302352
20
751.963986
11
72.094220
21
747.205951
0
LINE
8
boundary
62
5
39
2
10
72.094220
20
747.205951
11
71.051350
21
746.424161
0
LINE
8
boundary
62
5
39
2
10
71.051350
20
746.424161
11
64.140674
21
741.243544
0
LINE
8
boundary
62
5
39
2
10
64.140674
20
741.243544
11
63.146426
21
740.400788
0
LINE
8
boundary
62
5
39
2
10
63.146426
20
740.400788
11
56.557937
21
734.816178
0
LINE
8
boundary
62
5
39
2
10
56.557937
20
734.816178
11
55.615868
21
733.915467
0
LINE
8
boundary
62
5
39
2
10
55.615868
20
733.915467
11
49.373156
21
727.946816
0
LINE
8
boundary
62
5
39
2
10
49.373156
20
727.946816
11
48.486638
21
726.991377
0
LINE
8
boundary
62
5
39
2
10
48.486638
20
726.991377
11
42.612048
21
720.660079
0
LINE
8
boundary
62
5
39
2
10
42.612048
20
720.660079
11
41.784258
21
719.653334
0
LINE
8
boundary
62
5
39
2
10
41.784258
20
719.653334
11
36.298835
21
712.982040
0
LINE
8
boundary
62
5
39
2
10
36.298835
20
712.982040
11
35.532733
21
711.927592
0
LINE
8
boundary
62
5
39
2
10
35.532733
20
711.927592
11
35.383523
21
711.211831
0
LINE
8
boundary
62
5
39
2
10
35.383523
20
711.211831
11
98.580683
21
665.296408
0
LINE
8
boundary
62
5
39
2
10
98.580683
20
665.296408
11
95.053971
21
660.442305
0
LINE
8
boundary
62
5
39
2
10
95.053971
20
660.442305
11
31.856811
21
706.357730
0
LINE
8
boundary
62
5
39
2
10
31.856811
20
706.357730
11
30.456090
21
704.940193
0
LINE
8
boundary
62
5
39
2
10
30.456090
20
704.940193
11
29.754418
21
703.841816
0
LINE
8
boundary
62
5
39
2
10
29.754418
20
703.841816
11
25.104728
21
696.563320
0
LINE
8
boundary
62
5
39
2
10
25.104728
20
696.563320
11
24.470002
21
695.424946
0
LINE
8
boundary
62
5
39
2
10
24.470002
20
695.424946
11
20.263916
21
687.881404
0
LINE
8
boundary
62
5
39
2
10
20.263916
20
687.881404
11
19.698407
21
686.707108
0
LINE
8
boundary
62
5
39
2
10
19.698407
20
686.707108
11
15.951002
21
678.925524
0
LINE
8
boundary
62
5
39
2
10
15.951002
20
678.925524
11
15.456731
21
677.719510
0
LINE
8
boundary
62
5
39
2
10
15.456731
20
677.719510
11
12.181401
21
669.727742
0
LINE
8
boundary
62
5
39
2
10
12.181401
20
669.727742
11
11.760138
21
668.494328
0
LINE
8
boundary
62
5
39
2
10
11.760138
20
668.494328
11
8.968601
21
660.320990
0
LINE
8
boundary
62
5
39
2
10
8.968601
20
660.320990
11
8.621857
21
659.064590
0
LINE
8
boundary
62
5
39
2
10
8.621857
20
659.064590
11
6.324127
21
650.738931
0
LINE
8
boundary
62
5
39
2
10
6.324127
20
650.738931
11
6.053140
21
649.464043
0
LINE
8
boundary
62
5
39
2
10
6.053140
20
649.464043
11
4.257439
21
641.015879
0
LINE
8
boundary
62
5
39
2
10
4.257439
20
641.015879
11
4.063183
21
639.727066
0
LINE
8
boundary
62
5
39
2
10
4.063183
20
639.727066
11
2.775905
21
631.186627
0
LINE
8
boundary
62
5
39
2
10
2.775905
20
631.186627
11
2.659071
21
629.888505
0
LINE
8
boundary
62
5
39
2
10
2.659071
20
629.888505
11
1.884881
21
621.286371
0
LINE
8
boundary
62
5
39
2
10
1.884881
20
621.286371
11
1.845890
21
619.983584
0
LINE
8
boundary
62
5
39
2
10
1.845890
20
619.983584
11
1.686270
21
614.650545
0
LINE
8
boundary
62
5
39
2
10
1.686270
20
614.650545
11
80.040668
21
614.350545
0
LINE
8
boundary
62
5
39
2
10
80.040668
20
614.350545
11
80.040668
21
608.350545
0
LINE
8
boundary
62
5
39
2
10
80.040668
20
608.350545
11
1.986268
21
608.350545
0
LINE
8
boundary
62
5
39
2
10
1.986268
20
608.350545
11
1.884881
21
601.414720
0
LINE
8
boundary
62
5
39
2
10
1.884881
20
601.414720
11
2.001715
21
600.116597
0
LINE
8
boundary
62
5
39
2
10
2.001715
20
600.116597
11
2.775905
21
591.514463
0
LINE
8
boundary
62
5
39
2
10
2.775905
20
591.514463
11
2.970162
21
590.225651
0
LINE
8
boundary
62
5
39
2
10
2.970162
20
590.225651
11
4.257439
21
581.685212
0
LINE
8
boundary
62
5
39
2
10
4.257439
20
581.685212
11
4.528425
21
580.410324
0
LINE
8
boundary
62
5
39
2
10
4.528425
20
580.410324
11
6.324127
21
571.962160
0
LINE
8
boundary
62
5
39
2
10
6.324127
20
571.962160
11
6.670871
21
570.705759
0
LINE
8
boundary
62
5
39
2
10
6.670871
20
570.705759
11
8.968601
21
562.380100
0
LINE
8
boundary
62
5
39
2
10
8.968601
20
562.380100
11
9.389864
21
561.146686
0
LINE
8
boundary
62
5
39
2
10
9.389864
20
561.146686
11
12.181401
21
552.973349
0
LINE
8
boundary
62
5
39
2
10
12.181401
20
552.973349
11
12.675672
21
551.767336
0
LINE
8
boundary
62
5
39
2
10
12.675672
20
551.767336
11
15.951002
21
543.775567
0
LINE
8
boundary
62
5
39
2
10
15.951002
20
543.775567
11
16.516511
21
542.601270
0
LINE
8
boundary
62
5
39
2
10
16.516511
20
542.601270
11
20.263917
21
534.819686
0
LINE
8
boundary
62
5
39
2
10
20.263917
20
534.819686
11
20.898642
21
533.681314
0
LINE
8
boundary
62
5
39
2
10
20.898642
20
533.681314
11
25.104728
21
526.137772
0
LINE
8
boundary
62
5
39
2
10
25.104728
20
526.137772
11
25.806400
21
525.039394
0
LINE
8
boundary
62
5
39
2
10
25.806400
20
525.039394
11
30.456090
21
517.760897
0
LINE
8
boundary
62
5
39
2
10
30.456090
20
517.760897
11
31.222191
21
516.706449
0
LINE
8
boundary
62
5
39
2
10
31.222191
20
516.706449
11
31.856811
21
516.343361
0
LINE
8
boundary
62
5
39
2
10
31.856811
20
516.343361
11
95.053971
21
562.258785
0
LINE
8
boundary
62
5
39
2
10
95.053971
20
562.258785
11
98.580683
21
557.404683
0
LINE
8
boundary
62
5
39
2
10
98.580683
20
557.404683
11
35.383523
21
511.489259
0
LINE
8
boundary
62
5
39
2
10
35.383523
20
511.489259
11
36.298835
21
509.719050
0
LINE
8
boundary
62
5
39
2
10
36.298835
20
509.719050
11
37.126625
21
508.712306
0
LINE
8
annotation
62
1
39
211
10
244.442130
20
606.550545
11
244.442130
21
616.150545
0
LINE
8
annotation
62
1
39
211
10
244.442130
20
616.150545
11
242.307927
21
614.015740
0
LINE
8
annotation
62
1
39
211
10
233.503425
20
653.206775
11
230.054108
21
650.700700
0
LINE
8
annotation
62
1
39
211
10
230.054108
20
650.700700
11
229.513417
21
658.147509
0
LINE
8
annotation
62
1
39
211
10
229.513417
20
658.147509
11
229.513417
21
658.147509
0
LINE
8
annotation
62
1
39
211
10
229.513417
20
658.147509
11
229.513802
21
658.154992
0
LINE
8
annotation
62
1
39
211
10
229.513802
20
658.154992
11
229.514001
21
658.162402
0
LINE
8
annotation
62
1
39
211
10
229.514001
20
658.162402
11
229.514010
21
658.169796
0
LINE
8
annotation
62
1
39
211
10
229.514010
20
658.169796
11
229.513823
21
658.177231
0
LINE
8
annotation
62
1
39
211
10
229.513823
20
658.177231
11
229.513435
21
658.184765
0
LINE
8
annotation
62
1
39
211
10
229.513435
20
658.184765
11
229.512842
21
658.192457
0
LINE
8
annotation
62
1
39
211
10
229.512842
20
658.192457
11
229.512038
21
658.200362
0
LINE
8
annotation
62
1
39
211
10
229.512038
20
658.200362
11
229.511018
21
658.208540
0
LINE
8
annotation
62
1
39
211
10
229.511018
20
658.208540
11
229.509777
21
658.217047
0
LINE
8
annotation
62
1
39
211
10
229.509777
20
658.217047
11
229.509777
21
658.217047
0
LINE
8
annotation
62
1
39
211
10
229.509777
20
658.217047
11
229.436086
21
658.595222
0
LINE
8
annotation
62
1
39
211
10
229.436086
20
658.595222
11
229.300162
21
658.943978
0
LINE
8
annotation
62
1
39
211
10
229.300162
20
658.943978
11
229.108697
21
659.258064
0
LINE
8
annotation
62
1
39
211
10
229.108697
20
659.258064
11
228.868384
21
659.532232
0
LINE
8
annotation
62
1
39
211
10
228.868384
20
659.532232
11
228.585914
21
659.761231
0
LINE
8
annotation
62
1
39
211
10
228.585914
20
659.761231
11
228.267981
21
659.939813
0
LINE
8
annotation
62
1
39
211
10
228.267981
20
659.939813
11
227.921277
21
660.062727
0
LINE
8
annotation
62
1
39
211
10
227.921277
20
660.062727
11
227.552495
21
660.124726
0
LINE
8
annotation
62
1
39
211
10
227.552495
20
660.124726
11
227.168327
21
660.120558
0
LINE
8
annotation
62
1
39
211
10
227.168327
20
660.120558
11
227.168327
21
660.120558
0
LINE
8
annotation
62
1
39
211
10
227.168327
20
660.120558
11
226.790725
21
660.044426
0
LINE
8
annotation
62
1
39
211
10
226.790725
20
660.044426
11
226.442381
21
659.906992
0
LINE
8
annotation
62
1
39
211
10
226.442381
20
659.906992
11
226.128616
21
659.714722
0
LINE
8
annotation
62
1
39
211
10
226.128616
20
659.714722
11
225.854750
21
659.474085
0
LINE
8
annotation
62
1
39
211
10
225.854750
20
659.474085
11
225.626104
21
659.191551
0
LINE
8
annotation
62
1
39
211
10
225.626104
20
659.191551
11
225.447998
21
658.873587
0
LINE
8
annotation
62
1
39
211
10
225.447998
20
658.873587
11
225.325752
21
658.526662
0
LINE
8
annotation
62
1
39
211
10
225.325752
20
658.526662
11
225.264688
21
658.157244
0
LINE
8
annotation
62
1
39
211
10
225.264688
20
658.157244
11
225.270124
21
657.771802
0
LINE
8
annotation
62
1
39
211
10
225.270124
20
657.771802
11
225.359292
21
657.172802
0
LINE
8
annotation
62
1
39
211
10
195.009378
20
679.785268
11
195.668139
21
681.812725
0
LINE
8
annotation
62
1
39
211
10
195.668139
20
681.812725
11
195.668139
21
681.812725
0
LINE
8
annotation
62
1
39
211
10
195.668139
20
681.812725
11
195.753908
21
682.187997
0
LINE
8
annotation
62
1
39
211
10
195.753908
20
682.187997
11
195.771119
21
682.561745
0
LINE
8
annotation
62
1
39
211
10
195.771119
20
682.561745
11
195.723704
21
682.926383
0
LINE
8
annotation
62
1
39
211
10
195.723704
20
682.926383
11
195.615596
21
683.274323
0
LINE
8
annotation
62
1
39
211
10
195.615596
20
683.274323
11
195.450727
21
683.597979
0
LINE
8
annotation
62
1
39
211
10
195.450727
20
683.597979
11
195.233032
21
683.889763
0
LINE
8
annotation
62
1
39
211
10
195.233032
20
683.889763
11
194.966441
21
684.142088
0
LINE
8
annotation
62
1
39
211
10
194.966441
20
684.142088
11
194.654888
21
684.347367
0
LINE
8
annotation
62
1
39
211
10
194.654888
20
684.347367
11
194.302306
21
684.498013
0
LINE
8
annotation
62
1
39
211
10
194.302306
20
684.498013
11
193.287145
21
684.827859
0
LINE
8
annotation
62
1
39
211
10
193.287145
20
684.827859
11
193.287145
21
684.827859
0
LINE
8
annotation
62
1
39
211
10
193.287145
20
684.827859
11
192.913503
21
684.913177
0
LINE
8
annotation
62
1
39
211
10
192.913503
20
684.913177
11
192.540872
21
684.930203
0
LINE
8
annotation
62
1
39
211
10
192.540872
20
684.930203
11
192.176906
21
684.882758
0
LINE
8
annotation
62
1
39
211
10
192.176906
20
684.882758
11
191.829261
21
684.774664
0
LINE
8
annotation
62
1
39
211
10
191.829261
20
684.774664
11
191.505593
21
684.609744
0
LINE
8
annotation
62
1
39
211
10
191.505593
20
684.609744
11
191.213556
21
684.391818
0
LINE
8
annotation
62
1
39
211
10
191.213556
20
684.391818
11
190.960807
21
684.124710
0
LINE
8
annotation
62
1
39
211
10
190.960807
20
684.124710
11
190.755000
21
683.812241
0
LINE
8
annotation
62
1
39
211
10
190.755000
20
683.812241
11
190.603790
21
683.458232
0
LINE
8
annotation
62
1
39
211
10
190.603790
20
683.458232
11
190.273945
21
682.443072
0
LINE
8
annotation
62
1
39
211
10
190.273945
20
682.443072
11
190.603790
21
683.458232
0
LINE
8
annotation
62
1
39
211
10
190.603790
20
683.458232
11
190.603790
21
683.458232
0
LINE
8
annotation
62
1
39
211
10
190.603790
20
683.458232
11
190.689532
21
683.833512
0
LINE
8
annotation
62
1
39
211
10
190.689532
20
683.833512
11
190.706641
21
684.207293
0
LINE
8
annotation
62
1
39
211
10
190.706641
20
684.207293
11
190.659015
21
684.572000
0
LINE
8
annotation
62
1
39
211
10
190.659015
20
684.572000
11
190.550555
21
684.920054
0
LINE
8
annotation
62
1
39
211
10
190.550555
20
684.920054
11
190.385161
21
685.243881
0
LINE
8
annotation
62
1
39
211
10
190.385161
20
685.243881
11
190.166732
21
685.535903
0
LINE
8
annotation
62
1
39
211
10
190.166732
20
685.535903
11
189.899167
21
685.788545
0
LINE
8
annotation
62
1
39
211
10
189.899167
20
685.788545
11
189.586367
21
685.994229
0
LINE
8
annotation
62
1
39
211
10
189.586367
20
685.994229
11
189.232231
21
686.145380
0
LINE
8
annotation
62
1
39
211
10
189.232231
20
686.145380
11
189.232231
21
686.145380
0
LINE
8
annotation
62
1
39
211
10
189.232231
20
686.145380
11
188.858589
21
686.230699
0
LINE
8
annotation
62
1
39
211
10
188.858589
20
686.230699
11
188.485957
21
686.247725
0
LINE
8
annotation
62
1
39
211
10
188.485957
20
686.247725
11
188.121991
21
686.200280
0
LINE
8
annotation
62
1
39
211
10
188.121991
20
686.200280
11
187.774347
21
686.092186
0
LINE
8
annotation
62
1
39
211
10
187.774347
20
686.092186
11
187.450678
21
685.927265
0
LINE
8
annotation
62
1
39
211
10
187.450678
20
685.927265
11
187.158642
21
685.709340
0
LINE
8
annotation
62
1
39
211
10
187.158642
20
685.709340
11
186.905892
21
685.442232
0
LINE
8
annotation
62
1
39
211
10
186.905892
20
685.442232
11
186.700085
21
685.129762
0
LINE
8
annotation
62
1
39
211
10
186.700085
20
685.129762
11
186.548875
21
684.775754
0
LINE
8
annotation
62
1
39
211
10
186.548875
20
684.775754
11
185.890115
21
682.748296
0
LINE
8
annotation
62
1
39
211
10
146.050665
20
686.689798
11
147.697846
21
681.620296
0
LINE
8
annotation
62
1
39
211
10
147.697846
20
681.620296
11
139.939620
21
681.337832
0
LINE
8
annotation
62
1
39
211
10
148.574157
20
685.829712
11
144.519243
21
684.512191
0
LINE
8
annotation
62
1
39
211
10
111.072532
20
658.445470
11
109.347874
21
659.698507
0
LINE
8
annotation
62
1
39
211
10
109.347874
20
659.698507
11
109.347874
21
659.698507
0
LINE
8
annotation
62
1
39
211
10
109.347874
20
659.698507
11
109.018111
21
659.895571
0
LINE
8
annotation
62
1
39
211
10
109.018111
20
659.895571
11
108.668284
21
660.027145
0
LINE
8
annotation
62
1
39
211
10
108.668284
20
660.027145
11
108.306858
21
660.094542
0
LINE
8
annotation
62
1
39
211
10
108.306858
20
660.094542
11
107.942298
21
660.099081
0
LINE
8
annotation
62
1
39
211
10
107.942298
20
660.099081
11
107.583069
21
660.042076
0
LINE
8
annotation
62
1
39
211
10
107.583069
20
660.042076
11
107.237636
21
659.924843
0
LINE
8
annotation
62
1
39
211
10
107.237636
20
659.924843
11
106.914464
21
659.748699
0
LINE
8
annotation
62
1
39
211
10
106.914464
20
659.748699
11
106.622018
21
659.514958
0
LINE
8
annotation
62
1
39
211
10
106.622018
20
659.514958
11
106.368763
21
659.224938
0
LINE
8
annotation
62
1
39
211
10
106.368763
20
659.224938
11
105.744544
21
658.365775
0
LINE
8
annotation
62
1
39
211
10
105.744544
20
658.365775
11
105.744544
21
658.365775
0
LINE
8
annotation
62
1
39
211
10
105.744544
20
658.365775
11
105.547072
21
658.035456
0
LINE
8
annotation
62
1
39
211
10
105.547072
20
658.035456
11
105.415395
21
657.685525
0
LINE
8
annotation
62
1
39
211
10
105.415395
20
657.685525
11
105.348109
21
657.324360
0
LINE
8
annotation
62
1
39
211
10
105.348109
20
657.324360
11
105.343809
21
656.960336
0
LINE
8
annotation
62
1
39
211
10
105.343809
20
656.960336
11
105.401091
21
656.601831
0
LINE
8
annotation
62
1
39
211
10
105.401091
20
656.601831
11
105.518549
21
656.257219
0
LINE
8
annotation
62
1
39
211
10
105.518549
20
656.257219
11
105.694778
21
655.934878
0
LINE
8
annotation
62
1
39
211
10
105.694778
20
655.934878
11
105.928375
21
655.643185
0
LINE
8
annotation
62
1
39
211
10
105.928375
20
655.643185
11
106.217934
21
655.390515
0
LINE
8
annotation
62
1
39
211
10
106.217934
20
655.390515
11
107.942593
21
654.137477
0
LINE
8
annotation
62
1
39
211
10
107.942593
20
654.137477
11
105.429794
21
650.678906
0
LINE
8
annotation
62
1
39
211
10
105.429794
20
650.678906
11
101.980478
21
653.184982
0
LINE
8
annotation
62
1
39
211
10
90.971460
20
606.550545
11
90.971460
21
606.550545
0
LINE
8
annotation
62
1
39
211
10
90.971460
20
606.550545
11
91.582165
21
606.779523
0
LINE
8
annotation
62
1
39
211
10
91.582165
20
606.779523
11
92.142568
21
607.088043
0
LINE
8
annotation
62
1
39
211
10
92.142568
20
607.088043
11
92.646914
21
607.468376
0
LINE
8
annotation
62
1
39
211
10
92.646914
20
607.468376
11
93.089452
21
607.912792
0
LINE
8
annotation
62
1
39
211
10
93.089452
20
607.912792
11
93.464429
21
608.413561
0
LINE
8
annotation
62
1
39
211
10
93.464429
20
608.413561
11
93.766092
21
608.962954
0
LINE
8
annotation
62
1
39
211
10
93.766092
20
608.962954
11
93.988687
21
609.553240
0
LINE
8
annotation
62
1
39
211
10
93.988687
20
609.553240
11
94.126463
21
610.176690
0
LINE
8
annotation
62
1
39
211
10
94.126463
20
610.176690
11
94.173667
21
610.825574
0
LINE
8
annotation
62
1
39
211
10
94.173667
20
610.825574
11
94.173667
21
614.016342
0
LINE
8
annotation
62
1
39
211
10
94.173667
20
614.016342
11
94.173667
21
614.016342
0
LINE
8
annotation
62
1
39
211
10
94.173667
20
614.016342
11
94.139249
21
614.399833
0
LINE
8
annotation
62
1
39
211
10
94.139249
20
614.399833
11
94.040044
21
614.760829
0
LINE
8
annotation
62
1
39
211
10
94.040044
20
614.760829
11
93.882128
21
615.093288
0
LINE
8
annotation
62
1
39
211
10
93.882128
20
615.093288
11
93.671574
21
615.391172
0
LINE
8
annotation
62
1
39
211
10
93.671574
20
615.391172
11
93.414459
21
615.648439
0
LINE
8
annotation
62
1
39
211
10
93.414459
20
615.648439
11
93.116856
21
615.859050
0
LINE
8
annotation
62
1
39
211
10
93.116856
20
615.859050
11
92.784841
21
616.016965
0
LINE
8
annotation
62
1
39
211
10
92.784841
20
616.016965
11
92.424488
21
616.116144
0
LINE
8
annotation
62
1
39
211
10
92.424488
20
616.116144
11
92.041872
21
616.150545
0
LINE
8
annotation
62
1
39
211
10
92.041872
20
616.150545
11
92.041872
21
616.150545
0
LINE
8
annotation
62
1
39
211
10
92.041872
20
616.150545
11
91.658464
21
616.116144
0
LINE
8
annotation
62
1
39
211
10
91.658464
20
616.116144
11
91.297690
21
616.016965
0
LINE
8
annotation
62
1
39
211
10
91.297690
20
616.016965
11
90.965551
21
615.859050
0
LINE
8
annotation
62
1
39
211
10
90.965551
20
615.859050
11
90.668047
21
615.648439
0
LINE
8
annotation
62
1
39
211
10
90.668047
20
615.648439
11
90.411179
21
615.391172
0
LINE
8
annotation
62
1
39
211
10
90.411179
20
615.391172
11
90.200948
21
615.093288
0
LINE
8
annotation
62
1
39
211
10
90.200948
20
615.093288
11
90.043354
21
614.760829
0
LINE
8
annotation
62
1
39
211
10
90.043354
20
614.760829
11
89.944397
21
614.399833
0
LINE
8
annotation
62
1
39
211
10
89.944397
20
614.399833
11
89.910078
21
614.016342
0
LINE
8
annotation
62
1
39
211
10
89.910078
20
614.016342
11
89.910078
21
612.954358
0
LINE
8
annotation
62
1
39
211
10
89.910078
20
612.954358
11
89.910078
21
612.954358
0
LINE
8
annotation
62
1
39
211
10
89.910078
20
612.954358
11
89.944397
21
612.571053
0
LINE
8
annotation
62
1
39
211
10
89.944397
20
612.571053
11
90.043354
21
612.210556
0
LINE
8
annotation
62
1
39
211
10
90.043354
20
612.210556
11
90.200948
21
611.878817
0
LINE
8
annotation
62
1
39
211
10
90.200948
20
611.878817
11
90.411179
21
611.581788
0
LINE
8
annotation
62
1
39
211
10
90.411179
20
611.581788
11
90.668047
21
611.325420
0
LINE
8
annotation
62
1
39
211
10
90.668047
20
611.325420
11
90.965551
21
611.115664
0
LINE
8
annotation
62
1
39
211
10
90.965551
20
611.115664
11
91.297690
21
610.958470
0
LINE
8
annotation
62
1
39
211
10
91.297690
20
610.958470
11
91.658464
21
610.859789
0
LINE
8
annotation
62
1
39
211
10
91.658464
20
610.859789
11
92.041872
21
610.825574
0
LINE
8
annotation
62
1
39
211
10
92.041872
20
610.825574
11
94.173667
21
610.825574
0
LINE
8
annotation
62
1
39
211
10
94.440668
20
617.350545
11
89.640668
21
617.350545
0
LINE
8
annotation
62
1
39
211
10
103.705136
20
570.769147
11
107.621268
21
561.748130
0
LINE
8
annotation
62
1
39
211
10
107.621268
20
561.748130
11
111.074968
21
564.257390
0
LINE
8
annotation
62
1
39
211
10
105.108469
20
565.206701
11
106.835076
21
566.461154
0
LINE
8
annotation
62
1
39
211
10
142.456929
20
542.222821
11
142.456929
21
542.222821
0
LINE
8
annotation
62
1
39
211
10
142.456929
20
542.222821
11
142.081749
21
542.308536
0
LINE
8
annotation
62
1
39
211
10
142.081749
20
542.308536
11
141.708239
21
542.325586
0
LINE
8
annotation
62
1
39
211
10
141.708239
20
542.325586
11
141.343938
21
542.277911
0
LINE
8
annotation
62
1
39
211
10
141.343938
20
542.277911
11
140.996383
21
542.169450
0
LINE
8
annotation
62
1
39
211
10
140.996383
20
542.169450
11
140.673109
21
542.004141
0
LINE
8
annotation
62
1
39
211
10
140.673109
20
542.004141
11
140.381654
21
541.785922
0
LINE
8
annotation
62
1
39
211
10
140.381654
20
541.785922
11
140.129556
21
541.518732
0
LINE
8
annotation
62
1
39
211
10
140.129556
20
541.518732
11
139.924350
21
541.206510
0
LINE
8
annotation
62
1
39
211
10
139.924350
20
541.206510
11
139.773574
21
540.853195
0
LINE
8
annotation
62
1
39
211
10
139.773574
20
540.853195
11
139.773574
21
540.853195
0
LINE
8
annotation
62
1
39
211
10
139.773574
20
540.853195
11
139.687881
21
540.478732
0
LINE
8
annotation
62
1
39
211
10
139.687881
20
540.478732
11
139.670376
21
540.105523
0
LINE
8
annotation
62
1
39
211
10
139.670376
20
540.105523
11
139.717278
21
539.741182
0
LINE
8
annotation
62
1
39
211
10
139.717278
20
539.741182
11
139.824804
21
539.393326
0
LINE
8
annotation
62
1
39
211
10
139.824804
20
539.393326
11
139.989171
21
539.069573
0
LINE
8
annotation
62
1
39
211
10
139.989171
20
539.069573
11
140.206598
21
538.777538
0
LINE
8
annotation
62
1
39
211
10
140.206598
20
538.777538
11
140.473301
21
538.524837
0
LINE
8
annotation
62
1
39
211
10
140.473301
20
538.524837
11
140.785499
21
538.319088
0
LINE
8
annotation
62
1
39
211
10
140.785499
20
538.319088
11
141.139408
21
538.167907
0
LINE
8
annotation
62
1
39
211
10
141.139408
20
538.167907
11
142.149415
21
537.839736
0
LINE
8
annotation
62
1
39
211
10
142.149415
20
537.839736
11
142.149415
21
537.839736
0
LINE
8
annotation
62
1
39
211
10
142.149415
20
537.839736
11
142.524766
21
537.753945
0
LINE
8
annotation
62
1
39
211
10
142.524766
20
537.753945
11
142.898734
21
537.736694
0
LINE
8
annotation
62
1
39
211
10
142.898734
20
537.736694
11
143.263700
21
537.784084
0
LINE
8
annotation
62
1
39
211
10
143.263700
20
537.784084
11
143.612049
21
537.892220
0
LINE
8
annotation
62
1
39
211
10
143.612049
20
537.892220
11
143.936163
21
538.057204
0
LINE
8
annotation
62
1
39
211
10
143.936163
20
538.057204
11
144.228424
21
538.275140
0
LINE
8
annotation
62
1
39
211
10
144.228424
20
538.275140
11
144.481216
21
538.542131
0
LINE
8
annotation
62
1
39
211
10
144.481216
20
538.542131
11
144.686921
21
538.854279
0
LINE
8
annotation
62
1
39
211
10
144.686921
20
538.854279
11
144.837923
21
539.207688
0
LINE
8
annotation
62
1
39
211
10
144.837923
20
539.207688
11
144.837923
21
539.207688
0
LINE
8
annotation
62
1
39
211
10
144.837923
20
539.207688
11
144.923470
21
539.582365
0
LINE
8
annotation
62
1
39
211
10
144.923470
20
539.582365
11
144.940480
21
539.955824
0
LINE
8
annotation
62
1
39
211
10
144.940480
20
539.955824
11
144.892839
21
540.320431
0
LINE
8
annotation
62
1
39
211
10
144.892839
20
540.320431
11
144.784432
21
540.668551
0
LINE
8
annotation
62
1
39
211
10
144.784432
20
540.668551
11
144.619147
21
540.992551
0
LINE
8
annotation
62
1
39
211
10
144.619147
20
540.992551
11
144.400869
21
541.284795
0
LINE
8
annotation
62
1
39
211
10
144.400869
20
541.284795
11
144.133484
21
541.537649
0
LINE
8
annotation
62
1
39
211
10
144.133484
20
541.537649
11
143.820878
21
541.743479
0
LINE
8
annotation
62
1
39
211
10
143.820878
20
541.743479
11
143.466936
21
541.894650
0
LINE
8
annotation
62
1
39
211
10
143.466936
20
541.894650
11
142.456929
21
542.222821
0
LINE
8
annotation
62
1
39
211
10
146.209483
20
536.520540
11
146.209483
21
536.520540
0
LINE
8
annotation
62
1
39
211
10
146.209483
20
536.520540
11
146.583149
21
536.435297
0
LINE
8
annotation
62
1
39
211
10
146.583149
20
536.435297
11
146.955842
21
536.418459
0
LINE
8
annotation
62
1
39
211
10
146.955842
20
536.418459
11
147.319887
21
536.466149
0
LINE
8
annotation
62
1
39
211
10
147.319887
20
536.466149
11
147.667612
21
536.574488
0
LINE
8
annotation
62
1
39
211
10
147.667612
20
536.574488
11
147.991341
21
536.739597
0
LINE
8
annotation
62
1
39
211
10
147.991341
20
536.739597
11
148.283402
21
536.957598
0
LINE
8
annotation
62
1
39
211
10
148.283402
20
536.957598
11
148.536121
21
537.224612
0
LINE
8
annotation
62
1
39
211
10
148.536121
20
537.224612
11
148.741824
21
537.536761
0
LINE
8
annotation
62
1
39
211
10
148.741824
20
537.536761
11
148.892838
21
537.890166
0
LINE
8
annotation
62
1
39
211
10
148.892838
20
537.890166
11
148.892838
21
537.890166
0
LINE
8
annotation
62
1
39
211
10
148.892838
20
537.890166
11
148.978392
21
538.264841
0
LINE
8
annotation
62
1
39
211
10
148.978392
20
538.264841
11
148.995451
21
538.638284
0
LINE
8
annotation
62
1
39
211
10
148.995451
20
538.638284
11
148.947944
21
539.002847
0
LINE
8
annotation
62
1
39
211
10
148.947944
20
539.002847
11
148.839800
21
539.350883
0
LINE
8
annotation
62
1
39
211
10
148.839800
20
539.350883
11
148.674945
21
539.674742
0
LINE
8
annotation
62
1
39
211
10
148.674945
20
539.674742
11
148.457310
21
539.966777
0
LINE
8
annotation
62
1
39
211
10
148.457310
20
539.966777
11
148.190823
21
540.219340
0
LINE
8
annotation
62
1
39
211
10
148.190823
20
540.219340
11
147.879411
21
540.424782
0
LINE
8
annotation
62
1
39
211
10
147.879411
20
540.424782
11
147.527004
21
540.575454
0
LINE
8
annotation
62
1
39
211
10
147.527004
20
540.575454
11
147.527004
21
540.575454
0
LINE
8
annotation
62
1
39
211
10
147.527004
20
540.575454
11
147.151627
21
540.661232
0
LINE
8
annotation
62
1
39
211
10
147.151627
20
540.661232
11
146.777592
21
540.678454
0
LINE
8
annotation
62
1
39
211
10
146.777592
20
540.678454
11
146.412529
21
540.631026
0
LINE
8
annotation
62
1
39
211
10
146.412529
20
540.631026
11
146.064070
21
540.522859
0
LINE
8
annotation
62
1
39
211
10
146.064070
20
540.522859
11
145.739846
21
540.357858
0
LINE
8
annotation
62
1
39
211
10
145.739846
20
540.357858
11
145.447488
21
540.139933
0
LINE
8
annotation
62
1
39
211
10
145.447488
20
540.139933
11
145.194627
21
539.872991
0
LINE
8
annotation
62
1
39
211
10
145.194627
20
539.872991
11
144.988896
21
539.560940
0
LINE
8
annotation
62
1
39
211
10
144.988896
20
539.560940
11
144.837923
21
539.207688
0
LINE
8
annotation
62
1
39
211
10
144.837923
20
539.207688
11
144.837923
21
539.207688
0
LINE
8
annotation
62
1
39
211
10
144.837923
20
539.207688
11
144.752426
21
538.833162
0
LINE
8
annotation
62
1
39
211
10
144.752426
20
538.833162
11
144.735448
21
538.459781
0
LINE
8
annotation
62
1
39
211
10
144.735448
20
538.459781
11
144.783112
21
538.095193
0
LINE
8
annotation
62
1
39
211
10
144.783112
20
538.095193
11
144.891541
21
537.747044
0
LINE
8
annotation
62
1
39
211
10
144.891541
20
537.747044
11
145.056859
21
537.422982
0
LINE
8
annotation
62
1
39
211
10
145.056859
20
537.422982
11
145.275188
21
537.130653
0
LINE
8
annotation
62
1
39
211
10
145.275188
20
537.130653
11
145.542654
21
536.877705
0
LINE
8
annotation
62
1
39
211
10
145.542654
20
536.877705
11
145.855377
21
536.671785
0
LINE
8
annotation
62
1
39
211
10
145.855377
20
536.671785
11
146.209483
21
536.520540
0
LINE
8
annotation
62
1
39
211
10
186.208438
20
538.937054
11
186.208438
21
538.937054
0
LINE
8
annotation
62
1
39
211
10
186.208438
20
538.937054
11
186.612883
21
538.427463
0
LINE
8
annotation
62
1
39
211
10
186.612883
20
538.427463
11
187.077842
21
537.990176
0
LINE
8
annotation
62
1
39
211
10
187.077842
20
537.990176
11
187.594085
21
537.628274
0
LINE
8
annotation
62
1
39
211
10
187.594085
20
537.628274
11
188.152386
21
537.344839
0
LINE
8
annotation
62
1
39
211
10
188.152386
20
537.344839
11
188.743516
21
537.142953
0
LINE
8
annotation
62
1
39
211
10
188.743516
20
537.142953
11
189.358248
21
537.025697
0
LINE
8
annotation
62
1
39
211
10
189.358248
20
537.025697
11
189.987353
21
536.996154
0
LINE
8
annotation
62
1
39
211
10
189.987353
20
536.996154
11
190.621604
21
537.057405
0
LINE
8
annotation
62
1
39
211
10
190.621604
20
537.057405
11
191.251773
21
537.212531
0
LINE
8
annotation
62
1
39
211
10
191.251773
20
537.212531
11
194.296680
21
538.201882
0
LINE
8
annotation
62
1
39
211
10
194.296680
20
538.201882
11
194.296680
21
538.201882
0
LINE
8
annotation
62
1
39
211
10
194.296680
20
538.201882
11
194.650817
21
538.353033
0
LINE
8
annotation
62
1
39
211
10
194.650817
20
538.353033
11
194.963617
21
538.558717
0
LINE
8
annotation
62
1
39
211
10
194.963617
20
538.558717
11
195.231181
21
538.811359
0
LINE
8
annotation
62
1
39
211
10
195.231181
20
538.811359
11
195.449611
21
539.103381
0
LINE
8
annotation
62
1
39
211
10
195.449611
20
539.103381
11
195.615005
21
539.427208
0
LINE
8
annotation
62
1
39
211
10
195.615005
20
539.427208
11
195.723465
21
539.775262
0
LINE
8
annotation
62
1
39
211
10
195.723465
20
539.775262
11
195.771090
21
540.139969
0
LINE
8
annotation
62
1
39
211
10
195.771090
20
540.139969
11
195.753982
21
540.513750
0
LINE
8
annotation
62
1
39
211
10
195.753982
20
540.513750
11
195.668240
21
540.889030
0
LINE
8
annotation
62
1
39
211
10
195.668240
20
540.889030
11
195.668240
21
540.889030
0
LINE
8
annotation
62
1
39
211
10
195.668240
20
540.889030
11
195.517268
21
541.242282
0
LINE
8
annotation
62
1
39
211
10
195.517268
20
541.242282
11
195.311536
21
541.554333
0
LINE
8
annotation
62
1
39
211
10
195.311536
20
541.554333
11
195.058675
21
541.821275
0
LINE
8
annotation
62
1
39
211
10
195.058675
20
541.821275
11
194.766317
21
542.039200
0
LINE
8
annotation
62
1
39
211
10
194.766317
20
542.039200
11
194.442093
21
542.204201
0
LINE
8
annotation
62
1
39
211
10
194.442093
20
542.204201
11
194.093634
21
542.312369
0
LINE
8
annotation
62
1
39
211
10
194.093634
20
542.312369
11
193.728571
21
542.359796
0
LINE
8
annotation
62
1
39
211
10
193.728571
20
542.359796
11
193.354536
21
542.342574
0
LINE
8
annotation
62
1
39
211
10
193.354536
20
542.342574
11
192.979159
21
542.256796
0
LINE
8
annotation
62
1
39
211
10
192.979159
20
542.256796
11
191.963999
21
541.926951
0
LINE
8
annotation
62
1
39
211
10
191.963999
20
541.926951
11
191.963999
21
541.926951
0
LINE
8
annotation
62
1
39
211
10
191.963999
20
541.926951
11
191.609913
21
541.775712
0
LINE
8
annotation
62
1
39
211
10
191.609913
20
541.775712
11
191.297242
21
541.569809
0
LINE
8
annotation
62
1
39
211
10
191.297242
20
541.569809
11
191.029853
21
541.316886
0
LINE
8
annotation
62
1
39
211
10
191.029853
20
541.316886
11
190.811614
21
541.024586
0
LINE
8
annotation
62
1
39
211
10
190.811614
20
541.024586
11
190.646391
21
540.700555
0
LINE
8
annotation
62
1
39
211
10
190.646391
20
540.700555
11
190.538052
21
540.352436
0
LINE
8
annotation
62
1
39
211
10
190.538052
20
540.352436
11
190.490464
21
539.987872
0
LINE
8
annotation
62
1
39
211
10
190.490464
20
539.987872
11
190.507495
21
539.614508
0
LINE
8
annotation
62
1
39
211
10
190.507495
20
539.614508
11
190.593012
21
539.239989
0
LINE
8
annotation
62
1
39
211
10
190.593012
20
539.239989
11
191.251773
21
537.212531
0
LINE
8
annotation
62
1
39
211
10
184.655747
20
539.832464
11
186.139028
21
535.267393
0
LINE
8
annotation
62
1
39
211
10
224.021152
20
564.742552
11
229.449607
21
572.214180
0
LINE
8
annotation
62
1
39
211
10
229.449607
20
572.214180
11
226.581413
21
571.759488
0
LINE
8
annotation
62
1
39
211
10
228.094524
20
561.933651
11
228.094524
21
561.933651
0
LINE
8
annotation
62
1
39
211
10
228.094524
20
561.933651
11
228.221010
21
561.742572
0
LINE
8
annotation
62
1
39
211
10
228.221010
20
561.742572
11
228.375671
21
561.580929
0
LINE
8
annotation
62
1
39
211
10
228.375671
20
561.580929
11
228.553525
21
561.450333
0
LINE
8
annotation
62
1
39
211
10
228.553525
20
561.450333
11
228.749590
21
561.352393
0
LINE
8
annotation
62
1
39
211
10
228.749590
20
561.352393
11
228.958885
21
561.288720
0
LINE
8
annotation
62
1
39
211
10
228.958885
20
561.288720
11
229.176428
21
561.260924
0
LINE
8
annotation
62
1
39
211
10
229.176428
20
561.260924
11
229.397238
21
561.270615
0
LINE
8
annotation
62
1
39
211
10
229.397238
20
561.270615
11
229.616333
21
561.319402
0
LINE
8
annotation
62
1
39
211
10
229.616333
20
561.319402
11
229.828732
21
561.408897
0
LINE
8
annotation
62
1
39
211
10
229.828732
20
561.408897
11
229.828732
21
561.408897
0
LINE
8
annotation
62
1
39
211
10
229.828732
20
561.408897
11
230.605976
21
561.873463
0
LINE
8
annotation
62
1
39
211
10
230.605976
20
561.873463
11
231.325437
21
562.409801
0
LINE
8
annotation
62
1
39
211
10
231.325437
20
562.409801
11
231.983099
21
563.012386
0
LINE
8
annotation
62
1
39
211
10
231.983099
20
563.012386
11
232.574948
21
563.675691
0
LINE
8
annotation
62
1
39
211
10
232.574948
20
563.675691
11
233.096967
21
564.394190
0
LINE
8
annotation
62
1
39
211
10
233.096967
20
564.394190
11
233.545144
21
565.162356
0
LINE
8
annotation
62
1
39
211
10
233.545144
20
565.162356
11
233.915461
21
565.974664
0
LINE
8
annotation
62
1
39
211
10
233.915461
20
565.974664
11
234.203904
21
566.825586
0
LINE
8
annotation
62
1
39
211
10
234.203904
20
566.825586
11
234.406459
21
567.709598
0
LINE
8
annotation
62
1
39
211
10
234.406459
20
567.709598
11
234.406459
21
567.709598
0
LINE
8
annotation
62
1
39
211
10
234.406459
20
567.709598
11
234.419346
21
567.804302
0
LINE
8
annotation
62
1
39
211
10
234.419346
20
567.804302
11
234.425166
21
567.899569
0
LINE
8
annotation
62
1
39
211
10
234.425166
20
567.899569
11
234.423997
21
567.994853
0
LINE
8
annotation
62
1
39
211
10
234.423997
20
567.994853
11
234.415920
21
568.089605
0
LINE
8
annotation
62
1
39
211
10
234.415920
20
568.089605
11
234.401014
21
568.183279
0
LINE
8
annotation
62
1
39
211
10
234.401014
20
568.183279
11
234.379359
21
568.275328
0
LINE
8
annotation
62
1
39
211
10
234.379359
20
568.275328
11
234.351035
21
568.365204
0
LINE
8
annotation
62
1
39
211
10
234.351035
20
568.365204
11
234.316122
21
568.452362
0
LINE
8
annotation
62
1
39
211
10
234.316122
20
568.452362
11
234.274700
21
568.536253
0
LINE
8
annotation
62
1
39
211
10
234.274700
20
568.536253
11
234.274700
21
568.536253
0
LINE
8
annotation
62
1
39
211
10
234.274700
20
568.536253
11
234.147857
21
568.729740
0
LINE
8
annotation
62
1
39
211
10
234.147857
20
568.729740
11
233.992954
21
568.893243
0
LINE
8
annotation
62
1
39
211
10
233.992954
20
568.893243
11
233.814931
21
569.025193
0
LINE
8
annotation
62
1
39
211
10
233.814931
20
569.025193
11
233.618730
21
569.124020
0
LINE
8
annotation
62
1
39
211
10
233.618730
20
569.124020
11
233.409291
21
569.188156
0
LINE
8
annotation
62
1
39
211
10
233.409291
20
569.188156
11
233.191556
21
569.216032
0
LINE
8
annotation
62
1
39
211
10
233.191556
20
569.216032
11
232.970464
21
569.206079
0
LINE
8
annotation
62
1
39
211
10
232.970464
20
569.206079
11
232.750958
21
569.156729
0
LINE
8
annotation
62
1
39
211
10
232.750958
20
569.156729
11
232.537977
21
569.066413
0
LINE
8
annotation
62
1
39
211
10
232.537977
20
569.066413
11
232.537977
21
569.066413
0
LINE
8
annotation
62
1
39
211
10
232.537977
20
569.066413
11
231.762222
21
568.600978
0
LINE
8
annotation
62
1
39
211
10
231.762222
20
568.600978
11
231.043878
21
568.063987
0
LINE
8
annotation
62
1
39
211
10
231.043878
20
568.063987
11
230.386961
21
567.460967
0
LINE
8
annotation
62
1
39
211
10
230.386961
20
567.460967
11
229.795484
21
566.797445
0
LINE
8
annotation
62
1
39
211
10
229.795484
20
566.797445
11
229.273464
21
566.078946
0
LINE
8
annotation
62
1
39
211
10
229.273464
20
566.078946
11
228.824916
21
565.310997
0
LINE
8
annotation
62
1
39
211
10
228.824916
20
565.310997
11
228.453854
21
564.499124
0
LINE
8
annotation
62
1
39
211
10
228.453854
20
564.499124
11
228.164294
21
563.648854
0
LINE
8
annotation
62
1
39
211
10
228.164294
20
563.648854
11
227.960250
21
562.765712
0
LINE
8
annotation
62
1
39
211
10
227.960250
20
562.765712
11
227.960250
21
562.765712
0
LINE
8
annotation
62
1
39
211
10
227.960250
20
562.765712
11
227.947328
21
562.671240
0
LINE
8
annotation
62
1
39
211
10
227.947328
20
562.671240
11
227.941438
21
562.576520
0
LINE
8
annotation
62
1
39
211
10
227.941438
20
562.576520
11
227.942549
21
562.481875
0
LINE
8
annotation
62
1
39
211
10
227.942549
20
562.481875
11
227.950630
21
562.387628
0
LINE
8
annotation
62
1
39
211
10
227.950630
20
562.387628
11
227.965652
21
562.294100
0
LINE
8
annotation
62
1
39
211
10
227.965652
20
562.294100
11
227.987582
21
562.201616
0
LINE
8
annotation
62
1
39
211
10
227.987582
20
562.201616
11
228.016392
21
562.110498
0
LINE
8
annotation
62
1
39
211
10
228.016392
20
562.110498
11
228.052049
21
562.021069
0
LINE
8
annotation
62
1
39
211
10
228.052049
20
562.021069
11
228.094524
21
561.933651
0
LINE
8
annotation
62
1
39
211
10
134.126493
20
592.618553
11
107.559179
21
592.618553
0
LINE
8
annotation
62
1
39
211
10
107.559179
20
592.618553
11
134.126493
21
640.466125
0
LINE
8
annotation
62
1
39
211
10
134.126493
20
640.466125
11
107.559179
21
640.466125
0
LINE
8
annotation
62
1
39
211
10
178.236067
20
616.542339
11
152.073833
21
616.542339
0
LINE
8
annotation
62
1
39
211
10
212.134598
20
640.466125
11
212.134598
21
640.466125
0
LINE
8
annotation
62
1
39
211
10
212.134598
20
640.466125
11
209.090767
21
639.324872
0
LINE
8
annotation
62
1
39
211
10
209.090767
20
639.324872
11
206.297653
21
637.787169
0
LINE
8
annotation
62
1
39
211
10
206.297653
20
637.787169
11
203.783928
21
635.891543
0
LINE
8
annotation
62
1
39
211
10
203.783928
20
635.891543
11
201.578264
21
633.676520
0
LINE
8
annotation
62
1
39
211
10
201.578264
20
633.676520
11
199.709335
21
631.180625
0
LINE
8
annotation
62
1
39
211
10
199.709335
20
631.180625
11
198.205812
21
628.442386
0
LINE
8
annotation
62
1
39
211
10
198.205812
20
628.442386
11
197.096368
21
625.500328
0
LINE
8
annotation
62
1
39
211
10
197.096368
20
625.500328
11
196.409675
21
622.392978
0
LINE
8
annotation
62
1
39
211
10
196.409675
20
622.392978
11
196.174405
21
619.158862
0
LINE
8
annotation
62
1
39
211
10
196.174405
20
619.158862
11
196.174405
21
603.255681
0
LINE
8
annotation
62
1
39
211
10
196.174405
20
603.255681
11
196.174405
21
603.255681
0
LINE
8
annotation
62
1
39
211
10
196.174405
20
603.255681
11
196.345950
21
601.344315
0
LINE
8
annotation
62
1
39
211
10
196.345950
20
601.344315
11
196.840399
21
599.545071
0
LINE
8
annotation
62
1
39
211
10
196.840399
20
599.545071
11
197.627474
21
597.888052
0
LINE
8
annotation
62
1
39
211
10
197.627474
20
597.888052
11
198.676898
21
596.403364
0
LINE
8
annotation
62
1
39
211
10
198.676898
20
596.403364
11
199.958393
21
595.121111
0
LINE
8
annotation
62
1
39
211
10
199.958393
20
595.121111
11
201.441681
21
594.071399
0
LINE
8
annotation
62
1
39
211
10
201.441681
20
594.071399
11
203.096485
21
593.284333
0
LINE
8
annotation
62
1
39
211
10
203.096485
20
593.284333
11
204.892528
21
592.790016
0
LINE
8
annotation
62
1
39
211
10
204.892528
20
592.790016
11
206.799531
21
592.618553
0
LINE
8
annotation
62
1
39
211
10
206.799531
20
592.618553
11
206.799531
21
592.618553
0
LINE
8
annotation
62
1
39
211
10
206.799531
20
592.618553
11
208.710485
21
592.790016
0
LINE
8
annotation
62
1
39
211
10
208.710485
20
592.790016
11
210.508627
21
593.284333
0
LINE
8
annotation
62
1
39
211
10
210.508627
20
593.284333
11
212.164048
21
594.071399
0
LINE
8
annotation
62
1
39
211
10
212.164048
20
594.071399
11
213.646843
21
595.121111
0
LINE
8
annotation
62
1
39
211
10
213.646843
20
595.121111
11
214.927103
21
596.403364
0
LINE
8
annotation
62
1
39
211
10
214.927103
20
596.403364
11
215.974922
21
597.888052
0
LINE
8
annotation
62
1
39
211
10
215.974922
20
597.888052
11
216.760392
21
599.545071
0
LINE
8
annotation
62
1
39
211
10
216.760392
20
599.545071
11
217.253606
21
601.344315
0
LINE
8
annotation
62
1
39
211
10
217.253606
20
601.344315
11
217.424656
21
603.255681
0
LINE
8
annotation
62
1
39
211
10
217.424656
20
603.255681
11
217.424656
21
608.548740
0
LINE
8
annotation
62
1
39
211
10
217.424656
20
608.548740
11
217.424656
21
608.548740
0
LINE
8
annotation
62
1
39
211
10
217.424656
20
608.548740
11
217.253606
21
610.459180
0
LINE
8
annotation
62
1
39
211
10
217.253606
20
610.459180
11
216.760392
21
612.255942
0
LINE
8
annotation
62
1
39
211
10
216.760392
20
612.255942
11
215.974922
21
613.909368
0
LINE
8
annotation
62
1
39
211
10
215.974922
20
613.909368
11
214.927103
21
615.389796
0
LINE
8
annotation
62
1
39
211
10
214.927103
20
615.389796
11
213.646843
21
616.667566
0
LINE
8
annotation
62
1
39
211
10
213.646843
20
616.667566
11
212.164048
21
617.713018
0
LINE
8
annotation
62
1
39
211
10
212.164048
20
617.713018
11
210.508627
21
618.496491
0
LINE
8
annotation
62
1
39
211
10
210.508627
20
618.496491
11
208.710485
21
618.988326
0
LINE
8
annotation
62
1
39
211
10
208.710485
20
618.988326
11
206.799531
21
619.158862
0
LINE
8
annotation
62
1
39
211
10
206.799531
20
619.158862
11
196.174405
21
619.158862
0
LINE
8
annotation
62
1
39
211
10
194.843639
20
586.637607
11
218.767425
21
586.637607
0
LINE
8
boundary
62
5
39
2
10
346.134517
20
457.510017
11
348.857551
21
454.786983
0
LINE
8
boundary
62
5
39
2
10
348.857551
20
454.786983
11
349.247186
21
454.397349
0
LINE
8
boundary
62
5
39
2
10
349.247186
20
454.397349
11
352.278592
21
452.022393
0
LINE
8
boundary
62
5
39
2
10
352.278592
20
452.022393
11
352.712351
21
451.682564
0
LINE
8
boundary
62
5
39
2
10
352.712351
20
451.682564
11
356.007925
21
449.690321
0
LINE
8
boundary
62
5
39
2
10
356.007925
20
449.690321
11
356.479484
21
449.405254
0
LINE
8
boundary
62
5
39
2
10
356.479484
20
449.405254
11
359.082058
21
448.233931
0
LINE
8
boundary
62
5
39
2
10
359.082058
20
448.233931
11
363.517915
21
460.915274
0
LINE
8
boundary
62
5
39
2
10
363.517915
20
460.915274
11
369.224254
21
459.061172
0
LINE
8
boundary
62
5
39
2
10
369.224254
20
459.061172
11
365.158188
21
446.547107
0
LINE
8
boundary
62
5
39
2
10
365.158188
20
446.547107
11
368.484184
21
445.594872
0
LINE
8
boundary
62
5
39
2
10
368.484184
20
445.594872
11
369.026185
21
445.495546
0
LINE
8
boundary
62
5
39
2
10
369.026185
20
445.495546
11
372.870112
21
445.263027
0
LINE
8
boundary
62
5
39
2
10
372.870112
20
445.263027
11
373.420133
21
445.229757
0
LINE
8
boundary
62
5
39
2
10
373.420133
20
445.229757
11
377.264060
21
445.462276
0
LINE
8
boundary
62
5
39
2
10
377.264060
20
445.462276
11
377.814082
21
445.495546
0
LINE
8
boundary
62
5
39
2
10
377.814082
20
445.495546
11
381.489467
21
446.169085
0
LINE
8
boundary
62
5
39
2
10
381.489467
20
446.169085
11
377.616013
21
459.061171
0
LINE
8
boundary
62
5
39
2
10
377.616013
20
459.061171
11
383.322352
21
460.915273
0
LINE
8
boundary
62
5
39
2
10
383.322352
20
460.915273
11
387.380187
21
448.426543
0
LINE
8
boundary
62
5
39
2
10
387.380187
20
448.426543
11
389.858302
21
449.179106
0
LINE
8
boundary
62
5
39
2
10
389.858302
20
449.179106
11
390.360783
21
449.405254
0
LINE
8
boundary
62
5
39
2
10
390.360783
20
449.405254
11
393.656358
21
451.397497
0
LINE
8
boundary
62
5
39
2
10
393.656358
20
451.397497
11
394.127916
21
451.682564
0
LINE
8
boundary
62
5
39
2
10
394.127916
20
451.682564
11
397.159322
21
454.057520
0
LINE
8
boundary
62
5
39
2
10
397.159322
20
454.057520
11
397.593081
21
454.397349
0
LINE
8
boundary
62
5
39
2
10
397.593081
20
454.397349
11
400.316115
21
457.120383
0
LINE
8
boundary
62
5
39
2
10
400.316115
20
457.120383
11
400.705750
21
457.510017
0
LINE
8
boundary
62
5
39
2
10
400.705750
20
457.510017
11
400.774063
21
458.100968
0
LINE
8
boundary
62
5
39
2
10
400.774063
20
458.100968
11
390.120030
21
465.841576
0
LINE
8
boundary
62
5
39
2
10
390.120030
20
465.841576
11
393.646742
21
470.695678
0
LINE
8
boundary
62
5
39
2
10
393.646742
20
470.695678
11
404.257504
21
462.986508
0
LINE
8
boundary
62
5
39
2
10
404.257504
20
462.986508
11
405.412777
21
464.270757
0
LINE
8
boundary
62
5
39
2
10
405.412777
20
464.270757
11
405.697844
21
464.742315
0
LINE
8
boundary
62
5
39
2
10
405.697844
20
464.742315
11
407.278324
21
468.253999
0
LINE
8
boundary
62
5
39
2
10
407.278324
20
468.253999
11
407.504472
21
468.756480
0
LINE
8
boundary
62
5
39
2
10
407.504472
20
468.756480
11
408.650141
21
472.433066
0
LINE
8
boundary
62
5
39
2
10
408.650141
20
472.433066
11
408.814074
21
472.959143
0
LINE
8
boundary
62
5
39
2
10
408.814074
20
472.959143
11
409.508227
21
476.747016
0
LINE
8
boundary
62
5
39
2
10
409.508227
20
476.747016
11
409.607552
21
477.289017
0
LINE
8
boundary
62
5
39
2
10
409.607552
20
477.289017
11
409.673725
21
478.382965
0
LINE
8
boundary
62
5
39
2
10
409.673725
20
478.382965
11
396.263263
21
478.682965
0
LINE
8
boundary
62
5
39
2
10
396.263263
20
478.682965
11
396.263263
21
484.682965
0
LINE
8
boundary
62
5
39
2
10
396.263263
20
484.682965
11
409.373724
21
484.682965
0
LINE
8
boundary
62
5
39
2
10
409.373724
20
484.682965
11
409.640822
21
485.526892
0
LINE
8
boundary
62
5
39
2
10
409.640822
20
485.526892
11
409.607552
21
486.076913
0
LINE
8
boundary
62
5
39
2
10
409.607552
20
486.076913
11
408.913399
21
489.864787
0
LINE
8
boundary
62
5
39
2
10
408.913399
20
489.864787
11
408.814074
21
490.406788
0
LINE
8
boundary
62
5
39
2
10
408.814074
20
490.406788
11
407.668405
21
494.083374
0
LINE
8
boundary
62
5
39
2
10
407.668405
20
494.083374
11
407.504472
21
494.609450
0
LINE
8
boundary
62
5
39
2
10
407.504472
20
494.609450
11
405.923992
21
498.121134
0
LINE
8
boundary
62
5
39
2
10
405.923992
20
498.121134
11
405.697844
21
498.623615
0
LINE
8
boundary
62
5
39
2
10
405.697844
20
498.623615
11
404.676544
21
500.313053
0
LINE
8
boundary
62
5
39
2
10
404.676544
20
500.313053
11
393.646741
21
492.670252
0
LINE
8
boundary
62
5
39
2
10
393.646741
20
492.670252
11
390.120030
21
497.524354
0
LINE
8
boundary
62
5
39
2
10
390.120030
20
497.524354
11
400.774063
21
505.264962
0
LINE
8
boundary
62
5
39
2
10
400.774063
20
505.264962
11
400.705750
21
505.855913
0
LINE
8
boundary
62
5
39
2
10
400.705750
20
505.855913
11
397.982716
21
508.578947
0
LINE
8
boundary
62
5
39
2
10
397.982716
20
508.578947
11
397.593081
21
508.968581
0
LINE
8
boundary
62
5
39
2
10
397.593081
20
508.968581
11
394.561675
21
511.343538
0
LINE
8
boundary
62
5
39
2
10
394.561675
20
511.343538
11
394.127916
21
511.683366
0
LINE
8
boundary
62
5
39
2
10
394.127916
20
511.683366
11
390.832341
21
513.675609
0
LINE
8
boundary
62
5
39
2
10
390.832341
20
513.675609
11
390.360783
21
513.960676
0
LINE
8
boundary
62
5
39
2
10
390.360783
20
513.960676
11
387.758209
21
515.131999
0
LINE
8
boundary
62
5
39
2
10
387.758209
20
515.131999
11
383.322352
21
502.450657
0
LINE
8
boundary
62
5
39
2
10
383.322352
20
502.450657
11
377.616013
21
504.304759
0
LINE
8
boundary
62
5
39
2
10
377.616013
20
504.304759
11
381.682079
21
516.818823
0
LINE
8
boundary
62
5
39
2
10
381.682079
20
516.818823
11
378.356082
21
517.771059
0
LINE
8
boundary
62
5
39
2
10
378.356082
20
517.771059
11
377.814082
21
517.870384
0
LINE
8
boundary
62
5
39
2
10
377.814082
20
517.870384
11
373.970155
21
518.102903
0
LINE
8
boundary
62
5
39
2
10
373.970155
20
518.102903
11
373.420133
21
518.136174
0
LINE
8
boundary
62
5
39
2
10
373.420133
20
518.136174
11
369.576207
21
517.903654
0
LINE
8
boundary
62
5
39
2
10
369.576207
20
517.903654
11
369.026185
21
517.870384
0
LINE
8
boundary
62
5
39
2
10
369.026185
20
517.870384
11
365.350800
21
517.196845
0
LINE
8
boundary
62
5
39
2
10
365.350800
20
517.196845
11
369.224254
21
504.304759
0
LINE
8
boundary
62
5
39
2
10
369.224254
20
504.304759
11
363.517915
21
502.450657
0
LINE
8
boundary
62
5
39
2
10
363.517915
20
502.450657
11
359.460080
21
514.939387
0
LINE
8
boundary
62
5
39
2
10
359.460080
20
514.939387
11
356.981965
21
514.186824
0
LINE
8
boundary
62
5
39
2
10
356.981965
20
514.186824
11
356.479484
21
513.960676
0
LINE
8
boundary
62
5
39
2
10
356.479484
20
513.960676
11
353.183909
21
511.968433
0
LINE
8
boundary
62
5
39
2
10
353.183909
20
511.968433
11
352.712351
21
511.683366
0
LINE
8
boundary
62
5
39
2
10
352.712351
20
511.683366
11
349.680945
21
509.308410
0
LINE
8
boundary
62
5
39
2
10
349.680945
20
509.308410
11
349.247186
21
508.968582
0
LINE
8
boundary
62
5
39
2
10
349.247186
20
508.968582
11
346.524152
21
506.245548
0
LINE
8
boundary
62
5
39
2
10
346.524152
20
506.245548
11
346.134517
21
505.855913
0
LINE
8
boundary
62
5
39
2
10
346.134517
20
505.855913
11
346.066204
21
505.264962
0
LINE
8
boundary
62
5
39
2
10
346.066204
20
505.264962
11
356.720237
21
497.524354
0
LINE
8
boundary
62
5
39
2
10
356.720237
20
497.524354
11
353.193525
21
492.670252
0
LINE
8
boundary
62
5
39
2
10
353.193525
20
492.670252
11
342.582763
21
500.379422
0
LINE
8
boundary
62
5
39
2
10
342.582763
20
500.379422
11
341.427489
21
499.095173
0
LINE
8
boundary
62
5
39
2
10
341.427489
20
499.095173
11
341.142423
21
498.623615
0
LINE
8
boundary
62
5
39
2
10
341.142423
20
498.623615
11
339.561943
21
495.111932
0
LINE
8
boundary
62
5
39
2
10
339.561943
20
495.111932
11
339.335794
21
494.609450
0
LINE
8
boundary
62
5
39
2
10
339.335794
20
494.609450
11
338.190125
21
490.932865
0
LINE
8
boundary
62
5
39
2
10
338.190125
20
490.932865
11
338.026193
21
490.406788
0
LINE
8
boundary
62
5
39
2
10
338.026193
20
490.406788
11
337.332040
21
486.618914
0
LINE
8
boundary
62
5
39
2
10
337.332040
20
486.618914
11
337.232714
21
486.076913
0
LINE
8
boundary
62
5
39
2
10
337.232714
20
486.076913
11
337.166541
21
484.982965
0
LINE
8
boundary
62
5
39
2
10
337.166541
20
484.982965
11
350.577004
21
484.682965
0
LINE
8
boundary
62
5
39
2
10
350.577004
20
484.682965
11
350.577004
21
478.682965
0
LINE
8
boundary
62
5
39
2
10
350.577004
20
478.682965
11
337.466542
21
478.682965
0
LINE
8
boundary
62
5
39
2
10
337.466542
20
478.682965
11
337.199445
21
477.839038
0
LINE
8
boundary
62
5
39
2
10
337.199445
20
477.839038
11
337.232715
21
477.289017
0
LINE
8
boundary
62
5
39
2
10
337.232715
20
477.289017
11
337.926868
21
473.501143
0
LINE
8
boundary
62
5
39
2
10
337.926868
20
473.501143
11
338.026193
21
472.959143
0
LINE
8
boundary
62
5
39
2
10
338.026193
20
472.959143
11
339.171862
21
469.282557
0
LINE
8
boundary
62
5
39
2
10
339.171862
20
469.282557
11
339.335794
21
468.756480
0
LINE
8
boundary
62
5
39
2
10
339.335794
20
468.756480
11
340.916274
21
465.244796
0
LINE
8
boundary
62
5
39
2
10
340.916274
20
465.244796
11
341.142423
21
464.742315
0
LINE
8
boundary
62
5
39
2
10
341.142423
20
464.742315
11
342.163723
21
463.052878
0
LINE
8
boundary
62
5
39
2
10
342.163723
20
463.052878
11
353.193525
21
470.695678
0
LINE
8
boundary
62
5
39
2
10
353.193525
20
470.695678
11
356.720237
21
465.841576
0
LINE
8
boundary
62
5
39
2
10
356.720237
20
465.841576
11
346.066204
21
458.100968
0
LINE
8
boundary
62
5
39
2
10
346.066204
20
458.100968
11
346.134517
21
457.510017
0
LINE
8
annotation
62
1
39
211
10
385.329461
20
476.882965
11
385.329461
21
486.482965
0
LINE
8
annotation
62
1
39
211
10
385.329461
20
486.482965
11
383.195258
21
484.348160
0
LINE
8
annotation
62
1
39
211
10
386.720281
20
485.412865
11
383.270964
21
482.906790
0
LINE
8
annotation
62
1
39
211
10
383.270964
20
482.906790
11
382.730273
21
490.353599
0
LINE
8
annotation
62
1
39
211
10
382.730273
20
490.353599
11
382.730273
21
490.353599
0
LINE
8
annotation
62
1
39
211
10
382.730273
20
490.353599
11
382.730658
21
490.361083
0
LINE
8
annotation
62
1
39
211
10
382.730658
20
490.361083
11
382.730857
21
490.368492
0
LINE
8
annotation
62
1
39
211
10
382.730857
20
490.368492
11
382.730866
21
490.375886
0
LINE
8
annotation
62
1
39
211
10
382.730866
20
490.375886
11
382.730679
21
490.383321
0
LINE
8
annotation
62
1
39
211
10
382.730679
20
490.383321
11
382.730291
21
490.390856
0
LINE
8
annotation
62
1
39
211
10
382.730291
20
490.390856
11
382.729698
21
490.398547
0
LINE
8
annotation
62
1
39
211
10
382.729698
20
490.398547
11
382.728894
21
490.406453
0
LINE
8
annotation
62
1
39
211
10
382.728894
20
490.406453
11
382.727874
21
490.414630
0
LINE
8
annotation
62
1
39
211
10
382.727874
20
490.414630
11
382.726633
21
490.423137
0
LINE
8
annotation
62
1
39
211
10
382.726633
20
490.423137
11
382.726633
21
490.423137
0
LINE
8
annotation
62
1
39
211
10
382.726633
20
490.423137
11
382.652943
21
490.801313
0
LINE
8
annotation
62
1
39
211
10
382.652943
20
490.801313
11
382.517019
21
491.150068
0
LINE
8
annotation
62
1
39
211
10
382.517019
20
491.150068
11
382.325553
21
491.464154
0
LINE
8
annotation
62
1
39
211
10
382.325553
20
491.464154
11
382.085240
21
491.738322
0
LINE
8
annotation
62
1
39
211
10
382.085240
20
491.738322
11
381.802770
21
491.967321
0
LINE
8
annotation
62
1
39
211
10
381.802770
20
491.967321
11
381.484837
21
492.145903
0
LINE
8
annotation
62
1
39
211
10
381.484837
20
492.145903
11
381.138133
21
492.268818
0
LINE
8
annotation
62
1
39
211
10
381.138133
20
492.268818
11
380.769351
21
492.330816
0
LINE
8
annotation
62
1
39
211
10
380.769351
20
492.330816
11
380.385183
21
492.326648
0
LINE
8
annotation
62
1
39
211
10
380.385183
20
492.326648
11
380.385183
21
492.326648
0
LINE
8
annotation
62
1
39
211
10
380.385183
20
492.326648
11
380.007581
21
492.250517
0
LINE
8
annotation
62
1
39
211
10
380.007581
20
492.250517
11
379.659237
21
492.113082
0
LINE
8
annotation
62
1
39
211
10
379.659237
20
492.113082
11
379.345472
21
491.920812
0
LINE
8
annotation
62
1
39
211
10
379.345472
20
491.920812
11
379.071606
21
491.680176
0
LINE
8
annotation
62
1
39
211
10
379.071606
20
491.680176
11
378.842960
21
491.397641
0
LINE
8
annotation
62
1
39
211
10
378.842960
20
491.397641
11
378.664854
21
491.079677
0
LINE
8
annotation
62
1
39
211
10
378.664854
20
491.079677
11
378.542608
21
490.732752
0
LINE
8
annotation
62
1
39
211
10
378.542608
20
490.732752
11
378.481544
21
490.363334
0
LINE
8
annotation
62
1
39
211
10
378.481544
20
490.363334
11
378.486980
21
489.977893
0
LINE
8
annotation
62
1
39
211
10
378.486980
20
489.977893
11
378.576148
21
489.378893
0
LINE
8
annotation
62
1
39
211
10
380.666631
20
488.453238
11
381.325392
21
490.480696
0
LINE
8
annotation
62
1
39
211
10
381.325392
20
490.480696
11
381.325392
21
490.480696
0
LINE
8
annotation
62
1
39
211
10
381.325392
20
490.480696
11
381.411160
21
490.855967
0
LINE
8
annotation
62
1
39
211
10
381.411160
20
490.855967
11
381.428371
21
491.229715
0
LINE
8
annotation
62
1
39
211
10
381.428371
20
491.229715
11
381.380956
21
491.594353
0
LINE
8
annotation
62
1
39
211
10
381.380956
20
491.594353
11
381.272848
21
491.942293
0
LINE
8
annotation
62
1
39
211
10
381.272848
20
491.942293
11
381.107980
21
492.265949
0
LINE
8
annotation
62
1
39
211
10
381.107980
20
492.265949
11
380.890284
21
492.557733
0
LINE
8
annotation
62
1
39
211
10
380.890284
20
492.557733
11
380.623693
21
492.810058
0
LINE
8
annotation
62
1
39
211
10
380.623693
20
492.810058
11
380.312140
21
493.015337
0
LINE
8
annotation
62
1
39
211
10
380.312140
20
493.015337
11
379.959558
21
493.165984
0
LINE
8
annotation
62
1
39
211
10
379.959558
20
493.165984
11
378.944398
21
493.495829
0
LINE
8
annotation
62
1
39
211
10
378.944398
20
493.495829
11
378.944398
21
493.495829
0
LINE
8
annotation
62
1
39
211
10
378.944398
20
493.495829
11
378.570756
21
493.581148
0
LINE
8
annotation
62
1
39
211
10
378.570756
20
493.581148
11
378.198124
21
493.598173
0
LINE
8
annotation
62
1
39
211
10
378.198124
20
493.598173
11
377.834158
21
493.550729
0
LINE
8
annotation
62
1
39
211
10
377.834158
20
493.550729
11
377.486513
21
493.442635
0
LINE
8
annotation
62
1
39
211
10
377.486513
20
493.442635
11
377.162845
21
493.277714
0
LINE
8
annotation
62
1
39
211
10
377.162845
20
493.277714
11
376.870809
21
493.059789
0
LINE
8
annotation
62
1
39
211
10
376.870809
20
493.059789
11
376.618059
21
492.792680
0
LINE
8
annotation
62
1
39
211
10
376.618059
20
492.792680
11
376.412252
21
492.480211
0
LINE
8
annotation
62
1
39
211
10
376.412252
20
492.480211
11
376.261042
21
492.126203
0
LINE
8
annotation
62
1
39
211
10
376.261042
20
492.126203
11
375.931197
21
491.111042
0
LINE
8
annotation
62
1
39
211
10
375.931197
20
491.111042
11
376.261042
21
492.126203
0
LINE
8
annotation
62
1
39
211
10
376.261042
20
492.126203
11
376.261042
21
492.126203
0
LINE
8
annotation
62
1
39
211
10
376.261042
20
492.126203
11
376.346785
21
492.501483
0
LINE
8
annotation
62
1
39
211
10
376.346785
20
492.501483
11
376.363893
21
492.875264
0
LINE
8
annotation
62
1
39
211
10
376.363893
20
492.875264
11
376.316268
21
493.239970
0
LINE
8
annotation
62
1
39
211
10
376.316268
20
493.239970
11
376.207808
21
493.588025
0
LINE
8
annotation
62
1
39
211
10
376.207808
20
493.588025
11
376.042413
21
493.911851
0
LINE
8
annotation
62
1
39
211
10
376.042413
20
493.911851
11
375.823984
21
494.203874
0
LINE
8
annotation
62
1
39
211
10
375.823984
20
494.203874
11
375.556419
21
494.456515
0
LINE
8
annotation
62
1
39
211
10
375.556419
20
494.456515
11
375.243619
21
494.662200
0
LINE
8
annotation
62
1
39
211
10
375.243619
20
494.662200
11
374.889483
21
494.813351
0
LINE
8
annotation
62
1
39
211
10
374.889483
20
494.813351
11
374.889483
21
494.813351
0
LINE
8
annotation
62
1
39
211
10
374.889483
20
494.813351
11
374.515841
21
494.898669
0
LINE
8
annotation
62
1
39
211
10
374.515841
20
494.898669
11
374.143209
21
494.915695
0
LINE
8
annotation
62
1
39
211
10
374.143209
20
494.915695
11
373.779244
21
494.868250
0
LINE
8
annotation
62
1
39
211
10
373.779244
20
494.868250
11
373.431599
21
494.760156
0
LINE
8
annotation
62
1
39
211
10
373.431599
20
494.760156
11
373.107930
21
494.595236
0
LINE
8
annotation
62
1
39
211
10
373.107930
20
494.595236
11
372.815894
21
494.377311
0
LINE
8
annotation
62
1
39
211
10
372.815894
20
494.377311
11
372.563144
21
494.110202
0
LINE
8
annotation
62
1
39
211
10
372.563144
20
494.110202
11
372.357337
21
493.797733
0
LINE
8
annotation
62
1
39
211
10
372.357337
20
493.797733
11
372.206128
21
493.443724
0
LINE
8
annotation
62
1
39
211
10
372.206128
20
493.443724
11
371.547367
21
491.416267
0
LINE
8
annotation
62
1
39
211
10
371.791393
20
495.322412
11
373.438574
21
490.252910
0
LINE
8
annotation
62
1
39
211
10
373.438574
20
490.252910
11
365.680349
21
489.970446
0
LINE
8
annotation
62
1
39
211
10
374.314886
20
494.462326
11
370.259971
21
493.144805
0
LINE
8
annotation
62
1
39
211
10
369.212086
20
490.673416
11
367.487428
21
491.926454
0
LINE
8
annotation
62
1
39
211
10
367.487428
20
491.926454
11
367.487428
21
491.926454
0
LINE
8
annotation
62
1
39
211
10
367.487428
20
491.926454
11
367.157665
21
492.123518
0
LINE
8
annotation
62
1
39
211
10
367.157665
20
492.123518
11
366.807838
21
492.255091
0
LINE
8
annotation
62
1
39
211
10
366.807838
20
492.255091
11
366.446412
21
492.322489
0
LINE
8
annotation
62
1
39
211
10
366.446412
20
492.322489
11
366.081852
21
492.327028
0
LINE
8
annotation
62
1
39
211
10
366.081852
20
492.327028
11
365.722623
21
492.270023
0
LINE
8
annotation
62
1
39
211
10
365.722623
20
492.270023
11
365.377190
21
492.152790
0
LINE
8
annotation
62
1
39
211
10
365.377190
20
492.152790
11
365.054018
21
491.976646
0
LINE
8
annotation
62
1
39
211
10
365.054018
20
491.976646
11
364.761572
21
491.742905
0
LINE
8
annotation
62
1
39
211
10
364.761572
20
491.742905
11
364.508317
21
491.452885
0
LINE
8
annotation
62
1
39
211
10
364.508317
20
491.452885
11
363.884098
21
490.593722
0
LINE
8
annotation
62
1
39
211
10
363.884098
20
490.593722
11
363.884098
21
490.593722
0
LINE
8
annotation
62
1
39
211
10
363.884098
20
490.593722
11
363.686626
21
490.263403
0
LINE
8
annotation
62
1
39
211
10
363.686626
20
490.263403
11
363.554949
21
489.913472
0
LINE
8
annotation
62
1
39
211
10
363.554949
20
489.913472
11
363.487663
21
489.552307
0
LINE
8
annotation
62
1
39
211
10
363.487663
20
489.552307
11
363.483363
21
489.188283
0
LINE
8
annotation
62
1
39
211
10
363.483363
20
489.188283
11
363.540645
21
488.829777
0
LINE
8
annotation
62
1
39
211
10
363.540645
20
488.829777
11
363.658103
21
488.485166
0
LINE
8
annotation
62
1
39
211
10
363.658103
20
488.485166
11
363.834332
21
488.162825
0
LINE
8
annotation
62
1
39
211
10
363.834332
20
488.162825
11
364.067929
21
487.871132
0
LINE
8
annotation
62
1
39
211
10
364.067929
20
487.871132
11
364.357488
21
487.618461
0
LINE
8
annotation
62
1
39
211
10
364.357488
20
487.618461
11
366.082147
21
486.365424
0
LINE
8
annotation
62
1
39
211
10
366.082147
20
486.365424
11
363.569348
21
482.906853
0
LINE
8
annotation
62
1
39
211
10
363.569348
20
482.906853
11
360.120032
21
485.412928
0
LINE
8
annotation
62
1
39
211
10
361.507795
20
476.882965
11
361.507795
21
476.882965
0
LINE
8
annotation
62
1
39
211
10
361.507795
20
476.882965
11
362.118501
21
477.111943
0
LINE
8
annotation
62
1
39
211
10
362.118501
20
477.111943
11
362.678903
21
477.420463
0
LINE
8
annotation
62
1
39
211
10
362.678903
20
477.420463
11
363.183250
21
477.800796
0
LINE
8
annotation
62
1
39
211
10
363.183250
20
477.800796
11
363.625788
21
478.245212
0
LINE
8
annotation
62
1
39
211
10
363.625788
20
478.245212
11
364.000765
21
478.745981
0
LINE
8
annotation
62
1
39
211
10
364.000765
20
478.745981
11
364.302427
21
479.295374
0
LINE
8
annotation
62
1
39
211
10
364.302427
20
479.295374
11
364.525023
21
479.885660
0
LINE
8
annotation
62
1
39
211
10
364.525023
20
479.885660
11
364.662799
21
480.509109
0
LINE
8
annotation
62
1
39
211
10
364.662799
20
480.509109
11
364.710003
21
481.157993
0
LINE
8
annotation
62
1
39
211
10
364.710003
20
481.157993
11
364.710003
21
484.348762
0
LINE
8
annotation
62
1
39
211
10
364.710003
20
484.348762
11
364.710003
21
484.348762
0
LINE
8
annotation
62
1
39
211
10
364.710003
20
484.348762
11
364.675585
21
484.732253
0
LINE
8
annotation
62
1
39
211
10
364.675585
20
484.732253
11
364.576380
21
485.093248
0
LINE
8
annotation
62
1
39
211
10
364.576380
20
485.093248
11
364.418463
21
485.425708
0
LINE
8
annotation
62
1
39
211
10
364.418463
20
485.425708
11
364.207910
21
485.723591
0
LINE
8
annotation
62
1
39
211
10
364.207910
20
485.723591
11
363.950794
21
485.980859
0
LINE
8
annotation
62
1
39
211
10
363.950794
20
485.980859
11
363.653192
21
486.191470
0
LINE
8
annotation
62
1
39
211
10
363.653192
20
486.191470
11
363.321176
21
486.349385
0
LINE
8
annotation
62
1
39
211
10
363.321176
20
486.349385
11
362.960824
21
486.448563
0
LINE
8
annotation
62
1
39
211
10
362.960824
20
486.448563
11
362.578208
21
486.482965
0
LINE
8
annotation
62
1
39
211
10
362.578208
20
486.482965
11
362.578208
21
486.482965
0
LINE
8
annotation
62
1
39
211
10
362.578208
20
486.482965
11
362.194800
21
486.448563
0
LINE
8
annotation
62
1
39
211
10
362.194800
20
486.448563
11
361.834026
21
486.349385
0
LINE
8
annotation
62
1
39
211
10
361.834026
20
486.349385
11
361.501887
21
486.191470
0
LINE
8
annotation
62
1
39
211
10
361.501887
20
486.191470
11
361.204383
21
485.980859
0
LINE
8
annotation
62
1
39
211
10
361.204383
20
485.980859
11
360.947515
21
485.723591
0
LINE
8
annotation
62
1
39
211
10
360.947515
20
485.723591
11
360.737284
21
485.425708
0
LINE
8
annotation
62
1
39
211
10
360.737284
20
485.425708
11
360.579689
21
485.093248
0
LINE
8
annotation
62
1
39
211
10
360.579689
20
485.093248
11
360.480732
21
484.732253
0
LINE
8
annotation
62
1
39
211
10
360.480732
20
484.732253
11
360.446413
21
484.348762
0
LINE
8
annotation
62
1
39
211
10
360.446413
20
484.348762
11
360.446413
21
483.286778
0
LINE
8
annotation
62
1
39
211
10
360.446413
20
483.286778
11
360.446413
21
483.286778
0
LINE
8
annotation
62
1
39
211
10
360.446413
20
483.286778
11
360.480732
21
482.903473
0
LINE
8
annotation
62
1
39
211
10
360.480732
20
482.903473
11
360.579689
21
482.542975
0
LINE
8
annotation
62
1
39
211
10
360.579689
20
482.542975
11
360.737284
21
482.211237
0
LINE
8
annotation
62
1
39
211
10
360.737284
20
482.211237
11
360.947515
21
481.914208
0
LINE
8
annotation
62
1
39
211
10
360.947515
20
481.914208
11
361.204383
21
481.657840
0
LINE
8
annotation
62
1
39
211
10
361.204383
20
481.657840
11
361.501887
21
481.448083
0
LINE
8
annotation
62
1
39
211
10
361.501887
20
481.448083
11
361.834026
21
481.290890
0
LINE
8
annotation
62
1
39
211
10
361.834026
20
481.290890
11
362.194800
21
481.192209
0
LINE
8
annotation
62
1
39
211
10
362.194800
20
481.192209
11
362.578208
21
481.157993
0
LINE
8
annotation
62
1
39
211
10
362.578208
20
481.157993
11
364.710003
21
481.157993
0
LINE
8
annotation
62
1
39
211
10
364.977004
20
487.682965
11
360.177004
21
487.682965
0
LINE
8
annotation
62
1
39
211
10
361.844690
20
479.206039
11
365.760822
21
470.185023
0
LINE
8
annotation
62
1
39
211
10
365.760822
20
470.185023
11
369.214522
21
472.694283
0
LINE
8
annotation
62
1
39
211
10
363.248023
20
473.643594
11
364.974630
21
474.898047
0
LINE
8
annotation
62
1
39
211
10
368.197658
20
474.255047
11
368.197658
21
474.255047
0
LINE
8
annotation
62
1
39
211
10
368.197658
20
474.255047
11
367.822477
21
474.340761
0
LINE
8
annotation
62
1
39
211
10
367.822477
20
474.340761
11
367.448968
21
474.357812
0
LINE
8
annotation
62
1
39
211
10
367.448968
20
474.357812
11
367.084667
21
474.310137
0
LINE
8
annotation
62
1
39
211
10
367.084667
20
474.310137
11
366.737111
21
474.201676
0
LINE
8
annotation
62
1
39
211
10
366.737111
20
474.201676
11
366.413838
21
474.036367
0
LINE
8
annotation
62
1
39
211
10
366.413838
20
474.036367
11
366.122383
21
473.818148
0
LINE
8
annotation
62
1
39
211
10
366.122383
20
473.818148
11
365.870284
21
473.550958
0
LINE
8
annotation
62
1
39
211
10
365.870284
20
473.550958
11
365.665079
21
473.238736
0
LINE
8
annotation
62
1
39
211
10
365.665079
20
473.238736
11
365.514303
21
472.885420
0
LINE
8
annotation
62
1
39
211
10
365.514303
20
472.885420
11
365.514303
21
472.885420
0
LINE
8
annotation
62
1
39
211
10
365.514303
20
472.885420
11
365.428609
21
472.510958
0
LINE
8
annotation
62
1
39
211
10
365.428609
20
472.510958
11
365.411105
21
472.137748
0
LINE
8
annotation
62
1
39
211
10
365.411105
20
472.137748
11
365.458007
21
471.773407
0
LINE
8
annotation
62
1
39
211
10
365.458007
20
471.773407
11
365.565533
21
471.425552
0
LINE
8
annotation
62
1
39
211
10
365.565533
20
471.425552
11
365.729900
21
471.101799
0
LINE
8
annotation
62
1
39
211
10
365.729900
20
471.101799
11
365.947327
21
470.809763
0
LINE
8
annotation
62
1
39
211
10
365.947327
20
470.809763
11
366.214030
21
470.557063
0
LINE
8
annotation
62
1
39
211
10
366.214030
20
470.557063
11
366.526227
21
470.351314
0
LINE
8
annotation
62
1
39
211
10
366.526227
20
470.351314
11
366.880136
21
470.200132
0
LINE
8
annotation
62
1
39
211
10
366.880136
20
470.200132
11
367.890143
21
469.871961
0
LINE
8
annotation
62
1
39
211
10
367.890143
20
469.871961
11
367.890143
21
469.871961
0
LINE
8
annotation
62
1
39
211
10
367.890143
20
469.871961
11
368.265495
21
469.786171
0
LINE
8
annotation
62
1
39
211
10
368.265495
20
469.786171
11
368.639462
21
469.768919
0
LINE
8
annotation
62
1
39
211
10
368.639462
20
469.768919
11
369.004429
21
469.816310
0
LINE
8
annotation
62
1
39
211
10
369.004429
20
469.816310
11
369.352778
21
469.924446
0
LINE
8
annotation
62
1
39
211
10
369.352778
20
469.924446
11
369.676891
21
470.089430
0
LINE
8
annotation
62
1
39
211
10
369.676891
20
470.089430
11
369.969153
21
470.307366
0
LINE
8
annotation
62
1
39
211
10
369.969153
20
470.307366
11
370.221945
21
470.574356
0
LINE
8
annotation
62
1
39
211
10
370.221945
20
470.574356
11
370.427650
21
470.886504
0
LINE
8
annotation
62
1
39
211
10
370.427650
20
470.886504
11
370.578652
21
471.239914
0
LINE
8
annotation
62
1
39
211
10
370.578652
20
471.239914
11
370.578652
21
471.239914
0
LINE
8
annotation
62
1
39
211
10
370.578652
20
471.239914
11
370.664199
21
471.614590
0
LINE
8
annotation
62
1
39
211
10
370.664199
20
471.614590
11
370.681209
21
471.988049
0
LINE
8
annotation
62
1
39
211
10
370.681209
20
471.988049
11
370.633567
21
472.352657
0
LINE
8
annotation
62
1
39
211
10
370.633567
20
472.352657
11
370.525161
21
472.700777
0
LINE
8
annotation
62
1
39
211
10
370.525161
20
472.700777
11
370.359876
21
473.024777
0
LINE
8
annotation
62
1
39
211
10
370.359876
20
473.024777
11
370.141598
21
473.317021
0
LINE
8
annotation
62
1
39
211
10
370.141598
20
473.317021
11
369.874212
21
473.569875
0
LINE
8
annotation
62
1
39
211
10
369.874212
20
473.569875
11
369.561606
21
473.775705
0
LINE
8
annotation
62
1
39
211
10
369.561606
20
473.775705
11
369.207665
21
473.926876
0
LINE
8
annotation
62
1
39
211
10
369.207665
20
473.926876
11
368.197658
21
474.255047
0
LINE
8
annotation
62
1
39
211
10
371.950211
20
468.552765
11
371.950211
21
468.552765
0
LINE
8
annotation
62
1
39
211
10
371.950211
20
468.552765
11
372.323878
21
468.467522
0
LINE
8
annotation
62
1
39
211
10
372.323878
20
468.467522
11
372.696571
21
468.450685
0
LINE
8
annotation
62
1
39
211
10
372.696571
20
468.450685
11
373.060616
21
468.498375
0
LINE
8
annotation
62
1
39
211
10
373.060616
20
468.498375
11
373.408340
21
468.606714
0
LINE
8
annotation
62
1
39
211
10
373.408340
20
468.606714
11
373.732070
21
468.771823
0
LINE
8
annotation
62
1
39
211
10
373.732070
20
468.771823
11
374.024131
21
468.989824
0
LINE
8
annotation
62
1
39
211
10
374.024131
20
468.989824
11
374.276850
21
469.256838
0
LINE
8
annotation
62
1
39
211
10
374.276850
20
469.256838
11
374.482553
21
469.568987
0
LINE
8
annotation
62
1
39
211
10
374.482553
20
469.568987
11
374.633566
21
469.922392
0
LINE
8
annotation
62
1
39
211
10
374.633566
20
469.922392
11
374.633566
21
469.922392
0
LINE
8
annotation
62
1
39
211
10
374.633566
20
469.922392
11
374.719120
21
470.297066
0
LINE
8
annotation
62
1
39
211
10
374.719120
20
470.297066
11
374.736180
21
470.670509
0
LINE
8
annotation
62
1
39
211
10
374.736180
20
470.670509
11
374.688673
21
471.035073
0
LINE
8
annotation
62
1
39
211
10
374.688673
20
471.035073
11
374.580528
21
471.383108
0
LINE
8
annotation
62
1
39
211
10
374.580528
20
471.383108
11
374.415674
21
471.706968
0
LINE
8
annotation
62
1
39
211
10
374.415674
20
471.706968
11
374.198039
21
471.999003
0
LINE
8
annotation
62
1
39
211
10
374.198039
20
471.999003
11
373.931552
21
472.251566
0
LINE
8
annotation
62
1
39
211
10
373.931552
20
472.251566
11
373.620140
21
472.457007
0
LINE
8
annotation
62
1
39
211
10
373.620140
20
472.457007
11
373.267733
21
472.607680
0
LINE
8
annotation
62
1
39
211
10
373.267733
20
472.607680
11
373.267733
21
472.607680
0
LINE
8
annotation
62
1
39
211
10
373.267733
20
472.607680
11
372.892356
21
472.693458
0
LINE
8
annotation
62
1
39
211
10
372.892356
20
472.693458
11
372.518320
21
472.710679
0
LINE
8
annotation
62
1
39
211
10
372.518320
20
472.710679
11
372.153257
21
472.663252
0
LINE
8
annotation
62
1
39
211
10
372.153257
20
472.663252
11
371.804798
21
472.555084
0
LINE
8
annotation
62
1
39
211
10
371.804798
20
472.555084
11
371.480574
21
472.390084
0
LINE
8
annotation
62
1
39
211
10
371.480574
20
472.390084
11
371.188217
21
472.172159
0
LINE
8
annotation
62
1
39
211
10
371.188217
20
472.172159
11
370.935356
21
471.905217
0
LINE
8
annotation
62
1
39
211
10
370.935356
20
471.905217
11
370.729624
21
471.593166
0
LINE
8
annotation
62
1
39
211
10
370.729624
20
471.593166
11
370.578652
21
471.239914
0
LINE
8
annotation
62
1
39
211
10
370.578652
20
471.239914
11
370.578652
21
471.239914
0
LINE
8
annotation
62
1
39
211
10
370.578652
20
471.239914
11
370.493155
21
470.865387
0
LINE
8
annotation
62
1
39
211
10
370.493155
20
470.865387
11
370.476176
21
470.492007
0
LINE
8
annotation
62
1
39
211
10
370.476176
20
470.492007
11
370.523840
21
470.127418
0
LINE
8
annotation
62
1
39
211
10
370.523840
20
470.127418
11
370.632269
21
469.779270
0
LINE
8
annotation
62
1
39
211
10
370.632269
20
469.779270
11
370.797587
21
469.455207
0
LINE
8
annotation
62
1
39
211
10
370.797587
20
469.455207
11
371.015917
21
469.162879
0
LINE
8
annotation
62
1
39
211
10
371.015917
20
469.162879
11
371.283382
21
468.909931
0
LINE
8
annotation
62
1
39
211
10
371.283382
20
468.909931
11
371.596106
21
468.704011
0
LINE
8
annotation
62
1
39
211
10
371.596106
20
468.704011
11
371.950211
21
468.552765
0
LINE
8
annotation
62
1
39
211
10
371.865690
20
470.933924
11
371.865690
21
470.933924
0
LINE
8
annotation
62
1
39
211
10
371.865690
20
470.933924
11
372.270135
21
470.424333
0
LINE
8
annotation
62
1
39
211
10
372.270135
20
470.424333
11
372.735094
21
469.987046
0
LINE
8
annotation
62
1
39
211
10
372.735094
20
469.987046
11
373.251337
21
469.625144
0
LINE
8
annotation
62
1
39
211
10
373.251337
20
469.625144
11
373.809638
21
469.341709
0
LINE
8
annotation
62
1
39
211
10
373.809638
20
469.341709
11
374.400769
21
469.139823
0
LINE
8
annotation
62
1
39
211
10
374.400769
20
469.139823
11
375.015500
21
469.022567
0
LINE
8
annotation
62
1
39
211
10
375.015500
20
469.022567
11
375.644605
21
468.993024
0
LINE
8
annotation
62
1
39
211
10
375.644605
20
468.993024
11
376.278856
21
469.054274
0
LINE
8
annotation
62
1
39
211
10
376.278856
20
469.054274
11
376.909025
21
469.209401
0
LINE
8
annotation
62
1
39
211
10
376.909025
20
469.209401
11
379.953933
21
470.198751
0
LINE
8
annotation
62
1
39
211
10
379.953933
20
470.198751
11
379.953933
21
470.198751
0
LINE
8
annotation
62
1
39
211
10
379.953933
20
470.198751
11
380.308069
21
470.349902
0
LINE
8
annotation
62
1
39
211
10
380.308069
20
470.349902
11
380.620869
21
470.555587
0
LINE
8
annotation
62
1
39
211
10
380.620869
20
470.555587
11
380.888433
21
470.808229
0
LINE
8
annotation
62
1
39
211
10
380.888433
20
470.808229
11
381.106863
21
471.100251
0
LINE
8
annotation
62
1
39
211
10
381.106863
20
471.100251
11
381.272257
21
471.424077
0
LINE
8
annotation
62
1
39
211
10
381.272257
20
471.424077
11
381.380717
21
471.772132
0
LINE
8
annotation
62
1
39
211
10
381.380717
20
471.772132
11
381.428342
21
472.136838
0
LINE
8
annotation
62
1
39
211
10
381.428342
20
472.136838
11
381.411234
21
472.510620
0
LINE
8
annotation
62
1
39
211
10
381.411234
20
472.510620
11
381.325492
21
472.885900
0
LINE
8
annotation
62
1
39
211
10
381.325492
20
472.885900
11
381.325492
21
472.885900
0
LINE
8
annotation
62
1
39
211
10
381.325492
20
472.885900
11
381.174520
21
473.239152
0
LINE
8
annotation
62
1
39
211
10
381.174520
20
473.239152
11
380.968788
21
473.551203
0
LINE
8
annotation
62
1
39
211
10
380.968788
20
473.551203
11
380.715927
21
473.818145
0
LINE
8
annotation
62
1
39
211
10
380.715927
20
473.818145
11
380.423569
21
474.036070
0
LINE
8
annotation
62
1
39
211
10
380.423569
20
474.036070
11
380.099345
21
474.201071
0
LINE
8
annotation
62
1
39
211
10
380.099345
20
474.201071
11
379.750886
21
474.309238
0
LINE
8
annotation
62
1
39
211
10
379.750886
20
474.309238
11
379.385823
21
474.356665
0
LINE
8
annotation
62
1
39
211
10
379.385823
20
474.356665
11
379.011788
21
474.339444
0
LINE
8
annotation
62
1
39
211
10
379.011788
20
474.339444
11
378.636411
21
474.253666
0
LINE
8
annotation
62
1
39
211
10
378.636411
20
474.253666
11
377.621251
21
473.923821
0
LINE
8
annotation
62
1
39
211
10
377.621251
20
473.923821
11
377.621251
21
473.923821
0
LINE
8
annotation
62
1
39
211
10
377.621251
20
473.923821
11
377.267165
21
473.772582
0
LINE
8
annotation
62
1
39
211
10
377.267165
20
473.772582
11
376.954494
21
473.566679
0
LINE
8
annotation
62
1
39
211
10
376.954494
20
473.566679
11
376.687105
21
473.313755
0
LINE
8
annotation
62
1
39
211
10
376.687105
20
473.313755
11
376.468866
21
473.021456
0
LINE
8
annotation
62
1
39
211
10
376.468866
20
473.021456
11
376.303643
21
472.697425
0
LINE
8
annotation
62
1
39
211
10
376.303643
20
472.697425
11
376.195304
21
472.349305
0
LINE
8
annotation
62
1
39
211
10
376.195304
20
472.349305
11
376.147716
21
471.984742
0
LINE
8
annotation
62
1
39
211
10
376.147716
20
471.984742
11
376.164747
21
471.611378
0
LINE
8
annotation
62
1
39
211
10
376.164747
20
471.611378
11
376.250264
21
471.236858
0
LINE
8
annotation
62
1
39
211
10
376.250264
20
471.236858
11
376.909025
21
469.209401
0
LINE
8
annotation
62
1
39
211
10
370.312999
20
471.829334
11
371.796280
21
467.264263
0
LINE
8
annotation
62
1
39
211
10
377.238008
20
473.201301
11
382.666464
21
480.672928
0
LINE
8
annotation
62
1
39
211
10
382.666464
20
480.672928
11
379.798270
21
480.218237
0
LINE
8
annotation
62
1
39
211
10
381.311380
20
470.392400
11
381.311380
21
470.392400
0
LINE
8
annotation
62
1
39
211
10
381.311380
20
470.392400
11
381.437866
21
470.201321
0
LINE
8
annotation
62
1
39
211
10
381.437866
20
470.201321
11
381.592527
21
470.039678
0
LINE
8
annotation
62
1
39
211
10
381.592527
20
470.039678
11
381.770381
21
469.909082
0
LINE
8
annotation
62
1
39
211
10
381.770381
20
469.909082
11
381.966446
21
469.811142
0
LINE
8
annotation
62
1
39
211
10
381.966446
20
469.811142
11
382.175742
21
469.747469
0
LINE
8
annotation
62
1
39
211
10
382.175742
20
469.747469
11
382.393285
21
469.719673
0
LINE
8
annotation
62
1
39
211
10
382.393285
20
469.719673
11
382.614095
21
469.729364
0
LINE
8
annotation
62
1
39
211
10
382.614095
20
469.729364
11
382.833190
21
469.778151
0
LINE
8
annotation
62
1
39
211
10
382.833190
20
469.778151
11
383.045588
21
469.867646
0
LINE
8
annotation
62
1
39
211
10
383.045588
20
469.867646
11
383.045588
21
469.867646
0
LINE
8
annotation
62
1
39
211
10
383.045588
20
469.867646
11
383.822832
21
470.332212
0
LINE
8
annotation
62
1
39
211
10
383.822832
20
470.332212
11
384.542293
21
470.868550
0
LINE
8
annotation
62
1
39
211
10
384.542293
20
470.868550
11
385.199955
21
471.471135
0
LINE
8
annotation
62
1
39
211
10
385.199955
20
471.471135
11
385.791804
21
472.134440
0
LINE
8
annotation
62
1
39
211
10
385.791804
20
472.134440
11
386.313824
21
472.852939
0
LINE
8
annotation
62
1
39
211
10
386.313824
20
472.852939
11
386.762000
21
473.621105
0
LINE
8
annotation
62
1
39
211
10
386.762000
20
473.621105
11
387.132317
21
474.433413
0
LINE
8
annotation
62
1
39
211
10
387.132317
20
474.433413
11
387.420761
21
475.284335
0
LINE
8
annotation
62
1
39
211
10
387.420761
20
475.284335
11
387.623315
21
476.168347
0
LINE
8
annotation
62
1
39
211
10
387.623315
20
476.168347
11
387.623315
21
476.168347
0
LINE
8
annotation
62
1
39
211
10
387.623315
20
476.168347
11
387.636203
21
476.263051
0
LINE
8
annotation
62
1
39
211
10
387.636203
20
476.263051
11
387.642022
21
476.358318
0
LINE
8
annotation
62
1
39
211
10
387.642022
20
476.358318
11
387.640853
21
476.453602
0
LINE
8
annotation
62
1
39
211
10
387.640853
20
476.453602
11
387.632776
21
476.548354
0
LINE
8
annotation
62
1
39
211
10
387.632776
20
476.548354
11
387.617870
21
476.642028
0
LINE
8
annotation
62
1
39
211
10
387.617870
20
476.642028
11
387.596215
21
476.734077
0
LINE
8
annotation
62
1
39
211
10
387.596215
20
476.734077
11
387.567892
21
476.823953
0
LINE
8
annotation
62
1
39
211
10
387.567892
20
476.823953
11
387.532979
21
476.911111
0
LINE
8
annotation
62
1
39
211
10
387.532979
20
476.911111
11
387.491557
21
476.995002
0
LINE
8
annotation
62
1
39
211
10
387.491557
20
476.995002
11
387.491557
21
476.995002
0
LINE
8
annotation
62
1
39
211
10
387.491557
20
476.995002
11
387.364714
21
477.188489
0
LINE
8
annotation
62
1
39
211
10
387.364714
20
477.188489
11
387.209810
21
477.351992
0
LINE
8
annotation
62
1
39
211
10
387.209810
20
477.351992
11
387.031788
21
477.483941
0
LINE
8
annotation
62
1
39
211
10
387.031788
20
477.483941
11
386.835586
21
477.582768
0
LINE
8
annotation
62
1
39
211
10
386.835586
20
477.582768
11
386.626147
21
477.646904
0
LINE
8
annotation
62
1
39
211
10
386.626147
20
477.646904
11
386.408412
21
477.674781
0
LINE
8
annotation
62
1
39
211
10
386.408412
20
477.674781
11
386.187320
21
477.664828
0
LINE
8
annotation
62
1
39
211
10
386.187320
20
477.664828
11
385.967814
21
477.615478
0
LINE
8
annotation
62
1
39
211
10
385.967814
20
477.615478
11
385.754833
21
477.525162
0
LINE
8
annotation
62
1
39
211
10
385.754833
20
477.525162
11
385.754833
21
477.525162
0
LINE
8
annotation
62
1
39
211
10
385.754833
20
477.525162
11
384.979078
21
477.059727
0
LINE
8
annotation
62
1
39
211
10
384.979078
20
477.059727
11
384.260735
21
476.522736
0
LINE
8
annotation
62
1
39
211
10
384.260735
20
476.522736
11
383.603817
21
475.919716
0
LINE
8
annotation
62
1
39
211
10
383.603817
20
475.919716
11
383.012341
21
475.256194
0
LINE
8
annotation
62
1
39
211
10
383.012341
20
475.256194
11
382.490321
21
474.537695
0
LINE
8
annotation
62
1
39
211
10
382.490321
20
474.537695
11
382.041772
21
473.769746
0
LINE
8
annotation
62
1
39
211
10
382.041772
20
473.769746
11
381.670710
21
472.957873
0
LINE
8
annotation
62
1
39
211
10
381.670710
20
472.957873
11
381.381150
21
472.107603
0
LINE
8
annotation
62
1
39
211
10
381.381150
20
472.107603
11
381.177106
21
471.224461
0
LINE
8
annotation
62
1
39
211
10
381.177106
20
471.224461
11
381.177106
21
471.224461
0
LINE
8
annotation
62
1
39
211
10
381.177106
20
471.224461
11
381.164184
21
471.129989
0
LINE
8
annotation
62
1
39
211
10
381.164184
20
471.129989
11
381.158294
21
471.035269
0
LINE
8
annotation
62
1
39
211
10
381.158294
20
471.035269
11
381.159405
21
470.940624
0
LINE
8
annotation
62
1
39
211
10
381.159405
20
470.940624
11
381.167487
21
470.846377
0
LINE
8
annotation
62
1
39
211
10
381.167487
20
470.846377
11
381.182508
21
470.752849
0
LINE
8
annotation
62
1
39
211
10
381.182508
20
470.752849
11
381.204439
21
470.660365
0
LINE
8
annotation
62
1
39
211
10
381.204439
20
470.660365
11
381.233248
21
470.569247
0
LINE
8
annotation
62
1
39
211
10
381.233248
20
470.569247
11
381.268905
21
470.479818
0
LINE
8
annotation
62
1
39
211
10
381.268905
20
470.479818
11
381.311380
21
470.392400
0
LINE
8
annotation
62
1
39
211
10
368.332850
20
475.293901
11
362.502972
21
475.293901
0
LINE
8
annotation
62
1
39
211
10
362.502972
20
475.293901
11
368.332850
21
485.793475
0
LINE
8
annotation
62
1
39
211
10
368.332850
20
485.793475
11
362.502972
21
485.793475
0
LINE
8
annotation
62
1
39
211
10
378.012165
20
480.543688
11
372.271177
21
480.543688
0
LINE
8
annotation
62
1
39
211
10
386.612422
20
475.293816
11
381.949310
21
475.293816
0
LINE
8
annotation
62
1
39
211
10
381.949310
20
475.293816
11
386.258178
21
482.230541
0
LINE
8
annotation
62
1
39
211
10
386.258178
20
482.230541
11
386.258178
21
482.230541
0
LINE
8
annotation
62
1
39
211
10
386.258178
20
482.230541
11
386.263329
21
482.236915
0
LINE
8
annotation
62
1
39
211
10
386.263329
20
482.236915
11
386.268269
21
482.243343
0
LINE
8
annotation
62
1
39
211
10
386.268269
20
482.243343
11
386.273030
21
482.249880
0
LINE
8
annotation
62
1
39
211
10
386.273030
20
482.249880
11
386.277644
21
482.256579
0
LINE
8
annotation
62
1
39
211
10
386.277644
20
482.256579
11
386.282145
21
482.263495
0
LINE
8
annotation
62
1
39
211
10
386.282145
20
482.263495
11
386.286564
21
482.270682
0
LINE
8
annotation
62
1
39
211
10
386.286564
20
482.270682
11
386.290935
21
482.278194
0
LINE
8
annotation
62
1
39
211
10
386.290935
20
482.278194
11
386.295290
21
482.286085
0
LINE
8
annotation
62
1
39
211
10
386.295290
20
482.286085
11
386.299660
21
482.294410
0
LINE
8
annotation
62
1
39
211
10
386.299660
20
482.294410
11
386.299660
21
482.294410
0
LINE
8
annotation
62
1
39
211
10
386.299660
20
482.294410
11
386.477572
21
482.676402
0
LINE
8
annotation
62
1
39
211
10
386.477572
20
482.676402
11
386.581506
21
483.072371
0
LINE
8
annotation
62
1
39
211
10
386.581506
20
483.072371
11
386.614007
21
483.473369
0
LINE
8
annotation
62
1
39
211
10
386.614007
20
483.473369
11
386.577624
21
483.870449
0
LINE
8
annotation
62
1
39
211
10
386.577624
20
483.870449
11
386.474902
21
484.254663
0
LINE
8
annotation
62
1
39
211
10
386.474902
20
484.254663
11
386.308391
21
484.617065
0
LINE
8
annotation
62
1
39
211
10
386.308391
20
484.617065
11
386.080635
21
484.948706
0
LINE
8
annotation
62
1
39
211
10
386.080635
20
484.948706
11
385.794183
21
485.240641
0
LINE
8
annotation
62
1
39
211
10
385.794183
20
485.240641
11
385.451582
21
485.483921
0
LINE
8
annotation
62
1
39
211
10
385.451582
20
485.483921
11
385.451582
21
485.483921
0
LINE
8
annotation
62
1
39
211
10
385.451582
20
485.483921
11
385.068528
21
485.659305
0
LINE
8
annotation
62
1
39
211
10
385.068528
20
485.659305
11
384.671952
21
485.761636
0
LINE
8
annotation
62
1
39
211
10
384.671952
20
485.761636
11
384.270721
21
485.793219
0
LINE
8
annotation
62
1
39
211
10
384.270721
20
485.793219
11
383.873701
21
485.756356
0
LINE
8
annotation
62
1
39
211
10
383.873701
20
485.756356
11
383.489757
21
485.653351
0
LINE
8
annotation
62
1
39
211
10
383.489757
20
485.653351
11
383.127757
21
485.486506
0
LINE
8
annotation
62
1
39
211
10
383.127757
20
485.486506
11
382.796565
21
485.258124
0
LINE
8
annotation
62
1
39
211
10
382.796565
20
485.258124
11
382.505048
21
484.970510
0
LINE
8
annotation
62
1
39
211
10
382.505048
20
484.970510
11
382.262072
21
484.625966
0
LINE
8
annotation
62
1
39
211
10
382.262072
20
484.625966
11
381.955894
21
484.038632
0
LINE
8
boundary
62
5
39
2
10
345.671310
20
533.176196
11
346.212333
21
532.614038
0
LINE
8
boundary
62
5
39
2
10
346.212333
20
532.614038
11
348.577832
21
530.156131
0
LINE
8
boundary
62
5
39
2
10
348.577832
20
530.156131
11
350.126393
21
528.975713
0
LINE
8
boundary
62
5
39
2
10
350.126393
20
528.975713
11
352.839366
21
526.907701
0
LINE
8
boundary
62
5
39
2
10
352.839366
20
526.907701
11
354.549969
21
525.977506
0
LINE
8
boundary
62
5
39
2
10
354.549969
20
525.977506
11
357.546829
21
524.347868
0
LINE
8
boundary
62
5
39
2
10
357.546829
20
524.347868
11
358.346106
21
524.389183
0
LINE
8
boundary
62
5
39
2
10
358.346106
20
524.389183
11
362.190014
21
536.219517
0
LINE
8
boundary
62
5
39
2
10
362.190014
20
536.219517
11
367.896353
21
534.365415
0
LINE
8
boundary
62
5
39
2
10
367.896353
20
534.365415
11
364.070344
21
522.590169
0
LINE
8
boundary
62
5
39
2
10
364.070344
20
522.590169
11
364.501420
21
522.165900
0
LINE
8
boundary
62
5
39
2
10
364.501420
20
522.165900
11
367.850312
21
521.516418
0
LINE
8
boundary
62
5
39
2
10
367.850312
20
521.516418
11
369.796041
21
521.441836
0
LINE
8
boundary
62
5
39
2
10
369.796041
20
521.441836
11
373.204827
21
521.311174
0
LINE
8
boundary
62
5
39
2
10
373.204827
20
521.311174
11
375.139138
21
521.534481
0
LINE
8
boundary
62
5
39
2
10
375.139138
20
521.534481
11
378.527920
21
521.925701
0
LINE
8
boundary
62
5
39
2
10
378.527920
20
521.925701
11
379.474096
21
522.185715
0
LINE
8
boundary
62
5
39
2
10
379.474096
20
522.185715
11
375.835280
21
534.355658
0
LINE
8
boundary
62
5
39
2
10
375.835280
20
534.355658
11
381.541619
21
536.209760
0
LINE
8
boundary
62
5
39
2
10
381.541619
20
536.209760
11
385.361089
21
524.454641
0
LINE
8
boundary
62
5
39
2
10
385.361089
20
524.454641
11
388.584426
21
525.537563
0
LINE
8
boundary
62
5
39
2
10
388.584426
20
525.537563
11
390.218803
21
526.595975
0
LINE
8
boundary
62
5
39
2
10
390.218803
20
526.595975
11
393.082121
21
528.450242
0
LINE
8
boundary
62
5
39
2
10
393.082121
20
528.450242
11
394.535778
21
529.745736
0
LINE
8
boundary
62
5
39
2
10
394.535778
20
529.745736
11
397.082487
21
532.015355
0
LINE
8
boundary
62
5
39
2
10
397.082487
20
532.015355
11
398.046318
21
533.184068
0
LINE
8
boundary
62
5
39
2
10
398.046318
20
533.184068
11
387.978542
21
540.869556
0
LINE
8
boundary
62
5
39
2
10
387.978542
20
540.869556
11
391.505254
21
545.723658
0
LINE
8
boundary
62
5
39
2
10
391.505254
20
545.723658
11
401.490988
21
538.468597
0
LINE
8
boundary
62
5
39
2
10
401.490988
20
538.468597
11
403.230029
21
540.755298
0
LINE
8
boundary
62
5
39
2
10
403.230029
20
540.755298
11
403.957908
21
542.561292
0
LINE
8
boundary
62
5
39
2
10
403.957908
20
542.561292
11
405.233104
21
545.725271
0
LINE
8
boundary
62
5
39
2
10
405.233104
20
545.725271
11
405.676770
21
547.621210
0
LINE
8
boundary
62
5
39
2
10
405.676770
20
547.621210
11
406.454044
21
550.942767
0
LINE
8
boundary
62
5
39
2
10
406.454044
20
550.942767
11
406.610875
21
552.985492
0
LINE
8
boundary
62
5
39
2
10
406.610875
20
552.985492
11
393.980758
21
553.285492
0
LINE
8
boundary
62
5
39
2
10
393.980758
20
553.285492
11
393.980758
21
559.285492
0
LINE
8
boundary
62
5
39
2
10
393.980758
20
559.285492
11
406.310875
21
559.285492
0
LINE
8
boundary
62
5
39
2
10
406.310875
20
559.285492
11
406.454044
21
561.628217
0
LINE
8
boundary
62
5
39
2
10
406.454044
20
561.628217
11
406.010378
21
563.524156
0
LINE
8
boundary
62
5
39
2
10
406.010378
20
563.524156
11
405.233104
21
566.845713
0
LINE
8
boundary
62
5
39
2
10
405.233104
20
566.845713
11
404.505224
21
568.651707
0
LINE
8
boundary
62
5
39
2
10
404.505224
20
568.651707
11
403.230028
21
571.815687
0
LINE
8
boundary
62
5
39
2
10
403.230028
20
571.815687
11
402.234994
21
573.489404
0
LINE
8
boundary
62
5
39
2
10
402.234994
20
573.489404
11
401.910029
21
574.036018
0
LINE
8
boundary
62
5
39
2
10
401.910029
20
574.036018
11
391.505254
21
566.847326
0
LINE
8
boundary
62
5
39
2
10
391.505254
20
566.847326
11
387.978542
21
571.701428
0
LINE
8
boundary
62
5
39
2
10
387.978542
20
571.701428
11
397.979949
21
578.967875
0
LINE
8
boundary
62
5
39
2
10
397.979949
20
578.967875
11
397.082487
21
580.555630
0
LINE
8
boundary
62
5
39
2
10
397.082487
20
580.555630
11
395.628830
21
581.851124
0
LINE
8
boundary
62
5
39
2
10
395.628830
20
581.851124
11
393.082121
21
584.120742
0
LINE
8
boundary
62
5
39
2
10
393.082121
20
584.120742
11
391.447744
21
585.179154
0
LINE
8
boundary
62
5
39
2
10
391.447744
20
585.179154
11
388.584426
21
587.033422
0
LINE
8
boundary
62
5
39
2
10
388.584426
20
587.033422
11
386.807637
21
587.829943
0
LINE
8
boundary
62
5
39
2
10
386.807637
20
587.829943
11
385.739111
21
588.308955
0
LINE
8
boundary
62
5
39
2
10
385.739111
20
588.308955
11
381.541619
21
576.361224
0
LINE
8
boundary
62
5
39
2
10
381.541619
20
576.361224
11
375.835280
21
578.215326
0
LINE
8
boundary
62
5
39
2
10
375.835280
20
578.215326
11
379.666707
21
590.007248
0
LINE
8
boundary
62
5
39
2
10
379.666707
20
590.007248
11
378.527920
21
590.645283
0
LINE
8
boundary
62
5
39
2
10
378.527920
20
590.645283
11
376.593609
21
590.868591
0
LINE
8
boundary
62
5
39
2
10
376.593609
20
590.868591
11
373.204827
21
591.259811
0
LINE
8
boundary
62
5
39
2
10
373.204827
20
591.259811
11
371.259098
21
591.185229
0
LINE
8
boundary
62
5
39
2
10
371.259098
20
591.185229
11
367.850312
21
591.054567
0
LINE
8
boundary
62
5
39
2
10
367.850312
20
591.054567
11
365.938771
21
590.683844
0
LINE
8
boundary
62
5
39
2
10
365.938771
20
590.683844
11
364.262956
21
590.358837
0
LINE
8
boundary
62
5
39
2
10
364.262956
20
590.358837
11
367.896353
21
578.205570
0
LINE
8
boundary
62
5
39
2
10
367.896353
20
578.205570
11
362.190014
21
576.351468
0
LINE
8
boundary
62
5
39
2
10
362.190014
20
576.351468
11
358.346106
21
588.181802
0
LINE
8
boundary
62
5
39
2
10
358.346106
20
588.181802
11
357.546830
21
588.223117
0
LINE
8
boundary
62
5
39
2
10
357.546830
20
588.223117
11
355.836227
21
587.292922
0
LINE
8
boundary
62
5
39
2
10
355.836227
20
587.292922
11
352.839366
21
585.663284
0
LINE
8
boundary
62
5
39
2
10
352.839366
20
585.663284
11
351.290806
21
584.482866
0
LINE
8
boundary
62
5
39
2
10
351.290806
20
584.482866
11
348.577832
21
582.414854
0
LINE
8
boundary
62
5
39
2
10
348.577832
20
582.414854
11
347.227609
21
581.011885
0
LINE
8
boundary
62
5
39
2
10
347.227609
20
581.011885
11
345.671309
21
579.394788
0
LINE
8
boundary
62
5
39
2
10
345.671309
20
579.394788
11
355.774827
21
571.683333
0
LINE
8
boundary
62
5
39
2
10
355.774827
20
571.683333
11
352.248115
21
566.829231
0
LINE
8
boundary
62
5
39
2
10
352.248115
20
566.829231
11
342.159487
21
574.159049
0
LINE
8
boundary
62
5
39
2
10
342.159487
20
574.159049
11
340.915305
21
572.426170
0
LINE
8
boundary
62
5
39
2
10
340.915305
20
572.426170
11
339.401648
21
569.369090
0
LINE
8
boundary
62
5
39
2
10
339.401648
20
569.369090
11
338.814150
21
567.512676
0
LINE
8
boundary
62
5
39
2
10
338.814150
20
567.512676
11
337.784892
21
564.260365
0
LINE
8
boundary
62
5
39
2
10
337.784892
20
564.260365
11
337.487659
21
562.336027
0
LINE
8
boundary
62
5
39
2
10
337.487659
20
562.336027
11
337.062810
21
559.585492
0
LINE
8
boundary
62
5
39
2
10
337.062810
20
559.585492
11
349.799053
21
559.285492
0
LINE
8
boundary
62
5
39
2
10
349.799053
20
559.285492
11
349.799053
21
553.285492
0
LINE
8
boundary
62
5
39
2
10
349.799053
20
553.285492
11
337.362810
21
553.285492
0
LINE
8
boundary
62
5
39
2
10
337.362810
20
553.285492
11
337.264159
21
551.681930
0
LINE
8
boundary
62
5
39
2
10
337.264159
20
551.681930
11
337.784892
21
548.310620
0
LINE
8
boundary
62
5
39
2
10
337.784892
20
548.310620
11
338.372390
21
546.454206
0
LINE
8
boundary
62
5
39
2
10
338.372390
20
546.454206
11
339.401648
21
543.201895
0
LINE
8
boundary
62
5
39
2
10
339.401648
20
543.201895
11
340.265641
21
541.456919
0
LINE
8
boundary
62
5
39
2
10
340.265641
20
541.456919
11
341.740446
21
538.478305
0
LINE
8
boundary
62
5
39
2
10
341.740446
20
538.478305
11
352.248116
21
545.741753
0
LINE
8
boundary
62
5
39
2
10
352.248116
20
545.741753
11
355.774827
21
540.887652
0
LINE
8
boundary
62
5
39
2
10
355.774827
20
540.887652
11
345.737679
21
533.595237
0
LINE
8
boundary
62
5
39
2
10
345.737679
20
533.595237
11
345.671310
21
533.176196
0
LINE
8
annotation
62
1
39
211
10
383.046956
20
551.485492
11
383.046956
21
561.085492
0
LINE
8
annotation
62
1
39
211
10
383.046956
20
561.085492
11
380.912753
21
558.950687
0
LINE
8
annotation
62
1
39
211
10
384.578793
20
559.589939
11
381.129477
21
557.083864
0
LINE
8
annotation
62
1
39
211
10
381.129477
20
557.083864
11
380.588786
21
564.530674
0
LINE
8
annotation
62
1
39
211
10
380.588786
20
564.530674
11
380.588786
21
564.530674
0
LINE
8
annotation
62
1
39
211
10
380.588786
20
564.530674
11
380.589170
21
564.538157
0
LINE
8
annotation
62
1
39
211
10
380.589170
20
564.538157
11
380.589370
21
564.545566
0
LINE
8
annotation
62
1
39
211
10
380.589370
20
564.545566
11
380.589378
21
564.552960
0
LINE
8
annotation
62
1
39
211
10
380.589378
20
564.552960
11
380.589191
21
564.560395
0
LINE
8
annotation
62
1
39
211
10
380.589191
20
564.560395
11
380.588804
21
564.567930
0
LINE
8
annotation
62
1
39
211
10
380.588804
20
564.567930
11
380.588210
21
564.575621
0
LINE
8
annotation
62
1
39
211
10
380.588210
20
564.575621
11
380.587406
21
564.583527
0
LINE
8
annotation
62
1
39
211
10
380.587406
20
564.583527
11
380.586386
21
564.591704
0
LINE
8
annotation
62
1
39
211
10
380.586386
20
564.591704
11
380.585145
21
564.600211
0
LINE
8
annotation
62
1
39
211
10
380.585145
20
564.600211
11
380.585145
21
564.600211
0
LINE
8
annotation
62
1
39
211
10
380.585145
20
564.600211
11
380.511455
21
564.978387
0
LINE
8
annotation
62
1
39
211
10
380.511455
20
564.978387
11
380.375531
21
565.327142
0
LINE
8
annotation
62
1
39
211
10
380.375531
20
565.327142
11
380.184066
21
565.641228
0
LINE
8
annotation
62
1
39
211
10
380.184066
20
565.641228
11
379.943752
21
565.915396
0
LINE
8
annotation
62
1
39
211
10
379.943752
20
565.915396
11
379.661282
21
566.144395
0
LINE
8
annotation
62
1
39
211
10
379.661282
20
566.144395
11
379.343349
21
566.322977
0
LINE
8
annotation
62
1
39
211
10
379.343349
20
566.322977
11
378.996645
21
566.445892
0
LINE
8
annotation
62
1
39
211
10
378.996645
20
566.445892
11
378.627863
21
566.507890
0
LINE
8
annotation
62
1
39
211
10
378.627863
20
566.507890
11
378.243695
21
566.503722
0
LINE
8
annotation
62
1
39
211
10
378.243695
20
566.503722
11
378.243695
21
566.503722
0
LINE
8
annotation
62
1
39
211
10
378.243695
20
566.503722
11
377.866093
21
566.427591
0
LINE
8
annotation
62
1
39
211
10
377.866093
20
566.427591
11
377.517749
21
566.290156
0
LINE
8
annotation
62
1
39
211
10
377.517749
20
566.290156
11
377.203984
21
566.097886
0
LINE
8
annotation
62
1
39
211
10
377.203984
20
566.097886
11
376.930118
21
565.857250
0
LINE
8
annotation
62
1
39
211
10
376.930118
20
565.857250
11
376.701472
21
565.574715
0
LINE
8
annotation
62
1
39
211
10
376.701472
20
565.574715
11
376.523366
21
565.256751
0
LINE
8
annotation
62
1
39
211
10
376.523366
20
565.256751
11
376.401121
21
564.909826
0
LINE
8
annotation
62
1
39
211
10
376.401121
20
564.909826
11
376.340056
21
564.540408
0
LINE
8
annotation
62
1
39
211
10
376.340056
20
564.540408
11
376.345492
21
564.154967
0
LINE
8
annotation
62
1
39
211
10
376.345492
20
564.154967
11
376.434660
21
563.555967
0
LINE
8
annotation
62
1
39
211
10
378.885898
20
562.363806
11
379.544659
21
564.391264
0
LINE
8
annotation
62
1
39
211
10
379.544659
20
564.391264
11
379.544659
21
564.391264
0
LINE
8
annotation
62
1
39
211
10
379.544659
20
564.391264
11
379.630427
21
564.766535
0
LINE
8
annotation
62
1
39
211
10
379.630427
20
564.766535
11
379.647638
21
565.140283
0
LINE
8
annotation
62
1
39
211
10
379.647638
20
565.140283
11
379.600223
21
565.504921
0
LINE
8
annotation
62
1
39
211
10
379.600223
20
565.504921
11
379.492115
21
565.852861
0
LINE
8
annotation
62
1
39
211
10
379.492115
20
565.852861
11
379.327247
21
566.176517
0
LINE
8
annotation
62
1
39
211
10
379.327247
20
566.176517
11
379.109551
21
566.468301
0
LINE
8
annotation
62
1
39
211
10
379.109551
20
566.468301
11
378.842960
21
566.720626
0
LINE
8
annotation
62
1
39
211
10
378.842960
20
566.720626
11
378.531407
21
566.925905
0
LINE
8
annotation
62
1
39
211
10
378.531407
20
566.925905
11
378.178825
21
567.076552
0
LINE
8
annotation
62
1
39
211
10
378.178825
20
567.076552
11
377.163665
21
567.406397
0
LINE
8
annotation
62
1
39
211
10
377.163665
20
567.406397
11
377.163665
21
567.406397
0
LINE
8
annotation
62
1
39
211
10
377.163665
20
567.406397
11
376.790023
21
567.491715
0
LINE
8
annotation
62
1
39
211
10
376.790023
20
567.491715
11
376.417391
21
567.508741
0
LINE
8
annotation
62
1
39
211
10
376.417391
20
567.508741
11
376.053425
21
567.461296
0
LINE
8
annotation
62
1
39
211
10
376.053425
20
567.461296
11
375.705781
21
567.353203
0
LINE
8
annotation
62
1
39
211
10
375.705781
20
567.353203
11
375.382112
21
567.188282
0
LINE
8
annotation
62
1
39
211
10
375.382112
20
567.188282
11
375.090076
21
566.970357
0
LINE
8
annotation
62
1
39
211
10
375.090076
20
566.970357
11
374.837326
21
566.703248
0
LINE
8
annotation
62
1
39
211
10
374.837326
20
566.703248
11
374.631519
21
566.390779
0
LINE
8
annotation
62
1
39
211
10
374.631519
20
566.390779
11
374.480309
21
566.036770
0
LINE
8
annotation
62
1
39
211
10
374.480309
20
566.036770
11
374.150464
21
565.021610
0
LINE
8
annotation
62
1
39
211
10
374.150464
20
565.021610
11
374.480309
21
566.036770
0
LINE
8
annotation
62
1
39
211
10
374.480309
20
566.036770
11
374.480309
21
566.036770
0
LINE
8
annotation
62
1
39
211
10
374.480309
20
566.036770
11
374.566052
21
566.412050
0
LINE
8
annotation
62
1
39
211
10
374.566052
20
566.412050
11
374.583160
21
566.785832
0
LINE
8
annotation
62
1
39
211
10
374.583160
20
566.785832
11
374.535535
21
567.150538
0
LINE
8
annotation
62
1
39
211
10
374.535535
20
567.150538
11
374.427075
21
567.498593
0
LINE
8
annotation
62
1
39
211
10
374.427075
20
567.498593
11
374.261680
21
567.822419
0
LINE
8
annotation
62
1
39
211
10
374.261680
20
567.822419
11
374.043251
21
568.114442
0
LINE
8
annotation
62
1
39
211
10
374.043251
20
568.114442
11
373.775686
21
568.367083
0
LINE
8
annotation
62
1
39
211
10
373.775686
20
568.367083
11
373.462886
21
568.572768
0
LINE
8
annotation
62
1
39
211
10
373.462886
20
568.572768
11
373.108750
21
568.723919
0
LINE
8
annotation
62
1
39
211
10
373.108750
20
568.723919
11
373.108750
21
568.723919
0
LINE
8
annotation
62
1
39
211
10
373.108750
20
568.723919
11
372.735108
21
568.809237
0
LINE
8
annotation
62
1
39
211
10
372.735108
20
568.809237
11
372.362476
21
568.826263
0
LINE
8
annotation
62
1
39
211
10
372.362476
20
568.826263
11
371.998511
21
568.778818
0
LINE
8
annotation
62
1
39
211
10
371.998511
20
568.778818
11
371.650866
21
568.670724
0
LINE
8
annotation
62
1
39
211
10
371.650866
20
568.670724
11
371.327198
21
568.505804
0
LINE
8
annotation
62
1
39
211
10
371.327198
20
568.505804
11
371.035161
21
568.287878
0
LINE
8
annotation
62
1
39
211
10
371.035161
20
568.287878
11
370.782411
21
568.020770
0
LINE
8
annotation
62
1
39
211
10
370.782411
20
568.020770
11
370.576604
21
567.708300
0
LINE
8
annotation
62
1
39
211
10
370.576604
20
567.708300
11
370.425395
21
567.354292
0
LINE
8
annotation
62
1
39
211
10
370.425395
20
567.354292
11
369.766634
21
565.326835
0
LINE
8
annotation
62
1
39
211
10
370.463493
20
569.223223
11
372.110674
21
564.153721
0
LINE
8
annotation
62
1
39
211
10
372.110674
20
564.153721
11
364.352449
21
563.871257
0
LINE
8
annotation
62
1
39
211
10
372.986986
20
568.363137
11
368.932071
21
567.045616
0
LINE
8
annotation
62
1
39
211
10
368.266676
20
564.832395
11
366.542018
21
566.085433
0
LINE
8
annotation
62
1
39
211
10
366.542018
20
566.085433
11
366.542018
21
566.085433
0
LINE
8
annotation
62
1
39
211
10
366.542018
20
566.085433
11
366.212255
21
566.282497
0
LINE
8
annotation
62
1
39
211
10
366.212255
20
566.282497
11
365.862428
21
566.414070
0
LINE
8
annotation
62
1
39
211
10
365.862428
20
566.414070
11
365.501002
21
566.481468
0
LINE
8
annotation
62
1
39
211
10
365.501002
20
566.481468
11
365.136442
21
566.486007
0
LINE
8
annotation
62
1
39
211
10
365.136442
20
566.486007
11
364.777213
21
566.429002
0
LINE
8
annotation
62
1
39
211
10
364.777213
20
566.429002
11
364.431780
21
566.311769
0
LINE
8
annotation
62
1
39
211
10
364.431780
20
566.311769
11
364.108608
21
566.135625
0
LINE
8
annotation
62
1
39
211
10
364.108608
20
566.135625
11
363.816162
21
565.901884
0
LINE
8
annotation
62
1
39
211
10
363.816162
20
565.901884
11
363.562907
21
565.611864
0
LINE
8
annotation
62
1
39
211
10
363.562907
20
565.611864
11
362.938688
21
564.752701
0
LINE
8
annotation
62
1
39
211
10
362.938688
20
564.752701
11
362.938688
21
564.752701
0
LINE
8
annotation
62
1
39
211
10
362.938688
20
564.752701
11
362.741216
21
564.422382
0
LINE
8
annotation
62
1
39
211
10
362.741216
20
564.422382
11
362.609539
21
564.072451
0
LINE
8
annotation
62
1
39
211
10
362.609539
20
564.072451
11
362.542253
21
563.711286
0
LINE
8
annotation
62
1
39
211
10
362.542253
20
563.711286
11
362.537953
21
563.347262
0
LINE
8
annotation
62
1
39
211
10
362.537953
20
563.347262
11
362.595235
21
562.988756
0
LINE
8
annotation
62
1
39
211
10
362.595235
20
562.988756
11
362.712693
21
562.644145
0
LINE
8
annotation
62
1
39
211
10
362.712693
20
562.644145
11
362.888922
21
562.321804
0
LINE
8
annotation
62
1
39
211
10
362.888922
20
562.321804
11
363.122519
21
562.030111
0
LINE
8
annotation
62
1
39
211
10
363.122519
20
562.030111
11
363.412078
21
561.777440
0
LINE
8
annotation
62
1
39
211
10
363.412078
20
561.777440
11
365.136737
21
560.524403
0
LINE
8
annotation
62
1
39
211
10
365.136737
20
560.524403
11
362.623938
21
557.065832
0
LINE
8
annotation
62
1
39
211
10
362.623938
20
557.065832
11
359.174622
21
559.571907
0
LINE
8
annotation
62
1
39
211
10
360.729845
20
551.485492
11
360.729845
21
551.485492
0
LINE
8
annotation
62
1
39
211
10
360.729845
20
551.485492
11
361.340550
21
551.714470
0
LINE
8
annotation
62
1
39
211
10
361.340550
20
551.714470
11
361.900953
21
552.022990
0
LINE
8
annotation
62
1
39
211
10
361.900953
20
552.022990
11
362.405299
21
552.403323
0
LINE
8
annotation
62
1
39
211
10
362.405299
20
552.403323
11
362.847837
21
552.847739
0
LINE
8
annotation
62
1
39
211
10
362.847837
20
552.847739
11
363.222814
21
553.348508
0
LINE
8
annotation
62
1
39
211
10
363.222814
20
553.348508
11
363.524477
21
553.897901
0
LINE
8
annotation
62
1
39
211
10
363.524477
20
553.897901
11
363.747072
21
554.488187
0
LINE
8
annotation
62
1
39
211
10
363.747072
20
554.488187
11
363.884848
21
555.111637
0
LINE
8
annotation
62
1
39
211
10
363.884848
20
555.111637
11
363.932052
21
555.760520
0
LINE
8
annotation
62
1
39
211
10
363.932052
20
555.760520
11
363.932052
21
558.951289
0
LINE
8
annotation
62
1
39
211
10
363.932052
20
558.951289
11
363.932052
21
558.951289
0
LINE
8
annotation
62
1
39
211
10
363.932052
20
558.951289
11
363.897634
21
559.334780
0
LINE
8
annotation
62
1
39
211
10
363.897634
20
559.334780
11
363.798429
21
559.695776
0
LINE
8
annotation
62
1
39
211
10
363.798429
20
559.695776
11
363.640513
21
560.028235
0
LINE
8
annotation
62
1
39
211
10
363.640513
20
560.028235
11
363.429959
21
560.326119
0
LINE
8
annotation
62
1
39
211
10
363.429959
20
560.326119
11
363.172844
21
560.583386
0
LINE
8
annotation
62
1
39
211
10
363.172844
20
560.583386
11
362.875241
21
560.793997
0
LINE
8
annotation
62
1
39
211
10
362.875241
20
560.793997
11
362.543226
21
560.951912
0
LINE
8
annotation
62
1
39
211
10
362.543226
20
560.951912
11
362.182873
21
561.051091
0
LINE
8
annotation
62
1
39
211
10
362.182873
20
561.051091
11
361.800257
21
561.085492
0
LINE
8
annotation
62
1
39
211
10
361.800257
20
561.085492
11
361.800257
21
561.085492
0
LINE
8
annotation
62
1
39
211
10
361.800257
20
561.085492
11
361.416849
21
561.051091
0
LINE
8
annotation
62
1
39
211
10
361.416849
20
561.051091
11
361.056075
21
560.951912
0
LINE
8
annotation
62
1
39
211
10
361.056075
20
560.951912
11
360.723936
21
560.793997
0
LINE
8
annotation
62
1
39
211
10
360.723936
20
560.793997
11
360.426432
21
560.583386
0
LINE
8
annotation
62
1
39
211
10
360.426432
20
560.583386
11
360.169564
21
560.326119
0
LINE
8
annotation
62
1
39
211
10
360.169564
20
560.326119
11
359.959333
21
560.028235
0
LINE
8
annotation
62
1
39
211
10
359.959333
20
560.028235
11
359.801739
21
559.695776
0
LINE
8
annotation
62
1
39
211
10
359.801739
20
559.695776
11
359.702782
21
559.334780
0
LINE
8
annotation
62
1
39
211
10
359.702782
20
559.334780
11
359.668462
21
558.951289
0
LINE
8
annotation
62
1
39
211
10
359.668462
20
558.951289
11
359.668462
21
557.889305
0
LINE
8
annotation
62
1
39
211
10
359.668462
20
557.889305
11
359.668462
21
557.889305
0
LINE
8
annotation
62
1
39
211
10
359.668462
20
557.889305
11
359.702782
21
557.506000
0
LINE
8
annotation
62
1
39
211
10
359.702782
20
557.506000
11
359.801739
21
557.145503
0
LINE
8
annotation
62
1
39
211
10
359.801739
20
557.145503
11
359.959333
21
556.813764
0
LINE
8
annotation
62
1
39
211
10
359.959333
20
556.813764
11
360.169564
21
556.516735
0
LINE
8
annotation
62
1
39
211
10
360.169564
20
556.516735
11
360.426432
21
556.260367
0
LINE
8
annotation
62
1
39
211
10
360.426432
20
556.260367
11
360.723936
21
556.050611
0
LINE
8
annotation
62
1
39
211
10
360.723936
20
556.050611
11
361.056075
21
555.893417
0
LINE
8
annotation
62
1
39
211
10
361.056075
20
555.893417
11
361.416849
21
555.794736
0
LINE
8
annotation
62
1
39
211
10
361.416849
20
555.794736
11
361.800257
21
555.760520
0
LINE
8
annotation
62
1
39
211
10
361.800257
20
555.760520
11
363.932052
21
555.760520
0
LINE
8
annotation
62
1
39
211
10
364.199053
20
562.285492
11
359.399053
21
562.285492
0
LINE
8
annotation
62
1
39
211
10
360.899280
20
554.252115
11
364.815412
21
545.231099
0
LINE
8
annotation
62
1
39
211
10
364.815412
20
545.231099
11
368.269112
21
547.740359
0
LINE
8
annotation
62
1
39
211
10
362.302614
20
548.689669
11
364.029220
21
549.944122
0
LINE
8
annotation
62
1
39
211
10
366.869758
20
549.559290
11
366.869758
21
549.559290
0
LINE
8
annotation
62
1
39
211
10
366.869758
20
549.559290
11
366.494577
21
549.645004
0
LINE
8
annotation
62
1
39
211
10
366.494577
20
549.645004
11
366.121068
21
549.662055
0
LINE
8
annotation
62
1
39
211
10
366.121068
20
549.662055
11
365.756767
21
549.614380
0
LINE
8
annotation
62
1
39
211
10
365.756767
20
549.614380
11
365.409211
21
549.505919
0
LINE
8
annotation
62
1
39
211
10
365.409211
20
549.505919
11
365.085937
21
549.340610
0
LINE
8
annotation
62
1
39
211
10
365.085937
20
549.340610
11
364.794483
21
549.122391
0
LINE
8
annotation
62
1
39
211
10
364.794483
20
549.122391
11
364.542384
21
548.855201
0
LINE
8
annotation
62
1
39
211
10
364.542384
20
548.855201
11
364.337178
21
548.542979
0
LINE
8
annotation
62
1
39
211
10
364.337178
20
548.542979
11
364.186402
21
548.189664
0
LINE
8
annotation
62
1
39
211
10
364.186402
20
548.189664
11
364.186402
21
548.189664
0
LINE
8
annotation
62
1
39
211
10
364.186402
20
548.189664
11
364.100709
21
547.815201
0
LINE
8
annotation
62
1
39
211
10
364.100709
20
547.815201
11
364.083204
21
547.441991
0
LINE
8
annotation
62
1
39
211
10
364.083204
20
547.441991
11
364.130106
21
547.077651
0
LINE
8
annotation
62
1
39
211
10
364.130106
20
547.077651
11
364.237632
21
546.729795
0
LINE
8
annotation
62
1
39
211
10
364.237632
20
546.729795
11
364.402000
21
546.406042
0
LINE
8
annotation
62
1
39
211
10
364.402000
20
546.406042
11
364.619426
21
546.114007
0
LINE
8
annotation
62
1
39
211
10
364.619426
20
546.114007
11
364.886130
21
545.861306
0
LINE
8
annotation
62
1
39
211
10
364.886130
20
545.861306
11
365.198327
21
545.655557
0
LINE
8
annotation
62
1
39
211
10
365.198327
20
545.655557
11
365.552236
21
545.504376
0
LINE
8
annotation
62
1
39
211
10
365.552236
20
545.504376
11
366.562243
21
545.176204
0
LINE
8
annotation
62
1
39
211
10
366.562243
20
545.176204
11
366.562243
21
545.176204
0
LINE
8
annotation
62
1
39
211
10
366.562243
20
545.176204
11
366.937594
21
545.090414
0
LINE
8
annotation
62
1
39
211
10
366.937594
20
545.090414
11
367.311562
21
545.073163
0
LINE
8
annotation
62
1
39
211
10
367.311562
20
545.073163
11
367.676529
21
545.120553
0
LINE
8
annotation
62
1
39
211
10
367.676529
20
545.120553
11
368.024877
21
545.228689
0
LINE
8
annotation
62
1
39
211
10
368.024877
20
545.228689
11
368.348991
21
545.393673
0
LINE
8
annotation
62
1
39
211
10
368.348991
20
545.393673
11
368.641252
21
545.611609
0
LINE
8
annotation
62
1
39
211
10
368.641252
20
545.611609
11
368.894044
21
545.878599
0
LINE
8
annotation
62
1
39
211
10
368.894044
20
545.878599
11
369.099750
21
546.190748
0
LINE
8
annotation
62
1
39
211
10
369.099750
20
546.190748
11
369.250751
21
546.544157
0
LINE
8
annotation
62
1
39
211
10
369.250751
20
546.544157
11
369.250751
21
546.544157
0
LINE
8
annotation
62
1
39
211
10
369.250751
20
546.544157
11
369.336298
21
546.918834
0
LINE
8
annotation
62
1
39
211
10
369.336298
20
546.918834
11
369.353308
21
547.292293
0
LINE
8
annotation
62
1
39
211
10
369.353308
20
547.292293
11
369.305667
21
547.656900
0
LINE
8
annotation
62
1
39
211
10
369.305667
20
547.656900
11
369.197261
21
548.005020
0
LINE
8
annotation
62
1
39
211
10
369.197261
20
548.005020
11
369.031975
21
548.329020
0
LINE
8
annotation
62
1
39
211
10
369.031975
20
548.329020
11
368.813697
21
548.621264
0
LINE
8
annotation
62
1
39
211
10
368.813697
20
548.621264
11
368.546312
21
548.874118
0
LINE
8
annotation
62
1
39
211
10
368.546312
20
548.874118
11
368.233706
21
549.079948
0
LINE
8
annotation
62
1
39
211
10
368.233706
20
549.079948
11
367.879765
21
549.231119
0
LINE
8
annotation
62
1
39
211
10
367.879765
20
549.231119
11
366.869758
21
549.559290
0
LINE
8
annotation
62
1
39
211
10
370.622311
20
543.857008
11
370.622311
21
543.857008
0
LINE
8
annotation
62
1
39
211
10
370.622311
20
543.857008
11
370.995977
21
543.771765
0
LINE
8
annotation
62
1
39
211
10
370.995977
20
543.771765
11
371.368670
21
543.754928
0
LINE
8
annotation
62
1
39
211
10
371.368670
20
543.754928
11
371.732716
21
543.802618
0
LINE
8
annotation
62
1
39
211
10
371.732716
20
543.802618
11
372.080440
21
543.910957
0
LINE
8
annotation
62
1
39
211
10
372.080440
20
543.910957
11
372.404170
21
544.076066
0
LINE
8
annotation
62
1
39
211
10
372.404170
20
544.076066
11
372.696231
21
544.294067
0
LINE
8
annotation
62
1
39
211
10
372.696231
20
544.294067
11
372.948950
21
544.561081
0
LINE
8
annotation
62
1
39
211
10
372.948950
20
544.561081
11
373.154653
21
544.873230
0
LINE
8
annotation
62
1
39
211
10
373.154653
20
544.873230
11
373.305666
21
545.226635
0
LINE
8
annotation
62
1
39
211
10
373.305666
20
545.226635
11
373.305666
21
545.226635
0
LINE
8
annotation
62
1
39
211
10
373.305666
20
545.226635
11
373.391220
21
545.601310
0
LINE
8
annotation
62
1
39
211
10
373.391220
20
545.601310
11
373.408279
21
545.974753
0
LINE
8
annotation
62
1
39
211
10
373.408279
20
545.974753
11
373.360772
21
546.339316
0
LINE
8
annotation
62
1
39
211
10
373.360772
20
546.339316
11
373.252628
21
546.687352
0
LINE
8
annotation
62
1
39
211
10
373.252628
20
546.687352
11
373.087774
21
547.011211
0
LINE
8
annotation
62
1
39
211
10
373.087774
20
547.011211
11
372.870139
21
547.303246
0
LINE
8
annotation
62
1
39
211
10
372.870139
20
547.303246
11
372.603651
21
547.555809
0
LINE
8
annotation
62
1
39
211
10
372.603651
20
547.555809
11
372.292240
21
547.761251
0
LINE
8
annotation
62
1
39
211
10
372.292240
20
547.761251
11
371.939832
21
547.911923
0
LINE
8
annotation
62
1
39
211
10
371.939832
20
547.911923
11
371.939832
21
547.911923
0
LINE
8
annotation
62
1
39
211
10
371.939832
20
547.911923
11
371.564455
21
547.997701
0
LINE
8
annotation
62
1
39
211
10
371.564455
20
547.997701
11
371.190420
21
548.014923
0
LINE
8
annotation
62
1
39
211
10
371.190420
20
548.014923
11
370.825357
21
547.967495
0
LINE
8
annotation
62
1
39
211
10
370.825357
20
547.967495
11
370.476898
21
547.859328
0
LINE
8
annotation
62
1
39
211
10
370.476898
20
547.859328
11
370.152674
21
547.694327
0
LINE
8
annotation
62
1
39
211
10
370.152674
20
547.694327
11
369.860316
21
547.476402
0
LINE
8
annotation
62
1
39
211
10
369.860316
20
547.476402
11
369.607456
21
547.209460
0
LINE
8
annotation
62
1
39
211
10
369.607456
20
547.209460
11
369.401724
21
546.897409
0
LINE
8
annotation
62
1
39
211
10
369.401724
20
546.897409
11
369.250751
21
546.544157
0
LINE
8
annotation
62
1
39
211
10
369.250751
20
546.544157
11
369.250751
21
546.544157
0
LINE
8
annotation
62
1
39
211
10
369.250751
20
546.544157
11
369.165254
21
546.169631
0
LINE
8
annotation
62
1
39
211
10
369.165254
20
546.169631
11
369.148276
21
545.796250
0
LINE
8
annotation
62
1
39
211
10
369.148276
20
545.796250
11
369.195940
21
545.431662
0
LINE
8
annotation
62
1
39
211
10
369.195940
20
545.431662
11
369.304369
21
545.083513
0
LINE
8
annotation
62
1
39
211
10
369.304369
20
545.083513
11
369.469687
21
544.759450
0
LINE
8
annotation
62
1
39
211
10
369.469687
20
544.759450
11
369.688017
21
544.467122
0
LINE
8
annotation
62
1
39
211
10
369.688017
20
544.467122
11
369.955482
21
544.214174
0
LINE
8
annotation
62
1
39
211
10
369.955482
20
544.214174
11
370.268205
21
544.008254
0
LINE
8
annotation
62
1
39
211
10
370.268205
20
544.008254
11
370.622311
21
543.857008
0
LINE
8
annotation
62
1
39
211
10
370.084957
20
546.228411
11
370.084957
21
546.228411
0
LINE
8
annotation
62
1
39
211
10
370.084957
20
546.228411
11
370.489402
21
545.718820
0
LINE
8
annotation
62
1
39
211
10
370.489402
20
545.718820
11
370.954361
21
545.281533
0
LINE
8
annotation
62
1
39
211
10
370.954361
20
545.281533
11
371.470604
21
544.919631
0
LINE
8
annotation
62
1
39
211
10
371.470604
20
544.919631
11
372.028905
21
544.636196
0
LINE
8
annotation
62
1
39
211
10
372.028905
20
544.636196
11
372.620035
21
544.434310
0
LINE
8
annotation
62
1
39
211
10
372.620035
20
544.434310
11
373.234767
21
544.317054
0
LINE
8
annotation
62
1
39
211
10
373.234767
20
544.317054
11
373.863872
21
544.287511
0
LINE
8
annotation
62
1
39
211
10
373.863872
20
544.287511
11
374.498123
21
544.348761
0
LINE
8
annotation
62
1
39
211
10
374.498123
20
544.348761
11
375.128292
21
544.503888
0
LINE
8
annotation
62
1
39
211
10
375.128292
20
544.503888
11
378.173199
21
545.493238
0
LINE
8
annotation
62
1
39
211
10
378.173199
20
545.493238
11
378.173199
21
545.493238
0
LINE
8
annotation
62
1
39
211
10
378.173199
20
545.493238
11
378.527336
21
545.644389
0
LINE
8
annotation
62
1
39
211
10
378.527336
20
545.644389
11
378.840136
21
545.850074
0
LINE
8
annotation
62
1
39
211
10
378.840136
20
545.850074
11
379.107700
21
546.102715
0
LINE
8
annotation
62
1
39
211
10
379.107700
20
546.102715
11
379.326130
21
546.394738
0
LINE
8
annotation
62
1
39
211
10
379.326130
20
546.394738
11
379.491524
21
546.718564
0
LINE
8
annotation
62
1
39
211
10
379.491524
20
546.718564
11
379.599984
21
547.066619
0
LINE
8
annotation
62
1
39
211
10
379.599984
20
547.066619
11
379.647609
21
547.431325
0
LINE
8
annotation
62
1
39
211
10
379.647609
20
547.431325
11
379.630501
21
547.805107
0
LINE
8
annotation
62
1
39
211
10
379.630501
20
547.805107
11
379.544759
21
548.180387
0
LINE
8
annotation
62
1
39
211
10
379.544759
20
548.180387
11
379.544759
21
548.180387
0
LINE
8
annotation
62
1
39
211
10
379.544759
20
548.180387
11
379.393786
21
548.533639
0
LINE
8
annotation
62
1
39
211
10
379.393786
20
548.533639
11
379.188054
21
548.845690
0
LINE
8
annotation
62
1
39
211
10
379.188054
20
548.845690
11
378.935194
21
549.112632
0
LINE
8
annotation
62
1
39
211
10
378.935194
20
549.112632
11
378.642836
21
549.330557
0
LINE
8
annotation
62
1
39
211
10
378.642836
20
549.330557
11
378.318612
21
549.495557
0
LINE
8
annotation
62
1
39
211
10
378.318612
20
549.495557
11
377.970153
21
549.603725
0
LINE
8
annotation
62
1
39
211
10
377.970153
20
549.603725
11
377.605090
21
549.651152
0
LINE
8
annotation
62
1
39
211
10
377.605090
20
549.651152
11
377.231055
21
549.633931
0
LINE
8
annotation
62
1
39
211
10
377.231055
20
549.633931
11
376.855678
21
549.548153
0
LINE
8
annotation
62
1
39
211
10
376.855678
20
549.548153
11
375.840518
21
549.218308
0
LINE
8
annotation
62
1
39
211
10
375.840518
20
549.218308
11
375.840518
21
549.218308
0
LINE
8
annotation
62
1
39
211
10
375.840518
20
549.218308
11
375.486432
21
549.067069
0
LINE
8
annotation
62
1
39
211
10
375.486432
20
549.067069
11
375.173761
21
548.861166
0
LINE
8
annotation
62
1
39
211
10
375.173761
20
548.861166
11
374.906372
21
548.608242
0
LINE
8
annotation
62
1
39
211
10
374.906372
20
548.608242
11
374.688133
21
548.315943
0
LINE
8
annotation
62
1
39
211
10
374.688133
20
548.315943
11
374.522910
21
547.991912
0
LINE
8
annotation
62
1
39
211
10
374.522910
20
547.991912
11
374.414571
21
547.643792
0
LINE
8
annotation
62
1
39
211
10
374.414571
20
547.643792
11
374.366983
21
547.279229
0
LINE
8
annotation
62
1
39
211
10
374.366983
20
547.279229
11
374.384014
21
546.905865
0
LINE
8
annotation
62
1
39
211
10
374.384014
20
546.905865
11
374.469531
21
546.531345
0
LINE
8
annotation
62
1
39
211
10
374.469531
20
546.531345
11
375.128292
21
544.503888
0
LINE
8
annotation
62
1
39
211
10
368.532266
20
547.123821
11
370.015547
21
542.558750
0
LINE
8
annotation
62
1
39
211
10
375.096521
20
548.229281
11
380.524976
21
555.700909
0
LINE
8
annotation
62
1
39
211
10
380.524976
20
555.700909
11
377.656782
21
555.246217
0
LINE
8
annotation
62
1
39
211
10
379.169892
20
545.420380
11
379.169892
21
545.420380
0
LINE
8
annotation
62
1
39
211
10
379.169892
20
545.420380
11
379.296379
21
545.229301
0
LINE
8
annotation
62
1
39
211
10
379.296379
20
545.229301
11
379.451039
21
545.067658
0
LINE
8
annotation
62
1
39
211
10
379.451039
20
545.067658
11
379.628893
21
544.937062
0
LINE
8
annotation
62
1
39
211
10
379.628893
20
544.937062
11
379.824959
21
544.839123
0
LINE
8
annotation
62
1
39
211
10
379.824959
20
544.839123
11
380.034254
21
544.775450
0
LINE
8
annotation
62
1
39
211
10
380.034254
20
544.775450
11
380.251797
21
544.747653
0
LINE
8
annotation
62
1
39
211
10
380.251797
20
544.747653
11
380.472607
21
544.757344
0
LINE
8
annotation
62
1
39
211
10
380.472607
20
544.757344
11
380.691702
21
544.806132
0
LINE
8
annotation
62
1
39
211
10
380.691702
20
544.806132
11
380.904100
21
544.895626
0
LINE
8
annotation
62
1
39
211
10
380.904100
20
544.895626
11
380.904100
21
544.895626
0
LINE
8
annotation
62
1
39
211
10
380.904100
20
544.895626
11
381.681344
21
545.360192
0
LINE
8
annotation
62
1
39
211
10
381.681344
20
545.360192
11
382.400805
21
545.896530
0
LINE
8
annotation
62
1
39
211
10
382.400805
20
545.896530
11
383.058467
21
546.499115
0
LINE
8
annotation
62
1
39
211
10
383.058467
20
546.499115
11
383.650316
21
547.162420
0
LINE
8
annotation
62
1
39
211
10
383.650316
20
547.162420
11
384.172336
21
547.880919
0
LINE
8
annotation
62
1
39
211
10
384.172336
20
547.880919
11
384.620512
21
548.649085
0
LINE
8
annotation
62
1
39
211
10
384.620512
20
548.649085
11
384.990829
21
549.461393
0
LINE
8
annotation
62
1
39
211
10
384.990829
20
549.461393
11
385.279273
21
550.312316
0
LINE
8
annotation
62
1
39
211
10
385.279273
20
550.312316
11
385.481827
21
551.196327
0
LINE
8
annotation
62
1
39
211
10
385.481827
20
551.196327
11
385.481827
21
551.196327
0
LINE
8
annotation
62
1
39
211
10
385.481827
20
551.196327
11
385.494715
21
551.291031
0
LINE
8
annotation
62
1
39
211
10
385.494715
20
551.291031
11
385.500534
21
551.386299
0
LINE
8
annotation
62
1
39
211
10
385.500534
20
551.386299
11
385.499365
21
551.481582
0
LINE
8
annotation
62
1
39
211
10
385.499365
20
551.481582
11
385.491288
21
551.576334
0
LINE
8
annotation
62
1
39
211
10
385.491288
20
551.576334
11
385.476382
21
551.670008
0
LINE
8
annotation
62
1
39
211
10
385.476382
20
551.670008
11
385.454727
21
551.762057
0
LINE
8
annotation
62
1
39
211
10
385.454727
20
551.762057
11
385.426404
21
551.851934
0
LINE
8
annotation
62
1
39
211
10
385.426404
20
551.851934
11
385.391491
21
551.939091
0
LINE
8
annotation
62
1
39
211
10
385.391491
20
551.939091
11
385.350069
21
552.022982
0
LINE
8
annotation
62
1
39
211
10
385.350069
20
552.022982
11
385.350069
21
552.022982
0
LINE
8
annotation
62
1
39
211
10
385.350069
20
552.022982
11
385.223226
21
552.216470
0
LINE
8
annotation
62
1
39
211
10
385.223226
20
552.216470
11
385.068322
21
552.379973
0
LINE
8
annotation
62
1
39
211
10
385.068322
20
552.379973
11
384.890300
21
552.511922
0
LINE
8
annotation
62
1
39
211
10
384.890300
20
552.511922
11
384.694098
21
552.610749
0
LINE
8
annotation
62
1
39
211
10
384.694098
20
552.610749
11
384.484660
21
552.674885
0
LINE
8
annotation
62
1
39
211
10
384.484660
20
552.674885
11
384.266924
21
552.702761
0
LINE
8
annotation
62
1
39
211
10
384.266924
20
552.702761
11
384.045833
21
552.692808
0
LINE
8
annotation
62
1
39
211
10
384.045833
20
552.692808
11
383.826326
21
552.643459
0
LINE
8
annotation
62
1
39
211
10
383.826326
20
552.643459
11
383.613346
21
552.553143
0
LINE
8
annotation
62
1
39
211
10
383.613346
20
552.553143
11
383.613346
21
552.553143
0
LINE
8
annotation
62
1
39
211
10
383.613346
20
552.553143
11
382.837591
21
552.087707
0
LINE
8
annotation
62
1
39
211
10
382.837591
20
552.087707
11
382.119247
21
551.550716
0
LINE
8
annotation
62
1
39
211
10
382.119247
20
551.550716
11
381.462329
21
550.947696
0
LINE
8
annotation
62
1
39
211
10
381.462329
20
550.947696
11
380.870853
21
550.284174
0
LINE
8
annotation
62
1
39
211
10
380.870853
20
550.284174
11
380.348833
21
549.565675
0
LINE
8
annotation
62
1
39
211
10
380.348833
20
549.565675
11
379.900284
21
548.797726
0
LINE
8
annotation
62
1
39
211
10
379.900284
20
548.797726
11
379.529222
21
547.985853
0
LINE
8
annotation
62
1
39
211
10
379.529222
20
547.985853
11
379.239662
21
547.135583
0
LINE
8
annotation
62
1
39
211
10
379.239662
20
547.135583
11
379.035619
21
546.252442
0
LINE
8
annotation
62
1
39
211
10
379.035619
20
546.252442
11
379.035619
21
546.252442
0
LINE
8
annotation
62
1
39
211
10
379.035619
20
546.252442
11
379.022696
21
546.157970
0
LINE
8
annotation
62
1
39
211
10
379.022696
20
546.157970
11
379.016806
21
546.063250
0
LINE
8
annotation
62
1
39
211
10
379.016806
20
546.063250
11
379.017917
21
545.968605
0
LINE
8
annotation
62
1
39
211
10
379.017917
20
545.968605
11
379.025999
21
545.874357
0
LINE
8
annotation
62
1
39
211
10
379.025999
20
545.874357
11
379.041020
21
545.780830
0
LINE
8
annotation
62
1
39
211
10
379.041020
20
545.780830
11
379.062951
21
545.688346
0
LINE
8
annotation
62
1
39
211
10
379.062951
20
545.688346
11
379.091760
21
545.597228
0
LINE
8
annotation
62
1
39
211
10
379.091760
20
545.597228
11
379.127417
21
545.507798
0
LINE
8
annotation
62
1
39
211
10
379.127417
20
545.507798
11
379.169892
21
545.420380
0
LINE
8
annotation
62
1
39
211
10
365.966550
20
552.341743
11
360.373188
21
552.341743
0
LINE
8
annotation
62
1
39
211
10
360.373188
20
552.341743
11
365.966550
21
562.415355
0
LINE
8
annotation
62
1
39
211
10
365.966550
20
562.415355
11
360.373188
21
562.415355
0
LINE
8
annotation
62
1
39
211
10
375.253180
20
557.378549
11
369.745102
21
557.378549
0
LINE
8
annotation
62
1
39
211
10
381.269645
20
552.341743
11
381.269645
21
562.415355
0
LINE
8
annotation
62
1
39
211
10
381.269645
20
562.415355
11
379.030153
21
560.175230
0
LINE
8
frame
62
5
39
2
10
0.000000
20
0.000000
11
457.000000
21
0.000000
0
LINE
8
frame
62
5
39
2
10
457.000000
20
0.000000
11
457.000000
21
812.000000
0
LINE
8
frame
62
5
39
2
10
457.000000
20
812.000000
11
0.000000
21
812.000000
0
LINE
8
frame
62
5
39
2
10
0.000000
20
812.000000
11
0.000000
21
0.000000
0
ENDSEC
0
EOF
